<svg xmlns="http://www.w3.org/2000/svg" viewBox="0 0 1958.26 1839.75"><polyline points="1361.37 1190.14 1129.82 1401.98 1129.82 1445.53" fill="none" stroke="#000054" stroke-linecap="round" stroke-linejoin="round" stroke-width="6"/><polyline points="1543.5 1195.23 1769.82 1401.98 1769.82 1460.25" fill="none" stroke="#000054" stroke-linecap="round" stroke-linejoin="round" stroke-width="6"/><polyline points="1389.27 1195.23 1271 1401.98 1271 1456.76" fill="none" stroke="#000054" stroke-linecap="round" stroke-linejoin="round" stroke-width="6"/><polyline points="1510.36 1195.23 1656.62 1401.98 1656.62 1467" fill="none" stroke="#000054" stroke-linecap="round" stroke-linejoin="round" stroke-width="6"/><polyline points="1422.94 1195.23 1389.35 1401.98 1389.35 1444.61" fill="none" stroke="#000054" stroke-linecap="round" stroke-linejoin="round" stroke-width="6"/><polyline points="1477.22 1195.23 1543.42 1401.98 1543.42 1473.75" fill="none" stroke="#000054" stroke-linecap="round" stroke-linejoin="round" stroke-width="6"/><line x1="750.06" y1="760.67" x2="750.06" y2="1015.43" fill="none" stroke="#000054" stroke-linecap="round" stroke-miterlimit="10" stroke-width="6"/><line x1="1346.49" y1="1157.34" x2="992.95" y2="1157.34" fill="none" stroke="#000054" stroke-linecap="round" stroke-miterlimit="10" stroke-width="6"/><line x1="370.98" y1="505.92" x2="188.06" y2="505.92" fill="none" stroke="#000054" stroke-linecap="round" stroke-miterlimit="10" stroke-width="6"/><line x1="760.9" y1="607.17" x2="1160.2" y2="392.79" fill="none" stroke="#000054" stroke-linecap="round" stroke-miterlimit="10" stroke-width="6"/><line x1="526.52" y1="289.01" x2="526.52" y2="478.22" fill="none" stroke="#000054" stroke-linecap="round" stroke-miterlimit="10" stroke-width="6"/><line x1="840.75" y1="376.86" x2="1225.92" y2="579.58" fill="none" stroke="#000054" stroke-linecap="round" stroke-miterlimit="10" stroke-width="6"/><line x1="207.23" y1="347.66" x2="734.31" y2="625.67" fill="none" stroke="#000054" stroke-linecap="round" stroke-miterlimit="10" stroke-width="6"/><path d="M1266,278.32H1089a9.93,9.93,0,0,0-9.9,9.9V398.74a8.18,8.18,0,0,0,8.18,8.18h70.13v11.14h-27.29a5.56,5.56,0,0,0,0,11.11h94.74a5.56,5.56,0,1,0,0-11.11h-27.29V406.92h68.11a10.2,10.2,0,0,0,10.2-10.2V288.22h0A9.89,9.89,0,0,0,1266,278.32Zm-.28,118.43H1089.28V290.44a1.93,1.93,0,0,1,1.93-1.93h172.58a1.92,1.92,0,0,1,1.92,1.93Z" transform="translate(-15.98 -18.43)" fill="#7d7d7d"/><path d="M1426.41,490.75h-177a9.91,9.91,0,0,0-9.89,9.9V611.17a8.18,8.18,0,0,0,8.18,8.18h70.13v11.14h-27.29a5.56,5.56,0,1,0,0,11.11h94.74a5.56,5.56,0,0,0,0-11.11H1358V619.35h68.1a10.21,10.21,0,0,0,10.21-10.21V500.65h0A9.89,9.89,0,0,0,1426.41,490.75Zm-.28,118.43H1249.7V502.87a1.92,1.92,0,0,1,1.93-1.93H1424.2a1.93,1.93,0,0,1,1.93,1.93Z" transform="translate(-15.98 -18.43)" fill="#7d7d7d"/><path d="M963,246H786a9.91,9.91,0,0,0-9.89,9.89V366.4a8.18,8.18,0,0,0,8.18,8.18h70.13v11.13H827.13a5.56,5.56,0,1,0,0,11.11h94.74a5.56,5.56,0,0,0,0-11.11H894.58V374.58h68.1a10.21,10.21,0,0,0,10.21-10.21V255.87h0A9.88,9.88,0,0,0,963,246Zm-.28,118.42H786.29V258.09a1.92,1.92,0,0,1,1.93-1.93H960.79a1.93,1.93,0,0,1,1.93,1.93Z" transform="translate(-15.98 -18.43)" fill="#7d7d7d"/><path d="M534.68,303.54H467.49v-4h65.28Z" transform="translate(-15.98 -18.43)" fill="#00cefa"/><path d="M631.53,299.55v4h-67.2l1.92-4Z" transform="translate(-15.98 -18.43)" fill="#00cefa"/><path d="M623.28,192.35H475.74a8.27,8.27,0,0,0-8.25,8.25v99h65.28l2.71,10.55h28l2.72-10.55h65.27v-99h0A8.24,8.24,0,0,0,623.28,192.35ZM623,291.07H476V202.45a1.61,1.61,0,0,1,1.6-1.61H621.44a1.61,1.61,0,0,1,1.6,1.61Z" transform="translate(-15.98 -18.43)" fill="#000054"/><path d="M645.16,302.22v2.63a9.92,9.92,0,0,1-9.93,9.93H463.78a9.92,9.92,0,0,1-9.92-9.93v-2.63a2.67,2.67,0,0,1,2.67-2.67h76.25l2.71,5.7h28.06l2.71-5.7h76.25A2.68,2.68,0,0,1,645.16,302.22Z" transform="translate(-15.98 -18.43)" fill="#000054"/><path d="M635.23,316H463.78a11.12,11.12,0,0,1-11.11-11.11v-2.63a3.86,3.86,0,0,1,3.86-3.85h77l2.72,5.7H562.8l2.71-5.7h77a3.85,3.85,0,0,1,3.83,3.85v2.63A11.12,11.12,0,0,1,635.23,316Zm-178.7-15.22a1.49,1.49,0,0,0-1.49,1.48v2.63a8.75,8.75,0,0,0,8.74,8.74H635.22a8.75,8.75,0,0,0,8.75-8.74v-2.63a1.49,1.49,0,0,0-1.47-1.48H567l-2.72,5.7H534.74l-2.71-5.7Z" transform="translate(-15.98 -18.43)" fill="#fff"/><path d="M240.58,357.61h-67.2v-4h65.28Z" transform="translate(-15.98 -18.43)" fill="#00cefa"/><path d="M337.42,353.62v4H270.23l1.91-4Z" transform="translate(-15.98 -18.43)" fill="#00cefa"/><path d="M329.17,246.42H181.63a8.26,8.26,0,0,0-8.25,8.25v98.94h65.28l2.71,10.56h28.06l2.71-10.56h65.28V254.67h0A8.24,8.24,0,0,0,329.17,246.42Zm-.23,98.72H181.87V256.51a1.61,1.61,0,0,1,1.61-1.6H327.33a1.61,1.61,0,0,1,1.61,1.6Z" transform="translate(-15.98 -18.43)" fill="#000054"/><path d="M351.05,356.29v2.63a9.93,9.93,0,0,1-9.92,9.93H169.68a9.94,9.94,0,0,1-9.93-9.93v-2.63a2.68,2.68,0,0,1,2.67-2.67h76.25l2.71,5.7h28.06l2.71-5.7H348.4A2.67,2.67,0,0,1,351.05,356.29Z" transform="translate(-15.98 -18.43)" fill="#000054"/><path d="M341.13,370H169.68a11.12,11.12,0,0,1-11.11-11.11v-2.63a3.86,3.86,0,0,1,3.85-3.85h77l2.71,5.7h26.56l2.72-5.7h77a3.86,3.86,0,0,1,3.84,3.85v2.63A11.12,11.12,0,0,1,341.13,370ZM162.42,354.81a1.48,1.48,0,0,0-1.48,1.48v2.63a8.75,8.75,0,0,0,8.74,8.74H341.12a8.75,8.75,0,0,0,8.75-8.74v-2.63a1.48,1.48,0,0,0-1.48-1.48H272.9l-2.71,5.7H240.64l-2.72-5.7Z" transform="translate(-15.98 -18.43)" fill="#fff"/><path d="M98,521.19H30.79v-4H96.07Z" transform="translate(-15.98 -18.43)" fill="#00cefa"/><path d="M194.83,517.2v4H127.64l1.91-4Z" transform="translate(-15.98 -18.43)" fill="#00cefa"/><path d="M186.58,410H39a8.27,8.27,0,0,0-8.25,8.25v99H96.07l2.72,10.55h28.05l2.71-10.55h65.28v-99h0A8.24,8.24,0,0,0,186.58,410Zm-.23,98.72H39.28V420.1a1.61,1.61,0,0,1,1.61-1.61H184.74a1.61,1.61,0,0,1,1.61,1.61Z" transform="translate(-15.98 -18.43)" fill="#000054"/><path d="M208.46,519.88v2.63a9.92,9.92,0,0,1-9.92,9.92H27.09a9.93,9.93,0,0,1-9.93-9.92v-2.63a2.67,2.67,0,0,1,2.67-2.67H96.08l2.72,5.7h28.05l2.72-5.7h76.24A2.67,2.67,0,0,1,208.46,519.88Z" transform="translate(-15.98 -18.43)" fill="#000054"/><path d="M198.54,533.62H27.09A11.12,11.12,0,0,1,16,522.51v-2.63A3.86,3.86,0,0,1,19.83,516h77l2.71,5.7H126.1l2.72-5.7h77a3.86,3.86,0,0,1,3.84,3.86v2.63A11.12,11.12,0,0,1,198.54,533.62ZM19.83,518.39a1.49,1.49,0,0,0-1.48,1.49v2.63a8.75,8.75,0,0,0,8.74,8.73H198.53a8.75,8.75,0,0,0,8.75-8.73v-2.63a1.49,1.49,0,0,0-1.48-1.49H130.31l-2.71,5.7H98.05l-2.72-5.7Z" transform="translate(-15.98 -18.43)" fill="#fff"/><ellipse cx="745.37" cy="649.17" rx="97.8" ry="68.57" fill="#fff" stroke="#000054" stroke-miterlimit="10" stroke-width="6"/><path d="M663.55,660.2v45.71c0,37.87,43.79,68.57,97.8,68.57s97.8-30.7,97.8-68.57V667.6" transform="translate(-15.98 -18.43)" fill="none" stroke="#000054" stroke-miterlimit="10" stroke-width="6"/><path d="M797.74,680.68c2.48-1.75,4.81-3.34,7.06-5,.43-.31.8-.87.7-1.25s-1-.51-1.57-.56q-14.73-1.35-29.48-2.62c-2.75-.24-3.5.32-3.25,2.27.92,6.88,1.83,13.75,2.79,20.63a5.24,5.24,0,0,0,.73,1.43,11.18,11.18,0,0,0,1.85-.78c2.38-1.61,4.69-3.27,7.15-5l1.6,1.12L806.84,706c1.73,1.21,2.2,1.24,4,0q4.92-3.39,9.77-6.85c1.5-1.07,1.46-1.44-.09-2.53l-21.27-14.92Zm-57-40-1.5-1-21.38-15c-1.48-1-2-1-3.46,0-3.35,2.33-6.69,4.66-10,7-1.56,1.1-1.53,1.44,0,2.51l21.75,15.26,1.5,1.05c-2.53,1.78-4.89,3.4-7.2,5.07a5.81,5.81,0,0,0-1,1.23,8.11,8.11,0,0,0,1.83.53q14.78,1,29.57,2c2.9.19,3.63-.29,3.28-2.33-1.13-6.49-2.29-13-3.54-19.44a10.08,10.08,0,0,0-1.58-2.61Z" transform="translate(-15.98 -18.43)" fill="#000054"/><path d="M797.74,680.68l1.5,1.05,21.27,14.92c1.55,1.09,1.59,1.46.09,2.53q-4.85,3.45-9.77,6.85c-1.79,1.24-2.26,1.21-4,0l-21.52-15.09-1.6-1.12c-2.46,1.72-4.77,3.38-7.15,5a11.18,11.18,0,0,1-1.85.78,5.24,5.24,0,0,1-.73-1.43c-1-6.88-1.87-13.75-2.79-20.63-.25-1.95.5-2.51,3.25-2.27q14.74,1.28,29.48,2.62c.58,0,1.51.31,1.57.56s-.27.94-.7,1.25C802.55,677.34,800.22,678.93,797.74,680.68Z" transform="translate(-15.98 -18.43)" fill="#000054"/><path d="M801.89,647.07l-1.44,1L778.7,663.33c-1.62,1.14-2,1.16-3.7,0q-5-3.45-9.89-6.93c-1.55-1.1-1.53-1.37.08-2.51l21.13-14.82,1.61-1.13-5.4-3.78a7.2,7.2,0,0,1-1.1-.79c-.5-.56-.91-1.16-1.35-1.74a18.83,18.83,0,0,1,2.55-.59q14.21-1.29,28.43-2.53c3-.25,3.67.29,3.39,2.39q-1.37,10.19-2.74,20.37c0,.2,0,.41-.08.61-.28,1.09-.93,1.28-2.08.52-2.11-1.41-4.14-2.88-6.2-4.32Z" transform="translate(-15.98 -18.43)" fill="#000054"/><path d="M740.69,640.68l8.28-5.81a10.08,10.08,0,0,1,1.58,2.61c1.25,6.47,2.41,12.95,3.54,19.44.35,2-.38,2.52-3.28,2.33q-14.79-1-29.57-2a8.11,8.11,0,0,1-1.83-.53,5.81,5.81,0,0,1,1-1.23c2.31-1.67,4.67-3.29,7.2-5.07l-1.5-1.05-21.75-15.26c-1.53-1.07-1.56-1.41,0-2.51,3.31-2.36,6.65-4.69,10-7,1.48-1,2-1,3.46,0l21.38,15Z" transform="translate(-15.98 -18.43)" fill="#000054"/><path d="M721,684.88l1.7-1.19q10.44-7.32,20.88-14.64c1.9-1.33,2.25-1.34,4.1,0q4.71,3.29,9.39,6.59c1.85,1.31,1.84,1.6,0,2.87l-21.5,15.07L734,694.64l3.31,2.33c1.36.95,2.75,1.88,4.06,2.87a4.34,4.34,0,0,1,.83,1.13,7.94,7.94,0,0,1-1.69.49c-5.56.39-11.13.75-16.7,1.11l-12.87.86c-2.9.18-3.72-.33-3.38-2.3q1.8-10.33,3.73-20.66a1.46,1.46,0,0,1,.83-1.09,2.61,2.61,0,0,1,1.63.46C716.16,681.45,718.48,683.11,721,684.88Z" transform="translate(-15.98 -18.43)" fill="#000054"/><path d="M1365.33,1130.5v45.7c0,37.87,43.78,68.58,97.79,68.58s97.8-30.71,97.8-68.58v-38.3" transform="translate(-15.98 -18.43)" fill="#fff" stroke="#000054" stroke-miterlimit="10" stroke-width="6"/><ellipse cx="1447.15" cy="1119.46" rx="97.8" ry="68.57" fill="none" stroke="#000054" stroke-miterlimit="10" stroke-width="6"/><path d="M1499.51,1151c2.49-1.75,4.82-3.35,7.07-5,.42-.32.79-.87.7-1.26s-1-.5-1.58-.55q-14.73-1.35-29.48-2.62c-2.75-.24-3.5.32-3.24,2.27.91,6.87,1.82,13.75,2.78,20.62a5.29,5.29,0,0,0,.73,1.44,10.83,10.83,0,0,0,1.86-.79c2.37-1.61,4.69-3.26,7.14-5l1.6,1.12,21.52,15.08c1.73,1.22,2.2,1.24,4,0q4.94-3.4,9.77-6.85c1.5-1.07,1.46-1.45-.09-2.53q-10.62-7.47-21.27-14.92Zm-57-40-1.49-1-21.38-15c-1.49-1-2-1-3.47,0q-5,3.49-10,7c-1.56,1.11-1.53,1.45,0,2.52l21.75,15.25,1.51,1.06c-2.54,1.77-4.9,3.4-7.2,5.07a5.25,5.25,0,0,0-1,1.23,8.41,8.41,0,0,0,1.82.53q14.77,1,29.57,2c2.9.18,3.63-.3,3.28-2.34-1.13-6.48-2.29-13-3.53-19.44a10.46,10.46,0,0,0-1.58-2.6Z" transform="translate(-15.98 -18.43)" fill="#000054"/><path d="M1499.51,1151l1.5,1q10.63,7.46,21.27,14.92c1.55,1.08,1.59,1.46.09,2.53q-4.84,3.45-9.77,6.85c-1.79,1.23-2.26,1.21-4,0l-21.52-15.08-1.6-1.12c-2.45,1.72-4.77,3.37-7.14,5a10.83,10.83,0,0,1-1.86.79,5.29,5.29,0,0,1-.73-1.44c-1-6.87-1.87-13.75-2.78-20.62-.26-1.95.49-2.51,3.24-2.27q14.76,1.26,29.48,2.62c.58,0,1.51.31,1.58.55s-.28.94-.7,1.26C1504.33,1147.63,1502,1149.23,1499.51,1151Z" transform="translate(-15.98 -18.43)" fill="#000054"/><path d="M1503.67,1117.37l-1.45,1-21.75,15.25c-1.62,1.14-2,1.16-3.69,0-3.32-2.3-6.61-4.61-9.9-6.93-1.55-1.1-1.53-1.38.08-2.51l21.13-14.82,1.61-1.13-5.4-3.79a7.17,7.17,0,0,1-1.1-.78c-.5-.56-.9-1.16-1.35-1.74a18.83,18.83,0,0,1,2.55-.59q14.2-1.3,28.43-2.53c3-.26,3.68.29,3.39,2.38q-1.37,10.18-2.74,20.38a4.25,4.25,0,0,1-.08.61c-.28,1.08-.93,1.28-2.08.51-2.11-1.4-4.14-2.87-6.2-4.31Z" transform="translate(-15.98 -18.43)" fill="#000054"/><path d="M1442.46,1111l8.29-5.81a10.46,10.46,0,0,1,1.58,2.6c1.24,6.48,2.4,13,3.53,19.44.35,2-.38,2.52-3.28,2.34q-14.79-1-29.57-2a8.41,8.41,0,0,1-1.82-.53,5.25,5.25,0,0,1,1-1.23c2.3-1.67,4.66-3.3,7.2-5.07l-1.51-1.06-21.75-15.25c-1.53-1.07-1.56-1.41,0-2.52q5-3.53,10-7c1.48-1,2-1,3.47,0l21.38,15Z" transform="translate(-15.98 -18.43)" fill="#000054"/><path d="M1422.77,1155.17l1.7-1.19,20.88-14.64c1.9-1.33,2.26-1.33,4.1,0q4.71,3.29,9.39,6.59c1.85,1.3,1.84,1.6,0,2.86l-21.5,15.08-1.58,1.1,3.32,2.33c1.36,1,2.75,1.89,4.05,2.88a4.34,4.34,0,0,1,.83,1.13,7.94,7.94,0,0,1-1.69.49c-5.56.39-11.13.74-16.7,1.11l-12.87.85c-2.9.19-3.72-.32-3.38-2.3,1.2-6.89,2.46-13.77,3.73-20.65a1.49,1.49,0,0,1,.83-1.09,2.6,2.6,0,0,1,1.63.46C1417.93,1151.75,1420.25,1153.4,1422.77,1155.17Z" transform="translate(-15.98 -18.43)" fill="#000054"/><polygon points="459.5 551.18 337.76 487.58 459.5 423.98 581.25 487.58 459.5 551.18" fill="#fff" stroke="#000054" stroke-linecap="round" stroke-linejoin="round" stroke-width="6"/><polygon points="337.76 487.58 459.5 551.18 581.25 487.58 581.25 519.37 459.5 582.97 337.76 519.37 337.76 487.58" fill="#fff" stroke="#000054" stroke-linecap="round" stroke-linejoin="round" stroke-width="6"/><path d="M420.23,504.08l2.08,1.09,25.56,13.43c2.32,1.22,2.33,1.45.07,2.63q-5.78,3-11.57,6c-2.29,1.18-2.81,1.17-5,0L405,513.42l-1.94-1L399,514.53c-1.68.87-3.32,1.76-5.05,2.6a12.37,12.37,0,0,1-2,.52c-.3-.36-.79-.71-.86-1.08-.67-3.57-1.26-7.14-1.89-10.71-.48-2.76-1-5.51-1.45-8.26-.32-1.86.58-2.39,4-2.16q18.09,1.17,36.16,2.44a3.79,3.79,0,0,1,1.9.53c.18.27-.32.78-.81,1C426.25,501,423.34,502.46,420.23,504.08Z" transform="translate(-15.98 -18.43)" fill="#000054"/><path d="M465.81,480.27l2.08,1.09,25.57,13.43c2.31,1.22,2.32,1.45.06,2.63-3.85,2-7.7,4-11.57,6-2.29,1.19-2.8,1.18-5,0l-26.32-13.83-1.94-1-4.08,2.12c-1.68.87-3.32,1.76-5,2.59a11.14,11.14,0,0,1-2,.53c-.3-.36-.79-.71-.86-1.08-.67-3.57-1.26-7.14-1.89-10.71-.48-2.76-1-5.51-1.45-8.26-.32-1.87.58-2.39,4-2.17q18.09,1.19,36.16,2.45a3.69,3.69,0,0,1,1.9.53c.19.27-.32.78-.81,1C471.83,477.17,468.92,478.65,465.81,480.27Z" transform="translate(-15.98 -18.43)" fill="#000054"/><path d="M530.74,508l-2.08-1.09-25.57-13.43c-2.32-1.22-2.33-1.45-.06-2.63,3.85-2,7.69-4,11.56-6,2.3-1.19,2.81-1.18,5,0l26.33,13.83,1.93,1L552,497.5c1.67-.87,3.31-1.76,5-2.59a11.14,11.14,0,0,1,2-.53c.29.36.78.71.85,1.08.67,3.57,1.27,7.14,1.89,10.71.48,2.76,1,5.51,1.45,8.26.32,1.87-.58,2.39-4,2.17q-18.07-1.19-36.15-2.45a3.65,3.65,0,0,1-1.9-.53c-.19-.27.32-.78.8-1C524.72,511.05,527.63,509.57,530.74,508Z" transform="translate(-15.98 -18.43)" fill="#000054"/><path d="M485.16,531.77l-2.08-1.1q-12.79-6.7-25.57-13.43c-2.32-1.22-2.33-1.44-.06-2.63,3.84-2,7.69-4,11.56-6,2.3-1.19,2.81-1.18,5,0l26.33,13.83,1.93,1,4.09-2.13c1.67-.87,3.31-1.76,5-2.59a12.47,12.47,0,0,1,2-.53c.29.36.78.71.85,1.08.67,3.57,1.27,7.15,1.89,10.72.48,2.75,1,5.5,1.45,8.26.32,1.86-.58,2.38-4,2.16q-18.09-1.18-36.15-2.45a3.56,3.56,0,0,1-1.9-.53c-.19-.27.32-.78.8-1C479.14,534.86,482.05,533.38,485.16,531.77Z" transform="translate(-15.98 -18.43)" fill="#000054"/><line x1="459.97" y1="550.94" x2="459.97" y2="582.73" fill="none" stroke="#000054" stroke-linecap="round" stroke-linejoin="round" stroke-width="6"/><polygon points="971.01 551.18 849.26 487.58 971.01 423.98 1092.75 487.58 971.01 551.18" fill="#fff" stroke="#000054" stroke-linecap="round" stroke-linejoin="round" stroke-width="6"/><polygon points="849.26 487.58 971.01 551.18 1092.75 487.58 1092.75 519.37 971.01 582.97 849.26 519.37 849.26 487.58" fill="#fff" stroke="#000054" stroke-linecap="round" stroke-linejoin="round" stroke-width="6"/><path d="M931.73,504.08l2.08,1.09,25.57,13.43c2.32,1.22,2.32,1.45.06,2.63q-5.78,3-11.57,6c-2.29,1.18-2.8,1.17-5,0l-26.32-13.83-1.93-1-4.09,2.12c-1.68.87-3.31,1.76-5,2.6a12.09,12.09,0,0,1-2,.52c-.29-.36-.78-.71-.85-1.08-.67-3.57-1.27-7.14-1.89-10.71q-.74-4.14-1.46-8.26c-.32-1.86.59-2.39,4-2.16q18.09,1.17,36.16,2.44a3.79,3.79,0,0,1,1.9.53c.19.27-.32.78-.81,1C937.75,501,934.84,502.46,931.73,504.08Z" transform="translate(-15.98 -18.43)" fill="#000054"/><path d="M977.31,480.27l2.08,1.09L1005,494.79c2.32,1.22,2.32,1.45.06,2.63-3.85,2-7.7,4-11.56,6-2.3,1.19-2.81,1.18-5,0l-26.32-13.83-1.93-1-4.09,2.12c-1.67.87-3.31,1.76-5.05,2.59a11.14,11.14,0,0,1-2,.53c-.29-.36-.78-.71-.85-1.08-.67-3.57-1.27-7.14-1.89-10.71-.48-2.76-1-5.51-1.46-8.26-.32-1.87.59-2.39,4-2.17q18.09,1.19,36.16,2.45a3.69,3.69,0,0,1,1.9.53c.19.27-.32.78-.81,1C983.33,477.17,980.42,478.65,977.31,480.27Z" transform="translate(-15.98 -18.43)" fill="#000054"/><path d="M1042.24,508l-2.08-1.09-25.57-13.43c-2.32-1.22-2.32-1.45-.06-2.63,3.85-2,7.7-4,11.56-6,2.3-1.19,2.81-1.18,5,0l26.32,13.83,1.93,1,4.09-2.12c1.67-.87,3.31-1.76,5-2.59a11.14,11.14,0,0,1,2-.53c.29.36.78.71.85,1.08.67,3.57,1.27,7.14,1.89,10.71.48,2.76,1,5.51,1.45,8.26.33,1.87-.58,2.39-4,2.17q-18.09-1.19-36.16-2.45a3.69,3.69,0,0,1-1.9-.53c-.19-.27.32-.78.81-1C1036.22,511.05,1039.13,509.57,1042.24,508Z" transform="translate(-15.98 -18.43)" fill="#000054"/><path d="M996.66,531.77l-2.08-1.1L969,517.24c-2.32-1.22-2.33-1.44-.06-2.63,3.85-2,7.7-4,11.56-6,2.3-1.19,2.81-1.18,5,0l26.33,13.83,1.93,1,4.09-2.13c1.67-.87,3.31-1.76,5-2.59a12.06,12.06,0,0,1,2-.53c.29.36.78.71.85,1.08.67,3.57,1.27,7.15,1.89,10.72.48,2.75,1,5.5,1.45,8.26.33,1.86-.58,2.38-4,2.16Q1007,539.23,988.91,538a3.59,3.59,0,0,1-1.9-.53c-.19-.27.32-.78.81-1C990.64,534.86,993.55,533.38,996.66,531.77Z" transform="translate(-15.98 -18.43)" fill="#000054"/><line x1="971.47" y1="550.94" x2="971.47" y2="582.73" fill="none" stroke="#000054" stroke-linecap="round" stroke-linejoin="round" stroke-width="6"/><path d="M444,1240.77a184.87,184.87,0,0,0-2.52,28.76,158.91,158.91,0,0,0,158.93,158.93H804.25a158,158,0,0,0,96.87-32.8,84.55,84.55,0,0,0,40.87,10.1,87.32,87.32,0,0,0,87.29-87.29,85.72,85.72,0,0,0-22.2-58l.5-.51a145.57,145.57,0,0,0,36.83-95.36c0-79.21-64.08-143.79-143.29-143.79A146.2,146.2,0,0,0,819.38,1046c-22.7-119.57-138.24-198.28-257.82-176.08s-198.79,138.24-176.08,257.82A219.91,219.91,0,0,0,444,1240.77Z" transform="translate(-15.98 -18.43)" fill="#fff" stroke="#000054" stroke-linecap="round" stroke-linejoin="round" stroke-width="6"/><rect x="1283.47" y="1511.88" width="123.16" height="47.05" rx="8.46" fill="#afafaf"/><path d="M1414.14,1535.81a3,3,0,0,1,3,3v30.12a3,3,0,0,1-3,3H1307.91a3,3,0,0,1-3-3v-30.12a3,3,0,0,1,3-3h106.23m0-11H1307.91a14,14,0,0,0-14,14v30.12a14,14,0,0,0,14,14h106.23a14,14,0,0,0,14-14v-30.12a14,14,0,0,0-14-14Z" transform="translate(-15.98 -18.43)" fill="#fff"/><circle cx="1339.73" cy="1535.4" r="4.97" fill="#fff"/><circle cx="1320.89" cy="1535.4" r="4.97" fill="#fff"/><circle cx="1303.17" cy="1535.4" r="4.97" fill="#fff"/><rect x="1283.47" y="1555.44" width="123.16" height="47.05" rx="8.46" fill="#afafaf"/><path d="M1414.14,1579.37a3,3,0,0,1,3,3v30.13a3,3,0,0,1-3,3H1307.91a3,3,0,0,1-3-3v-30.13a3,3,0,0,1,3-3h106.23m0-11H1307.91a14,14,0,0,0-14,14v30.13a14,14,0,0,0,14,14h106.23a14,14,0,0,0,14-14v-30.13a14,14,0,0,0-14-14Z" transform="translate(-15.98 -18.43)" fill="#fff"/><circle cx="1339.73" cy="1578.96" r="4.97" fill="#fff"/><circle cx="1320.89" cy="1578.96" r="4.97" fill="#fff"/><circle cx="1303.17" cy="1578.96" r="4.97" fill="#fff"/><path d="M1310.49,1697.12a11.43,11.43,0,0,1,0-22.86h39.11v-9.78h-41.69a8.47,8.47,0,0,1-8.46-8.46v-30.13a8.47,8.47,0,0,1,8.46-8.46h106.23a8.47,8.47,0,0,1,8.46,8.46V1656a8.47,8.47,0,0,1-8.46,8.46h-41.69v9.78h39.11a11.43,11.43,0,1,1,0,22.86Z" transform="translate(-15.98 -18.43)" fill="#afafaf"/><path d="M1414.14,1622.93a3,3,0,0,1,3,3V1656a3,3,0,0,1-3,3H1367v20.78h44.61a5.93,5.93,0,0,1,0,11.86H1310.49a5.93,5.93,0,0,1,0-11.86h44.61V1659h-47.19a3,3,0,0,1-3-3v-30.13a3,3,0,0,1,3-3h106.23m0-11H1307.91a14,14,0,0,0-14,14V1656a14,14,0,0,0,11.06,13.66,16.93,16.93,0,0,0,5.48,32.94h101.07a16.93,16.93,0,0,0,5.48-32.94A14,14,0,0,0,1428.1,1656v-30.13a14,14,0,0,0-14-14Z" transform="translate(-15.98 -18.43)" fill="#fff"/><circle cx="1339.73" cy="1622.52" r="4.97" fill="#fff"/><circle cx="1320.89" cy="1622.52" r="4.97" fill="#fff"/><circle cx="1303.17" cy="1622.52" r="4.97" fill="#fff"/><polygon points="1094.35 1501.23 990.27 1501.27 1045.36 1447.03 1149.43 1446.99 1094.35 1501.23" fill="#fff" stroke="#000054" stroke-linecap="round" stroke-linejoin="round" stroke-width="6"/><path d="M1053.28,1502h1.78l21.88,0c2,0,2.08.1,1.06,1.11l-5.25,5.13c-1,1-1.38,1.13-3.28,1.13l-22.53,0h-1.65l-1.86,1.82c-.76.74-1.48,1.49-2.3,2.23a9.13,9.13,0,0,1-1.09.67,3.51,3.51,0,0,1-1-.28c-1.82-1.37-3.58-2.76-5.36-4.14l-4.13-3.2c-.93-.72-.54-1.14,1.8-1.82q12.28-3.52,24.58-7a4.22,4.22,0,0,1,1.45-.19c.22.07.09.4-.13.62C1056,1499.29,1054.69,1500.57,1053.28,1502Z" transform="translate(-15.98 -18.43)" fill="#000054"/><path d="M1071.85,1483.22h1.78l21.88,0c2,0,2.08.1,1,1.1-1.74,1.72-3.48,3.43-5.24,5.14-1,1-1.38,1.13-3.28,1.13l-22.53,0h-1.66c-.63.63-1.24,1.22-1.85,1.82-.76.74-1.49,1.48-2.3,2.23a8.69,8.69,0,0,1-1.09.66,3.29,3.29,0,0,1-1-.27c-1.81-1.37-3.58-2.76-5.36-4.14l-4.13-3.2c-.93-.72-.54-1.14,1.81-1.82q12.27-3.52,24.57-7a4,4,0,0,1,1.45-.19c.23.07.09.4-.12.62C1074.59,1480.56,1073.26,1481.84,1071.85,1483.22Z" transform="translate(-15.98 -18.43)" fill="#000054"/><path d="M1119.26,1481.6h-1.78l-21.89,0c-2,0-2.07-.1-1-1.1q2.61-2.58,5.25-5.14c1-1,1.38-1.13,3.27-1.13l22.54,0h1.65l1.85-1.82c.76-.74,1.49-1.48,2.3-2.23a8.86,8.86,0,0,1,1.1-.66,3.21,3.21,0,0,1,1,.27c1.81,1.37,3.58,2.76,5.36,4.14l4.13,3.2c.93.72.54,1.14-1.8,1.82q-12.29,3.52-24.58,7a4,4,0,0,1-1.45.19c-.22-.07-.09-.4.13-.62C1116.52,1484.26,1117.85,1483,1119.26,1481.6Z" transform="translate(-15.98 -18.43)" fill="#000054"/><path d="M1102.07,1501.38h-1.78l-21.88,0c-2,0-2.08-.09-1.06-1.1,1.74-1.71,3.49-3.43,5.25-5.14,1-1,1.38-1.13,3.28-1.12l22.53,0h1.65l1.85-1.82c.76-.74,1.49-1.48,2.31-2.23a8,8,0,0,1,1.09-.66,3.93,3.93,0,0,1,1,.27c1.82,1.37,3.58,2.76,5.36,4.14l4.13,3.2c.93.72.54,1.15-1.8,1.82q-12.29,3.52-24.58,7a4,4,0,0,1-1.45.19c-.22-.07-.09-.4.13-.62C1099.33,1504,1100.66,1502.76,1102.07,1501.38Z" transform="translate(-15.98 -18.43)" fill="#000054"/><polygon points="990.27 1501.27 1094.35 1501.27 1149.43 1446.99 1151.04 1486.91 1095.6 1541.19 991.89 1541.19 990.27 1501.27" fill="none" stroke="#000054" stroke-linecap="round" stroke-linejoin="round" stroke-width="6"/><line x1="1094.39" y1="1501.48" x2="1095.72" y2="1539.88" fill="none" stroke="#000054" stroke-linecap="round" stroke-linejoin="round" stroke-width="6"/><rect x="1130.94" y="1537.99" width="158.46" height="58.4" rx="9.4" fill="#afafaf"/><path d="M1296,1561.92a3.91,3.91,0,0,1,3.89,3.9v39.6a3.9,3.9,0,0,1-3.89,3.9H1156.31a3.9,3.9,0,0,1-3.89-3.9v-39.6a3.91,3.91,0,0,1,3.89-3.9H1296m0-11H1156.31a14.92,14.92,0,0,0-14.89,14.9v39.6a14.91,14.91,0,0,0,14.89,14.9H1296a14.91,14.91,0,0,0,14.89-14.9v-39.6a14.92,14.92,0,0,0-14.89-14.9Z" transform="translate(-15.98 -18.43)" fill="#fff"/><circle cx="1203.17" cy="1567.19" r="6.53" fill="#fff"/><circle cx="1178.4" cy="1567.19" r="6.53" fill="#fff"/><circle cx="1155.11" cy="1567.19" r="6.53" fill="#fff"/><rect x="1130.94" y="1595.26" width="158.46" height="58.4" rx="9.4" fill="#afafaf"/><path d="M1296,1619.2a3.9,3.9,0,0,1,3.89,3.89v39.61a3.9,3.9,0,0,1-3.89,3.89H1156.31a3.9,3.9,0,0,1-3.89-3.89v-39.61a3.9,3.9,0,0,1,3.89-3.89H1296m0-11H1156.31a14.91,14.91,0,0,0-14.89,14.89v39.61a14.91,14.91,0,0,0,14.89,14.89H1296a14.91,14.91,0,0,0,14.89-14.89v-39.61A14.91,14.91,0,0,0,1296,1608.2Z" transform="translate(-15.98 -18.43)" fill="#fff"/><circle cx="1203.17" cy="1624.46" r="6.53" fill="#fff"/><circle cx="1178.4" cy="1624.46" r="6.53" fill="#fff"/><circle cx="1155.11" cy="1624.46" r="6.53" fill="#fff"/><path d="M1159.71,1772.28a13.3,13.3,0,1,1,0-26.59h53.14v-16.33h-56.54a9.4,9.4,0,0,1-9.39-9.39v-39.61a9.4,9.4,0,0,1,9.39-9.39H1296a9.41,9.41,0,0,1,9.4,9.39V1720a9.41,9.41,0,0,1-9.4,9.39h-56.54v16.33h53.14a13.3,13.3,0,1,1,0,26.59Z" transform="translate(-15.98 -18.43)" fill="#afafaf"/><path d="M1296,1676.47a3.9,3.9,0,0,1,3.89,3.89V1720a3.9,3.9,0,0,1-3.89,3.89h-62v27.33h58.64a7.8,7.8,0,1,1,0,15.59H1159.71a7.8,7.8,0,1,1,0-15.59h58.64v-27.33h-62a3.9,3.9,0,0,1-3.89-3.89v-39.61a3.9,3.9,0,0,1,3.89-3.89H1296m0-11H1156.31a14.91,14.91,0,0,0-14.89,14.89V1720a14.91,14.91,0,0,0,14.89,14.89h51v5.33h-47.64a18.8,18.8,0,1,0,0,37.59h132.87a18.8,18.8,0,1,0,0-37.59h-47.64v-5.33h51a14.91,14.91,0,0,0,14.89-14.89v-39.61a14.91,14.91,0,0,0-14.89-14.89Z" transform="translate(-15.98 -18.43)" fill="#fff"/><circle cx="1203.17" cy="1681.73" r="6.53" fill="#fff"/><circle cx="1178.4" cy="1681.73" r="6.53" fill="#fff"/><circle cx="1155.11" cy="1681.73" r="6.53" fill="#fff"/><rect x="959.68" y="1562.44" width="198.73" height="71.34" rx="10.46" fill="#afafaf"/><path d="M1163.93,1586.37a5,5,0,0,1,5,5v50.42a5,5,0,0,1-5,5H986.12a5,5,0,0,1-5-5v-50.42a5,5,0,0,1,5-5h177.81m0-11H986.12a16,16,0,0,0-16,16v50.42a16,16,0,0,0,16,16h177.81a16,16,0,0,0,16-16v-50.42a16,16,0,0,0-16-16Z" transform="translate(-15.98 -18.43)" fill="#fff"/><circle cx="1050.15" cy="1598.11" r="8.32" fill="#fff"/><circle cx="1018.61" cy="1598.11" r="8.32" fill="#fff"/><circle cx="988.95" cy="1598.11" r="8.32" fill="#fff"/><rect x="959.68" y="1635.35" width="198.73" height="71.34" rx="10.46" fill="#afafaf"/><path d="M1163.93,1659.29a5,5,0,0,1,5,5v50.42a5,5,0,0,1-5,5H986.12a5,5,0,0,1-5-5v-50.42a5,5,0,0,1,5-5h177.81m0-11H986.12a16,16,0,0,0-16,16v50.42a16,16,0,0,0,16,16h177.81a16,16,0,0,0,16-16v-50.42a16,16,0,0,0-16-16Z" transform="translate(-15.98 -18.43)" fill="#fff"/><circle cx="1050.15" cy="1671.03" r="8.32" fill="#fff"/><circle cx="1018.61" cy="1671.03" r="8.32" fill="#fff"/><circle cx="988.95" cy="1671.03" r="8.32" fill="#fff"/><path d="M990.44,1852.68a15.43,15.43,0,0,1,0-30.85h69.17V1798H986.12a10.47,10.47,0,0,1-10.46-10.46v-50.42a10.47,10.47,0,0,1,10.46-10.46h177.81a10.48,10.48,0,0,1,10.47,10.46v50.42a10.48,10.48,0,0,1-10.47,10.46h-73.48v23.79h69.16a15.42,15.42,0,1,1,0,30.84Z" transform="translate(-15.98 -18.43)" fill="#afafaf"/><path d="M1163.93,1732.2a5,5,0,0,1,5,5v50.42a5,5,0,0,1-5,5h-79v34.79h74.66a9.93,9.93,0,1,1,0,19.85H990.44a9.93,9.93,0,0,1,0-19.85h74.67v-34.79h-79a5,5,0,0,1-5-5v-50.42a5,5,0,0,1,5-5h177.81m0-11H986.12a16,16,0,0,0-16,16v50.42a16,16,0,0,0,16,16h68v12.79H990.44a20.93,20.93,0,0,0,0,41.85h169.17a20.93,20.93,0,1,0,0-41.85H1096v-12.79h68a16,16,0,0,0,16-16v-50.42a16,16,0,0,0-16-16Z" transform="translate(-15.98 -18.43)" fill="#fff"/><circle cx="1050.15" cy="1743.94" r="8.32" fill="#fff"/><circle cx="1018.61" cy="1743.94" r="8.32" fill="#fff"/><circle cx="988.95" cy="1743.94" r="8.32" fill="#fff"/><polygon points="1242.43 1490.66 1158.65 1490.69 1202.99 1447.02 1286.78 1446.99 1242.43 1490.66" fill="#fff" stroke="#000054" stroke-linecap="round" stroke-linejoin="round" stroke-width="6"/><path d="M1212.48,1494.83h1.44l17.62,0c1.59,0,1.67.08.84.89-1.4,1.38-2.8,2.76-4.22,4.14-.84.82-1.11.91-2.64.91l-18.14,0h-1.33l-1.49,1.46c-.61.6-1.2,1.2-1.85,1.79a6.78,6.78,0,0,1-.88.54,2.78,2.78,0,0,1-.79-.22c-1.46-1.1-2.88-2.22-4.32-3.33l-3.32-2.58c-.75-.58-.43-.92,1.45-1.46q9.9-2.85,19.79-5.65a3.23,3.23,0,0,1,1.17-.16c.18.06.07.32-.11.5C1214.69,1492.69,1213.62,1493.72,1212.48,1494.83Z" transform="translate(-15.98 -18.43)" fill="#000054"/><path d="M1227.43,1479.75h1.43l17.62,0c1.6,0,1.68.08.85.89l-4.22,4.14c-.84.82-1.12.91-2.64.91l-18.14,0H1221l-1.5,1.46c-.61.6-1.19,1.2-1.85,1.79a6.16,6.16,0,0,1-.88.54,2.8,2.8,0,0,1-.78-.22c-1.46-1.1-2.88-2.22-4.32-3.33l-3.32-2.58c-.75-.58-.44-.92,1.45-1.46q9.89-2.85,19.79-5.65a3.2,3.2,0,0,1,1.16-.16c.18.06.08.32-.1.5C1229.64,1477.61,1228.57,1478.64,1227.43,1479.75Z" transform="translate(-15.98 -18.43)" fill="#000054"/><path d="M1265.6,1478.45h-1.43l-17.62,0c-1.6,0-1.67-.07-.85-.89l4.23-4.13c.84-.82,1.11-.91,2.63-.91l18.14,0H1272l1.49-1.46c.61-.6,1.2-1.2,1.85-1.79a5.83,5.83,0,0,1,.88-.54,2.7,2.7,0,0,1,.78.22c1.46,1.1,2.89,2.22,4.32,3.33l3.33,2.58c.74.58.43.92-1.46,1.46q-9.88,2.85-19.78,5.65a3.28,3.28,0,0,1-1.17.16c-.18-.06-.07-.32.1-.5C1263.4,1480.59,1264.47,1479.56,1265.6,1478.45Z" transform="translate(-15.98 -18.43)" fill="#000054"/><path d="M1251.76,1494.37h-1.43l-17.62,0c-1.6,0-1.67-.08-.85-.89l4.23-4.14c.84-.81,1.11-.9,2.64-.9l18.14,0h1.33c.51-.51,1-1,1.49-1.46s1.2-1.2,1.85-1.8a6.78,6.78,0,0,1,.88-.54,3.82,3.82,0,0,1,.79.22c1.46,1.11,2.88,2.23,4.31,3.34l3.33,2.57c.74.58.43.92-1.46,1.47l-19.78,5.65a3.52,3.52,0,0,1-1.17.16c-.18-.06-.07-.33.1-.51C1249.56,1496.51,1250.63,1495.48,1251.76,1494.37Z" transform="translate(-15.98 -18.43)" fill="#000054"/><polygon points="1158.65 1490.69 1242.44 1490.69 1286.78 1446.99 1288.08 1479.13 1243.44 1522.83 1159.94 1522.83 1158.65 1490.69" fill="none" stroke="#000054" stroke-linecap="round" stroke-linejoin="round" stroke-width="6"/><line x1="1242.47" y1="1490.86" x2="1243.53" y2="1521.77" fill="none" stroke="#000054" stroke-linecap="round" stroke-linejoin="round" stroke-width="6"/><polygon points="1362.16 1479.37 1300.03 1479.39 1332.92 1447.02 1395.05 1446.99 1362.16 1479.37" fill="#fff" stroke="#000054" stroke-linecap="round" stroke-linejoin="round" stroke-width="6"/><path d="M1344.09,1487.23h1.06l13.06,0c1.19,0,1.24.06.63.66l-3.13,3.06c-.62.61-.83.68-2,.68l-13.45,0h-1l-1.1,1.08c-.46.45-.89.89-1.38,1.34a4.64,4.64,0,0,1-.65.39,2,2,0,0,1-.58-.16c-1.08-.82-2.14-1.65-3.2-2.47l-2.47-1.91c-.55-.43-.32-.68,1.08-1.09l14.67-4.19a2.3,2.3,0,0,1,.87-.11c.13,0,0,.24-.08.37C1345.72,1485.64,1344.93,1486.41,1344.09,1487.23Z" transform="translate(-15.98 -18.43)" fill="#000054"/><path d="M1355.17,1476.05h1.06l13.07,0c1.18,0,1.24,0,.62.66l-3.13,3.06c-.62.61-.82.68-2,.67H1350.4l-1.11,1.08c-.45.45-.89.89-1.37,1.33a4.29,4.29,0,0,1-.65.4,2.09,2.09,0,0,1-.59-.16c-1.08-.82-2.13-1.65-3.2-2.47l-2.46-1.91c-.56-.43-.32-.69,1.08-1.09l14.67-4.19a2.53,2.53,0,0,1,.86-.12c.14,0,.06.25-.07.38C1356.81,1474.46,1356,1475.23,1355.17,1476.05Z" transform="translate(-15.98 -18.43)" fill="#000054"/><path d="M1383.47,1475.08h-1.06l-13.06,0c-1.19,0-1.24,0-.63-.66l3.13-3.06c.62-.61.82-.68,2-.67h14.43l1.11-1.08c.45-.45.89-.89,1.37-1.33a4,4,0,0,1,.66-.4,2,2,0,0,1,.58.16c1.08.82,2.14,1.65,3.2,2.47.82.64,1.65,1.27,2.46,1.91.56.43.33.69-1.07,1.09l-14.68,4.19a2.5,2.5,0,0,1-.86.12c-.13,0,0-.25.08-.38C1381.84,1476.67,1382.63,1475.9,1383.47,1475.08Z" transform="translate(-15.98 -18.43)" fill="#000054"/><path d="M1373.21,1486.89h-1.06l-13.06,0c-1.19,0-1.25,0-.63-.66l3.13-3.06c.62-.61.82-.68,2-.67H1378l1.11-1.08c.45-.45.89-.89,1.37-1.33a4.29,4.29,0,0,1,.65-.4,2.09,2.09,0,0,1,.59.16c1.08.82,2.13,1.65,3.2,2.47l2.46,1.91c.56.43.33.68-1.08,1.09l-14.67,4.19a2.25,2.25,0,0,1-.86.11c-.14,0,0-.24.07-.37C1371.58,1488.48,1372.37,1487.71,1373.21,1486.89Z" transform="translate(-15.98 -18.43)" fill="#000054"/><polygon points="1300.03 1479.39 1362.17 1479.39 1395.05 1446.99 1396.01 1470.82 1362.91 1503.22 1301 1503.22 1300.03 1479.39" fill="none" stroke="#000054" stroke-linecap="round" stroke-linejoin="round" stroke-width="6"/><line x1="1362.19" y1="1479.52" x2="1362.98" y2="1502.44" fill="none" stroke="#000054" stroke-linecap="round" stroke-linejoin="round" stroke-width="6"/><rect x="1720.45" y="1511.88" width="123.16" height="47.05" rx="8.46" fill="#afafaf"/><path d="M1851.12,1535.81a3,3,0,0,1,3,3v30.12a3,3,0,0,1-3,3H1744.89a3,3,0,0,1-3-3v-30.12a3,3,0,0,1,3-3h106.23m0-11H1744.89a14,14,0,0,0-14,14v30.12a14,14,0,0,0,14,14h106.23a14,14,0,0,0,14-14v-30.12a14,14,0,0,0-14-14Z" transform="translate(-15.98 -18.43)" fill="#fff"/><circle cx="1776.71" cy="1535.4" r="4.97" fill="#fff"/><circle cx="1757.87" cy="1535.4" r="4.97" fill="#fff"/><circle cx="1740.15" cy="1535.4" r="4.97" fill="#fff"/><rect x="1720.45" y="1555.44" width="123.16" height="47.05" rx="8.46" fill="#afafaf"/><path d="M1851.12,1579.37a3,3,0,0,1,3,3v30.13a3,3,0,0,1-3,3H1744.89a3,3,0,0,1-3-3v-30.13a3,3,0,0,1,3-3h106.23m0-11H1744.89a14,14,0,0,0-14,14v30.13a14,14,0,0,0,14,14h106.23a14,14,0,0,0,14-14v-30.13a14,14,0,0,0-14-14Z" transform="translate(-15.98 -18.43)" fill="#fff"/><circle cx="1776.71" cy="1578.96" r="4.97" fill="#fff"/><circle cx="1757.87" cy="1578.96" r="4.97" fill="#fff"/><circle cx="1740.15" cy="1578.96" r="4.97" fill="#fff"/><path d="M1747.47,1697.12a11.43,11.43,0,0,1,0-22.86h39.11v-9.78h-41.69a8.47,8.47,0,0,1-8.46-8.46v-30.13a8.47,8.47,0,0,1,8.46-8.46h106.23a8.48,8.48,0,0,1,8.47,8.46V1656a8.48,8.48,0,0,1-8.47,8.46h-41.69v9.78h39.11a11.43,11.43,0,0,1,0,22.86Z" transform="translate(-15.98 -18.43)" fill="#afafaf"/><path d="M1851.12,1622.93a3,3,0,0,1,3,3V1656a3,3,0,0,1-3,3h-47.19v20.78h44.61a5.93,5.93,0,1,1,0,11.86H1747.47a5.93,5.93,0,0,1,0-11.86h44.61V1659h-47.19a3,3,0,0,1-3-3v-30.13a3,3,0,0,1,3-3h106.23m0-11H1744.89a14,14,0,0,0-14,14V1656a14,14,0,0,0,11.06,13.66,16.93,16.93,0,0,0,5.48,32.94h101.07a16.93,16.93,0,0,0,5.49-32.94,14,14,0,0,0,11.06-13.66v-30.13a14,14,0,0,0-14-14Z" transform="translate(-15.98 -18.43)" fill="#fff"/><circle cx="1776.71" cy="1622.52" r="4.97" fill="#fff"/><circle cx="1757.87" cy="1622.52" r="4.97" fill="#fff"/><circle cx="1740.15" cy="1622.52" r="4.97" fill="#fff"/><polygon points="1531.33 1501.23 1427.26 1501.27 1482.34 1447.03 1586.41 1446.99 1531.33 1501.23" fill="#fff" stroke="#000054" stroke-linecap="round" stroke-linejoin="round" stroke-width="6"/><path d="M1490.26,1502H1492l21.88,0c2,0,2.08.1,1.06,1.11l-5.25,5.13c-1,1-1.38,1.13-3.28,1.13l-22.53,0h-1.65l-1.86,1.82c-.76.74-1.48,1.49-2.3,2.23a9.13,9.13,0,0,1-1.09.67,3.51,3.51,0,0,1-1-.28c-1.82-1.37-3.58-2.76-5.36-4.14l-4.13-3.2c-.93-.72-.54-1.14,1.8-1.82q12.29-3.52,24.58-7a4.22,4.22,0,0,1,1.45-.19c.22.07.09.4-.13.62C1493,1499.29,1491.67,1500.57,1490.26,1502Z" transform="translate(-15.98 -18.43)" fill="#000054"/><path d="M1508.83,1483.22h1.78l21.88,0c2,0,2.08.1,1,1.1-1.74,1.72-3.48,3.43-5.24,5.14-1,1-1.38,1.13-3.28,1.13l-22.53,0h-1.66c-.63.63-1.24,1.22-1.85,1.82-.76.74-1.49,1.48-2.3,2.23a8,8,0,0,1-1.09.66,3.29,3.29,0,0,1-1-.27c-1.81-1.37-3.58-2.76-5.36-4.14l-4.13-3.2c-.92-.72-.54-1.14,1.81-1.82l24.57-7a4,4,0,0,1,1.45-.19c.23.07.09.4-.12.62C1511.57,1480.56,1510.24,1481.84,1508.83,1483.22Z" transform="translate(-15.98 -18.43)" fill="#000054"/><path d="M1556.24,1481.6h-1.78l-21.88,0c-2,0-2.08-.1-1.06-1.1q2.61-2.58,5.25-5.14c1-1,1.38-1.13,3.27-1.13l22.54,0h1.65l1.85-1.82c.76-.74,1.49-1.48,2.31-2.23a8,8,0,0,1,1.09-.66,3.21,3.21,0,0,1,1,.27c1.82,1.37,3.58,2.76,5.36,4.14l4.13,3.2c.93.72.54,1.14-1.8,1.82q-12.29,3.52-24.58,7a4,4,0,0,1-1.45.19c-.22-.07-.09-.4.13-.62C1553.5,1484.26,1554.83,1483,1556.24,1481.6Z" transform="translate(-15.98 -18.43)" fill="#000054"/><path d="M1539.05,1501.38h-1.78l-21.88,0c-2,0-2.08-.09-1.06-1.1,1.75-1.71,3.49-3.43,5.25-5.14,1-1,1.38-1.13,3.28-1.12l22.53,0H1547l1.86-1.82c.76-.74,1.48-1.48,2.3-2.23a8,8,0,0,1,1.09-.66,3.93,3.93,0,0,1,1,.27c1.82,1.37,3.58,2.76,5.36,4.14l4.13,3.2c.93.72.54,1.15-1.8,1.82q-12.29,3.52-24.58,7a4,4,0,0,1-1.45.19c-.22-.07-.09-.4.13-.62C1536.31,1504,1537.64,1502.76,1539.05,1501.38Z" transform="translate(-15.98 -18.43)" fill="#000054"/><polygon points="1427.26 1501.27 1531.33 1501.27 1586.41 1446.99 1588.02 1486.91 1532.58 1541.19 1428.87 1541.19 1427.26 1501.27" fill="none" stroke="#000054" stroke-linecap="round" stroke-linejoin="round" stroke-width="6"/><line x1="1531.37" y1="1501.48" x2="1532.7" y2="1539.88" fill="none" stroke="#000054" stroke-linecap="round" stroke-linejoin="round" stroke-width="6"/><rect x="1567.92" y="1537.99" width="158.46" height="58.4" rx="9.4" fill="#afafaf"/><path d="M1733,1561.92a3.92,3.92,0,0,1,3.9,3.9v39.6a3.91,3.91,0,0,1-3.9,3.9H1593.29a3.9,3.9,0,0,1-3.89-3.9v-39.6a3.91,3.91,0,0,1,3.89-3.9H1733m0-11H1593.29a14.92,14.92,0,0,0-14.89,14.9v39.6a14.91,14.91,0,0,0,14.89,14.9H1733a14.92,14.92,0,0,0,14.9-14.9v-39.6a14.92,14.92,0,0,0-14.9-14.9Z" transform="translate(-15.98 -18.43)" fill="#fff"/><circle cx="1640.16" cy="1567.19" r="6.53" fill="#fff"/><circle cx="1615.38" cy="1567.19" r="6.53" fill="#fff"/><circle cx="1592.09" cy="1567.19" r="6.53" fill="#fff"/><rect x="1567.92" y="1595.26" width="158.46" height="58.4" rx="9.4" fill="#afafaf"/><path d="M1733,1619.2a3.91,3.91,0,0,1,3.9,3.89v39.61a3.91,3.91,0,0,1-3.9,3.89H1593.29a3.9,3.9,0,0,1-3.89-3.89v-39.61a3.9,3.9,0,0,1,3.89-3.89H1733m0-11H1593.29a14.91,14.91,0,0,0-14.89,14.89v39.61a14.91,14.91,0,0,0,14.89,14.89H1733a14.92,14.92,0,0,0,14.9-14.89v-39.61a14.92,14.92,0,0,0-14.9-14.89Z" transform="translate(-15.98 -18.43)" fill="#fff"/><circle cx="1640.16" cy="1624.46" r="6.53" fill="#fff"/><circle cx="1615.38" cy="1624.46" r="6.53" fill="#fff"/><circle cx="1592.09" cy="1624.46" r="6.53" fill="#fff"/><path d="M1596.69,1772.28a13.3,13.3,0,1,1,0-26.59h53.14v-16.33h-56.54a9.4,9.4,0,0,1-9.39-9.39v-39.61a9.4,9.4,0,0,1,9.39-9.39H1733a9.41,9.41,0,0,1,9.4,9.39V1720a9.41,9.41,0,0,1-9.4,9.39h-56.54v16.33h53.15a13.3,13.3,0,0,1,0,26.59Z" transform="translate(-15.98 -18.43)" fill="#afafaf"/><path d="M1733,1676.47a3.91,3.91,0,0,1,3.9,3.89V1720a3.91,3.91,0,0,1-3.9,3.89h-62v27.33h58.65a7.8,7.8,0,0,1,0,15.59H1596.69a7.8,7.8,0,1,1,0-15.59h58.64v-27.33h-62a3.9,3.9,0,0,1-3.89-3.89v-39.61a3.9,3.9,0,0,1,3.89-3.89H1733m0-11H1593.29a14.91,14.91,0,0,0-14.89,14.89V1720a14.91,14.91,0,0,0,14.89,14.89h51v5.33h-47.64a18.8,18.8,0,1,0,0,37.59h132.88a18.8,18.8,0,0,0,0-37.59h-47.65v-5.33h51a14.92,14.92,0,0,0,14.9-14.89v-39.61a14.92,14.92,0,0,0-14.9-14.89Z" transform="translate(-15.98 -18.43)" fill="#fff"/><circle cx="1640.16" cy="1681.73" r="6.53" fill="#fff"/><circle cx="1615.38" cy="1681.73" r="6.53" fill="#fff"/><circle cx="1592.09" cy="1681.73" r="6.53" fill="#fff"/><rect x="1396.66" y="1562.44" width="198.73" height="71.34" rx="10.46" fill="#afafaf"/><path d="M1600.92,1586.37a5,5,0,0,1,5,5v50.42a5,5,0,0,1-5,5H1423.1a5,5,0,0,1-5-5v-50.42a5,5,0,0,1,5-5h177.82m0-11H1423.1a16,16,0,0,0-16,16v50.42a16,16,0,0,0,16,16h177.82a16,16,0,0,0,16-16v-50.42a16,16,0,0,0-16-16Z" transform="translate(-15.98 -18.43)" fill="#fff"/><circle cx="1487.13" cy="1598.11" r="8.32" fill="#fff"/><circle cx="1455.59" cy="1598.11" r="8.32" fill="#fff"/><circle cx="1425.93" cy="1598.11" r="8.32" fill="#fff"/><rect x="1396.66" y="1635.35" width="198.73" height="71.34" rx="10.46" fill="#afafaf"/><path d="M1600.92,1659.29a5,5,0,0,1,5,5v50.42a5,5,0,0,1-5,5H1423.1a5,5,0,0,1-5-5v-50.42a5,5,0,0,1,5-5h177.82m0-11H1423.1a16,16,0,0,0-16,16v50.42a16,16,0,0,0,16,16h177.82a16,16,0,0,0,16-16v-50.42a16,16,0,0,0-16-16Z" transform="translate(-15.98 -18.43)" fill="#fff"/><circle cx="1487.13" cy="1671.03" r="8.32" fill="#fff"/><circle cx="1455.59" cy="1671.03" r="8.32" fill="#fff"/><circle cx="1425.93" cy="1671.03" r="8.32" fill="#fff"/><path d="M1427.42,1852.68a15.43,15.43,0,0,1,0-30.85h69.17V1798H1423.1a10.47,10.47,0,0,1-10.46-10.46v-50.42a10.47,10.47,0,0,1,10.46-10.46h177.82a10.48,10.48,0,0,1,10.46,10.46v50.42a10.48,10.48,0,0,1-10.46,10.46h-73.49v23.79h69.16a15.42,15.42,0,1,1,0,30.84Z" transform="translate(-15.98 -18.43)" fill="#afafaf"/><path d="M1600.92,1732.2a5,5,0,0,1,5,5v50.42a5,5,0,0,1-5,5h-79v34.79h74.67a9.93,9.93,0,0,1,0,19.85H1427.42a9.93,9.93,0,0,1,0-19.85h74.67v-34.79h-79a5,5,0,0,1-5-5v-50.42a5,5,0,0,1,5-5h177.82m0-11H1423.1a16,16,0,0,0-16,16v50.42a16,16,0,0,0,16,16h68v12.79h-63.67a20.93,20.93,0,0,0,0,41.85H1596.6a20.93,20.93,0,0,0,0-41.85h-63.67v-12.79h68a16,16,0,0,0,16-16v-50.42a16,16,0,0,0-16-16Z" transform="translate(-15.98 -18.43)" fill="#fff"/><circle cx="1487.13" cy="1743.94" r="8.32" fill="#fff"/><circle cx="1455.59" cy="1743.94" r="8.32" fill="#fff"/><circle cx="1425.93" cy="1743.94" r="8.32" fill="#fff"/><polygon points="1679.41 1490.66 1595.63 1490.69 1639.97 1447.02 1723.76 1446.99 1679.41 1490.66" fill="#fff" stroke="#000054" stroke-linecap="round" stroke-linejoin="round" stroke-width="6"/><path d="M1649.46,1494.83h1.44l17.62,0c1.59,0,1.67.08.84.89-1.4,1.38-2.8,2.76-4.22,4.14-.84.82-1.11.91-2.64.91l-18.14,0H1643l-1.49,1.46c-.61.6-1.2,1.2-1.85,1.79a6.78,6.78,0,0,1-.88.54,2.78,2.78,0,0,1-.79-.22c-1.46-1.1-2.88-2.22-4.31-3.33l-3.33-2.58c-.75-.58-.43-.92,1.46-1.46q9.89-2.85,19.78-5.65a3.23,3.23,0,0,1,1.17-.16c.18.06.07.32-.11.5C1651.67,1492.69,1650.6,1493.72,1649.46,1494.83Z" transform="translate(-15.98 -18.43)" fill="#000054"/><path d="M1664.41,1479.75h1.43l17.62,0c1.6,0,1.68.08.85.89l-4.22,4.14c-.84.82-1.11.91-2.64.91l-18.14,0H1658l-1.49,1.46c-.62.6-1.2,1.2-1.86,1.79a6.61,6.61,0,0,1-.87.54,2.78,2.78,0,0,1-.79-.22c-1.46-1.1-2.88-2.22-4.32-3.33l-3.32-2.58c-.75-.58-.44-.92,1.45-1.46q9.88-2.85,19.79-5.65a3.2,3.2,0,0,1,1.16-.16c.18.06.08.32-.1.5C1666.62,1477.61,1665.55,1478.64,1664.41,1479.75Z" transform="translate(-15.98 -18.43)" fill="#000054"/><path d="M1702.58,1478.45h-1.43l-17.62,0c-1.6,0-1.67-.07-.85-.89l4.23-4.13c.84-.82,1.11-.91,2.63-.91l18.15,0H1709l1.49-1.46c.61-.6,1.2-1.2,1.85-1.79a5.83,5.83,0,0,1,.88-.54,2.88,2.88,0,0,1,.79.22c1.45,1.1,2.88,2.22,4.31,3.33l3.33,2.58c.74.58.43.92-1.46,1.46q-9.89,2.85-19.78,5.65a3.28,3.28,0,0,1-1.17.16c-.18-.06-.07-.32.1-.5C1700.38,1480.59,1701.45,1479.56,1702.58,1478.45Z" transform="translate(-15.98 -18.43)" fill="#000054"/><path d="M1688.74,1494.37h-1.43l-17.62,0c-1.6,0-1.67-.08-.85-.89l4.23-4.14c.84-.81,1.11-.9,2.64-.9l18.14,0h1.33c.51-.51,1-1,1.49-1.46s1.2-1.2,1.85-1.8a6.78,6.78,0,0,1,.88-.54,3.82,3.82,0,0,1,.79.22c1.46,1.11,2.88,2.23,4.31,3.34l3.33,2.57c.74.58.43.92-1.46,1.47l-19.78,5.65a3.52,3.52,0,0,1-1.17.16c-.18-.06-.07-.33.1-.51C1686.54,1496.51,1687.61,1495.48,1688.74,1494.37Z" transform="translate(-15.98 -18.43)" fill="#000054"/><polygon points="1595.63 1490.69 1679.42 1490.69 1723.76 1446.99 1725.06 1479.13 1680.42 1522.83 1596.92 1522.83 1595.63 1490.69" fill="none" stroke="#000054" stroke-linecap="round" stroke-linejoin="round" stroke-width="6"/><line x1="1679.45" y1="1490.86" x2="1680.52" y2="1521.77" fill="none" stroke="#000054" stroke-linecap="round" stroke-linejoin="round" stroke-width="6"/><polygon points="1799.14 1479.37 1737.01 1479.39 1769.9 1447.02 1832.03 1446.99 1799.14 1479.37" fill="#fff" stroke="#000054" stroke-linecap="round" stroke-linejoin="round" stroke-width="6"/><path d="M1781.07,1487.23h1.06l13.06,0c1.19,0,1.24.06.63.66l-3.13,3.06c-.62.61-.82.68-2,.68l-13.45,0h-1l-1.11,1.08c-.45.45-.89.89-1.37,1.34a5.49,5.49,0,0,1-.66.39,2,2,0,0,1-.58-.16c-1.08-.82-2.14-1.65-3.2-2.47-.82-.64-1.65-1.27-2.46-1.91-.56-.43-.33-.68,1.07-1.09l14.68-4.19a2.23,2.23,0,0,1,.86-.11c.13,0,0,.24-.08.37C1782.7,1485.64,1781.91,1486.41,1781.07,1487.23Z" transform="translate(-15.98 -18.43)" fill="#000054"/><path d="M1792.15,1476.05h1.06l13.07,0c1.18,0,1.24,0,.63.66l-3.14,3.06c-.62.61-.82.68-2,.67h-14.44c-.38.37-.74.73-1.11,1.08s-.89.89-1.37,1.33a4.29,4.29,0,0,1-.65.4,2.09,2.09,0,0,1-.59-.16c-1.08-.82-2.13-1.65-3.2-2.47l-2.46-1.91c-.55-.43-.32-.69,1.08-1.09l14.67-4.19a2.53,2.53,0,0,1,.86-.12c.14,0,.06.25-.07.38C1793.79,1474.46,1793,1475.23,1792.15,1476.05Z" transform="translate(-15.98 -18.43)" fill="#000054"/><path d="M1820.45,1475.08h-1.06l-13.06,0c-1.19,0-1.24,0-.63-.66l3.13-3.06c.62-.61.83-.68,2-.67h14.44l1.1-1.08c.46-.45.89-.89,1.38-1.33a3.84,3.84,0,0,1,.65-.4,2,2,0,0,1,.58.16c1.08.82,2.14,1.65,3.2,2.47l2.47,1.91c.55.43.32.69-1.08,1.09l-14.67,4.19a2.58,2.58,0,0,1-.87.12c-.13,0,0-.25.08-.38C1818.82,1476.67,1819.61,1475.9,1820.45,1475.08Z" transform="translate(-15.98 -18.43)" fill="#000054"/><path d="M1810.19,1486.89h-1.06l-13.06,0c-1.19,0-1.25,0-.63-.66l3.13-3.06c.62-.61.82-.68,2-.67H1815l1.11-1.08c.45-.45.89-.89,1.37-1.33a4.29,4.29,0,0,1,.65-.4,2.09,2.09,0,0,1,.59.16c1.08.82,2.13,1.65,3.2,2.47.82.64,1.65,1.27,2.46,1.91.56.43.33.68-1.08,1.09l-14.67,4.19a2.25,2.25,0,0,1-.86.11c-.13,0,0-.24.08-.37C1808.56,1488.48,1809.35,1487.71,1810.19,1486.89Z" transform="translate(-15.98 -18.43)" fill="#000054"/><polygon points="1737.01 1479.39 1799.15 1479.39 1832.03 1446.99 1832.99 1470.82 1799.89 1503.22 1737.98 1503.22 1737.01 1479.39" fill="none" stroke="#000054" stroke-linecap="round" stroke-linejoin="round" stroke-width="6"/><line x1="1799.17" y1="1479.52" x2="1799.96" y2="1502.44" fill="none" stroke="#000054" stroke-linecap="round" stroke-linejoin="round" stroke-width="6"/><path d="M303.58,590.61H307v32.8h20v2.9h-23.4Z" transform="translate(-15.98 -18.43)" fill="#000054"/><path d="M340.88,590.61h3.8l14,35.7H355l-4.35-11.1H334.43l-4.3,11.1h-3.65Zm-5.4,21.7h14l-6.9-18.3Z" transform="translate(-15.98 -18.43)" fill="#000054"/><path d="M361.88,590.61h3.8l20.8,30.2h.1v-30.2H390v35.7h-3.8l-20.8-30.2h-.1v30.2h-3.4Z" transform="translate(-15.98 -18.43)" fill="#000054"/><path d="M296.23,668.06c-.15-3.9-3.15-5.65-6.75-5.65-2.8,0-6.1,1.1-6.1,4.45,0,2.8,3.2,3.8,5.35,4.35l4.2.95c3.6.55,7.35,2.65,7.35,7.15,0,5.6-5.55,7.75-10.35,7.75-6,0-10.1-2.8-10.6-9.1h3.15c.25,4.25,3.4,6.45,7.6,6.45,2.95,0,7.05-1.3,7.05-4.9,0-3-2.8-4-5.65-4.7l-4.05-.9c-4.1-1.1-7.2-2.5-7.2-6.9,0-5.25,5.15-7.25,9.7-7.25,5.15,0,9.25,2.7,9.45,8.3Z" transform="translate(-15.98 -18.43)" fill="#000054"/><path d="M302.23,660.51h3.35l6.6,22.1h.1l6.3-22.1h3.55l6.3,22.1h.1l6.6-22.1h3.35l-8.3,25.8h-3.45l-6.35-21.7h-.1l-6.3,21.7h-3.45Z" transform="translate(-15.98 -18.43)" fill="#000054"/><path d="M341.93,650.61h3.15v5h-3.15Zm0,9.9h3.15v25.8h-3.15Z" transform="translate(-15.98 -18.43)" fill="#000054"/><path d="M356.13,660.51h5.25v2.65h-5.25v17.4c0,2.05.3,3.25,2.55,3.4a24.43,24.43,0,0,0,2.7-.15v2.7c-.95,0-1.85.1-2.8.1-4.2,0-5.65-1.4-5.6-5.8V663.16h-4.5v-2.65H353v-7.75h3.15Z" transform="translate(-15.98 -18.43)" fill="#000054"/><path d="M384.13,668.61c-.85-3.85-3.2-6.2-7.3-6.2-6.05,0-9.05,5.5-9.05,11s3,11,9.05,11c3.9,0,7.1-3,7.5-7.35h3.15c-.85,6.2-4.9,10-10.65,10-7.9,0-12.2-6.25-12.2-13.65s4.3-13.65,12.2-13.65c5.5,0,9.75,3,10.45,8.85Z" transform="translate(-15.98 -18.43)" fill="#000054"/><path d="M391.83,650.61H395V665h.1c1.15-3.1,4.6-5.2,8.25-5.2,7.25,0,9.45,3.8,9.45,10v16.6h-3.15v-16.1c0-4.45-1.45-7.8-6.55-7.8s-8,3.8-8.1,8.85v15h-3.15Z" transform="translate(-15.98 -18.43)" fill="#000054"/><path d="M497.54,680.84H513.9c5.9,0,10.85,2.85,10.85,9.3,0,4.5-2.35,8.2-7,9.1v.1c4.65.6,6,3.8,6.25,8,.15,2.45.15,7.35,1.65,9.15H522c-.85-1.4-.85-4-1-5.55-.3-5-.7-10.55-7.15-10.3H500.94v15.85h-3.4Zm3.4,16.95h12.71c4.15,0,7.7-2.6,7.7-6.95s-2.6-7.1-7.7-7.1H500.94Z" transform="translate(-15.98 -18.43)" fill="#000054"/><path d="M553.4,703.64c0,7.4-4.31,13.65-12.21,13.65S529,711,529,703.64s4.3-13.65,12.2-13.65S553.4,696.24,553.4,703.64Zm-21.26,0c0,5.5,3,11,9.05,11s9-5.5,9-11-3-11-9-11S532.14,698.14,532.14,703.64Z" transform="translate(-15.98 -18.43)" fill="#000054"/><path d="M579,716.54h-2.9v-4.65H576a9.6,9.6,0,0,1-8.9,5.4c-6.5,0-9.05-3.8-9.05-9.8V690.74h3.15v16.8c.15,4.65,1.9,7.1,6.9,7.1,5.4,0,7.75-5.1,7.75-10.35V690.74H579Z" transform="translate(-15.98 -18.43)" fill="#000054"/><path d="M589.94,690.74h5.25v2.65h-5.25v17.4c0,2.05.3,3.25,2.55,3.4a24.43,24.43,0,0,0,2.7-.15v2.7c-1,0-1.85.1-2.8.1-4.2,0-5.65-1.4-5.6-5.8V693.39h-4.5v-2.65h4.5V683h3.15Z" transform="translate(-15.98 -18.43)" fill="#000054"/><path d="M601.59,704.49c0,4.6,2.45,10.15,8.5,10.15,4.6,0,7.1-2.7,8.1-6.6h3.15c-1.35,5.85-4.75,9.25-11.25,9.25-8.2,0-11.65-6.3-11.65-13.65,0-6.8,3.45-13.65,11.65-13.65s11.6,7.25,11.35,14.5Zm16.7-2.65c-.15-4.75-3.1-9.2-8.2-9.2s-8,4.5-8.5,9.2Z" transform="translate(-15.98 -18.43)" fill="#000054"/><path d="M625.69,690.74h2.9v6h.1a9.53,9.53,0,0,1,9.75-6.4v3.15c-5.7-.3-9.6,3.9-9.6,9.25v13.75h-3.15Z" transform="translate(-15.98 -18.43)" fill="#000054"/><path d="M1205.6,1077.52H1222c5.9,0,10.85,2.86,10.85,9.31,0,4.5-2.35,8.2-7,9.1v.1c4.65.6,6,3.8,6.25,8,.15,2.45.15,7.35,1.65,9.15H1230c-.85-1.4-.85-4-1-5.55-.3-5-.7-10.55-7.15-10.3H1209v15.85h-3.4Zm3.4,17h12.7c4.15,0,7.7-2.6,7.7-7s-2.6-7.1-7.7-7.1H1209Z" transform="translate(-15.98 -18.43)" fill="#000054"/><path d="M1261.45,1100.33c0,7.4-4.3,13.65-12.2,13.65s-12.2-6.25-12.2-13.65,4.3-13.65,12.2-13.65S1261.45,1092.93,1261.45,1100.33Zm-21.25,0c0,5.5,3,11,9,11s9-5.5,9-11-3-11-9-11S1240.2,1094.83,1240.2,1100.33Z" transform="translate(-15.98 -18.43)" fill="#000054"/><path d="M1287.05,1113.23h-2.9v-4.65h-.1a9.6,9.6,0,0,1-8.9,5.4c-6.5,0-9.05-3.8-9.05-9.8v-16.75h3.15v16.8c.15,4.65,1.9,7.1,6.9,7.1,5.4,0,7.75-5.1,7.75-10.35v-13.55h3.15Z" transform="translate(-15.98 -18.43)" fill="#000054"/><path d="M1298,1087.43h5.25v2.65H1298v17.4c0,2,.3,3.25,2.55,3.4a24.43,24.43,0,0,0,2.7-.15v2.7c-1,0-1.85.1-2.8.1-4.2,0-5.65-1.4-5.6-5.8v-17.65h-4.5v-2.65h4.5v-7.75H1298Z" transform="translate(-15.98 -18.43)" fill="#000054"/><path d="M1309.65,1101.18c0,4.6,2.45,10.15,8.5,10.15,4.6,0,7.1-2.7,8.1-6.6h3.15c-1.35,5.85-4.75,9.25-11.25,9.25-8.2,0-11.65-6.3-11.65-13.65,0-6.8,3.45-13.65,11.65-13.65s11.6,7.25,11.35,14.5Zm16.7-2.65c-.15-4.75-3.1-9.2-8.2-9.2s-8,4.5-8.5,9.2Z" transform="translate(-15.98 -18.43)" fill="#000054"/><path d="M1333.75,1087.43h2.9v6h.1a9.53,9.53,0,0,1,9.75-6.4v3.15c-5.7-.3-9.6,3.9-9.6,9.25v13.75h-3.15Z" transform="translate(-15.98 -18.43)" fill="#000054"/><path d="M568,1104.77h5.85l32,46.51h.15v-46.51h5.24v55h-5.85l-32-46.51h-.16v46.51H568Z" transform="translate(-15.98 -18.43)" fill="#000054"/><path d="M625,1141.19c.07,7.09,3.77,15.63,13.08,15.63,7.09,0,10.94-4.16,12.48-10.16h4.85c-2.08,9-7.32,14.24-17.33,14.24-12.62,0-17.94-9.7-17.94-21,0-10.47,5.32-21,17.94-21,12.79,0,17.87,11.17,17.48,22.33Zm25.71-4.08c-.23-7.31-4.77-14.17-12.63-14.17s-12.31,6.93-13.08,14.17Z" transform="translate(-15.98 -18.43)" fill="#000054"/><path d="M670.58,1120h8.08v4.08h-8.08v26.79c0,3.16.46,5,3.93,5.24a38.48,38.48,0,0,0,4.15-.23v4.16c-1.46,0-2.85.15-4.31.15-6.47,0-8.7-2.16-8.62-8.93V1124.1H658.8V1120h6.93v-11.94h4.85Z" transform="translate(-15.98 -18.43)" fill="#000054"/><path d="M682.44,1120h5.16l10.16,34h.15l9.7-34h5.47l9.7,34h.16l10.16-34h5.16l-12.78,39.73h-5.32l-9.77-33.42h-.16l-9.7,33.42h-5.31Z" transform="translate(-15.98 -18.43)" fill="#000054"/><path d="M779.84,1139.88c0,11.4-6.62,21-18.79,21s-18.78-9.62-18.78-21,6.62-21,18.78-21S779.84,1128.49,779.84,1139.88Zm-32.72,0c0,8.47,4.62,16.94,13.93,16.94s13.94-8.47,13.94-16.94-4.62-16.94-13.94-16.94S747.12,1131.41,747.12,1139.88Z" transform="translate(-15.98 -18.43)" fill="#000054"/><path d="M787.85,1120h4.46v9.31h.16a14.67,14.67,0,0,1,15-9.85v4.85c-8.77-.46-14.78,6-14.78,14.24v21.18h-4.85Z" transform="translate(-15.98 -18.43)" fill="#000054"/><path d="M812.87,1104.77h4.85v34.5l22-19.25h6.47l-16.94,14.7,18.1,25h-6.09l-15.7-21.64-7.86,6.55v15.09h-4.85Z" transform="translate(-15.98 -18.43)" fill="#000054"/><path d="M572,1232.28c0,11.4-6.62,21-18.79,21s-18.78-9.62-18.78-21,6.62-21,18.78-21S572,1220.89,572,1232.28Zm-32.72,0c0,8.47,4.62,16.94,13.93,16.94s13.94-8.47,13.94-16.94-4.62-16.94-13.94-16.94S539.26,1223.81,539.26,1232.28Z" transform="translate(-15.98 -18.43)" fill="#000054"/><path d="M580,1212.42h4.47v9.31h.15a14.67,14.67,0,0,1,15-9.85v4.85c-8.78-.46-14.79,6-14.79,14.24v21.18H580Z" transform="translate(-15.98 -18.43)" fill="#000054"/><path d="M628.5,1197.17h5.24v55H628.5Z" transform="translate(-15.98 -18.43)" fill="#000054"/><path d="M645,1212.42h4.85v6.85H650c1.77-4.77,7.09-8,12.71-8,11.16,0,14.55,5.85,14.55,15.33v25.56h-4.85v-24.79c0-6.86-2.24-12-10.09-12-7.7,0-12.32,5.86-12.47,13.63v23.18H645Z" transform="translate(-15.98 -18.43)" fill="#000054"/><path d="M694.87,1212.42H703v4.08h-8.09v26.79c0,3.16.46,5,3.93,5.24a38.8,38.8,0,0,0,4.16-.23v4.16c-1.47,0-2.85.15-4.32.15-6.46,0-8.7-2.16-8.62-8.93V1216.5h-6.93v-4.08H690v-11.94h4.85Z" transform="translate(-15.98 -18.43)" fill="#000054"/><path d="M713.58,1233.59c.08,7.09,3.77,15.63,13.09,15.63,7.09,0,10.93-4.16,12.48-10.16H744c-2.08,9-7.32,14.24-17.33,14.24-12.63,0-17.94-9.7-17.94-21,0-10.47,5.31-21,17.94-21,12.78,0,17.86,11.17,17.48,22.33Zm25.72-4.08c-.23-7.31-4.77-14.17-12.63-14.17s-12.32,6.93-13.09,14.17Z" transform="translate(-15.98 -18.43)" fill="#000054"/><path d="M751.47,1212.42h4.46v9.31h.16a14.67,14.67,0,0,1,15-9.85v4.85c-8.78-.46-14.78,6-14.78,14.24v21.18h-4.85Z" transform="translate(-15.98 -18.43)" fill="#000054"/><path d="M776.41,1212.42h4.85v6.85h.16c1.77-4.77,7.08-8,12.7-8,11.17,0,14.55,5.85,14.55,15.33v25.56h-4.85v-24.79c0-6.86-2.23-12-10.08-12s-12.32,5.86-12.48,13.63v23.18h-4.85Z" transform="translate(-15.98 -18.43)" fill="#000054"/><path d="M821.46,1233.59c.07,7.09,3.77,15.63,13.09,15.63,7.08,0,10.93-4.16,12.47-10.16h4.85c-2.08,9-7.31,14.24-17.32,14.24-12.63,0-17.94-9.7-17.94-21,0-10.47,5.31-21,17.94-21,12.78,0,17.86,11.17,17.47,22.33Zm25.71-4.08c-.23-7.31-4.77-14.17-12.62-14.17s-12.32,6.93-13.09,14.17Z" transform="translate(-15.98 -18.43)" fill="#000054"/><path d="M867,1212.42h8.09v4.08H867v26.79c0,3.16.46,5,3.93,5.24a38.8,38.8,0,0,0,4.16-.23v4.16c-1.47,0-2.85.15-4.32.15-6.46,0-8.7-2.16-8.62-8.93V1216.5h-6.93v-4.08h6.93v-11.94H867Z" transform="translate(-15.98 -18.43)" fill="#000054"/><path d="M616.89,36.22C615,27.75,608,22.9,600,22.9c-14.55,0-20.71,12.16-20.71,24.17S585.48,71.25,600,71.25c10.16,0,16.63-7.85,17.63-17.63h5.24c-1.47,13.47-10,22.1-22.87,22.1-17.33,0-25.95-13.63-25.95-28.65S582.7,18.43,600,18.43c10.39,0,20.71,6.24,22.1,17.79Z" transform="translate(-15.98 -18.43)" fill="#000054"/><path d="M630.83,19.59h4.85v55h-4.85Z" transform="translate(-15.98 -18.43)" fill="#000054"/><path d="M681.34,54.7c0,11.39-6.62,21-18.79,21s-18.79-9.63-18.79-21,6.63-21,18.79-21S681.34,43.3,681.34,54.7Zm-32.73,0c0,8.47,4.62,16.94,13.94,16.94s13.94-8.47,13.94-16.94-4.62-16.94-13.94-16.94S648.61,46.23,648.61,54.7Z" transform="translate(-15.98 -18.43)" fill="#000054"/><path d="M721.53,74.56h-4.46V67.4h-.16a14.78,14.78,0,0,1-13.7,8.32c-10,0-13.94-5.86-13.94-15.09V34.83h4.85V60.7c.23,7.16,2.93,10.94,10.63,10.94,8.31,0,11.93-7.86,11.93-15.94V34.83h4.85Z" transform="translate(-15.98 -18.43)" fill="#000054"/><path d="M766.42,74.56H762V67h-.16c-2.08,5.16-8.39,8.7-14.16,8.7-12.09,0-17.87-9.78-17.87-21s5.78-21,17.87-21c5.92,0,11.7,3,13.78,8.7h.15V19.59h4.85Zm-18.78-2.92c10.31,0,13.93-8.7,13.93-16.94S758,37.76,747.64,37.76c-9.24,0-13,8.7-13,16.94S738.4,71.64,747.64,71.64Z" transform="translate(-15.98 -18.43)" fill="#000054"/><path d="M826.64,47.31c-1.31-5.93-4.93-9.55-11.25-9.55-9.31,0-13.93,8.47-13.93,16.94s4.62,16.94,13.93,16.94c6,0,10.94-4.7,11.55-11.32h4.85c-1.3,9.54-7.54,15.4-16.4,15.4-12.16,0-18.78-9.63-18.78-21s6.62-21,18.78-21c8.47,0,15,4.54,16.1,13.63Z" transform="translate(-15.98 -18.43)" fill="#000054"/><path d="M874.91,54.7c0,11.39-6.62,21-18.78,21s-18.79-9.63-18.79-21,6.62-21,18.79-21S874.91,43.3,874.91,54.7Zm-32.72,0c0,8.47,4.62,16.94,13.94,16.94s13.93-8.47,13.93-16.94-4.62-16.94-13.93-16.94S842.19,46.23,842.19,54.7Z" transform="translate(-15.98 -18.43)" fill="#000054"/><path d="M882.92,34.83h4.47v6.7h.23a13.87,13.87,0,0,1,13-7.85c5.24,0,9.94,2.54,11.4,7.77a13.44,13.44,0,0,1,12.63-7.77c8.7,0,13.16,4.54,13.16,13.93v27H933V47.84c0-6.54-2.46-10.08-9.39-10.08-8.39,0-10.78,6.93-10.78,14.32V74.56H908V47.61c.07-5.39-2.16-9.85-8.32-9.85-8.39,0-11.78,6.31-11.86,14.63V74.56h-4.85Z" transform="translate(-15.98 -18.43)" fill="#000054"/><path d="M947.83,34.83h4.47v7.55h.15c2.24-5.39,7.78-8.7,14.17-8.7,12.09,0,17.86,9.78,17.86,21s-5.77,21-17.86,21c-5.93,0-11.7-3-13.78-8.7h-.15V89.27h-4.86Zm18.79,2.93c-10.7,0-13.93,7.93-13.93,16.94,0,8.24,3.61,16.94,13.93,16.94,9.24,0,13-8.7,13-16.94S975.86,37.76,966.62,37.76Z" transform="translate(-15.98 -18.43)" fill="#000054"/><path d="M1025,74.56h-4.47V67.4h-.15a14.79,14.79,0,0,1-13.71,8.32c-10,0-13.94-5.86-13.94-15.09V34.83h4.86V60.7c.23,7.16,2.92,10.94,10.62,10.94,8.32,0,11.93-7.86,11.93-15.94V34.83H1025Z" transform="translate(-15.98 -18.43)" fill="#000054"/><path d="M1042.62,34.83h8.08v4.08h-8.08v26.8c0,3.15.46,5,3.93,5.23a36.08,36.08,0,0,0,4.15-.23v4.16c-1.46,0-2.84.15-4.31.15-6.47,0-8.7-2.15-8.62-8.93V38.91h-6.93V34.83h6.93V22.9h4.85Z" transform="translate(-15.98 -18.43)" fill="#000054"/><path d="M1058.56,19.59h4.85v7.77h-4.85Zm0,15.24h4.85V74.56h-4.85Z" transform="translate(-15.98 -18.43)" fill="#000054"/><path d="M1073.42,34.83h4.85v6.85h.15c1.77-4.77,7.09-8,12.71-8,11.16,0,14.55,5.85,14.55,15.32V74.56h-4.85V49.77c0-6.85-2.23-12-10.09-12-7.7,0-12.32,5.85-12.47,13.63V74.56h-4.85Z" transform="translate(-15.98 -18.43)" fill="#000054"/><path d="M1149.18,71.33c-.07,11.86-4.62,19.09-17.63,19.09-7.93,0-15.78-3.54-16.48-12h4.86c1.07,5.85,6.23,7.93,11.62,7.93,8.93,0,12.78-5.31,12.78-15V65.94h-.15a13.77,13.77,0,0,1-12.63,8.16c-12.7,0-17.94-9.09-17.94-20.4,0-10.94,6.47-20,17.94-20a14,14,0,0,1,12.63,8h.15V34.83h4.85Zm-4.85-17.09c0-7.78-3.62-16.48-12.78-16.48s-13.09,8.24-13.09,16.48c0,8,4.16,15.78,13.09,15.78C1139.94,70,1144.33,62.32,1144.33,54.24Z" transform="translate(-15.98 -18.43)" fill="#000054"/><path d="M1209.4,47.31c-1.31-5.93-4.93-9.55-11.24-9.55-9.32,0-13.94,8.47-13.94,16.94s4.62,16.94,13.94,16.94c6,0,10.93-4.7,11.55-11.32h4.85c-1.31,9.54-7.55,15.4-16.4,15.4-12.17,0-18.79-9.63-18.79-21s6.62-21,18.79-21c8.47,0,15,4.54,16.09,13.63Z" transform="translate(-15.98 -18.43)" fill="#000054"/><path d="M1257.68,54.7c0,11.39-6.62,21-18.79,21s-18.79-9.63-18.79-21,6.62-21,18.79-21S1257.68,43.3,1257.68,54.7Zm-32.73,0c0,8.47,4.62,16.94,13.94,16.94s13.94-8.47,13.94-16.94-4.62-16.94-13.94-16.94S1225,46.23,1225,54.7Z" transform="translate(-15.98 -18.43)" fill="#000054"/><path d="M1265.61,34.83h4.85v6.85h.15c1.78-4.77,7.09-8,12.71-8,11.16,0,14.55,5.85,14.55,15.32V74.56H1293V49.77c0-6.85-2.23-12-10.09-12-7.7,0-12.32,5.85-12.47,13.63V74.56h-4.85Z" transform="translate(-15.98 -18.43)" fill="#000054"/><path d="M1315.5,34.83h8.09v4.08h-8.09v26.8c0,3.15.47,5,3.93,5.23a36.25,36.25,0,0,0,4.16-.23v4.16c-1.46,0-2.85.15-4.31.15-6.47,0-8.7-2.15-8.63-8.93V38.91h-6.93V34.83h6.93V22.9h4.85Z" transform="translate(-15.98 -18.43)" fill="#000054"/><path d="M1334.21,56c.08,7.08,3.78,15.63,13.09,15.63,7.09,0,10.94-4.16,12.48-10.17h4.85c-2.08,9-7.32,14.25-17.33,14.25-12.62,0-17.94-9.7-17.94-21,0-10.47,5.32-21,17.94-21,12.78,0,17.87,11.16,17.48,22.33Zm25.72-4.08c-.23-7.32-4.77-14.17-12.63-14.17s-12.32,6.93-13.09,14.17Z" transform="translate(-15.98 -18.43)" fill="#000054"/><path d="M1383,53.93l-14.25-19.1h6.08l11.32,15.09,11.09-15.09h6.08l-14.32,19,15.48,20.71h-6.16L1385.8,57.85l-12.24,16.71h-6Z" transform="translate(-15.98 -18.43)" fill="#000054"/><path d="M1417.6,34.83h8.09v4.08h-8.09v26.8c0,3.15.47,5,3.93,5.23a36.25,36.25,0,0,0,4.16-.23v4.16c-1.46,0-2.85.15-4.31.15-6.47,0-8.7-2.15-8.63-8.93V38.91h-6.93V34.83h6.93V22.9h4.85Z" transform="translate(-15.98 -18.43)" fill="#000054"/><path d="M1865,1353.24h3.4V1386h20v2.9H1865Z" transform="translate(-15.98 -18.43)" fill="#000054"/><path d="M1902.34,1353.24h3.8l14,35.7h-3.65l-4.35-11.1h-16.25l-4.3,11.1h-3.65Zm-5.4,21.7h14l-6.9-18.3Z" transform="translate(-15.98 -18.43)" fill="#000054"/><path d="M1923.34,1353.24h3.8l20.8,30.2h.1v-30.2h3.4v35.7h-3.8l-20.8-30.2h-.1v30.2h-3.4Z" transform="translate(-15.98 -18.43)" fill="#000054"/><path d="M1857.69,1430.69c-.15-3.9-3.15-5.65-6.75-5.65-2.8,0-6.1,1.1-6.1,4.45,0,2.8,3.2,3.8,5.35,4.35l4.2,1c3.6.55,7.35,2.65,7.35,7.15,0,5.6-5.55,7.75-10.35,7.75-6,0-10.1-2.8-10.6-9.1h3.15c.25,4.25,3.4,6.45,7.6,6.45,3,0,7-1.3,7-4.9,0-3-2.8-4-5.65-4.7l-4-.9c-4.1-1.1-7.2-2.5-7.2-6.9,0-5.25,5.15-7.25,9.7-7.25,5.15,0,9.25,2.7,9.45,8.3Z" transform="translate(-15.98 -18.43)" fill="#000054"/><path d="M1863.69,1423.14H1867l6.6,22.1h.1l6.3-22.1h3.55l6.3,22.1h.1l6.6-22.1h3.35l-8.3,25.8h-3.45l-6.35-21.7h-.1l-6.3,21.7H1872Z" transform="translate(-15.98 -18.43)" fill="#000054"/><path d="M1903.39,1413.24h3.15v5h-3.15Zm0,9.9h3.15v25.8h-3.15Z" transform="translate(-15.98 -18.43)" fill="#000054"/><path d="M1917.59,1423.14h5.25v2.65h-5.25v17.4c0,2,.3,3.25,2.55,3.4a24.43,24.43,0,0,0,2.7-.15v2.7c-.95,0-1.85.1-2.8.1-4.2,0-5.65-1.4-5.6-5.8v-17.65h-4.5v-2.65h4.5v-7.75h3.15Z" transform="translate(-15.98 -18.43)" fill="#000054"/><path d="M1945.59,1431.24c-.85-3.85-3.2-6.2-7.3-6.2-6,0-9,5.5-9,11s3,11,9,11c3.9,0,7.1-3,7.5-7.35h3.15c-.85,6.2-4.9,10-10.65,10-7.9,0-12.2-6.25-12.2-13.65s4.3-13.65,12.2-13.65c5.5,0,9.75,2.95,10.45,8.85Z" transform="translate(-15.98 -18.43)" fill="#000054"/><path d="M1953.29,1413.24h3.15v14.35h.1c1.15-3.1,4.6-5.2,8.25-5.2,7.25,0,9.45,3.8,9.45,9.95v16.6h-3.15v-16.1c0-4.45-1.45-7.8-6.55-7.8s-8,3.8-8.1,8.85v15h-3.15Z" transform="translate(-15.98 -18.43)" fill="#000054"/><path d="M798.75,1671.8c-.15,7.35,5.15,9.6,11.65,9.6,3.75,0,9.45-2.05,9.45-7.25,0-4.05-4.05-5.65-7.35-6.45l-8-2c-4.2-1-8-3-8-8.6,0-3.5,2.25-10.05,12.3-10.05,7.05,0,13.25,3.8,13.2,11.1h-3.4c-.2-5.45-4.7-8.2-9.75-8.2-4.65,0-9,1.8-9,7.1,0,3.35,2.5,4.75,5.4,5.45l8.7,2.15c5,1.35,9.25,3.55,9.25,9.4,0,2.45-1,10.2-13.65,10.2-8.45,0-14.65-3.8-14.25-12.5Z" transform="translate(-15.98 -18.43)" fill="#000054"/><path d="M829.9,1671.5c.05,4.6,2.45,10.15,8.5,10.15,4.6,0,7.1-2.7,8.1-6.6h3.15c-1.35,5.85-4.75,9.25-11.25,9.25-8.2,0-11.65-6.3-11.65-13.65,0-6.8,3.45-13.65,11.65-13.65s11.6,7.25,11.35,14.5Zm16.7-2.65c-.15-4.75-3.1-9.2-8.2-9.2s-8,4.5-8.5,9.2Z" transform="translate(-15.98 -18.43)" fill="#000054"/><path d="M854,1657.75h2.9v6h.1a9.53,9.53,0,0,1,9.75-6.4v3.15c-5.7-.3-9.6,3.9-9.6,9.25v13.75H854Z" transform="translate(-15.98 -18.43)" fill="#000054"/><path d="M866.85,1657.75h3.5l8.1,22.65h.1l8-22.65h3.25l-9.65,25.8H876.8Z" transform="translate(-15.98 -18.43)" fill="#000054"/><path d="M894.75,1671.5c0,4.6,2.45,10.15,8.5,10.15,4.6,0,7.1-2.7,8.1-6.6h3.15c-1.35,5.85-4.75,9.25-11.25,9.25-8.2,0-11.65-6.3-11.65-13.65,0-6.8,3.45-13.65,11.65-13.65s11.6,7.25,11.35,14.5Zm16.7-2.65c-.15-4.75-3.1-9.2-8.2-9.2s-8,4.5-8.5,9.2Z" transform="translate(-15.98 -18.43)" fill="#000054"/><path d="M918.85,1657.75h2.9v6h.1a9.53,9.53,0,0,1,9.75-6.4v3.15c-5.7-.3-9.6,3.9-9.6,9.25v13.75h-3.15Z" transform="translate(-15.98 -18.43)" fill="#000054"/><path d="M950.05,1665.3c-.15-3.9-3.15-5.65-6.75-5.65-2.8,0-6.1,1.1-6.1,4.45,0,2.8,3.2,3.8,5.35,4.35l4.2,1c3.6.55,7.35,2.65,7.35,7.15,0,5.6-5.55,7.75-10.35,7.75-6,0-10.1-2.8-10.6-9.1h3.15c.25,4.25,3.4,6.45,7.6,6.45,3,0,7.05-1.3,7.05-4.9,0-3-2.8-4-5.65-4.7l-4-.9c-4.1-1.1-7.2-2.5-7.2-6.9,0-5.25,5.15-7.25,9.7-7.25,5.15,0,9.25,2.7,9.45,8.3Z" transform="translate(-15.98 -18.43)" fill="#000054"/><path d="M1470.37,282.23h29.57v3.48h-25.49v15.48h23.87v3.48h-23.87v16.92h25.79v3.48h-29.87Z" transform="translate(-15.98 -18.43)" fill="#000054"/><path d="M1505.16,294.11h3.78v5.34h.12c1.38-3.72,5.52-6.24,9.9-6.24,8.7,0,11.34,4.56,11.34,11.94v19.92h-3.78V305.75c0-5.34-1.74-9.36-7.86-9.36s-9.6,4.56-9.72,10.62v18.06h-3.78Z" transform="translate(-15.98 -18.43)" fill="#000054"/><path d="M1543.44,294.11h6.3v3.18h-6.3v20.88c0,2.46.36,3.9,3.06,4.08a29.32,29.32,0,0,0,3.24-.18v3.23c-1.14,0-2.22.13-3.36.13-5,0-6.78-1.68-6.72-7V297.29h-5.4v-3.18h5.4v-9.3h3.78Z" transform="translate(-15.98 -18.43)" fill="#000054"/><path d="M1557.42,310.61c.06,5.52,2.94,12.18,10.2,12.18,5.52,0,8.52-3.24,9.72-7.92h3.78c-1.62,7-5.7,11.1-13.5,11.1-9.84,0-14-7.56-14-16.38,0-8.16,4.14-16.38,14-16.38s13.92,8.7,13.62,17.4Zm20-3.18c-.18-5.7-3.72-11-9.84-11s-9.6,5.4-10.2,11Z" transform="translate(-15.98 -18.43)" fill="#000054"/><path d="M1586.34,294.11h3.48v7.26h.12a11.44,11.44,0,0,1,11.7-7.68v3.78c-6.84-.36-11.52,4.68-11.52,11.1v16.5h-3.78Z" transform="translate(-15.98 -18.43)" fill="#000054"/><path d="M1605.24,294.11h3.48V300h.12c1.74-4.2,6.06-6.78,11-6.78,9.42,0,13.92,7.62,13.92,16.38S1629.3,326,1619.88,326c-4.62,0-9.12-2.34-10.74-6.78H1609v17.33h-3.78Zm14.64,2.28c-8.34,0-10.86,6.18-10.86,13.2,0,6.42,2.82,13.2,10.86,13.2,7.2,0,10.14-6.78,10.14-13.2S1627.08,296.39,1619.88,296.39Z" transform="translate(-15.98 -18.43)" fill="#000054"/><path d="M1639.68,294.11h3.48v7.26h.12a11.44,11.44,0,0,1,11.7-7.68v3.78c-6.84-.36-11.52,4.68-11.52,11.1v16.5h-3.78Z" transform="translate(-15.98 -18.43)" fill="#000054"/><path d="M1658.64,282.23h3.78v6.06h-3.78Zm0,11.88h3.78v31h-3.78Z" transform="translate(-15.98 -18.43)" fill="#000054"/><path d="M1688.22,303.17c-.18-4.68-3.78-6.78-8.1-6.78-3.36,0-7.32,1.32-7.32,5.34,0,3.36,3.84,4.56,6.42,5.22l5,1.14c4.32.66,8.82,3.18,8.82,8.58,0,6.71-6.66,9.3-12.42,9.3-7.2,0-12.12-3.36-12.72-10.92h3.78c.3,5.1,4.08,7.74,9.12,7.74,3.54,0,8.46-1.56,8.46-5.88,0-3.6-3.36-4.8-6.78-5.64l-4.86-1.08c-4.92-1.32-8.64-3-8.64-8.28,0-6.3,6.18-8.7,11.64-8.7,6.18,0,11.1,3.24,11.34,10Z" transform="translate(-15.98 -18.43)" fill="#000054"/><path d="M1700.76,310.61c.06,5.52,2.94,12.18,10.2,12.18,5.52,0,8.52-3.24,9.72-7.92h3.78c-1.62,7-5.7,11.1-13.5,11.1-9.84,0-14-7.56-14-16.38,0-8.16,4.14-16.38,14-16.38s13.92,8.7,13.62,17.4Zm20-3.18c-.18-5.7-3.72-11-9.84-11s-9.6,5.4-10.2,11Z" transform="translate(-15.98 -18.43)" fill="#000054"/><path d="M1452.54,408.52c-5.33-8.81-8.46-17-8.46-27.41a51.19,51.19,0,0,1,8.46-27.78h3c-5.33,8.52-7.67,18.6-7.67,29.16,0,8.7,3.11,18.6,7.67,26Z" transform="translate(-15.98 -18.43)" fill="#000054"/><path d="M1491.12,367.19A13,13,0,0,0,1478,356.81c-11.34,0-16.14,9.48-16.14,18.84s4.8,18.84,16.14,18.84c7.92,0,13-6.12,13.74-13.74h4.08C1494.66,391.25,1488,398,1478,398c-13.5,0-20.22-10.62-20.22-22.32s6.72-22.32,20.22-22.32c8.1,0,16.14,4.86,17.22,13.86Z" transform="translate(-15.98 -18.43)" fill="#000054"/><path d="M1501.38,354.23h3.78v42.84h-3.78Z" transform="translate(-15.98 -18.43)" fill="#000054"/><path d="M1540.14,381.59c0,8.88-5.16,16.38-14.64,16.38s-14.64-7.5-14.64-16.38,5.16-16.38,14.64-16.38S1540.14,372.71,1540.14,381.59Zm-25.5,0c0,6.6,3.6,13.2,10.86,13.2s10.86-6.6,10.86-13.2-3.6-13.2-10.86-13.2S1514.64,375,1514.64,381.59Z" transform="translate(-15.98 -18.43)" fill="#000054"/><path d="M1570.86,397.07h-3.48v-5.58h-.12a11.52,11.52,0,0,1-10.68,6.48c-7.8,0-10.86-4.56-10.86-11.76v-20.1h3.78v20.16c.18,5.58,2.28,8.52,8.28,8.52,6.48,0,9.3-6.12,9.3-12.42V366.11h3.78Z" transform="translate(-15.98 -18.43)" fill="#000054"/><path d="M1605.24,397.07h-3.48v-5.88h-.12c-1.62,4-6.54,6.78-11,6.78-9.42,0-13.92-7.62-13.92-16.38s4.5-16.38,13.92-16.38c4.62,0,9.12,2.34,10.74,6.78h.12V354.23h3.78Zm-14.64-2.28c8,0,10.86-6.78,10.86-13.2s-2.82-13.2-10.86-13.2c-7.2,0-10.14,6.78-10.14,13.2S1583.4,394.79,1590.6,394.79Z" transform="translate(-15.98 -18.43)" fill="#000054"/><path d="M1654.2,397.07h-3.48v-5.58h-.12a11.52,11.52,0,0,1-10.68,6.48c-7.8,0-10.86-4.56-10.86-11.76v-20.1h3.78v20.16c.18,5.58,2.28,8.52,8.28,8.52,6.48,0,9.3-6.12,9.3-12.42V366.11h3.78Z" transform="translate(-15.98 -18.43)" fill="#000054"/><path d="M1679.88,375.17c-.18-4.68-3.78-6.78-8.1-6.78-3.36,0-7.32,1.32-7.32,5.34,0,3.36,3.84,4.56,6.42,5.22l5,1.14c4.32.66,8.82,3.18,8.82,8.58,0,6.71-6.66,9.3-12.42,9.3-7.2,0-12.12-3.36-12.72-10.92h3.78c.3,5.1,4.08,7.74,9.12,7.74,3.54,0,8.46-1.56,8.46-5.88,0-3.6-3.36-4.8-6.78-5.64l-4.86-1.08c-4.92-1.32-8.64-3-8.64-8.28,0-6.3,6.18-8.7,11.64-8.7,6.18,0,11.1,3.24,11.34,10Z" transform="translate(-15.98 -18.43)" fill="#000054"/><path d="M1692.42,382.61c.06,5.52,2.94,12.18,10.2,12.18,5.52,0,8.52-3.24,9.72-7.92h3.78c-1.62,7-5.7,11.1-13.5,11.1-9.84,0-14-7.56-14-16.38,0-8.16,4.14-16.38,14-16.38s13.92,8.7,13.62,17.4Zm20-3.18c-.18-5.7-3.72-11-9.84-11s-9.6,5.4-10.2,11Z" transform="translate(-15.98 -18.43)" fill="#000054"/><path d="M1721.34,366.11h3.48v7.26h.12a11.44,11.44,0,0,1,11.7-7.68v3.78c-6.84-.36-11.52,4.68-11.52,11.1v16.5h-3.78Z" transform="translate(-15.98 -18.43)" fill="#000054"/><path d="M1739.58,353.33c5.34,8.82,8.46,17,8.46,27.42a51.13,51.13,0,0,1-8.46,27.77h-3c5.34-8.51,7.68-18.59,7.68-29.15,0-8.7-3.12-18.6-7.68-26Z" transform="translate(-15.98 -18.43)" fill="#000054"/><path d="M1722.6,1005.42a13,13,0,0,0-13.14-10.37c-11.33,0-16.13,9.47-16.13,18.83s4.8,18.84,16.13,18.84c7.92,0,13-6.12,13.74-13.74h4.08c-1.14,10.5-7.8,17.22-17.82,17.22-13.5,0-20.21-10.62-20.21-22.32s6.71-22.31,20.21-22.31c8.1,0,16.14,4.86,17.22,13.85Z" transform="translate(-15.98 -18.43)" fill="#000054"/><path d="M1732.86,992.47h3.78v42.83h-3.78Z" transform="translate(-15.98 -18.43)" fill="#000054"/><path d="M1771.62,1019.82c0,8.88-5.16,16.38-14.64,16.38s-14.64-7.5-14.64-16.38,5.16-16.38,14.64-16.38S1771.62,1010.94,1771.62,1019.82Zm-25.5,0c0,6.6,3.6,13.2,10.86,13.2s10.86-6.6,10.86-13.2-3.6-13.2-10.86-13.2S1746.12,1013.22,1746.12,1019.82Z" transform="translate(-15.98 -18.43)" fill="#000054"/><path d="M1802.34,1035.3h-3.48v-5.58h-.12a11.52,11.52,0,0,1-10.68,6.48c-7.8,0-10.85-4.56-10.85-11.76v-20.1H1781v20.16c.18,5.58,2.28,8.52,8.28,8.52,6.48,0,9.3-6.12,9.3-12.42v-16.26h3.78Z" transform="translate(-15.98 -18.43)" fill="#000054"/><path d="M1836.72,1035.3h-3.48v-5.88h-.12c-1.62,4-6.54,6.78-11,6.78-9.42,0-13.92-7.62-13.92-16.38s4.5-16.38,13.92-16.38c4.62,0,9.12,2.34,10.74,6.78h.12V992.47h3.78Zm-14.64-2.28c8,0,10.86-6.78,10.86-13.2s-2.82-13.2-10.86-13.2c-7.2,0-10.14,6.78-10.14,13.2S1814.88,1033,1822.08,1033Z" transform="translate(-15.98 -18.43)" fill="#000054"/><path d="M1695.75,1085.4c-.18-4.68-3.78-6.78-8.09-6.78-3.37,0-7.33,1.32-7.33,5.34,0,3.36,3.84,4.56,6.42,5.22l5,1.14c4.32.66,8.82,3.18,8.82,8.58,0,6.72-6.65,9.3-12.41,9.3-7.2,0-12.12-3.36-12.72-10.92h3.77c.31,5.1,4.08,7.74,9.13,7.74,3.54,0,8.45-1.56,8.45-5.88,0-3.6-3.36-4.8-6.78-5.64l-4.85-1.08c-4.92-1.32-8.64-3-8.64-8.28,0-6.3,6.18-8.7,11.64-8.7,6.18,0,11.09,3.24,11.33,10Z" transform="translate(-15.98 -18.43)" fill="#000054"/><path d="M1708.29,1092.84c.06,5.52,2.94,12.18,10.2,12.18,5.52,0,8.52-3.24,9.72-7.92H1732c-1.62,7-5.7,11.1-13.5,11.1-9.84,0-14-7.56-14-16.38,0-8.16,4.14-16.38,14-16.38s13.92,8.7,13.62,17.4Zm20-3.18c-.18-5.7-3.72-11-9.84-11s-9.6,5.4-10.2,11Z" transform="translate(-15.98 -18.43)" fill="#000054"/><path d="M1737.21,1076.34h3.48v7.26h.12a11.44,11.44,0,0,1,11.7-7.68v3.78c-6.84-.36-11.52,4.68-11.52,11.1v16.5h-3.78Z" transform="translate(-15.98 -18.43)" fill="#000054"/><path d="M1752.63,1076.34h4.2l9.72,27.18h.12l9.6-27.18h3.9l-11.58,31h-4Z" transform="translate(-15.98 -18.43)" fill="#000054"/><path d="M1784,1064.47h3.78v6.06H1784Zm0,11.87h3.78v31H1784Z" transform="translate(-15.98 -18.43)" fill="#000054"/><path d="M1816.83,1086.06c-1-4.62-3.84-7.44-8.76-7.44-7.26,0-10.86,6.6-10.86,13.2s3.6,13.2,10.86,13.2c4.68,0,8.52-3.66,9-8.82h3.78c-1,7.44-5.88,12-12.78,12-9.48,0-14.64-7.5-14.64-16.38s5.16-16.38,14.64-16.38c6.6,0,11.7,3.54,12.54,10.62Z" transform="translate(-15.98 -18.43)" fill="#000054"/><path d="M1828.35,1092.84c.06,5.52,2.94,12.18,10.2,12.18,5.52,0,8.52-3.24,9.72-7.92h3.78c-1.62,7-5.7,11.1-13.5,11.1-9.84,0-14-7.56-14-16.38,0-8.16,4.14-16.38,14-16.38s13.92,8.7,13.62,17.4Zm20-3.18c-.18-5.7-3.72-11-9.84-11s-9.6,5.4-10.2,11Z" transform="translate(-15.98 -18.43)" fill="#000054"/><path d="M1662.22,1148.34h3.48v5.88h.12c1.74-4.2,6.06-6.78,11-6.78,9.41,0,13.91,7.62,13.91,16.38s-4.5,16.38-13.91,16.38c-4.62,0-9.12-2.34-10.74-6.78H1666v17.34h-3.78Zm14.64,2.28c-8.34,0-10.86,6.18-10.86,13.2,0,6.42,2.82,13.2,10.86,13.2,7.19,0,10.14-6.78,10.14-13.2S1684.05,1150.62,1676.86,1150.62Z" transform="translate(-15.98 -18.43)" fill="#000054"/><path d="M1696.66,1148.34h3.47v7.26h.12a11.45,11.45,0,0,1,11.71-7.68v3.78c-6.84-.36-11.52,4.68-11.52,11.1v16.5h-3.78Z" transform="translate(-15.98 -18.43)" fill="#000054"/><path d="M1743.27,1163.82c0,8.88-5.16,16.38-14.64,16.38s-14.63-7.5-14.63-16.38,5.15-16.38,14.63-16.38S1743.27,1154.94,1743.27,1163.82Zm-25.5,0c0,6.6,3.6,13.2,10.86,13.2s10.86-6.6,10.86-13.2-3.6-13.2-10.86-13.2S1717.77,1157.22,1717.77,1163.82Z" transform="translate(-15.98 -18.43)" fill="#000054"/><path d="M1745.43,1148.34h4.2l9.72,27.18h.12l9.6-27.18h3.9l-11.58,31h-4Z" transform="translate(-15.98 -18.43)" fill="#000054"/><path d="M1776.75,1136.47h3.78v6.06h-3.78Zm0,11.87h3.78v31h-3.78Z" transform="translate(-15.98 -18.43)" fill="#000054"/><path d="M1815,1179.3h-3.48v-5.88h-.12c-1.62,4-6.54,6.78-11,6.78-9.42,0-13.92-7.62-13.92-16.38s4.5-16.38,13.92-16.38c4.62,0,9.12,2.34,10.74,6.78h.12v-17.75H1815Zm-14.64-2.28c8,0,10.86-6.78,10.86-13.2s-2.82-13.2-10.86-13.2c-7.2,0-10.14,6.78-10.14,13.2S1793.19,1177,1800.39,1177Z" transform="translate(-15.98 -18.43)" fill="#000054"/><path d="M1824.45,1164.84c.06,5.52,2.94,12.18,10.2,12.18,5.52,0,8.52-3.24,9.72-7.92h3.78c-1.62,7-5.7,11.1-13.5,11.1-9.84,0-14-7.56-14-16.38,0-8.16,4.14-16.38,14-16.38s13.92,8.7,13.62,17.4Zm20-3.18c-.18-5.7-3.72-11-9.84-11s-9.6,5.4-10.2,11Z" transform="translate(-15.98 -18.43)" fill="#000054"/><path d="M1853.37,1148.34h3.48v7.26h.12a11.44,11.44,0,0,1,11.7-7.68v3.78c-6.84-.36-11.52,4.68-11.52,11.1v16.5h-3.78Z" transform="translate(-15.98 -18.43)" fill="#000054"/></svg>