<?xml version="1.0" encoding="UTF-8"?>
<svg id="Layer_1" data-name="Layer 1" xmlns="http://www.w3.org/2000/svg" version="1.1" viewBox="0 0 1400 677">
  <defs>
    <style>
      .cls-1, .cls-2, .cls-3, .cls-4, .cls-5, .cls-6 {
        stroke-linecap: round;
        stroke-linejoin: round;
      }

      .cls-1, .cls-2, .cls-4, .cls-5, .cls-7 {
        stroke: #1c1954;
      }

      .cls-1, .cls-3, .cls-4 {
        stroke-width: 3px;
      }

      .cls-1, .cls-5, .cls-8, .cls-6 {
        fill: #fff;
      }

      .cls-2, .cls-3, .cls-4, .cls-7 {
        fill: none;
      }

      .cls-2, .cls-7, .cls-6 {
        stroke-width: 5px;
      }

      .cls-3, .cls-6 {
        stroke: #1a1750;
      }

      .cls-9 {
        fill: #e1e1e1;
      }

      .cls-9, .cls-10, .cls-11, .cls-8 {
        stroke-width: 0px;
      }

      .cls-10 {
        fill: #1a1750;
      }

      .cls-5 {
        stroke-width: 4.7px;
      }

      .cls-7 {
        stroke-miterlimit: 10;
      }

      .cls-11 {
        fill: #1c1954;
      }
    </style>
  </defs>
  <polyline class="cls-7" points="316.7 381.9 316.7 193.3 1087.2 193.3 1087.2 403.2"/>
  <rect class="cls-9" x="885.8" y="260" width="406" height="386.8" rx="11.4" ry="11.4"/>
  <circle class="cls-9" cx="316.1" cy="456.5" r="205.8"/>
  <g>
    <path class="cls-11" d="M995.2,347.5l-5.5-4.2c-2.5,1.8-5.5,2.7-9.3,2.7-11.2,0-16.9-8.8-16.9-18.6s5.6-18.6,16.9-18.6,16.8,8.8,16.8,18.6-1.8,10.7-5.4,14.2l5.1,3.9-1.7,2.1ZM989.3,339.5c3.2-3,4.6-7.6,4.6-12.2,0-7.8-4-15.7-13.4-15.7s-13.5,7.9-13.5,15.7,4,15.7,13.5,15.7,4.8-.6,6.6-1.8l-4.7-3.5,1.8-2.2,5.2,4Z"/>
    <path class="cls-11" d="M1022.8,345.2h-2.9v-4.7h0c-1.7,3.5-5.1,5.4-8.9,5.4-6.6,0-9.1-3.8-9.1-9.8v-16.8h3.2v16.8c.1,4.7,1.9,7.1,6.9,7.1s7.8-5.1,7.8-10.4v-13.6h3.2v25.8Z"/>
    <path class="cls-11" d="M1028.5,327.3c.3-6,4.5-8.7,10.5-8.7s9.5,1.4,9.5,8.3v13.7c0,1.2.6,1.9,1.9,1.9s.6,0,1-.2v2.7c-.8.2-1.2.2-2.1.2-3.2,0-3.7-1.9-3.7-4.5h0c-2.2,3.3-4.4,5.2-9.4,5.2s-8.7-2.3-8.7-7.6,7-7.5,13.9-8.3c2.6-.2,4-.7,4-3.5,0-4.2-3-5.3-6.8-5.3s-6.8,1.8-6.9,6h-3.2ZM1045.3,331.1h0c-.4.8-1.8,1-2.7,1.1-5.4,1-12,1-12,6s2.8,5.1,5.8,5.1c4.8,0,9-3,9-8.1v-4.1Z"/>
    <path class="cls-11" d="M1054.7,319.4h3.2v4.5h0c1.2-3.1,4.6-5.2,8.3-5.2,7.2,0,9.5,3.8,9.5,10v16.6h-3.2v-16.1c0-4.4-1.5-7.8-6.5-7.8s-8,3.8-8.1,8.9v15.1h-3.2v-25.8Z"/>
    <path class="cls-11" d="M1086.6,319.4h5.3v2.7h-5.3v17.4c0,2,.3,3.2,2.6,3.4.9,0,1.8,0,2.7-.1v2.7c-1,0-1.9,0-2.8,0-4.2,0-5.6-1.4-5.6-5.8v-17.7h-4.5v-2.7h4.5v-7.8h3.1v7.8Z"/>
    <path class="cls-11" d="M1096.4,309.5h3.2v5h-3.2v-5ZM1096.4,319.4h3.2v25.8h-3.2v-25.8Z"/>
    <path class="cls-11" d="M1110.6,319.4h5.2v2.7h-5.2v17.4c0,2,.3,3.2,2.5,3.4.9,0,1.8,0,2.7-.1v2.7c-1,0-1.9,0-2.8,0-4.2,0-5.7-1.4-5.6-5.8v-17.7h-4.5v-2.7h4.5v-7.8h3.2v7.8Z"/>
    <path class="cls-11" d="M1120.1,327.3c.3-6,4.5-8.7,10.5-8.7s9.5,1.4,9.5,8.3v13.7c0,1.2.6,1.9,1.9,1.9s.6,0,1-.2v2.7c-.8.2-1.2.2-2.1.2-3.2,0-3.7-1.9-3.7-4.5h0c-2.2,3.3-4.4,5.2-9.4,5.2s-8.7-2.3-8.7-7.6,7.1-7.5,13.9-8.3c2.6-.2,4-.7,4-3.5,0-4.2-3-5.3-6.8-5.3s-6.8,1.8-6.9,6h-3.2ZM1136.9,331.1h0c-.4.8-1.8,1-2.7,1.1-5.4,1-12,1-12,6s2.8,5.1,5.8,5.1c4.8,0,9-3,9-8.1v-4.1Z"/>
    <path class="cls-11" d="M1151.4,319.4h5.2v2.7h-5.2v17.4c0,2,.3,3.2,2.5,3.4.9,0,1.8,0,2.7-.1v2.7c-1,0-1.9,0-2.8,0-4.2,0-5.7-1.4-5.6-5.8v-17.7h-4.5v-2.7h4.5v-7.8h3.2v7.8Z"/>
    <path class="cls-11" d="M1161.2,309.5h3.2v5h-3.2v-5ZM1161.2,319.4h3.2v25.8h-3.2v-25.8Z"/>
    <path class="cls-11" d="M1167.5,319.4h3.5l8.1,22.7h0l8-22.7h3.3l-9.7,25.8h-3.3l-10-25.8Z"/>
    <path class="cls-11" d="M1195.4,333.1c0,4.6,2.5,10.2,8.5,10.2s7.1-2.6,8.1-6.6h3.2c-1.4,5.9-4.7,9.3-11.3,9.3s-11.7-6.3-11.7-13.7,3.5-13.7,11.7-13.7,11.6,7.3,11.4,14.5h-19.9ZM1212.1,330.5c-.2-4.8-3.2-9.2-8.2-9.2s-8,4.5-8.5,9.2h16.7Z"/>
    <path class="cls-11" d="M963.2,385.3c.3-6,4.5-8.7,10.5-8.7s9.5,1.4,9.5,8.3v13.7c0,1.2.6,1.9,1.9,1.9s.6,0,1-.2v2.7c-.8.2-1.2.2-2.1.2-3.2,0-3.7-1.9-3.7-4.5h0c-2.2,3.3-4.4,5.2-9.4,5.2s-8.7-2.3-8.7-7.6,7.1-7.5,13.9-8.3c2.6-.2,4-.7,4-3.5,0-4.2-3-5.3-6.8-5.3s-6.8,1.8-6.9,6h-3.2ZM980,389.1h0c-.4.8-1.8,1-2.7,1.1-5.4,1-12,1-12,6s2.8,5.1,5.8,5.1c4.8,0,9-3,9-8.1v-4.1Z"/>
    <path class="cls-11" d="M1004.9,384.9c-.2-3.9-3.2-5.7-6.8-5.7s-6.1,1.1-6.1,4.5,3.2,3.8,5.3,4.4l4.2,1c3.6.5,7.3,2.6,7.3,7.2s-5.5,7.8-10.4,7.8-10-2.8-10.6-9.1h3.2c.2,4.2,3.4,6.5,7.6,6.5s7.1-1.3,7.1-4.9-2.8-4-5.7-4.7l-4.1-.9c-4.1-1.1-7.2-2.6-7.2-6.9s5.2-7.3,9.7-7.3,9.2,2.7,9.5,8.3h-3.2Z"/>
    <path class="cls-11" d="M1029,384.9c-.2-3.9-3.2-5.7-6.8-5.7s-6.1,1.1-6.1,4.5,3.2,3.8,5.3,4.4l4.2,1c3.6.5,7.3,2.6,7.3,7.2s-5.5,7.8-10.4,7.8-10-2.8-10.6-9.1h3.2c.2,4.2,3.4,6.5,7.6,6.5s7.1-1.3,7.1-4.9-2.8-4-5.7-4.7l-4.1-.9c-4.1-1.1-7.2-2.6-7.2-6.9s5.2-7.3,9.7-7.3,9.2,2.7,9.5,8.3h-3.2Z"/>
    <path class="cls-11" d="M1039.4,391.1c0,4.6,2.5,10.2,8.5,10.2s7.1-2.6,8.1-6.6h3.2c-1.4,5.9-4.7,9.3-11.3,9.3s-11.7-6.3-11.7-13.7,3.5-13.7,11.7-13.7,11.6,7.3,11.4,14.5h-19.9ZM1056.1,388.5c-.2-4.8-3.2-9.2-8.2-9.2s-8,4.5-8.5,9.2h16.7Z"/>
    <path class="cls-11" d="M1079,384.9c-.2-3.9-3.2-5.7-6.8-5.7s-6.1,1.1-6.1,4.5,3.2,3.8,5.3,4.4l4.2,1c3.6.5,7.3,2.6,7.3,7.2s-5.5,7.8-10.4,7.8-10-2.8-10.6-9.1h3.2c.2,4.2,3.4,6.5,7.6,6.5s7.1-1.3,7.1-4.9-2.8-4-5.7-4.7l-4.1-.9c-4.1-1.1-7.2-2.6-7.2-6.9s5.2-7.3,9.7-7.3,9.2,2.7,9.5,8.3h-3.2Z"/>
    <path class="cls-11" d="M1103,384.9c-.2-3.9-3.2-5.7-6.8-5.7s-6.1,1.1-6.1,4.5,3.2,3.8,5.3,4.4l4.2,1c3.6.5,7.3,2.6,7.3,7.2s-5.5,7.8-10.4,7.8-10-2.8-10.6-9.1h3.2c.2,4.2,3.4,6.5,7.6,6.5s7.1-1.3,7.1-4.9-2.8-4-5.7-4.7l-4.1-.9c-4.1-1.1-7.2-2.6-7.2-6.9s5.2-7.3,9.7-7.3,9.2,2.7,9.5,8.3h-3.2Z"/>
    <path class="cls-11" d="M1111.6,377.4h2.9v4.4h.2c1.6-3.2,4.3-5.1,8.5-5.1s6.5,1.7,7.4,5.1c1.5-3.4,4.8-5.1,8.2-5.1,5.7,0,8.6,3,8.6,9.1v17.5h-3.2v-17.4c0-4.3-1.5-6.6-6.1-6.6s-7,4.5-7,9.3v14.6h-3.2v-17.5c0-3.5-1.3-6.4-5.4-6.4s-7.7,4.1-7.7,9.5v14.4h-3.2v-25.8Z"/>
    <path class="cls-11" d="M1155.1,391.1c0,4.6,2.5,10.2,8.5,10.2s7.1-2.6,8.1-6.6h3.2c-1.4,5.9-4.7,9.3-11.3,9.3s-11.7-6.3-11.7-13.7,3.5-13.7,11.7-13.7,11.6,7.3,11.4,14.5h-19.9ZM1171.8,388.5c-.2-4.8-3.2-9.2-8.2-9.2s-8,4.5-8.5,9.2h16.7Z"/>
    <path class="cls-11" d="M1179.2,377.4h3.2v4.5h0c1.2-3.1,4.6-5.2,8.3-5.2,7.2,0,9.5,3.8,9.5,10v16.6h-3.2v-16.1c0-4.4-1.5-7.8-6.5-7.8s-8,3.8-8.1,8.9v15.1h-3.2v-25.8Z"/>
    <path class="cls-11" d="M1211.1,377.4h5.3v2.7h-5.3v17.4c0,2,.3,3.2,2.6,3.4.9,0,1.8,0,2.7-.1v2.7c-1,0-1.9,0-2.8,0-4.2,0-5.6-1.4-5.6-5.8v-17.7h-4.5v-2.7h4.5v-7.8h3.1v7.8Z"/>
  </g>
  <g>
    <path class="cls-11" d="M651.3,20.8h19.6c7,0,13,3.4,13,11.2s-2.8,9.8-8.3,10.9h0c5.6.9,7.2,4.6,7.5,9.8.2,2.9.2,8.9,2,11h-4.5c-1-1.6-1-4.9-1.1-6.7-.3-6-.9-12.7-8.6-12.4h-15.5v19h-4.1V20.8ZM655.3,41.1h15.2c5,0,9.2-3.1,9.2-8.3s-3.1-8.5-9.2-8.5h-15.2v16.9Z"/>
    <path class="cls-11" d="M690.6,20.8h3.8v6.1h-3.8v-6.1ZM690.6,32.7h3.8v31h-3.8v-31Z"/>
    <path class="cls-11" d="M720.2,41.7c-.2-4.7-3.8-6.8-8.1-6.8s-7.3,1.3-7.3,5.3,3.8,4.6,6.4,5.2l5,1.1c4.3.7,8.8,3.2,8.8,8.6s-6.7,9.3-12.4,9.3-12.1-3.3-12.7-10.9h3.8c.3,5.1,4.1,7.7,9.1,7.7s8.5-1.6,8.5-5.9-3.4-4.8-6.8-5.6l-4.9-1.1c-4.9-1.3-8.6-3.1-8.6-8.3s6.2-8.7,11.6-8.7,11,3.2,11.3,10h-3.8Z"/>
    <path class="cls-11" d="M730.5,20.8h3.8v26.9l17.2-15h5l-13.2,11.5,14.1,19.5h-4.7l-12.2-16.9-6.1,5.1v11.8h-3.8V20.8Z"/>
  </g>
  <g>
    <path class="cls-11" d="M238.4,347.5l-5.6-4.2c-2.5,1.8-5.5,2.7-9.3,2.7-11.3,0-16.9-8.8-16.9-18.6s5.6-18.6,16.9-18.6,16.8,8.8,16.8,18.6-1.8,10.7-5.4,14.2l5.1,3.9-1.7,2.1ZM232.4,339.5c3.2-3,4.6-7.6,4.6-12.2,0-7.8-4-15.7-13.4-15.7s-13.5,7.9-13.5,15.7,4,15.7,13.5,15.7,4.8-.6,6.6-1.8l-4.7-3.5,1.8-2.2,5.2,4Z"/>
    <path class="cls-11" d="M266,345.2h-2.9v-4.7h-.1c-1.7,3.5-5.1,5.4-8.9,5.4-6.6,0-9.1-3.8-9.1-9.8v-16.8h3.2v16.8c.1,4.7,1.9,7.1,6.9,7.1s7.8-5.1,7.8-10.4v-13.6h3.1v25.8Z"/>
    <path class="cls-11" d="M271.6,327.3c.4-6,4.5-8.7,10.5-8.7s9.5,1.4,9.5,8.3v13.7c0,1.2.6,1.9,1.9,1.9s.6,0,1-.2v2.7c-.8.2-1.2.2-2,.2-3.2,0-3.7-1.9-3.7-4.5h0c-2.3,3.3-4.4,5.2-9.4,5.2s-8.7-2.3-8.7-7.6,7.1-7.5,13.9-8.3c2.6-.2,4-.7,4-3.5,0-4.2-3-5.3-6.8-5.3s-6.8,1.8-6.9,6h-3.2ZM288.4,331.1h0c-.4.8-1.8,1-2.7,1.1-5.4,1-12,1-12,6s2.8,5.1,5.8,5.1c4.9,0,9-3,9-8.1v-4.1Z"/>
    <path class="cls-11" d="M297.9,309.5h3.1v35.7h-3.1v-35.7Z"/>
    <path class="cls-11" d="M307.2,309.5h3.1v5h-3.1v-5ZM307.2,319.4h3.1v25.8h-3.1v-25.8Z"/>
    <path class="cls-11" d="M321.4,319.4h5.3v2.7h-5.3v17.4c0,2,.3,3.2,2.6,3.4.9,0,1.8,0,2.7-.1v2.7c-1,0-1.9,0-2.8,0-4.2,0-5.7-1.4-5.6-5.8v-17.7h-4.5v-2.7h4.5v-7.8h3.2v7.8Z"/>
    <path class="cls-11" d="M330.9,327.3c.4-6,4.5-8.7,10.5-8.7s9.5,1.4,9.5,8.3v13.7c0,1.2.6,1.9,1.9,1.9s.6,0,1-.2v2.7c-.8.2-1.2.2-2,.2-3.2,0-3.7-1.9-3.7-4.5h0c-2.3,3.3-4.4,5.2-9.4,5.2s-8.7-2.3-8.7-7.6,7.1-7.5,13.9-8.3c2.6-.2,4-.7,4-3.5,0-4.2-3-5.3-6.8-5.3s-6.8,1.8-6.9,6h-3.2ZM347.7,331.1h0c-.4.8-1.8,1-2.7,1.1-5.4,1-12,1-12,6s2.8,5.1,5.8,5.1c4.9,0,9-3,9-8.1v-4.1Z"/>
    <path class="cls-11" d="M362.1,319.4h5.3v2.7h-5.3v17.4c0,2,.3,3.2,2.6,3.4.9,0,1.8,0,2.7-.1v2.7c-1,0-1.9,0-2.8,0-4.2,0-5.7-1.4-5.6-5.8v-17.7h-4.5v-2.7h4.5v-7.8h3.2v7.8Z"/>
    <path class="cls-11" d="M372,309.5h3.1v5h-3.1v-5ZM372,319.4h3.1v25.8h-3.1v-25.8Z"/>
    <path class="cls-11" d="M378.3,319.4h3.5l8.1,22.7h.1l8-22.7h3.2l-9.7,25.8h-3.4l-10-25.8Z"/>
    <path class="cls-11" d="M406.2,333.1c0,4.6,2.5,10.2,8.5,10.2s7.1-2.6,8.1-6.6h3.2c-1.4,5.9-4.7,9.3-11.3,9.3s-11.7-6.3-11.7-13.7,3.5-13.7,11.7-13.7,11.6,7.3,11.4,14.5h-19.9ZM422.9,330.5c-.1-4.8-3.2-9.2-8.2-9.2s-8,4.5-8.5,9.2h16.7Z"/>
    <path class="cls-11" d="M190.2,385.3c.4-6,4.5-8.7,10.5-8.7s9.5,1.4,9.5,8.3v13.7c0,1.2.6,1.9,1.9,1.9s.6,0,1-.2v2.7c-.8.2-1.2.2-2,.2-3.2,0-3.7-1.9-3.7-4.5h0c-2.3,3.3-4.4,5.2-9.4,5.2s-8.7-2.3-8.7-7.6,7.1-7.5,13.9-8.3c2.6-.2,4-.7,4-3.5,0-4.2-3-5.3-6.8-5.3s-6.8,1.8-6.9,6h-3.2ZM207,389.1h0c-.4.8-1.8,1-2.7,1.1-5.4,1-12,1-12,6s2.8,5.1,5.8,5.1c4.9,0,9-3,9-8.1v-4.1Z"/>
    <path class="cls-11" d="M231.9,384.9c-.1-3.9-3.2-5.7-6.8-5.7s-6.1,1.1-6.1,4.5,3.1,3.8,5.4,4.4l4.2,1c3.6.5,7.4,2.6,7.4,7.2s-5.6,7.8-10.4,7.8-10.1-2.8-10.6-9.1h3.1c.2,4.2,3.4,6.5,7.6,6.5s7.1-1.3,7.1-4.9-2.8-4-5.7-4.7l-4.1-.9c-4.1-1.1-7.2-2.6-7.2-6.9s5.2-7.3,9.7-7.3,9.2,2.7,9.5,8.3h-3.2Z"/>
    <path class="cls-11" d="M255.9,384.9c-.1-3.9-3.2-5.7-6.8-5.7s-6.1,1.1-6.1,4.5,3.2,3.8,5.4,4.4l4.2,1c3.6.5,7.4,2.6,7.4,7.2s-5.6,7.8-10.4,7.8-10.1-2.8-10.6-9.1h3.1c.2,4.2,3.4,6.5,7.6,6.5s7.1-1.3,7.1-4.9-2.8-4-5.7-4.7l-4.1-.9c-4.1-1.1-7.2-2.6-7.2-6.9s5.2-7.3,9.7-7.3,9.2,2.7,9.5,8.3h-3.1Z"/>
    <path class="cls-11" d="M266.4,391.1c0,4.6,2.5,10.2,8.5,10.2s7.1-2.6,8.1-6.6h3.2c-1.4,5.9-4.7,9.3-11.3,9.3s-11.7-6.3-11.7-13.7,3.5-13.7,11.7-13.7,11.6,7.3,11.4,14.5h-19.9ZM283.1,388.5c-.1-4.8-3.1-9.2-8.2-9.2s-8,4.5-8.5,9.2h16.7Z"/>
    <path class="cls-11" d="M305.9,384.9c-.1-3.9-3.2-5.7-6.8-5.7s-6.1,1.1-6.1,4.5,3.2,3.8,5.4,4.4l4.2,1c3.6.5,7.4,2.6,7.4,7.2s-5.6,7.8-10.4,7.8-10.1-2.8-10.6-9.1h3.1c.2,4.2,3.4,6.5,7.6,6.5s7.1-1.3,7.1-4.9-2.8-4-5.7-4.7l-4.1-.9c-4.1-1.1-7.2-2.6-7.2-6.9s5.2-7.3,9.7-7.3,9.2,2.7,9.5,8.3h-3.1Z"/>
    <path class="cls-11" d="M330,384.9c-.1-3.9-3.2-5.7-6.8-5.7s-6.1,1.1-6.1,4.5,3.1,3.8,5.4,4.4l4.2,1c3.6.5,7.4,2.6,7.4,7.2s-5.6,7.8-10.4,7.8-10.1-2.8-10.6-9.1h3.1c.2,4.2,3.4,6.5,7.6,6.5s7.1-1.3,7.1-4.9-2.8-4-5.7-4.7l-4.1-.9c-4.1-1.1-7.2-2.6-7.2-6.9s5.2-7.3,9.7-7.3,9.2,2.7,9.5,8.3h-3.2Z"/>
    <path class="cls-11" d="M338.6,377.4h2.9v4.4h.1c1.7-3.2,4.3-5.1,8.5-5.1s6.5,1.7,7.4,5.1c1.6-3.4,4.8-5.1,8.2-5.1,5.7,0,8.6,3,8.6,9.1v17.5h-3.2v-17.4c0-4.3-1.5-6.6-6.1-6.6s-7,4.5-7,9.3v14.6h-3.2v-17.5c0-3.5-1.4-6.4-5.4-6.4s-7.7,4.1-7.7,9.5v14.4h-3.2v-25.8Z"/>
    <path class="cls-11" d="M382.1,391.1c0,4.6,2.5,10.2,8.5,10.2s7.1-2.6,8.1-6.6h3.2c-1.4,5.9-4.7,9.3-11.3,9.3s-11.7-6.3-11.7-13.7,3.5-13.7,11.7-13.7,11.6,7.3,11.4,14.5h-19.9ZM398.8,388.5c-.1-4.8-3.2-9.2-8.2-9.2s-8,4.5-8.5,9.2h16.7Z"/>
    <path class="cls-11" d="M406.1,377.4h3.2v4.5h0c1.2-3.1,4.6-5.2,8.3-5.2,7.3,0,9.5,3.8,9.5,10v16.6h-3.1v-16.1c0-4.4-1.5-7.8-6.6-7.8s-8,3.8-8.1,8.9v15.1h-3.2v-25.8Z"/>
    <path class="cls-11" d="M438,377.4h5.3v2.7h-5.3v17.4c0,2,.3,3.2,2.6,3.4.9,0,1.8,0,2.7-.1v2.7c-1,0-1.9,0-2.8,0-4.2,0-5.7-1.4-5.6-5.8v-17.7h-4.5v-2.7h4.5v-7.8h3.2v7.8Z"/>
  </g>
  <g>
    <line class="cls-7" x1="701.9" y1="191.7" x2="701.9" y2="107.9"/>
    <path class="cls-11" d="M720.7,108.9c0-10.4-8.4-18.8-18.8-18.8s-18.8,8.4-18.8,18.8,8.4,18.8,18.8,18.8,18.8-8.4,18.8-18.8Z"/>
  </g>
  <polyline class="cls-2" points="977.3 456.6 977.3 607.9 1198.7 607.9"/>
  <g>
    <circle class="cls-8" cx="1151.9" cy="518.6" r="46.4"/>
    <rect class="cls-10" x="1202.3" y="478.2" width="10.1" height="29.1" transform="translate(1234.2 1796.5) rotate(-113.4)"/>
    <path class="cls-11" d="M1196.3,497.6c11.1,25.6-.8,55.4-26.4,66.5-25.6,11.1-55.4-.8-66.5-26.4-11.1-25.6.8-55.4,26.4-66.5s55.4.8,66.5,26.4ZM1109.7,535c9.6,22.1,35.4,32.4,57.5,22.8,22.1-9.6,32.4-35.4,22.8-57.5-9.6-22.1-35.4-32.4-57.5-22.8-22.1,9.6-32.4,35.4-22.8,57.5Z"/>
    <rect class="cls-5" x="1227.3" y="450.8" width="19.1" height="58.4" transform="translate(1287.2 1805.8) rotate(-113.4)"/>
  </g>
  <g>
    <rect class="cls-1" x="1025" y="501.9" width="17.4" height="104.5" transform="translate(2067.5 1108.4) rotate(-180)"/>
    <rect class="cls-1" x="992.7" y="480.8" width="17.4" height="125.6" transform="translate(2002.9 1087.3) rotate(-180)"/>
    <rect class="cls-1" x="1121.9" y="576.6" width="17.4" height="29.8" transform="translate(2261.2 1183.1) rotate(-180)"/>
    <rect class="cls-1" x="1089.6" y="558.5" width="17.4" height="47.9" transform="translate(2196.6 1165) rotate(-180)"/>
    <rect class="cls-1" x="1057.3" y="541.2" width="17.4" height="65.2" transform="translate(2132 1147.7) rotate(-180)"/>
  </g>
  <g>
    <line class="cls-9" x1="1018" y1="438.6" x2="1160.6" y2="532"/>
    <g>
      <line class="cls-4" x1="1018" y1="438.6" x2="1157.9" y2="530.3"/>
      <polygon class="cls-11" points="1142.9 535.1 1142.4 532.1 1157 529.6 1153.4 515.3 1156.3 514.6 1160.6 532.1 1142.9 535.1"/>
    </g>
  </g>
  <g>
    <g>
      <circle class="cls-6" cx="321.6" cy="601.6" r="29.6"/>
      <path class="cls-10" d="M309.9,594.2c0-6.9,4.1-11.5,11.1-11.5s9.9,3.4,9.9,9.1-1.8,6-4.3,8.3c-4.1,4.1-4.4,3.6-4.6,9.5h-3.1c-.1-6,1.5-7.6,5.6-11.4,1.8-1.7,3.2-3.8,3.2-6.3,0-3.9-3.2-6.6-7-6.6s-8,3.9-7.9,8.9h-3.1ZM318.5,613.2h4.1v5.2h-4.1v-5.2Z"/>
    </g>
    <rect class="cls-6" x="272.4" y="441.1" width="98.2" height="96.5"/>
    <g>
      <line class="cls-9" x1="247.9" y1="441.9" x2="247.9" y2="538.7"/>
      <g>
        <line class="cls-4" x1="247.9" y1="445.2" x2="247.9" y2="535.4"/>
        <polygon class="cls-11" points="235.7 455.1 237.9 457.2 247.9 446.3 258 457.2 260.2 455.1 247.9 441.9 235.7 455.1"/>
        <polygon class="cls-11" points="235.7 525.5 237.9 523.4 247.9 534.3 258 523.4 260.2 525.5 247.9 538.7 235.7 525.5"/>
      </g>
    </g>
    <g>
      <line class="cls-9" x1="368.4" y1="556.6" x2="271.6" y2="556.6"/>
      <g>
        <line class="cls-4" x1="365.1" y1="556.6" x2="274.9" y2="556.6"/>
        <polygon class="cls-11" points="355.2 544.4 353.1 546.5 363.9 556.6 353.1 566.7 355.2 568.9 368.4 556.6 355.2 544.4"/>
        <polygon class="cls-11" points="284.8 544.4 286.9 546.5 276 556.6 286.9 566.7 284.8 568.9 271.6 556.6 284.8 544.4"/>
      </g>
    </g>
    <line class="cls-3" x1="321.6" y1="444.2" x2="321.6" y2="537.6"/>
    <line class="cls-3" x1="368.3" y1="490.9" x2="274.8" y2="490.9"/>
    <g>
      <polygon class="cls-6" points="202.1 455.3 166.9 516.2 237.2 516.2 202.1 455.3"/>
      <path class="cls-10" d="M199.2,502h5.7v5.7h-5.7v-5.7ZM204.5,482.5l-1.3,15.9h-2.3l-1.3-15.9v-11.2h4.8v11.2Z"/>
    </g>
    <rect class="cls-11" x="320.7" y="441.7" width="51.1" height="48.6"/>
    <path class="cls-8" d="M343.4,464.5l-12-17.7h5.8l9.1,14.2,9.5-14.2h5.4l-12,17.7,12.8,18.7h-5.9l-9.8-15-10.1,15h-5.5l12.7-18.7Z"/>
  </g>
</svg>