<?xml version="1.0" encoding="UTF-8"?>
<svg xmlns="http://www.w3.org/2000/svg" version="1.1" viewBox="0 0 1400 1185.5">
  <defs>
    <style>
      .cls-1 {
        fill: none;
      }

      .cls-1, .cls-2, .cls-3, .cls-4, .cls-5, .cls-6 {
        stroke: #231f20;
        stroke-miterlimit: 10;
        stroke-width: 5px;
      }

      .cls-2 {
        fill: #f38099;
      }

      .cls-3 {
        fill: #eedc12;
      }

      .cls-7 {
        fill: #1a1750;
      }

      .cls-7, .cls-8, .cls-9, .cls-10 {
        stroke-width: 0px;
      }

      .cls-8 {
        fill: #231f20;
      }

      .cls-4, .cls-9 {
        fill: #aad162;
      }

      .cls-5 {
        fill: #e51e2b;
      }

      .cls-6 {
        fill: #fac90f;
      }

      .cls-10 {
        fill: #fff;
      }
    </style>
  </defs>
  <g id="Layer_1" data-name="Layer 1">
    <rect class="cls-6" x="433.5" y="43.6" width="311.1" height="311.1"/>
    <rect class="cls-2" x="744.7" y="43.6" width="311.1" height="311.1"/>
    <rect class="cls-5" x="1055.8" y="43.6" width="311.1" height="311.1"/>
    <rect class="cls-3" x="433.5" y="354.8" width="311.1" height="311.1"/>
    <rect class="cls-6" x="744.7" y="354.8" width="311.1" height="311.1"/>
    <rect class="cls-2" x="1055.8" y="354.8" width="311.1" height="311.1"/>
    <rect class="cls-4" x="433.5" y="665.9" width="311.1" height="311.1"/>
    <rect class="cls-3" x="744.7" y="665.9" width="311.1" height="311.1"/>
    <rect class="cls-6" x="1055.8" y="665.9" width="311.1" height="311.1"/>
    <g>
      <line class="cls-9" x1="215" y1="983.6" x2="215" y2="43.6"/>
      <g>
        <line class="cls-1" x1="215" y1="978.2" x2="215" y2="49.1"/>
        <polygon class="cls-8" points="235.5 961.7 231.8 958.2 215 976.3 198.3 958.2 194.6 961.7 215 983.6 235.5 961.7"/>
        <polygon class="cls-8" points="235.5 65.6 231.8 69 215 51 198.3 69 194.6 65.6 215 43.6 235.5 65.6"/>
      </g>
    </g>
    <g>
      <line class="cls-9" x1="434" y1="1087.3" x2="1374" y2="1087.3"/>
      <g>
        <line class="cls-1" x1="439.4" y1="1087.3" x2="1368.5" y2="1087.3"/>
        <polygon class="cls-8" points="455.9 1107.8 459.4 1104.1 441.3 1087.3 459.4 1070.5 455.9 1066.9 434 1087.3 455.9 1107.8"/>
        <polygon class="cls-8" points="1352 1107.8 1348.6 1104.1 1366.6 1087.3 1348.6 1070.5 1352 1066.9 1374 1087.3 1352 1107.8"/>
      </g>
    </g>
  </g>
  <g id="Layer_2" data-name="Layer 2">
    <g>
      <path class="cls-7" d="M507.1,184h8.8l6.7,19.6h0l6.3-19.6h8.8v28.6h-5.9v-20.2h0l-7,20.2h-4.8l-7-20h0v20h-5.9v-28.6Z"/>
      <path class="cls-7" d="M543.4,184h21.4v5.3h-15.1v6.1h13.8v4.9h-13.8v7h15.4v5.3h-21.7v-28.6Z"/>
      <path class="cls-7" d="M569.3,184h12.3c7.4,0,13,4.7,13,14.1s-4.2,14.4-13,14.4h-12.3v-28.6ZM575.6,207.3h5.6c3.6,0,7.1-2.2,7.1-8.6s-2-9.4-8.2-9.4h-4.5v18Z"/>
      <path class="cls-7" d="M598.9,184h6.3v28.6h-6.3v-28.6Z"/>
      <path class="cls-7" d="M635,201.7c0,7.7-4.6,11.5-12.2,11.5s-12.2-3.7-12.2-11.5v-17.8h6.3v17.8c0,3.1.8,6.2,5.9,6.2s5.9-1.9,5.9-6.2v-17.8h6.3v17.8Z"/>
      <path class="cls-7" d="M640.4,184h8.8l6.7,19.6h0l6.3-19.6h8.8v28.6h-5.9v-20.2h0l-7,20.2h-4.8l-7-20h0v20h-5.9v-28.6Z"/>
    </g>
    <g>
      <path class="cls-7" d="M18.7,462.4h4.1v42.8h-4.1v-42.8Z"/>
      <path class="cls-7" d="M31,474.3h3.5v5.2h.2c2-3.8,5.2-6.1,10.1-6.1s7.7,2,8.9,6.1c1.9-4.1,5.8-6.1,9.8-6.1,6.8,0,10.3,3.6,10.3,10.9v21h-3.8v-20.8c0-5.1-1.9-7.9-7.3-7.9s-8.4,5.4-8.4,11.2v17.5h-3.8v-21c0-4.2-1.6-7.7-6.5-7.7s-9.2,4.9-9.2,11.4v17.3h-3.8v-31Z"/>
      <path class="cls-7" d="M80.9,474.3h3.5v5.9h.1c1.7-4.3,6-6.8,11-6.8,9.4,0,13.9,7.6,13.9,16.4s-4.5,16.4-13.9,16.4-9.1-2.3-10.7-6.8h-.1v17.3h-3.8v-42.4ZM95.6,476.5c-8.4,0-10.9,6.2-10.9,13.2s2.9,13.2,10.9,13.2,10.1-6.8,10.1-13.2-2.9-13.2-10.1-13.2Z"/>
      <path class="cls-7" d="M115,483.7c.4-7.3,5.4-10.4,12.5-10.4s11.4,1.6,11.4,10v16.4c0,1.5.7,2.3,2.2,2.3s.8,0,1.2-.2v3.2c-.9.2-1.4.2-2.5.2-3.8,0-4.4-2.2-4.4-5.4h-.1c-2.7,4-5.3,6.3-11.3,6.3s-10.4-2.8-10.4-9.1,8.5-9,16.6-10c3.1-.3,4.9-.8,4.9-4.2,0-5.1-3.6-6.4-8.1-6.4s-8.1,2.2-8.3,7.2h-3.8ZM135.2,488.3h-.1c-.5.9-2.2,1.2-3.2,1.4-6.4,1.1-14.4,1.1-14.4,7.1s3.3,6.1,6.9,6.1c5.8,0,10.8-3.7,10.8-9.7v-4.9Z"/>
      <path class="cls-7" d="M168.4,484c-1-4.6-3.8-7.4-8.8-7.4-7.2,0-10.9,6.7-10.9,13.2s3.7,13.2,10.9,13.2,8.5-3.7,9-8.8h3.8c-1,7.5-5.8,12-12.8,12s-14.6-7.5-14.6-16.4,5.2-16.4,14.6-16.4,11.6,3.5,12.5,10.6h-3.8Z"/>
      <path class="cls-7" d="M183.7,474.3h6.3v3.2h-6.3v20.9c0,2.5.4,3.9,3.1,4.1,1.1,0,2.2,0,3.2-.2v3.2c-1.1,0-2.2.1-3.4.1-5,0-6.8-1.7-6.7-7v-21.2h-5.4v-3.2h5.4v-9.3h3.8v9.3Z"/>
      <path class="cls-7" d="M50.5,530.4h3.8v42.8h-3.8v-42.8Z"/>
      <path class="cls-7" d="M63.7,558.8c0,5.5,3,12.2,10.2,12.2s8.5-3.2,9.7-7.9h3.8c-1.6,7-5.6,11.1-13.5,11.1s-14-7.6-14-16.4,4.1-16.4,14-16.4,13.9,8.7,13.6,17.4h-23.8ZM83.8,555.6c-.2-5.7-3.8-11-9.8-11s-9.5,5.4-10.2,11h20Z"/>
      <path class="cls-7" d="M89.2,542.3h4.2l9.7,27.2h.1l9.6-27.2h3.9l-11.6,31h-4l-11.9-31Z"/>
      <path class="cls-7" d="M122.6,558.8c0,5.5,3,12.2,10.2,12.2s8.5-3.2,9.7-7.9h3.8c-1.6,7-5.6,11.1-13.5,11.1s-14-7.6-14-16.4,4.1-16.4,14-16.4,13.9,8.7,13.6,17.4h-23.8ZM142.7,555.6c-.2-5.7-3.8-11-9.8-11s-9.5,5.4-10.2,11h20Z"/>
      <path class="cls-7" d="M151.6,530.4h3.8v42.8h-3.8v-42.8Z"/>
    </g>
    <g>
      <path class="cls-7" d="M694.1,1109.6h34v3.5h-14.9v39.4h-4.1v-39.4h-14.9v-3.5Z"/>
      <path class="cls-7" d="M731.3,1109.6h3.8v17.2h.1c1.4-3.7,5.5-6.2,9.9-6.2,8.7,0,11.3,4.6,11.3,11.9v19.9h-3.8v-19.3c0-5.3-1.7-9.4-7.9-9.4s-9.5,4.6-9.7,10.6v18.1h-3.8v-42.8Z"/>
      <path class="cls-7" d="M763.6,1121.5h3.5v7.3h.1c1.9-5,6.1-7.9,11.7-7.7v3.8c-6.8-.3-11.5,4.6-11.5,11.1v16.5h-3.8v-31Z"/>
      <path class="cls-7" d="M783.7,1138c0,5.5,3,12.2,10.2,12.2s8.5-3.2,9.7-7.9h3.8c-1.6,7-5.6,11.1-13.5,11.1s-14-7.6-14-16.4,4.1-16.4,14-16.4,13.9,8.7,13.6,17.4h-23.8ZM803.7,1134.8c-.2-5.7-3.8-11-9.8-11s-9.5,5.4-10.2,11h20Z"/>
      <path class="cls-7" d="M812.2,1131c.4-7.3,5.4-10.4,12.5-10.4s11.4,1.6,11.4,10v16.4c0,1.5.7,2.3,2.2,2.3s.8,0,1.2-.2v3.2c-.9.2-1.4.2-2.5.2-3.8,0-4.4-2.2-4.4-5.4h-.1c-2.7,4-5.3,6.3-11.3,6.3s-10.4-2.8-10.4-9.1,8.5-9,16.6-10c3.1-.3,4.9-.8,4.9-4.2,0-5.1-3.6-6.4-8.1-6.4s-8.1,2.2-8.3,7.2h-3.8ZM832.4,1135.6h-.1c-.5.9-2.2,1.2-3.2,1.4-6.4,1.1-14.4,1.1-14.4,7.1s3.3,6.1,6.9,6.1c5.8,0,10.8-3.7,10.8-9.7v-4.9Z"/>
      <path class="cls-7" d="M849.7,1121.5h6.3v3.2h-6.3v20.9c0,2.5.4,3.9,3.1,4.1,1.1,0,2.2,0,3.2-.2v3.2c-1.1,0-2.2.1-3.4.1-5,0-6.8-1.7-6.7-7v-21.2h-5.4v-3.2h5.4v-9.3h3.8v9.3Z"/>
      <path class="cls-7" d="M878.2,1109.6h3.8v42.8h-3.8v-42.8Z"/>
      <path class="cls-7" d="M889.3,1109.6h3.8v6.1h-3.8v-6.1ZM889.3,1121.5h3.8v31h-3.8v-31Z"/>
      <path class="cls-7" d="M900.4,1109.6h3.8v26.9l17.2-15h5l-13.2,11.5,14.1,19.5h-4.7l-12.2-16.9-6.1,5.1v11.8h-3.8v-42.8Z"/>
      <path class="cls-7" d="M932.6,1138c0,5.5,3,12.2,10.2,12.2s8.5-3.2,9.7-7.9h3.8c-1.6,7-5.6,11.1-13.5,11.1s-14-7.6-14-16.4,4.1-16.4,14-16.4,13.9,8.7,13.6,17.4h-23.8ZM952.6,1134.8c-.2-5.7-3.8-11-9.8-11s-9.5,5.4-10.2,11h20Z"/>
      <path class="cls-7" d="M961.6,1109.6h3.8v42.8h-3.8v-42.8Z"/>
      <path class="cls-7" d="M972.7,1109.6h3.8v6.1h-3.8v-6.1ZM972.7,1121.5h3.8v31h-3.8v-31Z"/>
      <path class="cls-7" d="M983.6,1109.6h3.8v17.2h.1c1.4-3.7,5.5-6.2,9.9-6.2,8.7,0,11.3,4.6,11.3,11.9v19.9h-3.8v-19.3c0-5.3-1.7-9.4-7.9-9.4s-9.5,4.6-9.7,10.6v18.1h-3.8v-42.8Z"/>
      <path class="cls-7" d="M1043.6,1137c0,8.9-5.2,16.4-14.6,16.4s-14.6-7.5-14.6-16.4,5.2-16.4,14.6-16.4,14.6,7.5,14.6,16.4ZM1018.1,1137c0,6.5,3.7,13.2,10.9,13.2s10.9-6.7,10.9-13.2-3.7-13.2-10.9-13.2-10.9,6.7-10.9,13.2Z"/>
      <path class="cls-7" d="M1077,1137c0,8.9-5.2,16.4-14.6,16.4s-14.6-7.5-14.6-16.4,5.2-16.4,14.6-16.4,14.6,7.5,14.6,16.4ZM1051.5,1137c0,6.5,3.7,13.2,10.9,13.2s10.9-6.7,10.9-13.2-3.7-13.2-10.9-13.2-10.9,6.7-10.9,13.2Z"/>
      <path class="cls-7" d="M1109.9,1152.5h-3.5v-5.9h-.1c-1.6,4.1-6.5,6.8-11,6.8-9.4,0-13.9-7.6-13.9-16.4s4.5-16.4,13.9-16.4,9.2,2.3,10.7,6.8h.1v-17.8h3.8v42.8ZM1095.2,1150.2c8,0,10.9-6.8,10.9-13.2s-2.9-13.2-10.9-13.2-10.1,6.8-10.1,13.2,2.9,13.2,10.1,13.2Z"/>
    </g>
    <g>
      <path class="cls-7" d="M312.6,182.8h6.3v11h11.6v-11h6.3v28.6h-6.3v-12.3h-11.6v12.3h-6.3v-28.6Z"/>
      <path class="cls-7" d="M342.3,182.8h6.3v28.6h-6.3v-28.6Z"/>
      <path class="cls-7" d="M374.7,208.1c-2.2,2.9-5.1,3.9-7.8,3.9-8.8,0-14-6.6-14-14.8s5.2-15.1,14-15.1,11.4,3.6,12,10.1h-6c-.8-3.2-3-4.8-6-4.8-5.6,0-7.8,4.8-7.8,9.8s2.1,9.6,7.8,9.6,6.4-2.2,6.8-6.2h-6.3v-4.7h12v15.4h-4l-.6-3.2Z"/>
      <path class="cls-7" d="M384.4,182.8h6.3v11h11.6v-11h6.3v28.6h-6.3v-12.3h-11.6v12.3h-6.3v-28.6Z"/>
    </g>
    <g>
      <path class="cls-7" d="M244.5,495.7h8.8l6.7,19.6h0l6.3-19.6h8.8v28.6h-5.9v-20.2h0l-7,20.2h-4.8l-7-20h0v20h-5.9v-28.6Z"/>
      <path class="cls-7" d="M280.8,495.7h21.4v5.3h-15.1v6.1h13.8v4.9h-13.8v7h15.4v5.3h-21.7v-28.6Z"/>
      <path class="cls-7" d="M306.7,495.7h12.3c7.4,0,13,4.7,13,14.1s-4.2,14.4-13,14.4h-12.3v-28.6ZM313,519h5.6c3.6,0,7.1-2.2,7.1-8.6s-2-9.4-8.2-9.4h-4.5v18Z"/>
      <path class="cls-7" d="M336.4,495.7h6.3v28.6h-6.3v-28.6Z"/>
      <path class="cls-7" d="M372.4,513.5c0,7.7-4.6,11.5-12.2,11.5s-12.2-3.7-12.2-11.5v-17.8h6.3v17.8c0,3.1.8,6.2,5.9,6.2s5.9-1.9,5.9-6.2v-17.8h6.3v17.8Z"/>
      <path class="cls-7" d="M377.8,495.7h8.8l6.7,19.6h0l6.3-19.6h8.8v28.6h-5.9v-20.2h0l-7,20.2h-4.8l-7-20h0v20h-5.9v-28.6Z"/>
    </g>
    <g>
      <path class="cls-7" d="M321.5,805h6.3v23.3h13.9v5.3h-20.2v-28.6Z"/>
      <path class="cls-7" d="M358,804.4c8.8,0,14,6.6,14,15.1s-5.2,14.8-14,14.8-14-6.6-14-14.8,5.2-15.1,14-15.1ZM358,829c5.6,0,7.8-4.8,7.8-9.6s-2.1-9.8-7.8-9.8-7.8,4.8-7.8,9.8,2.1,9.6,7.8,9.6Z"/>
      <path class="cls-7" d="M403.5,833.6h-6.2l-4.8-19.4h0l-4.8,19.4h-6.4l-7.6-28.6h6.3l4.5,19.4h0l5-19.4h5.9l4.9,19.7h0l4.7-19.7h6.2l-7.7,28.6Z"/>
    </g>
    <g>
      <path class="cls-7" d="M544.3,1011.3h6.3v23.3h13.9v5.3h-20.2v-28.6Z"/>
      <path class="cls-7" d="M580.8,1010.6c8.8,0,14,6.6,14,15.1s-5.2,14.8-14,14.8-14-6.6-14-14.8,5.2-15.1,14-15.1ZM580.8,1035.3c5.6,0,7.8-4.8,7.8-9.6s-2.1-9.8-7.8-9.8-7.8,4.8-7.8,9.8,2.1,9.6,7.8,9.6Z"/>
      <path class="cls-7" d="M626.3,1039.9h-6.2l-4.8-19.4h0l-4.8,19.4h-6.4l-7.6-28.6h6.3l4.5,19.4h0l5-19.4h5.9l4.9,19.7h0l4.7-19.7h6.2l-7.7,28.6Z"/>
    </g>
    <g>
      <path class="cls-7" d="M818.7,1011.3h8.8l6.7,19.6h0l6.3-19.6h8.8v28.6h-5.9v-20.2h0l-7,20.2h-4.8l-7-20h0v20h-5.9v-28.6Z"/>
      <path class="cls-7" d="M855,1011.3h21.4v5.3h-15.1v6.1h13.8v4.9h-13.8v7h15.4v5.3h-21.7v-28.6Z"/>
      <path class="cls-7" d="M880.9,1011.3h12.3c7.4,0,13,4.7,13,14.1s-4.2,14.4-13,14.4h-12.3v-28.6ZM887.2,1034.6h5.6c3.6,0,7.1-2.2,7.1-8.6s-2-9.4-8.2-9.4h-4.5v18Z"/>
      <path class="cls-7" d="M910.6,1011.3h6.3v28.6h-6.3v-28.6Z"/>
      <path class="cls-7" d="M946.6,1029.1c0,7.7-4.6,11.5-12.2,11.5s-12.2-3.7-12.2-11.5v-17.8h6.3v17.8c0,3.1.8,6.2,5.9,6.2s5.9-1.9,5.9-6.2v-17.8h6.3v17.8Z"/>
      <path class="cls-7" d="M952,1011.3h8.8l6.7,19.6h0l6.3-19.6h8.8v28.6h-5.9v-20.2h0l-7,20.2h-4.8l-7-20h0v20h-5.9v-28.6Z"/>
    </g>
    <g>
      <path class="cls-7" d="M1163.1,1011.3h6.3v11h11.6v-11h6.3v28.6h-6.3v-12.3h-11.6v12.3h-6.3v-28.6Z"/>
      <path class="cls-7" d="M1192.7,1011.3h6.3v28.6h-6.3v-28.6Z"/>
      <path class="cls-7" d="M1225.2,1036.6c-2.2,2.9-5.1,3.9-7.8,3.9-8.8,0-14-6.6-14-14.8s5.2-15.1,14-15.1,11.4,3.6,12,10.1h-6c-.8-3.2-3-4.8-6-4.8-5.6,0-7.8,4.8-7.8,9.8s2.1,9.6,7.8,9.6,6.4-2.2,6.8-6.2h-6.3v-4.7h12v15.4h-4l-.6-3.2Z"/>
      <path class="cls-7" d="M1234.9,1011.3h6.3v11h11.6v-11h6.3v28.6h-6.3v-12.3h-11.6v12.3h-6.3v-28.6Z"/>
    </g>
    <g>
      <path class="cls-7" d="M852.8,182.9h6.3v11h11.6v-11h6.3v28.6h-6.3v-12.3h-11.6v12.3h-6.3v-28.6Z"/>
      <path class="cls-7" d="M882.4,182.9h6.3v28.6h-6.3v-28.6Z"/>
      <path class="cls-7" d="M914.9,208.2c-2.2,2.9-5.1,3.9-7.8,3.9-8.8,0-14-6.6-14-14.8s5.2-15.1,14-15.1,11.4,3.6,12,10.1h-6c-.8-3.2-3-4.8-6-4.8-5.6,0-7.8,4.8-7.8,9.8s2.1,9.6,7.8,9.6,6.4-2.2,6.8-6.2h-6.3v-4.7h12v15.4h-4l-.6-3.2Z"/>
      <path class="cls-7" d="M924.6,182.9h6.3v11h11.6v-11h6.3v28.6h-6.3v-12.3h-11.6v12.3h-6.3v-28.6Z"/>
    </g>
    <g>
      <path class="cls-10" d="M1140.6,193.6c-.4-2.8-3.2-5-6.2-5-5.6,0-7.8,4.8-7.8,9.8s2.1,9.6,7.8,9.6,6-2.6,6.5-6.4h6.1c-.6,7.2-5.5,11.7-12.6,11.7s-14-6.6-14-14.8,5.2-15.1,14-15.1,11.6,3.7,12.3,10.3h-6.1Z"/>
      <path class="cls-10" d="M1151.2,184h15.4c5.1,0,8.4,3.6,8.4,7.9s-1.3,5.9-4.5,7.2h0c3.1.9,4,3.8,4.2,6.8.1,1.8,0,5.2,1.2,6.8h-6.3c-.7-1.8-.7-4.6-1-6.8-.4-3-1.6-4.3-4.8-4.3h-6.3v11.2h-6.3v-28.6ZM1157.4,196.9h6.9c2.8,0,4.3-1.2,4.3-4.1s-1.5-4-4.3-4h-6.9v8Z"/>
      <path class="cls-10" d="M1180,184h6.3v28.6h-6.3v-28.6Z"/>
      <path class="cls-10" d="M1198.2,189.3h-8.6v-5.3h23.4v5.3h-8.6v23.3h-6.3v-23.3Z"/>
      <path class="cls-10" d="M1216.3,184h6.3v28.6h-6.3v-28.6Z"/>
      <path class="cls-10" d="M1247.1,193.6c-.4-2.8-3.2-5-6.2-5-5.6,0-7.8,4.8-7.8,9.8s2.1,9.6,7.8,9.6,6-2.6,6.5-6.4h6.1c-.6,7.2-5.5,11.7-12.6,11.7s-14-6.6-14-14.8,5.2-15.1,14-15.1,11.6,3.7,12.3,10.3h-6.1Z"/>
      <path class="cls-10" d="M1265.5,184h6.4l10.7,28.6h-6.5l-2.2-6.4h-10.7l-2.2,6.4h-6.4l10.8-28.6ZM1264.9,201.5h7.4l-3.6-10.5h0l-3.7,10.5Z"/>
      <path class="cls-10" d="M1285.1,184h6.3v23.3h13.9v5.3h-20.2v-28.6Z"/>
    </g>
    <g>
      <path class="cls-7" d="M507.1,495.7h8.8l6.7,19.6h0l6.3-19.6h8.8v28.6h-5.9v-20.2h0l-7,20.2h-4.8l-7-20h0v20h-5.9v-28.6Z"/>
      <path class="cls-7" d="M543.4,495.7h21.4v5.3h-15.1v6.1h13.8v4.9h-13.8v7h15.4v5.3h-21.7v-28.6Z"/>
      <path class="cls-7" d="M569.3,495.7h12.3c7.4,0,13,4.7,13,14.1s-4.2,14.4-13,14.4h-12.3v-28.6ZM575.6,519h5.6c3.6,0,7.1-2.2,7.1-8.6s-2-9.4-8.2-9.4h-4.5v18Z"/>
      <path class="cls-7" d="M598.9,495.7h6.3v28.6h-6.3v-28.6Z"/>
      <path class="cls-7" d="M635,513.5c0,7.7-4.6,11.5-12.2,11.5s-12.2-3.7-12.2-11.5v-17.8h6.3v17.8c0,3.1.8,6.2,5.9,6.2s5.9-1.9,5.9-6.2v-17.8h6.3v17.8Z"/>
      <path class="cls-7" d="M640.4,495.7h8.8l6.7,19.6h0l6.3-19.6h8.8v28.6h-5.9v-20.2h0l-7,20.2h-4.8l-7-20h0v20h-5.9v-28.6Z"/>
      <path class="cls-7" d="M545.6,543.7h6.3v23.3h13.9v5.3h-20.2v-28.6Z"/>
      <path class="cls-7" d="M582.1,543c8.8,0,14,6.6,14,15.1s-5.2,14.8-14,14.8-14-6.6-14-14.8,5.2-15.1,14-15.1ZM582.1,567.7c5.6,0,7.8-4.8,7.8-9.6s-2.1-9.8-7.8-9.8-7.8,4.8-7.8,9.8,2.1,9.6,7.8,9.6Z"/>
      <path class="cls-7" d="M627.6,572.3h-6.2l-4.8-19.4h0l-4.8,19.4h-6.4l-7.6-28.6h6.3l4.5,19.4h0l5-19.4h5.9l4.9,19.7h0l4.7-19.7h6.2l-7.7,28.6Z"/>
    </g>
    <g>
      <path class="cls-7" d="M818.7,494.5h8.8l6.7,19.6h0l6.3-19.6h8.8v28.6h-5.9v-20.2h0l-7,20.2h-4.8l-7-20h0v20h-5.9v-28.6Z"/>
      <path class="cls-7" d="M855,494.5h21.4v5.3h-15.1v6.1h13.8v4.9h-13.8v7h15.4v5.3h-21.7v-28.6Z"/>
      <path class="cls-7" d="M880.9,494.5h12.3c7.4,0,13,4.7,13,14.1s-4.2,14.4-13,14.4h-12.3v-28.6ZM887.2,517.7h5.6c3.6,0,7.1-2.2,7.1-8.6s-2-9.4-8.2-9.4h-4.5v18Z"/>
      <path class="cls-7" d="M910.6,494.5h6.3v28.6h-6.3v-28.6Z"/>
      <path class="cls-7" d="M946.6,512.2c0,7.7-4.6,11.5-12.2,11.5s-12.2-3.7-12.2-11.5v-17.8h6.3v17.8c0,3.1.8,6.2,5.9,6.2s5.9-1.9,5.9-6.2v-17.8h6.3v17.8Z"/>
      <path class="cls-7" d="M952,494.5h8.8l6.7,19.6h0l6.3-19.6h8.8v28.6h-5.9v-20.2h0l-7,20.2h-4.8l-7-20h0v20h-5.9v-28.6Z"/>
    </g>
    <g>
      <path class="cls-7" d="M1164.5,494.5h6.3v11h11.6v-11h6.3v28.6h-6.3v-12.3h-11.6v12.3h-6.3v-28.6Z"/>
      <path class="cls-7" d="M1194.1,494.5h6.3v28.6h-6.3v-28.6Z"/>
      <path class="cls-7" d="M1226.5,519.8c-2.2,2.9-5.1,3.9-7.8,3.9-8.8,0-14-6.6-14-14.8s5.2-15.1,14-15.1,11.4,3.6,12,10.1h-6c-.8-3.2-3-4.8-6-4.8-5.6,0-7.8,4.8-7.8,9.8s2.1,9.6,7.8,9.6,6.4-2.2,6.8-6.2h-6.3v-4.7h12v15.4h-4l-.6-3.2Z"/>
      <path class="cls-7" d="M1236.3,494.5h6.3v11h11.6v-11h6.3v28.6h-6.3v-12.3h-11.6v12.3h-6.3v-28.6Z"/>
    </g>
    <g>
      <path class="cls-7" d="M545.6,803.8h6.3v23.3h13.9v5.3h-20.2v-28.6Z"/>
      <path class="cls-7" d="M582.1,803.1c8.8,0,14,6.6,14,15.1s-5.2,14.8-14,14.8-14-6.6-14-14.8,5.2-15.1,14-15.1ZM582.1,827.7c5.6,0,7.8-4.8,7.8-9.6s-2.1-9.8-7.8-9.8-7.8,4.8-7.8,9.8,2.1,9.6,7.8,9.6Z"/>
      <path class="cls-7" d="M627.6,832.3h-6.2l-4.8-19.4h0l-4.8,19.4h-6.4l-7.6-28.6h6.3l4.5,19.4h0l5-19.4h5.9l4.9,19.7h0l4.7-19.7h6.2l-7.7,28.6Z"/>
    </g>
    <g>
      <path class="cls-7" d="M818.7,803.8h8.8l6.7,19.6h0l6.3-19.6h8.8v28.6h-5.9v-20.2h0l-7,20.2h-4.8l-7-20h0v20h-5.9v-28.6Z"/>
      <path class="cls-7" d="M855,803.8h21.4v5.3h-15.1v6.1h13.8v4.9h-13.8v7h15.4v5.3h-21.7v-28.6Z"/>
      <path class="cls-7" d="M880.9,803.8h12.3c7.4,0,13,4.7,13,14.1s-4.2,14.4-13,14.4h-12.3v-28.6ZM887.2,827.1h5.6c3.6,0,7.1-2.2,7.1-8.6s-2-9.4-8.2-9.4h-4.5v18Z"/>
      <path class="cls-7" d="M910.6,803.8h6.3v28.6h-6.3v-28.6Z"/>
      <path class="cls-7" d="M946.6,821.5c0,7.7-4.6,11.5-12.2,11.5s-12.2-3.7-12.2-11.5v-17.8h6.3v17.8c0,3.1.8,6.2,5.9,6.2s5.9-1.9,5.9-6.2v-17.8h6.3v17.8Z"/>
      <path class="cls-7" d="M952,803.8h8.8l6.7,19.6h0l6.3-19.6h8.8v28.6h-5.9v-20.2h0l-7,20.2h-4.8l-7-20h0v20h-5.9v-28.6Z"/>
      <path class="cls-7" d="M857.2,851.8h6.3v23.3h13.9v5.3h-20.2v-28.6Z"/>
      <path class="cls-7" d="M893.7,851.1c8.8,0,14,6.6,14,15.1s-5.2,14.8-14,14.8-14-6.6-14-14.8,5.2-15.1,14-15.1ZM893.7,875.7c5.6,0,7.8-4.8,7.8-9.6s-2.1-9.8-7.8-9.8-7.8,4.8-7.8,9.8,2.1,9.6,7.8,9.6Z"/>
      <path class="cls-7" d="M939.3,880.3h-6.2l-4.8-19.4h0l-4.8,19.4h-6.4l-7.6-28.6h6.3l4.5,19.4h0l5-19.4h5.9l4.9,19.7h0l4.7-19.7h6.2l-7.7,28.6Z"/>
    </g>
    <g>
      <path class="cls-7" d="M1130.4,803.8h8.8l6.7,19.6h0l6.3-19.6h8.8v28.6h-5.9v-20.2h0l-7,20.2h-4.8l-7-20h0v20h-5.9v-28.6Z"/>
      <path class="cls-7" d="M1166.7,803.8h21.4v5.3h-15.1v6.1h13.8v4.9h-13.8v7h15.4v5.3h-21.7v-28.6Z"/>
      <path class="cls-7" d="M1192.6,803.8h12.3c7.4,0,13,4.7,13,14.1s-4.2,14.4-13,14.4h-12.3v-28.6ZM1198.9,827.1h5.6c3.6,0,7.1-2.2,7.1-8.6s-2-9.4-8.2-9.4h-4.5v18Z"/>
      <path class="cls-7" d="M1222.2,803.8h6.3v28.6h-6.3v-28.6Z"/>
      <path class="cls-7" d="M1258.3,821.5c0,7.7-4.6,11.5-12.2,11.5s-12.2-3.7-12.2-11.5v-17.8h6.3v17.8c0,3.1.8,6.2,5.9,6.2s5.9-1.9,5.9-6.2v-17.8h6.3v17.8Z"/>
      <path class="cls-7" d="M1263.7,803.8h8.8l6.7,19.6h0l6.3-19.6h8.8v28.6h-5.9v-20.2h0l-7,20.2h-4.8l-7-20h0v20h-5.9v-28.6Z"/>
    </g>
  </g>
</svg>