<?xml version="1.0" encoding="utf-8"?>
<!-- Generator: Adobe Illustrator 16.0.0, SVG Export Plug-In . SVG Version: 6.00 Build 0)  -->
<!DOCTYPE svg PUBLIC "-//W3C//DTD SVG 1.1//EN" "http://www.w3.org/Graphics/SVG/1.1/DTD/svg11.dtd">
<svg version="1.1" id="Layer_1" xmlns="http://www.w3.org/2000/svg" xmlns:xlink="http://www.w3.org/1999/xlink" x="0px" y="0px"
	 width="1834.66px" height="1025.53px" viewBox="0 0 1834.66 1025.53" enable-background="new 0 0 1834.66 1025.53"
	 xml:space="preserve">
<g>
	<path fill="#010058" d="M5.201,326.228c-0.15,7.35,5.15,9.601,11.651,9.601c3.75,0,9.451-2.05,9.451-7.25
		c0-4.05-4.05-5.65-7.351-6.451l-7.951-1.95c-4.2-1.05-8.05-3.05-8.05-8.6c0-3.5,2.25-10.051,12.301-10.051
		c7.05,0,13.251,3.8,13.201,11.101h-3.4c-0.2-5.45-4.701-8.201-9.751-8.201c-4.65,0-8.95,1.8-8.95,7.101c0,3.35,2.5,4.75,5.4,5.45
		l8.701,2.15c5.05,1.35,9.25,3.55,9.25,9.4c0,2.45-1,10.201-13.651,10.201c-8.45,0-14.651-3.8-14.25-12.5H5.201z"/>
	<path fill="#010058" d="M39.5,312.176h5.25v2.65H39.5v17.401c0,2.05,0.3,3.25,2.55,3.4c0.9,0,1.8-0.05,2.7-0.15v2.7
		c-0.95,0-1.85,0.1-2.8,0.1c-4.2,0-5.65-1.4-5.601-5.8v-17.651h-4.5v-2.65h4.5v-7.75h3.15V312.176z"/>
	<path fill="#010058" d="M49,320.077c0.3-6.051,4.55-8.651,10.451-8.651c4.55,0,9.5,1.4,9.5,8.301v13.701c0,1.2,0.6,1.9,1.85,1.9
		c0.35,0,0.75-0.1,1-0.2v2.65c-0.7,0.15-1.2,0.2-2.05,0.2c-3.2,0-3.701-1.8-3.701-4.5h-0.1c-2.2,3.351-4.45,5.25-9.401,5.25
		c-4.75,0-8.65-2.35-8.65-7.55c0-7.25,7.05-7.5,13.851-8.301c2.6-0.3,4.05-0.65,4.05-3.5c0-4.25-3.05-5.3-6.75-5.3
		c-3.9,0-6.801,1.8-6.9,6H49z M65.8,323.877h-0.1c-0.4,0.75-1.8,1-2.65,1.15c-5.35,0.95-12,0.9-12,5.95c0,3.15,2.8,5.101,5.75,5.101
		c4.8,0,9.051-3.05,9-8.101V323.877z"/>
	<path fill="#010058" d="M80.25,312.176h5.25v2.65h-5.25v17.401c0,2.05,0.3,3.25,2.55,3.4c0.9,0,1.8-0.05,2.7-0.15v2.7
		c-0.95,0-1.85,0.1-2.8,0.1c-4.2,0-5.65-1.4-5.601-5.8v-17.651h-4.5v-2.65h4.5v-7.75h3.15V312.176z"/>
	<path fill="#010058" d="M90.099,302.276h3.15v5.05h-3.15V302.276z M90.099,312.176h3.15v25.802h-3.15V312.176z"/>
	<path fill="#010058" d="M122.4,325.077c0,7.4-4.3,13.651-12.201,13.651s-12.201-6.25-12.201-13.651s4.3-13.651,12.201-13.651
		S122.4,317.677,122.4,325.077z M101.148,325.077c0,5.5,3,11.001,9.051,11.001s9.05-5.5,9.05-11.001s-3-11-9.05-11
		S101.148,319.577,101.148,325.077z"/>
	<path fill="#010058" d="M127.048,312.176h3.15v4.451h0.1c1.15-3.101,4.601-5.201,8.25-5.201c7.25,0,9.451,3.8,9.451,9.951v16.601
		h-3.15v-16.101c0-4.45-1.45-7.8-6.551-7.8c-5,0-8,3.8-8.1,8.851v15.051h-3.15V312.176z"/>
	<path fill="#010058" d="M183.299,319.727c-0.15-3.9-3.15-5.65-6.75-5.65c-2.8,0-6.101,1.1-6.101,4.45c0,2.8,3.2,3.8,5.351,4.35
		l4.2,0.95c3.6,0.55,7.351,2.65,7.351,7.15c0,5.601-5.55,7.75-10.351,7.75c-6,0-10.101-2.8-10.601-9.101h3.15
		c0.25,4.25,3.4,6.451,7.601,6.451c2.95,0,7.05-1.3,7.05-4.9c0-3-2.8-4-5.65-4.7l-4.05-0.9c-4.1-1.1-7.2-2.5-7.2-6.9
		c0-5.25,5.15-7.25,9.701-7.25c5.15,0,9.25,2.7,9.45,8.301H183.299z"/>
	<path fill="#010058" d="M193.747,325.927c0.05,4.6,2.45,10.151,8.5,10.151c4.601,0,7.101-2.7,8.101-6.601h3.15
		c-1.35,5.85-4.75,9.25-11.251,9.25c-8.2,0-11.65-6.3-11.65-13.651c0-6.8,3.45-13.651,11.65-13.651
		c8.301,0,11.601,7.25,11.351,14.501H193.747z M210.448,323.277c-0.15-4.75-3.1-9.201-8.201-9.201c-5.15,0-8,4.5-8.5,9.201H210.448z
		"/>
	<path fill="#010058" d="M217.797,312.176h3.15v4.451h0.1c1.15-3.101,4.601-5.201,8.25-5.201c7.25,0,9.451,3.8,9.451,9.951v16.601
		h-3.15v-16.101c0-4.45-1.45-7.8-6.551-7.8c-5,0-8,3.8-8.1,8.851v15.051h-3.15V312.176z"/>
	<path fill="#010058" d="M267.397,337.978h-2.9v-4.9h-0.1c-1.35,3.35-5.45,5.65-9.2,5.65c-7.851,0-11.601-6.351-11.601-13.651
		s3.75-13.651,11.601-13.651c3.85,0,7.6,1.95,8.95,5.65h0.1v-14.801h3.15V337.978z M255.197,336.078c6.7,0,9.05-5.65,9.05-11.001
		c0-5.35-2.35-11-9.05-11c-6,0-8.451,5.65-8.451,11C246.746,330.428,249.196,336.078,255.197,336.078z"/>
	<path fill="#010058" d="M288.847,319.727c-0.15-3.9-3.15-5.65-6.75-5.65c-2.8,0-6.101,1.1-6.101,4.45c0,2.8,3.2,3.8,5.351,4.35
		l4.2,0.95c3.6,0.55,7.351,2.65,7.351,7.15c0,5.601-5.55,7.75-10.351,7.75c-6,0-10.101-2.8-10.601-9.101h3.15
		c0.25,4.25,3.4,6.451,7.601,6.451c2.95,0,7.05-1.3,7.05-4.9c0-3-2.8-4-5.65-4.7l-4.05-0.9c-4.1-1.1-7.2-2.5-7.2-6.9
		c0-5.25,5.15-7.25,9.701-7.25c5.15,0,9.25,2.7,9.45,8.301H288.847z"/>
	<path fill="#010058" d="M311.045,320.077c0.3-6.051,4.55-8.651,10.451-8.651c4.55,0,9.5,1.4,9.5,8.301v13.701
		c0,1.2,0.6,1.9,1.85,1.9c0.35,0,0.75-0.1,1-0.2v2.65c-0.7,0.15-1.2,0.2-2.05,0.2c-3.2,0-3.701-1.8-3.701-4.5h-0.1
		c-2.2,3.351-4.451,5.25-9.401,5.25c-4.75,0-8.65-2.35-8.65-7.55c0-7.25,7.05-7.5,13.851-8.301c2.6-0.3,4.05-0.65,4.05-3.5
		c0-4.25-3.05-5.3-6.75-5.3c-3.9,0-6.801,1.8-6.9,6H311.045z M327.846,323.877h-0.1c-0.4,0.75-1.8,1-2.65,1.15
		c-5.35,0.95-12,0.9-12,5.95c0,3.15,2.8,5.101,5.75,5.101c4.8,0,9.051-3.05,9-8.101V323.877z"/>
	<path fill="#010058" d="M351.194,312.176h2.9v6.051h0.1c1.6-4.15,5.1-6.601,9.75-6.4v3.15c-5.7-0.3-9.601,3.9-9.601,9.25v13.751
		h-3.15V312.176z"/>
	<path fill="#010058" d="M368.794,325.927c0.05,4.6,2.45,10.151,8.5,10.151c4.601,0,7.101-2.7,8.101-6.601h3.15
		c-1.35,5.85-4.75,9.25-11.251,9.25c-8.2,0-11.65-6.3-11.65-13.651c0-6.8,3.45-13.651,11.65-13.651
		c8.301,0,11.601,7.25,11.351,14.501H368.794z M385.495,323.277c-0.15-4.75-3.1-9.201-8.201-9.201c-5.15,0-8,4.5-8.5,9.201H385.495z
		"/>
	<path fill="#010058" d="M415.595,347.529h-3.15v-14.451h-0.1c-1.35,3.7-5.1,5.65-8.95,5.65c-7.851,0-11.601-6.351-11.601-13.651
		s3.75-13.651,11.601-13.651c3.75,0,7.85,2.3,9.2,5.65h0.1v-4.9h2.9V347.529z M403.395,336.078c6.7,0,9.05-5.65,9.05-11.001
		c0-5.35-2.35-11-9.05-11c-6,0-8.451,5.65-8.451,11C394.944,330.428,397.394,336.078,403.395,336.078z"/>
	<path fill="#010058" d="M442.495,337.978h-2.9v-4.65h-0.1c-1.65,3.45-5.05,5.4-8.9,5.4c-6.5,0-9.051-3.8-9.051-9.801v-16.751h3.15
		v16.801c0.15,4.65,1.9,7.101,6.9,7.101c5.4,0,7.75-5.101,7.75-10.351v-13.551h3.15V337.978z"/>
	<path fill="#010058" d="M450.293,325.927c0.05,4.6,2.45,10.151,8.5,10.151c4.601,0,7.101-2.7,8.101-6.601h3.15
		c-1.35,5.85-4.75,9.25-11.251,9.25c-8.2,0-11.65-6.3-11.65-13.651c0-6.8,3.45-13.651,11.65-13.651
		c8.301,0,11.601,7.25,11.351,14.501H450.293z M466.994,323.277c-0.15-4.75-3.1-9.201-8.201-9.201c-5.15,0-8,4.5-8.5,9.201H466.994z
		"/>
	<path fill="#010058" d="M489.844,319.727c-0.15-3.9-3.15-5.65-6.75-5.65c-2.8,0-6.101,1.1-6.101,4.45c0,2.8,3.2,3.8,5.351,4.35
		l4.2,0.95c3.6,0.55,7.351,2.65,7.351,7.15c0,5.601-5.55,7.75-10.351,7.75c-6,0-10.101-2.8-10.601-9.101h3.15
		c0.25,4.25,3.4,6.451,7.601,6.451c2.95,0,7.05-1.3,7.05-4.9c0-3-2.8-4-5.65-4.7l-4.05-0.9c-4.1-1.1-7.2-2.5-7.2-6.9
		c0-5.25,5.15-7.25,9.701-7.25c5.15,0,9.25,2.7,9.45,8.301H489.844z"/>
	<path fill="#010058" d="M503.442,312.176h5.25v2.65h-5.25v17.401c0,2.05,0.3,3.25,2.55,3.4c0.9,0,1.8-0.05,2.7-0.15v2.7
		c-0.95,0-1.85,0.1-2.8,0.1c-4.2,0-5.65-1.4-5.601-5.8v-17.651h-4.5v-2.65h4.5v-7.75h3.15V312.176z"/>
	<path fill="#010058" d="M150.899,374.827h-5.1v23.151h-3.15v-23.151h-4.4v-2.65h4.4v-2.35c-0.05-4.45,1.2-7.55,6.25-7.55
		c0.9,0,1.65,0.05,2.65,0.2v2.7c-0.85-0.15-1.55-0.25-2.3-0.25c-3.5,0-3.4,2.2-3.45,5v2.25h5.1V374.827z"/>
	<path fill="#010058" d="M176.999,385.077c0,7.4-4.3,13.651-12.201,13.651s-12.201-6.25-12.201-13.651s4.3-13.651,12.201-13.651
		S176.999,377.677,176.999,385.077z M155.748,385.077c0,5.5,3,11.001,9.051,11.001s9.05-5.5,9.05-11.001s-3-11-9.05-11
		S155.748,379.577,155.748,385.077z"/>
	<path fill="#010058" d="M181.697,372.176h2.9v6.051h0.1c1.6-4.15,5.1-6.601,9.75-6.4v3.15c-5.7-0.3-9.601,3.9-9.601,9.25v13.751
		h-3.15V372.176z"/>
	<path fill="#010058" d="M211.047,380.077c0.3-6.051,4.55-8.651,10.451-8.651c4.55,0,9.5,1.4,9.5,8.301v13.701
		c0,1.2,0.6,1.9,1.85,1.9c0.35,0,0.75-0.1,1-0.2v2.65c-0.7,0.15-1.2,0.2-2.05,0.2c-3.2,0-3.701-1.8-3.701-4.5h-0.1
		c-2.2,3.351-4.451,5.25-9.401,5.25c-4.75,0-8.65-2.35-8.65-7.55c0-7.25,7.05-7.5,13.851-8.301c2.6-0.3,4.05-0.65,4.05-3.5
		c0-4.25-3.05-5.3-6.75-5.3c-3.9,0-6.801,1.8-6.9,6H211.047z M227.848,383.877h-0.1c-0.4,0.75-1.8,1-2.65,1.15
		c-5.35,0.95-12,0.9-12,5.95c0,3.15,2.8,5.101,5.75,5.101c4.8,0,9.051-3.05,9-8.101V383.877z"/>
	<path fill="#010058" d="M258.198,397.978h-2.9v-4.65h-0.1c-1.65,3.45-5.05,5.4-8.9,5.4c-6.5,0-9.051-3.8-9.051-9.801v-16.751h3.15
		v16.801c0.15,4.65,1.9,7.101,6.9,7.101c5.4,0,7.75-5.101,7.75-10.351v-13.551h3.15V397.978z"/>
	<path fill="#010058" d="M269.146,372.176h5.25v2.65h-5.25v17.401c0,2.05,0.3,3.25,2.55,3.4c0.9,0,1.8-0.05,2.7-0.15v2.7
		c-0.95,0-1.85,0.1-2.8,0.1c-4.2,0-5.65-1.4-5.601-5.8v-17.651h-4.5v-2.65h4.5v-7.75h3.15V372.176z"/>
	<path fill="#010058" d="M278.896,362.276h3.15v14.351h0.1c1.15-3.101,4.601-5.201,8.25-5.201c7.25,0,9.451,3.8,9.451,9.951v16.601
		h-3.15v-16.101c0-4.45-1.45-7.8-6.551-7.8c-5,0-8,3.8-8.1,8.851v15.051h-3.15V362.276z"/>
	<path fill="#010058" d="M307.645,385.927c0.05,4.6,2.45,10.151,8.5,10.151c4.601,0,7.101-2.7,8.101-6.601h3.15
		c-1.35,5.85-4.75,9.25-11.251,9.25c-8.2,0-11.65-6.3-11.65-13.651c0-6.8,3.45-13.651,11.65-13.651
		c8.301,0,11.601,7.25,11.351,14.501H307.645z M324.346,383.277c-0.15-4.75-3.1-9.201-8.201-9.201c-5.15,0-8,4.5-8.5,9.201H324.346z
		"/>
	<path fill="#010058" d="M331.694,372.176h3.15v4.451h0.1c1.15-3.101,4.601-5.201,8.25-5.201c7.25,0,9.451,3.8,9.451,9.951v16.601
		h-3.15v-16.101c0-4.45-1.45-7.8-6.551-7.8c-5,0-8,3.8-8.1,8.851v15.051h-3.15V372.176z"/>
	<path fill="#010058" d="M363.594,372.176h5.25v2.65h-5.25v17.401c0,2.05,0.3,3.25,2.55,3.4c0.9,0,1.8-0.05,2.7-0.15v2.7
		c-0.95,0-1.85,0.1-2.8,0.1c-4.2,0-5.65-1.4-5.601-5.8v-17.651h-4.5v-2.65h4.5v-7.75h3.15V372.176z"/>
	<path fill="#010058" d="M373.443,362.276h3.15v5.05h-3.15V362.276z M373.443,372.176h3.15v25.802h-3.15V372.176z"/>
	<path fill="#010058" d="M400.844,380.277c-0.85-3.85-3.2-6.2-7.3-6.2c-6.05,0-9.051,5.5-9.051,11s3,11.001,9.051,11.001
		c3.9,0,7.101-3.05,7.5-7.351h3.15c-0.85,6.2-4.9,10-10.65,10c-7.9,0-12.201-6.25-12.201-13.651s4.3-13.651,12.201-13.651
		c5.5,0,9.75,2.95,10.451,8.851H400.844z"/>
	<path fill="#010058" d="M408.292,380.077c0.3-6.051,4.55-8.651,10.451-8.651c4.55,0,9.5,1.4,9.5,8.301v13.701
		c0,1.2,0.6,1.9,1.85,1.9c0.35,0,0.75-0.1,1-0.2v2.65c-0.7,0.15-1.2,0.2-2.05,0.2c-3.2,0-3.701-1.8-3.701-4.5h-0.1
		c-2.2,3.351-4.45,5.25-9.401,5.25c-4.75,0-8.65-2.35-8.65-7.55c0-7.25,7.05-7.5,13.851-8.301c2.6-0.3,4.05-0.65,4.05-3.5
		c0-4.25-3.05-5.3-6.75-5.3c-3.9,0-6.801,1.8-6.9,6H408.292z M425.093,383.877h-0.1c-0.4,0.75-1.8,1-2.65,1.15
		c-5.35,0.95-12,0.9-12,5.95c0,3.15,2.8,5.101,5.75,5.101c4.8,0,9.051-3.05,9-8.101V383.877z"/>
	<path fill="#010058" d="M439.542,372.176h5.25v2.65h-5.25v17.401c0,2.05,0.3,3.25,2.55,3.4c0.9,0,1.8-0.05,2.7-0.15v2.7
		c-0.95,0-1.85,0.1-2.8,0.1c-4.2,0-5.65-1.4-5.601-5.8v-17.651h-4.5v-2.65h4.5v-7.75h3.15V372.176z"/>
	<path fill="#010058" d="M449.392,362.276h3.15v5.05h-3.15V362.276z M449.392,372.176h3.15v25.802h-3.15V372.176z"/>
	<path fill="#010058" d="M481.693,385.077c0,7.4-4.3,13.651-12.201,13.651s-12.201-6.25-12.201-13.651s4.3-13.651,12.201-13.651
		S481.693,377.677,481.693,385.077z M460.441,385.077c0,5.5,3,11.001,9.051,11.001s9.05-5.5,9.05-11.001s-3-11-9.05-11
		S460.441,379.577,460.441,385.077z"/>
	<path fill="#010058" d="M486.341,372.176h3.15v4.451h0.1c1.15-3.101,4.601-5.201,8.25-5.201c7.25,0,9.451,3.8,9.451,9.951v16.601
		h-3.15v-16.101c0-4.45-1.45-7.8-6.551-7.8c-5,0-8,3.8-8.1,8.851v15.051h-3.15V372.176z"/>
</g>
<g>
	<path fill="#010058" d="M726.276,292.347h16.351c5.9,0,10.851,2.85,10.851,9.301c0,4.5-2.35,8.2-6.95,9.1v0.1
		c4.65,0.6,6,3.8,6.25,8.051c0.15,2.45,0.15,7.35,1.65,9.15h-3.75c-0.85-1.4-0.85-4.05-0.95-5.55c-0.3-5-0.7-10.551-7.15-10.301
		h-12.901v15.851h-3.4V292.347z M729.677,309.298h12.701c4.15,0,7.701-2.6,7.701-6.951c0-4.35-2.601-7.1-7.701-7.1h-12.701V309.298z
		"/>
	<path fill="#010058" d="M760.876,315.999c0.05,4.6,2.45,10.151,8.5,10.151c4.601,0,7.101-2.7,8.101-6.601h3.15
		c-1.35,5.85-4.75,9.25-11.251,9.25c-8.2,0-11.65-6.3-11.65-13.651c0-6.8,3.45-13.651,11.65-13.651
		c8.301,0,11.601,7.25,11.351,14.501H760.876z M777.577,313.349c-0.15-4.75-3.1-9.201-8.201-9.201c-5.15,0-8,4.5-8.5,9.201H777.577z
		"/>
	<path fill="#010058" d="M807.677,337.6h-3.15v-14.451h-0.1c-1.35,3.7-5.1,5.65-8.95,5.65c-7.851,0-11.601-6.351-11.601-13.651
		s3.75-13.651,11.601-13.651c3.75,0,7.85,2.3,9.2,5.65h0.1v-4.9h2.9V337.6z M795.477,326.149c6.7,0,9.05-5.65,9.05-11.001
		c0-5.35-2.35-11-9.05-11c-6,0-8.451,5.65-8.451,11C787.026,320.499,789.476,326.149,795.477,326.149z"/>
	<path fill="#010058" d="M834.577,328.049h-2.9v-4.65h-0.1c-1.65,3.45-5.05,5.4-8.901,5.4c-6.5,0-9.05-3.8-9.05-9.801v-16.751h3.15
		v16.801c0.15,4.65,1.9,7.101,6.9,7.101c5.4,0,7.75-5.101,7.75-10.351v-13.551h3.15V328.049z"/>
	<path fill="#010058" d="M842.375,315.999c0.05,4.6,2.45,10.151,8.5,10.151c4.601,0,7.101-2.7,8.101-6.601h3.15
		c-1.351,5.85-4.751,9.25-11.251,9.25c-8.2,0-11.65-6.3-11.65-13.651c0-6.8,3.45-13.651,11.65-13.651
		c8.3,0,11.601,7.25,11.351,14.501H842.375z M859.076,313.349c-0.15-4.75-3.1-9.201-8.201-9.201c-5.15,0-8,4.5-8.5,9.201H859.076z"
		/>
	<path fill="#010058" d="M881.925,309.798c-0.15-3.9-3.15-5.65-6.75-5.65c-2.801,0-6.102,1.1-6.102,4.45c0,2.8,3.201,3.8,5.352,4.35
		l4.199,0.95c3.602,0.55,7.352,2.65,7.352,7.15c0,5.601-5.551,7.75-10.352,7.75c-6,0-10.1-2.8-10.6-9.101h3.149
		c0.25,4.25,3.4,6.451,7.601,6.451c2.949,0,7.051-1.3,7.051-4.9c0-3-2.801-4-5.65-4.7l-4.051-0.9c-4.1-1.1-7.2-2.5-7.2-6.9
		c0-5.25,5.15-7.25,9.7-7.25c5.15,0,9.25,2.7,9.451,8.301H881.925z"/>
	<path fill="#010058" d="M895.523,302.248h5.252v2.65h-5.252v17.401c0,2.05,0.301,3.25,2.551,3.4c0.9,0,1.801-0.05,2.701-0.15v2.7
		c-0.951,0-1.852,0.1-2.801,0.1c-4.201,0-5.65-1.4-5.6-5.8v-17.651h-4.502v-2.65h4.502v-7.75h3.148V302.248z"/>
</g>
<g>
	<path fill="#010058" d="M1140.17,441.593h3.801l14,35.702h-3.649l-4.351-11.101h-16.251l-4.301,11.101h-3.649L1140.17,441.593z
		 M1134.77,463.294h14.051l-6.9-18.301L1134.77,463.294z"/>
	<path fill="#010058" d="M1161.219,441.593h15.851c6.4,0,10.601,3.75,10.601,10.201s-4.2,10.201-10.601,10.201h-12.451v15.301
		h-3.399V441.593z M1164.619,459.094h11.701c4.7,0,7.95-2.4,7.95-7.3c0-4.9-3.25-7.3-7.95-7.3h-11.701V459.094z"/>
	<path fill="#010058" d="M1221.469,459.044c-0.15-3.9-3.15-5.65-6.75-5.65c-2.801,0-6.101,1.101-6.101,4.45
		c0,2.8,3.2,3.8,5.35,4.351l4.201,0.95c3.6,0.55,7.35,2.649,7.35,7.15c0,5.6-5.55,7.75-10.351,7.75c-6,0-10.101-2.8-10.601-9.101
		h3.15c0.25,4.25,3.4,6.45,7.601,6.45c2.95,0,7.051-1.3,7.051-4.9c0-3-2.801-4-5.65-4.7l-4.051-0.899c-4.1-1.101-7.2-2.501-7.2-6.9
		c0-5.25,5.15-7.251,9.7-7.251c5.15,0,9.251,2.7,9.451,8.301H1221.469z"/>
	<path fill="#010058" d="M1231.918,465.245c0.05,4.601,2.45,10.15,8.5,10.15c4.601,0,7.101-2.7,8.101-6.601h3.15
		c-1.351,5.851-4.75,9.251-11.251,9.251c-8.2,0-11.65-6.301-11.65-13.65c0-6.801,3.45-13.651,11.65-13.651
		c8.301,0,11.601,7.251,11.351,14.501H1231.918z M1248.62,462.594c-0.15-4.75-3.101-9.2-8.201-9.2c-5.15,0-8,4.5-8.5,9.2H1248.62z"
		/>
	<path fill="#010058" d="M1255.968,451.494h3.15v4.45h0.1c1.15-3.1,4.601-5.2,8.251-5.2c7.25,0,9.45,3.8,9.45,9.951v16.601h-3.15
		v-16.101c0-4.45-1.45-7.801-6.55-7.801c-5.001,0-8.001,3.8-8.101,8.851v15.051h-3.15V451.494z"/>
	<path fill="#010058" d="M1305.569,477.295h-2.899v-4.9h-0.101c-1.35,3.351-5.45,5.65-9.2,5.65c-7.851,0-11.601-6.351-11.601-13.65
		c0-7.301,3.75-13.651,11.601-13.651c3.85,0,7.601,1.95,8.95,5.65h0.101v-14.801h3.149V477.295z M1293.369,475.395
		c6.7,0,9.051-5.65,9.051-11c0-5.351-2.351-11.001-9.051-11.001c-6.001,0-8.45,5.65-8.45,11.001
		C1284.918,469.745,1287.368,475.395,1293.369,475.395z"/>
	<path fill="#010058" d="M1327.018,459.044c-0.15-3.9-3.15-5.65-6.75-5.65c-2.801,0-6.101,1.101-6.101,4.45
		c0,2.8,3.2,3.8,5.35,4.351l4.201,0.95c3.6,0.55,7.35,2.649,7.35,7.15c0,5.6-5.55,7.75-10.351,7.75c-6,0-10.101-2.8-10.601-9.101
		h3.15c0.25,4.25,3.4,6.45,7.601,6.45c2.95,0,7.051-1.3,7.051-4.9c0-3-2.801-4-5.65-4.7l-4.051-0.899c-4.1-1.101-7.2-2.501-7.2-6.9
		c0-5.25,5.15-7.251,9.7-7.251c5.15,0,9.251,2.7,9.451,8.301H1327.018z"/>
	<path fill="#010058" d="M1367.718,459.594c-0.85-3.85-3.2-6.2-7.301-6.2c-6.05,0-9.05,5.5-9.05,11.001c0,5.5,3,11,9.05,11
		c3.9,0,7.101-3.05,7.501-7.351h3.15c-0.851,6.201-4.9,10.001-10.651,10.001c-7.9,0-12.2-6.25-12.2-13.65s4.3-13.651,12.2-13.651
		c5.501,0,9.751,2.95,10.451,8.851H1367.718z"/>
	<path fill="#010058" d="M1375.417,441.593h3.15v14.351h0.1c1.15-3.1,4.601-5.2,8.251-5.2c7.25,0,9.45,3.8,9.45,9.951v16.601h-3.15
		v-16.101c0-4.45-1.45-7.801-6.55-7.801c-5.001,0-8.001,3.8-8.101,8.851v15.051h-3.15V441.593z"/>
	<path fill="#010058" d="M1402.017,459.395c0.3-6.051,4.55-8.651,10.45-8.651c4.551,0,9.501,1.4,9.501,8.301v13.701
		c0,1.199,0.6,1.899,1.851,1.899c0.35,0,0.75-0.1,1-0.2v2.65c-0.7,0.15-1.2,0.2-2.051,0.2c-3.2,0-3.7-1.8-3.7-4.5h-0.1
		c-2.2,3.35-4.45,5.25-9.4,5.25c-4.751,0-8.65-2.35-8.65-7.551c0-7.25,7.05-7.5,13.851-8.3c2.6-0.301,4.05-0.65,4.05-3.501
		c0-4.25-3.05-5.3-6.75-5.3c-3.9,0-6.801,1.8-6.9,6.001H1402.017z M1418.818,463.195h-0.1c-0.4,0.75-1.801,1-2.65,1.149
		c-5.351,0.95-12.001,0.9-12.001,5.951c0,3.149,2.801,5.1,5.751,5.1c4.8,0,9.05-3.05,9-8.101V463.195z"/>
	<path fill="#010058" d="M1428.317,441.593h3.15v35.702h-3.15V441.593z"/>
	<path fill="#010058" d="M1437.567,441.593h3.15v35.702h-3.15V441.593z"/>
	<path fill="#010058" d="M1448.618,465.245c0.05,4.601,2.45,10.15,8.5,10.15c4.601,0,7.101-2.7,8.101-6.601h3.15
		c-1.351,5.851-4.75,9.251-11.251,9.251c-8.2,0-11.65-6.301-11.65-13.65c0-6.801,3.45-13.651,11.65-13.651
		c8.301,0,11.601,7.251,11.351,14.501H1448.618z M1465.319,462.594c-0.15-4.75-3.101-9.2-8.201-9.2c-5.15,0-8,4.5-8.5,9.2H1465.319z
		"/>
	<path fill="#010058" d="M1472.667,451.494h3.15v4.45h0.1c1.15-3.1,4.601-5.2,8.251-5.2c7.25,0,9.45,3.8,9.45,9.951v16.601h-3.15
		v-16.101c0-4.45-1.45-7.801-6.55-7.801c-5.001,0-8.001,3.8-8.101,8.851v15.051h-3.15V451.494z"/>
	<path fill="#010058" d="M1521.369,475.195c-0.05,7.701-3,12.401-11.451,12.401c-5.15,0-10.25-2.301-10.7-7.801h3.15
		c0.699,3.801,4.05,5.15,7.55,5.15c5.801,0,8.301-3.45,8.301-9.751v-3.5h-0.1c-1.45,3.15-4.501,5.301-8.201,5.301
		c-8.25,0-11.65-5.9-11.65-13.251c0-7.101,4.2-13.001,11.65-13.001c3.75,0,6.95,2.351,8.201,5.2h0.1v-4.45h3.15V475.195z
		 M1518.218,464.094c0-5.05-2.351-10.7-8.301-10.7c-6,0-8.5,5.351-8.5,10.7c0,5.201,2.7,10.251,8.5,10.251
		C1515.368,474.345,1518.218,469.345,1518.218,464.094z"/>
	<path fill="#010058" d="M1529.217,465.245c0.05,4.601,2.45,10.15,8.5,10.15c4.601,0,7.101-2.7,8.101-6.601h3.15
		c-1.351,5.851-4.75,9.251-11.251,9.251c-8.2,0-11.65-6.301-11.65-13.65c0-6.801,3.45-13.651,11.65-13.651
		c8.301,0,11.601,7.251,11.351,14.501H1529.217z M1545.918,462.594c-0.15-4.75-3.101-9.2-8.201-9.2c-5.15,0-8,4.5-8.5,9.2H1545.918z
		"/>
	<path fill="#010058" d="M1567.217,451.494h2.9v4.351h0.15c1.649-3.1,4.35-5.101,8.45-5.101c3.4,0,6.45,1.65,7.4,5.05
		c1.55-3.399,4.8-5.05,8.2-5.05c5.65,0,8.551,2.95,8.551,9.051v17.501h-3.15v-17.351c0-4.251-1.6-6.551-6.101-6.551
		c-5.45,0-7,4.5-7,9.301v14.601h-3.15v-17.501c0.05-3.501-1.399-6.4-5.4-6.4c-5.45,0-7.65,4.101-7.7,9.501v14.4h-3.15V451.494z"/>
	<path fill="#010058" d="M1610.717,465.245c0.05,4.601,2.45,10.15,8.5,10.15c4.601,0,7.101-2.7,8.101-6.601h3.15
		c-1.351,5.851-4.75,9.251-11.251,9.251c-8.2,0-11.65-6.301-11.65-13.65c0-6.801,3.45-13.651,11.65-13.651
		c8.301,0,11.601,7.251,11.351,14.501H1610.717z M1627.418,462.594c-0.15-4.75-3.101-9.2-8.201-9.2c-5.15,0-8,4.5-8.5,9.2H1627.418z
		"/>
	<path fill="#010058" d="M1650.268,459.044c-0.15-3.9-3.15-5.65-6.75-5.65c-2.801,0-6.101,1.101-6.101,4.45
		c0,2.8,3.2,3.8,5.35,4.351l4.201,0.95c3.6,0.55,7.35,2.649,7.35,7.15c0,5.6-5.55,7.75-10.351,7.75c-6,0-10.101-2.8-10.601-9.101
		h3.15c0.25,4.25,3.4,6.45,7.601,6.45c2.95,0,7.051-1.3,7.051-4.9c0-3-2.801-4-5.65-4.7l-4.051-0.899c-4.1-1.101-7.2-2.501-7.2-6.9
		c0-5.25,5.15-7.251,9.7-7.251c5.15,0,9.251,2.7,9.451,8.301H1650.268z"/>
	<path fill="#010058" d="M1674.318,459.044c-0.15-3.9-3.15-5.65-6.75-5.65c-2.801,0-6.101,1.101-6.101,4.45
		c0,2.8,3.2,3.8,5.35,4.351l4.201,0.95c3.6,0.55,7.35,2.649,7.35,7.15c0,5.6-5.55,7.75-10.351,7.75c-6,0-10.101-2.8-10.601-9.101
		h3.15c0.25,4.25,3.4,6.45,7.601,6.45c2.95,0,7.051-1.3,7.051-4.9c0-3-2.801-4-5.65-4.7l-4.051-0.899c-4.1-1.101-7.2-2.501-7.2-6.9
		c0-5.25,5.15-7.251,9.7-7.251c5.15,0,9.251,2.7,9.451,8.301H1674.318z"/>
	<path fill="#010058" d="M1682.617,459.395c0.3-6.051,4.55-8.651,10.45-8.651c4.551,0,9.501,1.4,9.501,8.301v13.701
		c0,1.199,0.6,1.899,1.851,1.899c0.35,0,0.75-0.1,1-0.2v2.65c-0.7,0.15-1.2,0.2-2.051,0.2c-3.2,0-3.7-1.8-3.7-4.5h-0.1
		c-2.2,3.35-4.45,5.25-9.4,5.25c-4.751,0-8.65-2.35-8.65-7.551c0-7.25,7.05-7.5,13.851-8.3c2.6-0.301,4.05-0.65,4.05-3.501
		c0-4.25-3.05-5.3-6.75-5.3c-3.9,0-6.801,1.8-6.9,6.001H1682.617z M1699.417,463.195h-0.1c-0.4,0.75-1.801,1-2.65,1.149
		c-5.351,0.95-12.001,0.9-12.001,5.951c0,3.149,2.801,5.1,5.751,5.1c4.8,0,9.05-3.05,9-8.101V463.195z"/>
	<path fill="#010058" d="M1730.668,475.195c-0.05,7.701-3,12.401-11.451,12.401c-5.15,0-10.25-2.301-10.7-7.801h3.15
		c0.699,3.801,4.05,5.15,7.55,5.15c5.801,0,8.301-3.45,8.301-9.751v-3.5h-0.1c-1.45,3.15-4.501,5.301-8.201,5.301
		c-8.25,0-11.65-5.9-11.65-13.251c0-7.101,4.2-13.001,11.65-13.001c3.75,0,6.95,2.351,8.201,5.2h0.1v-4.45h3.15V475.195z
		 M1727.518,464.094c0-5.05-2.351-10.7-8.301-10.7c-6,0-8.5,5.351-8.5,10.7c0,5.201,2.7,10.251,8.5,10.251
		C1724.667,474.345,1727.518,469.345,1727.518,464.094z"/>
	<path fill="#010058" d="M1738.517,465.245c0.05,4.601,2.45,10.15,8.5,10.15c4.601,0,7.101-2.7,8.101-6.601h3.15
		c-1.351,5.851-4.75,9.251-11.251,9.251c-8.2,0-11.65-6.301-11.65-13.65c0-6.801,3.45-13.651,11.65-13.651
		c8.301,0,11.601,7.251,11.351,14.501H1738.517z M1755.218,462.594c-0.15-4.75-3.101-9.2-8.201-9.2c-5.15,0-8,4.5-8.5,9.2H1755.218z
		"/>
	<path fill="#010058" d="M1147.321,519.594c-0.85-3.851-3.2-6.2-7.301-6.2c-6.05,0-9.05,5.5-9.05,11.001c0,5.5,3,11,9.05,11
		c3.9,0,7.101-3.05,7.501-7.351h3.15c-0.851,6.201-4.9,10.001-10.651,10.001c-7.9,0-12.2-6.25-12.2-13.65s4.3-13.651,12.2-13.651
		c5.501,0,9.751,2.95,10.451,8.851H1147.321z"/>
	<path fill="#010058" d="M1178.171,524.395c0,7.4-4.3,13.65-12.201,13.65c-7.9,0-12.2-6.25-12.2-13.65s4.3-13.651,12.2-13.651
		C1173.872,510.744,1178.171,516.995,1178.171,524.395z M1156.92,524.395c0,5.5,3,11,9.05,11c6.051,0,9.051-5.5,9.051-11
		c0-5.501-3-11.001-9.051-11.001C1159.92,513.394,1156.92,518.894,1156.92,524.395z"/>
	<path fill="#010058" d="M1182.82,511.494h3.15v4.45h0.1c1.15-3.1,4.601-5.2,8.251-5.2c7.25,0,9.45,3.801,9.45,9.951v16.601h-3.15
		v-16.101c0-4.45-1.45-7.801-6.55-7.801c-5.001,0-8.001,3.8-8.101,8.851v15.051h-3.15V511.494z"/>
	<path fill="#010058" d="M1214.72,511.494h5.25v2.65h-5.25v17.401c0,2.05,0.3,3.25,2.55,3.399c0.9,0,1.8-0.05,2.7-0.149v2.7
		c-0.95,0-1.851,0.1-2.801,0.1c-4.2,0-5.65-1.399-5.6-5.8v-17.651h-4.501v-2.65h4.501v-7.75h3.15V511.494z"/>
	<path fill="#010058" d="M1224.219,519.394c0.3-6.05,4.55-8.65,10.45-8.65c4.551,0,9.501,1.4,9.501,8.301v13.701
		c0,1.199,0.6,1.899,1.851,1.899c0.35,0,0.75-0.1,1-0.2v2.65c-0.7,0.15-1.2,0.2-2.051,0.2c-3.2,0-3.7-1.8-3.7-4.5h-0.1
		c-2.2,3.35-4.45,5.25-9.4,5.25c-4.751,0-8.651-2.35-8.651-7.551c0-7.25,7.051-7.5,13.852-8.3c2.6-0.301,4.05-0.65,4.05-3.501
		c0-4.25-3.05-5.3-6.75-5.3c-3.9,0-6.801,1.8-6.9,6H1224.219z M1241.02,523.195h-0.1c-0.4,0.75-1.8,1-2.65,1.149
		c-5.351,0.95-12.001,0.9-12.001,5.951c0,3.149,2.801,5.1,5.751,5.1c4.8,0,9.05-3.05,9-8.101V523.195z"/>
	<path fill="#010058" d="M1250.519,501.593h3.15v5.05h-3.15V501.593z M1250.519,511.494h3.15v25.802h-3.15V511.494z"/>
	<path fill="#010058" d="M1259.669,511.494h3.15v4.45h0.1c1.15-3.1,4.601-5.2,8.251-5.2c7.25,0,9.45,3.801,9.45,9.951v16.601h-3.15
		v-16.101c0-4.45-1.45-7.801-6.55-7.801c-5.001,0-8.001,3.8-8.101,8.851v15.051h-3.15V511.494z"/>
	<path fill="#010058" d="M1286.619,501.593h3.15v5.05h-3.15V501.593z M1286.619,511.494h3.15v25.802h-3.15V511.494z"/>
	<path fill="#010058" d="M1295.769,511.494h3.15v4.45h0.1c1.15-3.1,4.601-5.2,8.251-5.2c7.25,0,9.45,3.801,9.45,9.951v16.601h-3.15
		v-16.101c0-4.45-1.45-7.801-6.55-7.801c-5.001,0-8.001,3.8-8.101,8.851v15.051h-3.15V511.494z"/>
	<path fill="#010058" d="M1344.47,535.195c-0.05,7.701-3,12.401-11.451,12.401c-5.15,0-10.25-2.301-10.7-7.801h3.15
		c0.699,3.801,4.05,5.15,7.55,5.15c5.801,0,8.301-3.45,8.301-9.751v-3.5h-0.1c-1.45,3.15-4.501,5.301-8.201,5.301
		c-8.25,0-11.65-5.9-11.65-13.251c0-7.101,4.2-13.001,11.65-13.001c3.75,0,6.95,2.351,8.201,5.2h0.1v-4.45h3.15V535.195z
		 M1341.32,524.094c0-5.05-2.351-10.7-8.301-10.7c-6,0-8.5,5.351-8.5,10.7c0,5.201,2.7,10.251,8.5,10.251
		C1338.469,534.345,1341.32,529.345,1341.32,524.094z"/>
	<path fill="#010058" d="M1366.219,509.043c5.5-0.2,8.9-0.3,9.851-6.75h2.55v35.002h-3.15v-26.002h-9.25V509.043z"/>
	<path fill="#010058" d="M1414.02,537.295h-23.052c0.25-10.4,10.901-12.951,16.852-18.901c1.899-1.95,2.9-3.8,2.9-6.601
		c0-4.55-3.601-7.15-7.851-7.15c-5.751,0-8.001,4.601-7.9,9.751h-3.15c-0.15-7.2,3.6-12.4,11.2-12.4
		c6.101,0,10.851,3.35,10.851,9.851c0,5.85-4.25,9.5-8.8,12.45c-3.4,2.301-9.651,5.4-10.501,10.101h19.451V537.295z"/>
	<path fill="#010058" d="M1435.769,518.444v0.101c4.501,0.899,7.15,4.25,7.15,8.95c0,7.051-5.5,10.551-12.051,10.551
		c-6.55,0-12.05-3.5-12.05-10.551c0.1-4.55,2.8-8.15,7.1-8.95v-0.101c-3.649-1.1-5.7-3.85-5.7-7.7c0-6,5.45-8.75,10.601-8.75
		c5.2,0,10.651,2.75,10.651,8.75C1441.47,514.544,1439.32,517.394,1435.769,518.444z M1439.77,527.495c0-5.05-4.2-7.7-8.901-7.601
		c-4.8-0.1-8.9,2.45-8.9,7.601c0,5.251,4.001,7.9,8.9,7.9C1435.769,535.395,1439.77,532.845,1439.77,527.495z M1438.32,510.744
		c0-4-3.25-6.101-7.451-6.101c-3.85,0-7.5,2.101-7.5,6.101c0,4.7,3.8,6.601,7.5,6.501
		C1434.719,517.344,1438.32,515.244,1438.32,510.744z"/>
	<path fill="#010058" d="M1447.768,524.995v-2.9h12.501v2.9H1447.768z"/>
	<path fill="#010058" d="M1466.268,501.593h3.15v14.801h0.1c1.351-3.7,5.101-5.65,8.951-5.65c7.851,0,11.601,6.351,11.601,13.651
		c0,7.3-3.75,13.65-11.601,13.65c-4.15,0-7.751-2.15-9.201-5.65h-0.1v4.9h-2.9V501.593z M1478.469,513.394
		c-6.7,0-9.051,5.65-9.051,11.001c0,5.35,2.351,11,9.051,11c6,0,8.45-5.65,8.45-11
		C1486.919,519.044,1484.469,513.394,1478.469,513.394z"/>
	<path fill="#010058" d="M1495.017,501.593h3.15v5.05h-3.15V501.593z M1495.017,511.494h3.15v25.802h-3.15V511.494z"/>
	<path fill="#010058" d="M1509.218,511.494h5.25v2.65h-5.25v17.401c0,2.05,0.3,3.25,2.55,3.399c0.9,0,1.8-0.05,2.7-0.149v2.7
		c-0.95,0-1.851,0.1-2.801,0.1c-4.2,0-5.65-1.399-5.6-5.8v-17.651h-4.501v-2.65h4.501v-7.75h3.15V511.494z"/>
	<path fill="#010058" d="M1532.917,511.494h2.9v6.051h0.1c1.601-4.15,5.101-6.601,9.751-6.4v3.15c-5.7-0.301-9.601,3.899-9.601,9.25
		v13.751h-3.15V511.494z"/>
	<path fill="#010058" d="M1548.367,519.394c0.3-6.05,4.55-8.65,10.45-8.65c4.551,0,9.501,1.4,9.501,8.301v13.701
		c0,1.199,0.6,1.899,1.851,1.899c0.35,0,0.75-0.1,1-0.2v2.65c-0.7,0.15-1.2,0.2-2.051,0.2c-3.2,0-3.7-1.8-3.7-4.5h-0.1
		c-2.2,3.35-4.45,5.25-9.4,5.25c-4.751,0-8.65-2.35-8.65-7.551c0-7.25,7.05-7.5,13.851-8.3c2.6-0.301,4.05-0.65,4.05-3.501
		c0-4.25-3.05-5.3-6.75-5.3c-3.9,0-6.801,1.8-6.9,6H1548.367z M1565.167,523.195h-0.1c-0.4,0.75-1.801,1-2.65,1.149
		c-5.351,0.95-12.001,0.9-12.001,5.951c0,3.149,2.801,5.1,5.751,5.1c4.8,0,9.05-3.05,9-8.101V523.195z"/>
	<path fill="#010058" d="M1574.567,511.494h3.15v4.45h0.1c1.15-3.1,4.601-5.2,8.251-5.2c7.25,0,9.45,3.801,9.45,9.951v16.601h-3.15
		v-16.101c0-4.45-1.45-7.801-6.55-7.801c-5.001,0-8.001,3.8-8.101,8.851v15.051h-3.15V511.494z"/>
	<path fill="#010058" d="M1624.167,537.295h-2.899v-4.9h-0.101c-1.35,3.351-5.45,5.65-9.2,5.65c-7.851,0-11.601-6.351-11.601-13.65
		c0-7.301,3.75-13.651,11.601-13.651c3.85,0,7.601,1.95,8.95,5.65h0.101v-14.801h3.149V537.295z M1611.967,535.395
		c6.7,0,9.051-5.65,9.051-11c0-5.351-2.351-11.001-9.051-11.001c-6.001,0-8.45,5.65-8.45,11.001
		C1603.517,529.745,1605.966,535.395,1611.967,535.395z"/>
	<path fill="#010058" d="M1653.267,524.395c0,7.4-4.3,13.65-12.201,13.65c-7.9,0-12.2-6.25-12.2-13.65s4.3-13.651,12.2-13.651
		C1648.967,510.744,1653.267,516.995,1653.267,524.395z M1632.016,524.395c0,5.5,3,11,9.05,11c6.051,0,9.051-5.5,9.051-11
		c0-5.501-3-11.001-9.051-11.001C1635.016,513.394,1632.016,518.894,1632.016,524.395z"/>
	<path fill="#010058" d="M1657.965,511.494h2.9v4.351h0.15c1.649-3.101,4.35-5.101,8.45-5.101c3.4,0,6.45,1.65,7.4,5.051
		c1.55-3.4,4.8-5.051,8.2-5.051c5.65,0,8.551,2.95,8.551,9.051v17.501h-3.15v-17.351c0-4.251-1.6-6.551-6.101-6.551
		c-5.45,0-7,4.5-7,9.301v14.601h-3.15v-17.501c0.05-3.5-1.399-6.4-5.4-6.4c-5.45,0-7.65,4.101-7.7,9.501v14.4h-3.15V511.494z"/>
	<path fill="#010058" d="M1129.07,571.494h3.15v4.45h0.1c1.15-3.1,4.601-5.2,8.251-5.2c7.25,0,9.45,3.801,9.45,9.951v16.601h-3.15
		v-16.101c0-4.45-1.45-7.801-6.55-7.801c-5.001,0-8.001,3.8-8.101,8.851v15.051h-3.15V571.494z"/>
	<path fill="#010058" d="M1176.871,597.295h-2.9v-4.65h-0.1c-1.65,3.45-5.051,5.4-8.9,5.4c-6.501,0-9.051-3.8-9.051-9.801v-16.751
		h3.15v16.801c0.149,4.65,1.9,7.101,6.9,7.101c5.4,0,7.75-5.1,7.75-10.351v-13.551h3.15V597.295z"/>
	<path fill="#010058" d="M1182.819,571.494h2.9v4.351h0.15c1.649-3.101,4.35-5.101,8.45-5.101c3.4,0,6.45,1.65,7.4,5.051
		c1.55-3.4,4.8-5.051,8.2-5.051c5.65,0,8.551,2.95,8.551,9.051v17.501h-3.15v-17.351c0-4.251-1.6-6.551-6.101-6.551
		c-5.45,0-7,4.5-7,9.301v14.601h-3.15v-17.501c0.05-3.5-1.399-6.4-5.4-6.4c-5.45,0-7.65,4.101-7.7,9.501v14.4h-3.15V571.494z"/>
	<path fill="#010058" d="M1224.468,561.593h3.15v14.801h0.1c1.351-3.7,5.101-5.65,8.951-5.65c7.851,0,11.601,6.351,11.601,13.651
		c0,7.3-3.75,13.65-11.601,13.65c-4.15,0-7.751-2.15-9.201-5.65h-0.1v4.9h-2.9V561.593z M1236.669,573.394
		c-6.7,0-9.051,5.65-9.051,11.001c0,5.35,2.351,11,9.051,11c6,0,8.45-5.65,8.45-11
		C1245.12,579.044,1242.669,573.394,1236.669,573.394z"/>
	<path fill="#010058" d="M1255.018,585.245c0.05,4.601,2.45,10.15,8.5,10.15c4.601,0,7.101-2.7,8.101-6.601h3.15
		c-1.351,5.851-4.75,9.251-11.251,9.251c-8.2,0-11.65-6.301-11.65-13.65c0-6.801,3.45-13.651,11.65-13.651
		c8.301,0,11.601,7.251,11.351,14.501H1255.018z M1271.719,582.594c-0.15-4.75-3.101-9.2-8.201-9.2c-5.15,0-8,4.5-8.5,9.2H1271.719z
		"/>
	<path fill="#010058" d="M1279.118,571.494h2.9v6.051h0.1c1.601-4.15,5.101-6.601,9.751-6.4v3.15c-5.7-0.301-9.601,3.899-9.601,9.25
		v13.751h-3.15V571.494z"/>
</g>
<g>
	<path fill="#010058" d="M489.881,29.649c0,4.75,3.701,6.6,7.901,6.6c2.75,0,6.95-0.8,6.95-4.45c0-3.85-5.35-4.5-10.601-5.9
		c-5.3-1.4-10.651-3.45-10.651-10.15c0-7.301,6.901-10.801,13.351-10.801c7.451,0,14.301,3.25,14.301,11.5h-7.601
		c-0.25-4.3-3.3-5.4-7.05-5.4c-2.5,0-5.4,1.05-5.4,4.05c0,2.75,1.7,3.101,10.651,5.4c2.6,0.65,10.601,2.3,10.601,10.401
		c0,6.55-5.15,11.451-14.851,11.451c-7.9,0-15.301-3.9-15.201-12.701H489.881z"/>
	<path fill="#010058" d="M524.881,12.398H514.18V5.798h29.252v6.601h-10.701V41.5h-7.851V12.398z"/>
	<path fill="#010058" d="M557.281,5.798h8.051L578.682,41.5h-8.15l-2.7-7.951h-13.351l-2.8,7.951h-7.951L557.281,5.798z
		 M556.531,27.699h9.25l-4.5-13.101h-0.1L556.531,27.699z"/>
</g>
<g>
	<path fill="#010058" d="M1073.916,5.798h8.051l13.352,35.702h-8.152l-2.699-7.951h-13.352l-2.799,7.951h-7.951L1073.916,5.798z
		 M1073.166,27.699h9.25l-4.5-13.101h-0.1L1073.166,27.699z"/>
	<path fill="#010058" d="M1098.416,5.798h16.1c8.902,0,12.352,5.65,12.352,11.451s-3.449,11.451-12.352,11.451h-8.25V41.5h-7.85
		V5.798z M1106.265,22.599h6.102c3.65,0,6.9-0.8,6.9-5.35s-3.25-5.351-6.9-5.351h-6.102V22.599z"/>
</g>
<g>
	<path fill="#010058" d="M735.678,470.542c-1.2-5.501-5.75-8.65-10.951-8.65c-9.45,0-13.451,7.9-13.451,15.7
		c0,7.801,4,15.701,13.451,15.701c6.601,0,10.801-5.1,11.451-11.45h3.4c-0.95,8.75-6.5,14.351-14.851,14.351
		c-11.25,0-16.851-8.851-16.851-18.602c0-9.75,5.601-18.601,16.851-18.601c6.75,0,13.451,4.05,14.351,11.551H735.678z"/>
	<path fill="#010058" d="M744.126,459.742h3.15v14.351h0.1c1.15-3.1,4.601-5.2,8.25-5.2c7.25,0,9.451,3.801,9.451,9.951v16.601
		h-3.15v-16.101c0-4.45-1.45-7.801-6.551-7.801c-5,0-8,3.8-8.1,8.851v15.051h-3.15V459.742z"/>
	<path fill="#010058" d="M770.725,477.542c0.3-6.05,4.55-8.65,10.451-8.65c4.55,0,9.5,1.4,9.5,8.301v13.701
		c0,1.199,0.6,1.899,1.85,1.899c0.35,0,0.75-0.1,1-0.2v2.65c-0.7,0.15-1.2,0.2-2.05,0.2c-3.2,0-3.701-1.8-3.701-4.5h-0.1
		c-2.2,3.35-4.45,5.25-9.401,5.25c-4.75,0-8.65-2.35-8.65-7.551c0-7.25,7.05-7.5,13.851-8.3c2.6-0.301,4.05-0.65,4.05-3.501
		c0-4.25-3.05-5.3-6.75-5.3c-3.9,0-6.801,1.8-6.9,6H770.725z M787.526,481.343h-0.1c-0.4,0.75-1.8,1-2.65,1.149
		c-5.35,0.95-12,0.9-12,5.951c0,3.149,2.8,5.1,5.75,5.1c4.8,0,9.051-3.05,9-8.101V481.343z"/>
	<path fill="#010058" d="M797.025,459.742h3.15v35.702h-3.15V459.742z"/>
	<path fill="#010058" d="M806.275,459.742h3.15v35.702h-3.15V459.742z"/>
	<path fill="#010058" d="M817.325,483.393c0.05,4.601,2.45,10.15,8.5,10.15c4.601,0,7.101-2.7,8.101-6.601h3.15
		c-1.35,5.851-4.75,9.251-11.251,9.251c-8.2,0-11.65-6.301-11.65-13.65c0-6.801,3.45-13.651,11.65-13.651
		c8.301,0,11.601,7.251,11.351,14.501H817.325z M834.026,480.743c-0.15-4.75-3.1-9.2-8.201-9.2c-5.15,0-8,4.5-8.5,9.2H834.026z"/>
	<path fill="#010058" d="M841.375,469.642h3.15v4.45h0.1c1.15-3.1,4.601-5.2,8.25-5.2c7.25,0,9.451,3.801,9.451,9.951v16.601h-3.15
		v-16.101c0-4.45-1.45-7.801-6.55-7.801c-5,0-8,3.8-8.1,8.851v15.051h-3.15V469.642z"/>
	<path fill="#010058" d="M890.076,493.343c-0.05,7.701-3,12.401-11.451,12.401c-5.15,0-10.25-2.301-10.7-7.801h3.15
		c0.699,3.801,4.05,5.15,7.55,5.15c5.801,0,8.301-3.45,8.301-9.751v-3.5h-0.1c-1.45,3.15-4.501,5.301-8.201,5.301
		c-8.25,0-11.65-5.9-11.65-13.251c0-7.101,4.2-13.001,11.65-13.001c3.75,0,6.95,2.351,8.201,5.2h0.1v-4.45h3.15V493.343z
		 M886.925,482.243c0-5.05-2.351-10.7-8.301-10.7c-6,0-8.5,5.351-8.5,10.7c0,5.201,2.7,10.251,8.5,10.251
		C884.075,492.494,886.925,487.494,886.925,482.243z"/>
	<path fill="#010058" d="M897.924,483.393c0.05,4.601,2.45,10.15,8.5,10.15c4.601,0,7.101-2.7,8.101-6.601h3.15
		c-1.351,5.851-4.75,9.251-11.251,9.251c-8.2,0-11.65-6.301-11.65-13.65c0-6.801,3.45-13.651,11.65-13.651
		c8.301,0,11.601,7.251,11.351,14.501H897.924z M914.625,480.743c-0.15-4.75-3.101-9.2-8.201-9.2c-5.15,0-8,4.5-8.5,9.2H914.625z"/>
</g>
<g>
	<path fill="#010058" d="M708.418,628.932h16.351c5.9,0,10.851,2.851,10.851,9.301c0,4.5-2.35,8.2-6.95,9.101v0.1
		c4.65,0.601,6,3.801,6.25,8.051c0.15,2.45,0.15,7.351,1.65,9.15h-3.75c-0.85-1.4-0.85-4.05-0.95-5.551c-0.3-5-0.7-10.55-7.15-10.3
		h-12.901v15.851h-3.4V628.932z M711.818,645.883h12.701c4.15,0,7.701-2.601,7.701-6.95c0-4.351-2.601-7.101-7.701-7.101h-12.701
		V645.883z"/>
	<path fill="#010058" d="M743.018,652.583c0.05,4.601,2.45,10.15,8.5,10.15c4.601,0,7.101-2.7,8.101-6.601h3.15
		c-1.35,5.851-4.75,9.251-11.251,9.251c-8.2,0-11.65-6.301-11.65-13.65c0-6.801,3.45-13.651,11.65-13.651
		c8.301,0,11.601,7.251,11.351,14.501H743.018z M759.719,649.933c-0.15-4.75-3.1-9.2-8.201-9.2c-5.15,0-8,4.5-8.5,9.2H759.719z"/>
	<path fill="#010058" d="M782.568,646.383c-0.15-3.9-3.15-5.65-6.75-5.65c-2.8,0-6.1,1.1-6.1,4.45c0,2.8,3.2,3.8,5.35,4.351
		l4.2,0.95c3.6,0.55,7.351,2.649,7.351,7.15c0,5.6-5.55,7.75-10.351,7.75c-6,0-10.101-2.8-10.601-9.101h3.15
		c0.25,4.25,3.4,6.45,7.601,6.45c2.95,0,7.05-1.3,7.05-4.9c0-3-2.8-4-5.65-4.7l-4.05-0.899c-4.1-1.101-7.2-2.501-7.2-6.9
		c0-5.251,5.15-7.251,9.701-7.251c5.15,0,9.25,2.7,9.451,8.301H782.568z"/>
	<path fill="#010058" d="M791.167,638.833h2.9v4.9h0.1c1.45-3.5,5.05-5.65,9.2-5.65c7.851,0,11.601,6.351,11.601,13.651
		c0,7.3-3.75,13.65-11.601,13.65c-3.85,0-7.6-1.95-8.95-5.65h-0.1v14.451h-3.15V638.833z M803.367,640.733
		c-6.95,0-9.05,5.15-9.05,11.001c0,5.35,2.35,11,9.05,11c6,0,8.451-5.65,8.451-11C811.818,646.383,809.368,640.733,803.367,640.733z
		"/>
	<path fill="#010058" d="M842.968,651.734c0,7.4-4.3,13.65-12.201,13.65s-12.201-6.25-12.201-13.65s4.3-13.651,12.201-13.651
		S842.968,644.333,842.968,651.734z M821.716,651.734c0,5.5,3,11,9.051,11s9.05-5.5,9.05-11c0-5.501-3-11.001-9.05-11.001
		S821.716,646.233,821.716,651.734z"/>
	<path fill="#010058" d="M847.616,638.833h3.15v4.45h0.1c1.15-3.1,4.601-5.2,8.25-5.2c7.25,0,9.451,3.801,9.451,9.951v16.601h-3.15
		v-16.101c0-4.45-1.45-7.801-6.551-7.801c-5,0-8,3.8-8.1,8.851v15.051h-3.15V638.833z"/>
	<path fill="#010058" d="M889.966,646.383c-0.15-3.9-3.15-5.65-6.75-5.65c-2.801,0-6.1,1.1-6.1,4.45c0,2.8,3.199,3.8,5.35,4.351
		l4.201,0.95c3.6,0.55,7.35,2.649,7.35,7.15c0,5.6-5.551,7.75-10.352,7.75c-6,0-10.1-2.8-10.6-9.101h3.15
		c0.25,4.25,3.4,6.45,7.6,6.45c2.951,0,7.051-1.3,7.051-4.9c0-3-2.801-4-5.65-4.7l-4.051-0.899c-4.1-1.101-7.199-2.501-7.199-6.9
		c0-5.251,5.15-7.251,9.699-7.251c5.15,0,9.252,2.7,9.451,8.301H889.966z"/>
	<path fill="#010058" d="M900.416,652.583c0.051,4.601,2.451,10.15,8.5,10.15c4.602,0,7.102-2.7,8.102-6.601h3.15
		c-1.352,5.851-4.75,9.251-11.252,9.251c-8.199,0-11.65-6.301-11.65-13.65c0-6.801,3.451-13.651,11.65-13.651
		c8.301,0,11.602,7.251,11.352,14.501H900.416z M917.117,649.933c-0.15-4.75-3.1-9.2-8.201-9.2c-5.15,0-8,4.5-8.5,9.2H917.117z"/>
</g>
<g>
	<path fill="#010058" d="M724.218,830.369c-0.15,7.351,5.15,9.601,11.651,9.601c3.75,0,9.451-2.05,9.451-7.25
		c0-4.051-4.05-5.65-7.351-6.45l-7.951-1.95c-4.2-1.051-8.05-3.051-8.05-8.601c0-3.5,2.25-10.051,12.301-10.051
		c7.05,0,13.251,3.8,13.201,11.101h-3.4c-0.2-5.45-4.701-8.2-9.751-8.2c-4.65,0-8.95,1.8-8.95,7.101c0,3.35,2.5,4.75,5.4,5.45
		l8.701,2.149c5.05,1.351,9.25,3.551,9.25,9.401c0,2.45-1,10.2-13.651,10.2c-8.45,0-14.651-3.8-14.25-12.501H724.218z"/>
	<path fill="#010058" d="M774.419,842.12h-2.9v-4.65h-0.1c-1.65,3.45-5.05,5.4-8.9,5.4c-6.5,0-9.051-3.8-9.051-9.801v-16.751h3.15
		v16.801c0.15,4.65,1.9,7.101,6.9,7.101c5.4,0,7.75-5.1,7.75-10.351v-13.551h3.15V842.12z"/>
	<path fill="#010058" d="M798.568,824.418c-0.85-3.851-3.2-6.2-7.3-6.2c-6.05,0-9.051,5.5-9.051,11.001c0,5.5,3,11,9.051,11
		c3.9,0,7.101-3.05,7.5-7.351h3.15c-0.85,6.201-4.9,10.001-10.65,10.001c-7.9,0-12.201-6.25-12.201-13.65s4.3-13.651,12.201-13.651
		c5.5,0,9.75,2.95,10.451,8.851H798.568z"/>
	<path fill="#010058" d="M824.518,824.418c-0.85-3.851-3.2-6.2-7.3-6.2c-6.05,0-9.051,5.5-9.051,11.001c0,5.5,3,11,9.051,11
		c3.9,0,7.101-3.05,7.5-7.351h3.15c-0.85,6.201-4.9,10.001-10.65,10.001c-7.9,0-12.201-6.25-12.201-13.65s4.3-13.651,12.201-13.651
		c5.5,0,9.75,2.95,10.451,8.851H824.518z"/>
	<path fill="#010058" d="M834.117,830.069c0.05,4.601,2.45,10.15,8.5,10.15c4.601,0,7.101-2.7,8.101-6.601h3.15
		c-1.35,5.851-4.75,9.251-11.251,9.251c-8.2,0-11.65-6.301-11.65-13.65c0-6.801,3.45-13.651,11.65-13.651
		c8.301,0,11.601,7.251,11.351,14.501H834.117z M850.818,827.418c-0.15-4.75-3.1-9.2-8.201-9.2c-5.15,0-8,4.5-8.5,9.2H850.818z"/>
	<path fill="#010058" d="M873.667,823.869c-0.15-3.9-3.15-5.65-6.75-5.65c-2.801,0-6.102,1.1-6.102,4.45
		c0,2.8,3.201,3.8,5.352,4.351l4.199,0.95c3.602,0.55,7.352,2.649,7.352,7.15c0,5.6-5.551,7.75-10.352,7.75
		c-6,0-10.1-2.8-10.6-9.101h3.15c0.25,4.25,3.399,6.45,7.601,6.45c2.949,0,7.051-1.3,7.051-4.9c0-3-2.801-4-5.65-4.7l-4.051-0.899
		c-4.1-1.101-7.2-2.501-7.2-6.9c0-5.251,5.149-7.251,9.7-7.251c5.15,0,9.25,2.7,9.451,8.301H873.667z"/>
	<path fill="#010058" d="M897.716,823.869c-0.15-3.9-3.15-5.65-6.75-5.65c-2.801,0-6.1,1.1-6.1,4.45c0,2.8,3.199,3.8,5.35,4.351
		l4.201,0.95c3.6,0.55,7.35,2.649,7.35,7.15c0,5.6-5.551,7.75-10.352,7.75c-6,0-10.1-2.8-10.6-9.101h3.15
		c0.25,4.25,3.4,6.45,7.6,6.45c2.951,0,7.051-1.3,7.051-4.9c0-3-2.801-4-5.65-4.7l-4.051-0.899c-4.1-1.101-7.199-2.501-7.199-6.9
		c0-5.251,5.15-7.251,9.699-7.251c5.15,0,9.252,2.7,9.451,8.301H897.716z"/>
</g>
<g>
	<path fill="#010058" d="M1140.17,781.491h3.801l14,35.702h-3.649l-4.351-11.101h-16.251l-4.301,11.101h-3.649L1140.17,781.491z
		 M1134.77,803.192h14.051l-6.9-18.301L1134.77,803.192z"/>
	<path fill="#010058" d="M1161.219,781.491h15.851c6.4,0,10.601,3.75,10.601,10.2c0,6.451-4.2,10.201-10.601,10.201h-12.451v15.301
		h-3.399V781.491z M1164.619,798.992h11.701c4.7,0,7.95-2.4,7.95-7.301s-3.25-7.3-7.95-7.3h-11.701V798.992z"/>
	<path fill="#010058" d="M1228.719,817.193h-2.899v-4.9h-0.101c-1.35,3.351-5.45,5.65-9.2,5.65c-7.851,0-11.601-6.351-11.601-13.65
		c0-7.301,3.75-13.651,11.601-13.651c3.85,0,7.601,1.95,8.95,5.65h0.101v-14.801h3.149V817.193z M1216.519,815.292
		c6.7,0,9.051-5.65,9.051-11c0-5.351-2.351-11.001-9.051-11.001c-6.001,0-8.45,5.65-8.45,11.001
		C1208.069,809.642,1210.518,815.292,1216.519,815.292z"/>
	<path fill="#010058" d="M1236.568,805.142c0.05,4.601,2.45,10.15,8.5,10.15c4.601,0,7.101-2.7,8.101-6.601h3.15
		c-1.351,5.851-4.75,9.251-11.251,9.251c-8.2,0-11.65-6.301-11.65-13.65c0-6.801,3.45-13.651,11.65-13.651
		c8.301,0,11.601,7.251,11.351,14.501H1236.568z M1253.269,802.492c-0.15-4.75-3.101-9.2-8.201-9.2c-5.15,0-8,4.5-8.5,9.2H1253.269z
		"/>
	<path fill="#010058" d="M1278.869,799.492c-0.85-3.851-3.2-6.2-7.301-6.2c-6.05,0-9.05,5.5-9.05,11.001c0,5.5,3,11,9.05,11
		c3.9,0,7.101-3.05,7.501-7.351h3.15c-0.851,6.201-4.9,10.001-10.651,10.001c-7.9,0-12.2-6.25-12.2-13.65s4.3-13.651,12.2-13.651
		c5.501,0,9.751,2.95,10.451,8.851H1278.869z"/>
	<path fill="#010058" d="M1286.618,791.391h2.9v6.051h0.1c1.601-4.15,5.101-6.601,9.751-6.4v3.15c-5.7-0.301-9.601,3.899-9.601,9.25
		v13.751h-3.15V791.391z"/>
	<path fill="#010058" d="M1299.466,791.391h3.351l8.501,22.002l7.95-22.002h3.15l-11.201,29.752c-1.8,4.351-2.85,5.601-6.8,5.601
		c-1.251-0.05-1.9-0.05-2.4-0.25v-2.65c0.75,0.15,1.45,0.25,2.149,0.25c2.801,0,3.451-1.65,4.501-4.05l1.1-2.95L1299.466,791.391z"
		/>
	<path fill="#010058" d="M1325.516,791.391h2.9v4.9h0.1c1.45-3.5,5.051-5.65,9.201-5.65c7.851,0,11.601,6.351,11.601,13.651
		c0,7.3-3.75,13.65-11.601,13.65c-3.851,0-7.601-1.95-8.951-5.65h-0.1v14.451h-3.15V791.391z M1337.717,793.292
		c-6.95,0-9.051,5.15-9.051,11.001c0,5.35,2.351,11,9.051,11c6,0,8.45-5.65,8.45-11
		C1346.167,798.942,1343.717,793.292,1337.717,793.292z"/>
	<path fill="#010058" d="M1359.215,791.391h5.251v2.65h-5.251v17.401c0,2.05,0.301,3.25,2.551,3.399c0.9,0,1.8-0.05,2.7-0.149v2.7
		c-0.95,0-1.851,0.1-2.801,0.1c-4.2,0-5.649-1.399-5.6-5.8v-17.651h-4.501v-2.65h4.501v-7.75h3.149V791.391z"/>
	<path fill="#010058" d="M1384.466,798.942c-0.15-3.9-3.15-5.65-6.75-5.65c-2.801,0-6.101,1.1-6.101,4.45c0,2.8,3.2,3.8,5.35,4.351
		l4.201,0.95c3.6,0.55,7.35,2.649,7.35,7.15c0,5.6-5.55,7.75-10.351,7.75c-6,0-10.101-2.8-10.601-9.101h3.15
		c0.25,4.25,3.4,6.45,7.601,6.45c2.95,0,7.051-1.3,7.051-4.9c0-3-2.801-4-5.65-4.7l-4.051-0.899c-4.1-1.101-7.2-2.501-7.2-6.9
		c0-5.251,5.15-7.251,9.7-7.251c5.15,0,9.251,2.7,9.451,8.301H1384.466z"/>
	<path fill="#010058" d="M1425.167,799.492c-0.85-3.851-3.2-6.2-7.301-6.2c-6.05,0-9.05,5.5-9.05,11.001c0,5.5,3,11,9.05,11
		c3.9,0,7.101-3.05,7.501-7.351h3.15c-0.851,6.201-4.9,10.001-10.651,10.001c-7.9,0-12.2-6.25-12.2-13.65s4.3-13.651,12.2-13.651
		c5.501,0,9.751,2.95,10.451,8.851H1425.167z"/>
	<path fill="#010058" d="M1432.866,781.491h3.15v14.351h0.1c1.15-3.1,4.601-5.2,8.251-5.2c7.25,0,9.45,3.801,9.45,9.951v16.601
		h-3.15v-16.101c0-4.45-1.45-7.801-6.55-7.801c-5.001,0-8.001,3.8-8.101,8.851v15.051h-3.15V781.491z"/>
	<path fill="#010058" d="M1459.465,799.292c0.3-6.05,4.55-8.65,10.45-8.65c4.551,0,9.501,1.4,9.501,8.301v13.701
		c0,1.199,0.6,1.899,1.851,1.899c0.35,0,0.75-0.1,1-0.2v2.65c-0.7,0.15-1.2,0.2-2.051,0.2c-3.2,0-3.7-1.8-3.7-4.5h-0.1
		c-2.2,3.35-4.45,5.25-9.4,5.25c-4.751,0-8.65-2.35-8.65-7.551c0-7.25,7.05-7.5,13.851-8.3c2.6-0.301,4.05-0.65,4.05-3.501
		c0-4.25-3.05-5.3-6.75-5.3c-3.9,0-6.801,1.8-6.9,6H1459.465z M1476.266,803.092h-0.1c-0.4,0.75-1.801,1-2.65,1.149
		c-5.351,0.95-12.001,0.9-12.001,5.951c0,3.149,2.801,5.1,5.751,5.1c4.8,0,9.05-3.05,9-8.101V803.092z"/>
	<path fill="#010058" d="M1485.765,781.491h3.15v35.702h-3.15V781.491z"/>
	<path fill="#010058" d="M1495.015,781.491h3.15v35.702h-3.15V781.491z"/>
	<path fill="#010058" d="M1506.066,805.142c0.05,4.601,2.45,10.15,8.5,10.15c4.601,0,7.101-2.7,8.101-6.601h3.15
		c-1.351,5.851-4.75,9.251-11.251,9.251c-8.2,0-11.65-6.301-11.65-13.65c0-6.801,3.45-13.651,11.65-13.651
		c8.301,0,11.601,7.251,11.351,14.501H1506.066z M1522.767,802.492c-0.15-4.75-3.101-9.2-8.201-9.2c-5.15,0-8,4.5-8.5,9.2H1522.767z
		"/>
	<path fill="#010058" d="M1530.116,791.391h3.15v4.45h0.1c1.15-3.1,4.601-5.2,8.251-5.2c7.25,0,9.45,3.801,9.45,9.951v16.601h-3.15
		v-16.101c0-4.45-1.45-7.801-6.55-7.801c-5.001,0-8.001,3.8-8.101,8.851v15.051h-3.15V791.391z"/>
	<path fill="#010058" d="M1578.817,815.092c-0.05,7.701-3,12.401-11.451,12.401c-5.15,0-10.25-2.301-10.7-7.801h3.15
		c0.699,3.801,4.05,5.15,7.55,5.15c5.801,0,8.301-3.45,8.301-9.751v-3.5h-0.1c-1.45,3.15-4.501,5.301-8.201,5.301
		c-8.25,0-11.65-5.9-11.65-13.251c0-7.101,4.2-13.001,11.65-13.001c3.75,0,6.95,2.351,8.201,5.2h0.1v-4.45h3.15V815.092z
		 M1575.667,803.992c0-5.05-2.351-10.7-8.301-10.7c-6,0-8.5,5.351-8.5,10.7c0,5.201,2.7,10.251,8.5,10.251
		C1572.816,814.243,1575.667,809.243,1575.667,803.992z"/>
	<path fill="#010058" d="M1586.666,805.142c0.05,4.601,2.45,10.15,8.5,10.15c4.601,0,7.101-2.7,8.101-6.601h3.15
		c-1.351,5.851-4.75,9.251-11.251,9.251c-8.2,0-11.65-6.301-11.65-13.65c0-6.801,3.45-13.651,11.65-13.651
		c8.301,0,11.601,7.251,11.351,14.501H1586.666z M1603.367,802.492c-0.15-4.75-3.101-9.2-8.201-9.2c-5.15,0-8,4.5-8.5,9.2H1603.367z
		"/>
	<path fill="#010058" d="M1624.666,791.391h2.9v6.051h0.1c1.601-4.15,5.101-6.601,9.751-6.4v3.15c-5.7-0.301-9.601,3.899-9.601,9.25
		v13.751h-3.15V791.391z"/>
	<path fill="#010058" d="M1642.265,805.142c0.05,4.601,2.45,10.15,8.5,10.15c4.601,0,7.101-2.7,8.101-6.601h3.15
		c-1.351,5.851-4.75,9.251-11.251,9.251c-8.2,0-11.65-6.301-11.65-13.65c0-6.801,3.45-13.651,11.65-13.651
		c8.301,0,11.601,7.251,11.351,14.501H1642.265z M1658.966,802.492c-0.15-4.75-3.101-9.2-8.201-9.2c-5.15,0-8,4.5-8.5,9.2H1658.966z
		"/>
	<path fill="#010058" d="M1681.816,798.942c-0.15-3.9-3.15-5.65-6.75-5.65c-2.801,0-6.101,1.1-6.101,4.45c0,2.8,3.2,3.8,5.35,4.351
		l4.201,0.95c3.6,0.55,7.35,2.649,7.35,7.15c0,5.6-5.55,7.75-10.351,7.75c-6,0-10.101-2.8-10.601-9.101h3.15
		c0.25,4.25,3.4,6.45,7.601,6.45c2.95,0,7.051-1.3,7.051-4.9c0-3-2.801-4-5.65-4.7l-4.051-0.899c-4.1-1.101-7.2-2.501-7.2-6.9
		c0-5.251,5.15-7.251,9.7-7.251c5.15,0,9.251,2.7,9.451,8.301H1681.816z"/>
	<path fill="#010058" d="M1690.415,791.391h2.9v4.9h0.1c1.45-3.5,5.051-5.65,9.201-5.65c7.851,0,11.601,6.351,11.601,13.651
		c0,7.3-3.75,13.65-11.601,13.65c-3.851,0-7.601-1.95-8.951-5.65h-0.1v14.451h-3.15V791.391z M1702.616,793.292
		c-6.95,0-9.051,5.15-9.051,11.001c0,5.35,2.351,11,9.051,11c6,0,8.45-5.65,8.45-11
		C1711.066,798.942,1708.616,793.292,1702.616,793.292z"/>
	<path fill="#010058" d="M1742.215,804.292c0,7.4-4.3,13.65-12.201,13.65c-7.9,0-12.2-6.25-12.2-13.65s4.3-13.651,12.2-13.651
		C1737.916,790.641,1742.215,796.892,1742.215,804.292z M1720.964,804.292c0,5.5,3,11,9.05,11c6.051,0,9.051-5.5,9.051-11
		c0-5.501-3-11.001-9.051-11.001C1723.964,793.292,1720.964,798.792,1720.964,804.292z"/>
	<path fill="#010058" d="M1746.864,791.391h3.15v4.45h0.1c1.15-3.1,4.601-5.2,8.251-5.2c7.25,0,9.45,3.801,9.45,9.951v16.601h-3.15
		v-16.101c0-4.45-1.45-7.801-6.55-7.801c-5.001,0-8.001,3.8-8.101,8.851v15.051h-3.15V791.391z"/>
	<path fill="#010058" d="M1789.214,798.942c-0.15-3.9-3.15-5.65-6.75-5.65c-2.801,0-6.101,1.1-6.101,4.45c0,2.8,3.2,3.8,5.35,4.351
		l4.201,0.95c3.6,0.55,7.35,2.649,7.35,7.15c0,5.6-5.55,7.75-10.351,7.75c-6,0-10.101-2.8-10.601-9.101h3.15
		c0.25,4.25,3.4,6.45,7.601,6.45c2.95,0,7.051-1.3,7.051-4.9c0-3-2.801-4-5.65-4.7l-4.051-0.899c-4.1-1.101-7.2-2.501-7.2-6.9
		c0-5.251,5.15-7.251,9.7-7.251c5.15,0,9.251,2.7,9.451,8.301H1789.214z"/>
	<path fill="#010058" d="M1799.664,805.142c0.05,4.601,2.45,10.15,8.5,10.15c4.601,0,7.101-2.7,8.101-6.601h3.15
		c-1.351,5.851-4.75,9.251-11.251,9.251c-8.2,0-11.65-6.301-11.65-13.65c0-6.801,3.45-13.651,11.65-13.651
		c8.301,0,11.601,7.251,11.351,14.501H1799.664z M1816.365,802.492c-0.15-4.75-3.101-9.2-8.201-9.2c-5.15,0-8,4.5-8.5,9.2H1816.365z
		"/>
	<path fill="#010058" d="M1825.614,817.193v-5.301h4.2v5.301H1825.614z"/>
	<path fill="#010058" d="M1129.97,841.491h3.399v35.702h-3.399V841.491z"/>
	<path fill="#010058" d="M1150.17,854.042h-5.101v23.151h-3.15v-23.151h-4.4v-2.65h4.4v-2.35c-0.05-4.45,1.2-7.551,6.25-7.551
		c0.9,0,1.65,0.05,2.65,0.2v2.7c-0.85-0.15-1.55-0.25-2.3-0.25c-3.5,0-3.4,2.2-3.45,5v2.25h5.101V854.042z"/>
	<path fill="#010058" d="M1167.069,851.391h2.9v4.351h0.15c1.649-3.101,4.35-5.101,8.45-5.101c3.4,0,6.45,1.65,7.4,5.051
		c1.55-3.4,4.8-5.051,8.2-5.051c5.65,0,8.551,2.95,8.551,9.051v17.501h-3.15v-17.351c0-4.251-1.6-6.551-6.101-6.551
		c-5.45,0-7,4.5-7,9.301v14.601h-3.15v-17.501c0.05-3.5-1.399-6.4-5.4-6.4c-5.45,0-7.65,4.101-7.7,9.501v14.4h-3.15V851.391z"/>
	<path fill="#010058" d="M1208.418,859.292c0.3-6.05,4.55-8.65,10.45-8.65c4.551,0,9.501,1.4,9.501,8.301v13.701
		c0,1.199,0.6,1.899,1.851,1.899c0.35,0,0.75-0.1,1-0.2v2.65c-0.7,0.15-1.2,0.2-2.051,0.2c-3.2,0-3.7-1.8-3.7-4.5h-0.1
		c-2.2,3.35-4.45,5.25-9.4,5.25c-4.751,0-8.65-2.35-8.65-7.551c0-7.25,7.05-7.5,13.851-8.3c2.6-0.301,4.05-0.65,4.05-3.501
		c0-4.25-3.05-5.3-6.75-5.3c-3.9,0-6.801,1.8-6.9,6H1208.418z M1225.219,863.092h-0.1c-0.4,0.75-1.801,1-2.65,1.149
		c-5.351,0.95-12.001,0.9-12.001,5.951c0,3.149,2.801,5.1,5.751,5.1c4.8,0,9.05-3.05,9-8.101V863.092z"/>
	<path fill="#010058" d="M1239.668,851.391h5.251v2.65h-5.251v17.401c0,2.05,0.301,3.25,2.551,3.399c0.9,0,1.8-0.05,2.7-0.149v2.7
		c-0.95,0-1.851,0.1-2.801,0.1c-4.2,0-5.649-1.399-5.6-5.8v-17.651h-4.501v-2.65h4.501v-7.75h3.149V851.391z"/>
	<path fill="#010058" d="M1267.669,859.492c-0.85-3.851-3.2-6.2-7.301-6.2c-6.05,0-9.05,5.5-9.05,11.001c0,5.5,3,11,9.05,11
		c3.9,0,7.101-3.05,7.501-7.351h3.15c-0.851,6.201-4.9,10.001-10.651,10.001c-7.9,0-12.2-6.25-12.2-13.65s4.3-13.651,12.2-13.651
		c5.501,0,9.751,2.95,10.451,8.851H1267.669z"/>
	<path fill="#010058" d="M1275.369,841.491h3.15v14.351h0.1c1.15-3.1,4.601-5.2,8.251-5.2c7.25,0,9.45,3.801,9.45,9.951v16.601
		h-3.15v-16.101c0-4.45-1.45-7.801-6.55-7.801c-5.001,0-8.001,3.8-8.101,8.851v15.051h-3.15V841.491z"/>
	<path fill="#010058" d="M1308.319,871.892v5.351c-0.05,2.9-1.4,5.95-4.4,6.801v-2.15c1.65-0.6,2.4-3.05,2.3-4.7h-2.1v-5.301
		H1308.319z"/>
	<path fill="#010058" d="M1345.52,858.942c-0.15-3.9-3.15-5.65-6.75-5.65c-2.801,0-6.101,1.1-6.101,4.45c0,2.8,3.2,3.8,5.35,4.351
		l4.201,0.95c3.6,0.55,7.35,2.649,7.35,7.15c0,5.6-5.55,7.75-10.351,7.75c-6,0-10.101-2.8-10.601-9.101h3.15
		c0.25,4.25,3.4,6.45,7.601,6.45c2.95,0,7.051-1.3,7.051-4.9c0-3-2.801-4-5.65-4.7l-4.051-0.899c-4.1-1.101-7.2-2.501-7.2-6.9
		c0-5.251,5.15-7.251,9.7-7.251c5.15,0,9.251,2.7,9.451,8.301H1345.52z"/>
	<path fill="#010058" d="M1355.969,865.142c0.05,4.601,2.45,10.15,8.5,10.15c4.601,0,7.101-2.7,8.101-6.601h3.15
		c-1.351,5.851-4.75,9.251-11.251,9.251c-8.2,0-11.65-6.301-11.65-13.65c0-6.801,3.45-13.651,11.65-13.651
		c8.301,0,11.601,7.251,11.351,14.501H1355.969z M1372.67,862.492c-0.15-4.75-3.101-9.2-8.201-9.2c-5.15,0-8,4.5-8.5,9.2H1372.67z"
		/>
	<path fill="#010058" d="M1380.019,851.391h3.15v4.45h0.1c1.15-3.1,4.601-5.2,8.251-5.2c7.25,0,9.45,3.801,9.45,9.951v16.601h-3.15
		v-16.101c0-4.45-1.45-7.801-6.55-7.801c-5.001,0-8.001,3.8-8.101,8.851v15.051h-3.15V851.391z"/>
	<path fill="#010058" d="M1429.62,877.193h-2.899v-4.9h-0.101c-1.35,3.351-5.45,5.65-9.2,5.65c-7.851,0-11.601-6.351-11.601-13.65
		c0-7.301,3.75-13.651,11.601-13.651c3.85,0,7.601,1.95,8.95,5.65h0.101v-14.801h3.149V877.193z M1417.419,875.292
		c6.7,0,9.051-5.65,9.051-11c0-5.351-2.351-11.001-9.051-11.001c-6.001,0-8.45,5.65-8.45,11.001
		C1408.969,869.642,1411.418,875.292,1417.419,875.292z"/>
	<path fill="#010058" d="M1449.218,859.292c0.3-6.05,4.55-8.65,10.45-8.65c4.551,0,9.501,1.4,9.501,8.301v13.701
		c0,1.199,0.6,1.899,1.851,1.899c0.35,0,0.75-0.1,1-0.2v2.65c-0.7,0.15-1.2,0.2-2.051,0.2c-3.2,0-3.7-1.8-3.7-4.5h-0.1
		c-2.2,3.35-4.45,5.25-9.4,5.25c-4.751,0-8.651-2.35-8.651-7.551c0-7.25,7.051-7.5,13.852-8.3c2.6-0.301,4.05-0.65,4.05-3.501
		c0-4.25-3.05-5.3-6.75-5.3c-3.9,0-6.801,1.8-6.9,6H1449.218z M1466.019,863.092h-0.1c-0.4,0.75-1.8,1-2.65,1.149
		c-5.351,0.95-12.001,0.9-12.001,5.951c0,3.149,2.801,5.1,5.751,5.1c4.8,0,9.05-3.05,9-8.101V863.092z"/>
	<path fill="#010058" d="M1496.37,877.193h-2.9v-4.65h-0.1c-1.65,3.45-5.051,5.4-8.9,5.4c-6.501,0-9.051-3.8-9.051-9.801v-16.751
		h3.15v16.801c0.149,4.65,1.9,7.101,6.9,7.101c5.4,0,7.75-5.1,7.75-10.351v-13.551h3.15V877.193z"/>
	<path fill="#010058" d="M1507.319,851.391h5.25v2.65h-5.25v17.401c0,2.05,0.3,3.25,2.55,3.399c0.9,0,1.8-0.05,2.7-0.149v2.7
		c-0.95,0-1.851,0.1-2.801,0.1c-4.2,0-5.65-1.399-5.6-5.8v-17.651h-4.501v-2.65h4.501v-7.75h3.15V851.391z"/>
	<path fill="#010058" d="M1517.068,841.491h3.15v14.351h0.1c1.15-3.1,4.601-5.2,8.251-5.2c7.25,0,9.45,3.801,9.45,9.951v16.601
		h-3.15v-16.101c0-4.45-1.45-7.801-6.55-7.801c-5.001,0-8.001,3.8-8.101,8.851v15.051h-3.15V841.491z"/>
	<path fill="#010058" d="M1545.818,865.142c0.05,4.601,2.45,10.15,8.5,10.15c4.601,0,7.101-2.7,8.101-6.601h3.15
		c-1.351,5.851-4.75,9.251-11.251,9.251c-8.2,0-11.65-6.301-11.65-13.65c0-6.801,3.45-13.651,11.65-13.651
		c8.301,0,11.601,7.251,11.351,14.501H1545.818z M1562.519,862.492c-0.15-4.75-3.101-9.2-8.201-9.2c-5.15,0-8,4.5-8.5,9.2H1562.519z
		"/>
	<path fill="#010058" d="M1569.868,851.391h3.15v4.45h0.1c1.15-3.1,4.601-5.2,8.251-5.2c7.25,0,9.45,3.801,9.45,9.951v16.601h-3.15
		v-16.101c0-4.45-1.45-7.801-6.55-7.801c-5.001,0-8.001,3.8-8.101,8.851v15.051h-3.15V851.391z"/>
	<path fill="#010058" d="M1601.768,851.391h5.25v2.65h-5.25v17.401c0,2.05,0.3,3.25,2.55,3.399c0.9,0,1.8-0.05,2.7-0.149v2.7
		c-0.95,0-1.851,0.1-2.801,0.1c-4.2,0-5.65-1.399-5.6-5.8v-17.651h-4.501v-2.65h4.501v-7.75h3.15V851.391z"/>
	<path fill="#010058" d="M1611.617,841.491h3.15v5.05h-3.15V841.491z M1611.617,851.391h3.15v25.802h-3.15V851.391z"/>
	<path fill="#010058" d="M1639.018,859.492c-0.85-3.851-3.2-6.2-7.301-6.2c-6.05,0-9.05,5.5-9.05,11.001c0,5.5,3,11,9.05,11
		c3.9,0,7.101-3.05,7.501-7.351h3.15c-0.851,6.201-4.9,10.001-10.651,10.001c-7.9,0-12.2-6.25-12.2-13.65s4.3-13.651,12.2-13.651
		c5.501,0,9.751,2.95,10.451,8.851H1639.018z"/>
	<path fill="#010058" d="M1646.467,859.292c0.3-6.05,4.55-8.65,10.45-8.65c4.551,0,9.501,1.4,9.501,8.301v13.701
		c0,1.199,0.6,1.899,1.851,1.899c0.35,0,0.75-0.1,1-0.2v2.65c-0.7,0.15-1.2,0.2-2.051,0.2c-3.2,0-3.7-1.8-3.7-4.5h-0.1
		c-2.2,3.35-4.45,5.25-9.4,5.25c-4.751,0-8.65-2.35-8.65-7.551c0-7.25,7.05-7.5,13.851-8.3c2.6-0.301,4.05-0.65,4.05-3.501
		c0-4.25-3.05-5.3-6.75-5.3c-3.9,0-6.801,1.8-6.9,6H1646.467z M1663.268,863.092h-0.1c-0.4,0.75-1.801,1-2.65,1.149
		c-5.351,0.95-12.001,0.9-12.001,5.951c0,3.149,2.801,5.1,5.751,5.1c4.8,0,9.05-3.05,9-8.101V863.092z"/>
	<path fill="#010058" d="M1677.717,851.391h5.251v2.65h-5.251v17.401c0,2.05,0.301,3.25,2.551,3.399c0.9,0,1.8-0.05,2.7-0.149v2.7
		c-0.95,0-1.851,0.1-2.801,0.1c-4.2,0-5.649-1.399-5.6-5.8v-17.651h-4.501v-2.65h4.501v-7.75h3.149V851.391z"/>
	<path fill="#010058" d="M1687.567,841.491h3.15v5.05h-3.15V841.491z M1687.567,851.391h3.15v25.802h-3.15V851.391z"/>
	<path fill="#010058" d="M1719.869,864.292c0,7.4-4.3,13.65-12.201,13.65c-7.9,0-12.2-6.25-12.2-13.65s4.3-13.651,12.2-13.651
		C1715.569,850.641,1719.869,856.892,1719.869,864.292z M1698.618,864.292c0,5.5,3,11,9.05,11c6.051,0,9.051-5.5,9.051-11
		c0-5.501-3-11.001-9.051-11.001C1701.618,853.292,1698.618,858.792,1698.618,864.292z"/>
	<path fill="#010058" d="M1724.517,851.391h3.15v4.45h0.1c1.15-3.1,4.601-5.2,8.251-5.2c7.25,0,9.45,3.801,9.45,9.951v16.601h-3.15
		v-16.101c0-4.45-1.45-7.801-6.55-7.801c-5.001,0-8.001,3.8-8.101,8.851v15.051h-3.15V851.391z"/>
	<path fill="#010058" d="M1144.571,918.942c-0.15-3.9-3.15-5.65-6.75-5.65c-2.801,0-6.101,1.1-6.101,4.45c0,2.8,3.2,3.8,5.35,4.351
		l4.201,0.95c3.6,0.55,7.35,2.649,7.35,7.15c0,5.6-5.55,7.75-10.351,7.75c-6,0-10.101-2.8-10.601-9.101h3.15
		c0.25,4.25,3.4,6.45,7.601,6.45c2.95,0,7.051-1.3,7.051-4.9c0-3-2.801-4-5.65-4.7l-4.051-0.899c-4.1-1.101-7.2-2.501-7.2-6.9
		c0-5.251,5.15-7.251,9.7-7.251c5.15,0,9.251,2.7,9.451,8.301H1144.571z"/>
	<path fill="#010058" d="M1174.071,937.193h-2.9v-4.65h-0.1c-1.65,3.45-5.051,5.4-8.9,5.4c-6.501,0-9.051-3.8-9.051-9.801v-16.751
		h3.15v16.801c0.149,4.65,1.9,7.101,6.9,7.101c5.4,0,7.75-5.1,7.75-10.351v-13.551h3.15V937.193z"/>
	<path fill="#010058" d="M1198.22,919.492c-0.85-3.851-3.2-6.2-7.301-6.2c-6.05,0-9.05,5.5-9.05,11.001c0,5.5,3,11,9.05,11
		c3.9,0,7.101-3.05,7.501-7.351h3.15c-0.851,6.201-4.9,10.001-10.651,10.001c-7.9,0-12.2-6.25-12.2-13.65s4.3-13.651,12.2-13.651
		c5.501,0,9.751,2.95,10.451,8.851H1198.22z"/>
	<path fill="#010058" d="M1224.17,919.492c-0.85-3.851-3.2-6.2-7.301-6.2c-6.05,0-9.05,5.5-9.05,11.001c0,5.5,3,11,9.05,11
		c3.9,0,7.101-3.05,7.501-7.351h3.15c-0.851,6.201-4.9,10.001-10.651,10.001c-7.9,0-12.2-6.25-12.2-13.65s4.3-13.651,12.2-13.651
		c5.501,0,9.751,2.95,10.451,8.851H1224.17z"/>
	<path fill="#010058" d="M1233.77,925.142c0.05,4.601,2.45,10.15,8.5,10.15c4.601,0,7.101-2.7,8.101-6.601h3.15
		c-1.351,5.851-4.75,9.251-11.251,9.251c-8.2,0-11.65-6.301-11.65-13.65c0-6.801,3.45-13.651,11.65-13.651
		c8.301,0,11.601,7.251,11.351,14.501H1233.77z M1250.471,922.492c-0.15-4.75-3.101-9.2-8.201-9.2c-5.15,0-8,4.5-8.5,9.2H1250.471z"
		/>
	<path fill="#010058" d="M1273.321,918.942c-0.15-3.9-3.15-5.65-6.75-5.65c-2.801,0-6.101,1.1-6.101,4.45c0,2.8,3.2,3.8,5.35,4.351
		l4.201,0.95c3.6,0.55,7.35,2.649,7.35,7.15c0,5.6-5.55,7.75-10.351,7.75c-6,0-10.101-2.8-10.601-9.101h3.15
		c0.25,4.25,3.4,6.45,7.601,6.45c2.95,0,7.051-1.3,7.051-4.9c0-3-2.801-4-5.65-4.7l-4.051-0.899c-4.1-1.101-7.2-2.501-7.2-6.9
		c0-5.251,5.15-7.251,9.7-7.251c5.15,0,9.251,2.7,9.451,8.301H1273.321z"/>
	<path fill="#010058" d="M1297.371,918.942c-0.15-3.9-3.15-5.65-6.75-5.65c-2.801,0-6.101,1.1-6.101,4.45c0,2.8,3.2,3.8,5.35,4.351
		l4.201,0.95c3.6,0.55,7.35,2.649,7.35,7.15c0,5.6-5.55,7.75-10.351,7.75c-6,0-10.101-2.8-10.601-9.101h3.15
		c0.25,4.25,3.4,6.45,7.601,6.45c2.95,0,7.051-1.3,7.051-4.9c0-3-2.801-4-5.65-4.7l-4.051-0.899c-4.1-1.101-7.2-2.501-7.2-6.9
		c0-5.251,5.15-7.251,9.7-7.251c5.15,0,9.251,2.7,9.451,8.301H1297.371z"/>
	<path fill="#010058" d="M1319.87,911.391h2.9v4.351h0.15c1.649-3.101,4.35-5.101,8.45-5.101c3.4,0,6.45,1.65,7.4,5.051
		c1.55-3.4,4.8-5.051,8.2-5.051c5.65,0,8.551,2.95,8.551,9.051v17.501h-3.15v-17.351c0-4.251-1.6-6.551-6.101-6.551
		c-5.45,0-7,4.5-7,9.301v14.601h-3.15v-17.501c0.05-3.5-1.399-6.4-5.4-6.4c-5.45,0-7.65,4.101-7.7,9.501v14.4h-3.15V911.391z"/>
	<path fill="#010058" d="M1363.37,925.142c0.05,4.601,2.45,10.15,8.5,10.15c4.601,0,7.101-2.7,8.101-6.601h3.15
		c-1.351,5.851-4.75,9.251-11.251,9.251c-8.2,0-11.65-6.301-11.65-13.65c0-6.801,3.45-13.651,11.65-13.651
		c8.301,0,11.601,7.251,11.351,14.501H1363.37z M1380.071,922.492c-0.15-4.75-3.101-9.2-8.201-9.2c-5.15,0-8,4.5-8.5,9.2H1380.071z"
		/>
	<path fill="#010058" d="M1402.92,918.942c-0.15-3.9-3.15-5.65-6.75-5.65c-2.801,0-6.101,1.1-6.101,4.45c0,2.8,3.2,3.8,5.35,4.351
		l4.201,0.95c3.6,0.55,7.35,2.649,7.35,7.15c0,5.6-5.55,7.75-10.351,7.75c-6,0-10.101-2.8-10.601-9.101h3.15
		c0.25,4.25,3.4,6.45,7.601,6.45c2.95,0,7.051-1.3,7.051-4.9c0-3-2.801-4-5.65-4.7l-4.051-0.899c-4.1-1.101-7.2-2.501-7.2-6.9
		c0-5.251,5.15-7.251,9.7-7.251c5.15,0,9.251,2.7,9.451,8.301H1402.92z"/>
	<path fill="#010058" d="M1426.97,918.942c-0.15-3.9-3.15-5.65-6.75-5.65c-2.801,0-6.101,1.1-6.101,4.45c0,2.8,3.2,3.8,5.35,4.351
		l4.201,0.95c3.6,0.55,7.35,2.649,7.35,7.15c0,5.6-5.55,7.75-10.351,7.75c-6,0-10.101-2.8-10.601-9.101h3.15
		c0.25,4.25,3.4,6.45,7.601,6.45c2.95,0,7.051-1.3,7.051-4.9c0-3-2.801-4-5.65-4.7l-4.051-0.899c-4.1-1.101-7.2-2.501-7.2-6.9
		c0-5.251,5.15-7.251,9.7-7.251c5.15,0,9.251,2.7,9.451,8.301H1426.97z"/>
	<path fill="#010058" d="M1435.269,919.292c0.3-6.05,4.55-8.65,10.45-8.65c4.551,0,9.501,1.4,9.501,8.301v13.701
		c0,1.199,0.6,1.899,1.851,1.899c0.35,0,0.75-0.1,1-0.2v2.65c-0.7,0.15-1.2,0.2-2.051,0.2c-3.2,0-3.7-1.8-3.7-4.5h-0.1
		c-2.2,3.35-4.45,5.25-9.4,5.25c-4.751,0-8.651-2.35-8.651-7.551c0-7.25,7.051-7.5,13.852-8.3c2.6-0.301,4.05-0.65,4.05-3.501
		c0-4.25-3.05-5.3-6.75-5.3c-3.9,0-6.801,1.8-6.9,6H1435.269z M1452.07,923.092h-0.1c-0.4,0.75-1.8,1-2.65,1.149
		c-5.351,0.95-12.001,0.9-12.001,5.951c0,3.149,2.801,5.1,5.751,5.1c4.8,0,9.05-3.05,9-8.101V923.092z"/>
	<path fill="#010058" d="M1483.321,935.092c-0.05,7.701-3,12.401-11.451,12.401c-5.15,0-10.25-2.301-10.7-7.801h3.15
		c0.699,3.801,4.05,5.15,7.55,5.15c5.801,0,8.301-3.45,8.301-9.751v-3.5h-0.1c-1.45,3.15-4.501,5.301-8.201,5.301
		c-8.25,0-11.65-5.9-11.65-13.251c0-7.101,4.2-13.001,11.65-13.001c3.75,0,6.95,2.351,8.201,5.2h0.1v-4.45h3.15V935.092z
		 M1480.17,923.992c0-5.05-2.351-10.7-8.301-10.7c-6,0-8.5,5.351-8.5,10.7c0,5.201,2.7,10.251,8.5,10.251
		C1477.32,934.243,1480.17,929.243,1480.17,923.992z"/>
	<path fill="#010058" d="M1491.169,925.142c0.05,4.601,2.45,10.15,8.5,10.15c4.601,0,7.101-2.7,8.101-6.601h3.15
		c-1.351,5.851-4.75,9.251-11.251,9.251c-8.2,0-11.65-6.301-11.65-13.65c0-6.801,3.45-13.651,11.65-13.651
		c8.301,0,11.601,7.251,11.351,14.501H1491.169z M1507.871,922.492c-0.15-4.75-3.101-9.2-8.201-9.2c-5.15,0-8,4.5-8.5,9.2H1507.871z
		"/>
</g>
<g>
	<path fill="#010058" d="M148.749,634.612c-0.15,7.351,5.15,9.601,11.651,9.601c3.75,0,9.451-2.05,9.451-7.25
		c0-4.051-4.05-5.65-7.351-6.45l-7.951-1.95c-4.2-1.051-8.05-3.051-8.05-8.601c0-3.5,2.25-10.051,12.301-10.051
		c7.05,0,13.251,3.8,13.201,11.101h-3.4c-0.2-5.45-4.701-8.2-9.751-8.2c-4.65,0-8.95,1.8-8.95,7.101c0,3.35,2.5,4.75,5.4,5.45
		l8.701,2.149c5.05,1.351,9.25,3.551,9.25,9.401c0,2.45-1,10.2-13.651,10.2c-8.45,0-14.651-3.8-14.25-12.501H148.749z"/>
	<path fill="#010058" d="M183.048,620.561h5.25v2.65h-5.25v17.401c0,2.05,0.3,3.25,2.55,3.399c0.9,0,1.8-0.05,2.7-0.149v2.7
		c-0.95,0-1.85,0.1-2.8,0.1c-4.2,0-5.65-1.399-5.601-5.8v-17.651h-4.5v-2.65h4.5v-7.75h3.15V620.561z"/>
	<path fill="#010058" d="M192.547,628.461c0.3-6.05,4.55-8.65,10.451-8.65c4.55,0,9.5,1.4,9.5,8.301v13.701
		c0,1.199,0.6,1.899,1.85,1.899c0.35,0,0.75-0.1,1-0.2v2.65c-0.7,0.15-1.2,0.2-2.05,0.2c-3.2,0-3.701-1.8-3.701-4.5h-0.1
		c-2.2,3.35-4.45,5.25-9.401,5.25c-4.75,0-8.65-2.35-8.65-7.551c0-7.25,7.05-7.5,13.851-8.3c2.6-0.301,4.05-0.65,4.05-3.501
		c0-4.25-3.05-5.3-6.75-5.3c-3.9,0-6.801,1.8-6.9,6H192.547z M209.348,632.262h-0.1c-0.4,0.75-1.8,1-2.65,1.149
		c-5.35,0.95-12,0.9-12,5.951c0,3.149,2.8,5.1,5.75,5.1c4.8,0,9.051-3.05,9-8.101V632.262z"/>
	<path fill="#010058" d="M223.797,620.561h5.25v2.65h-5.25v17.401c0,2.05,0.3,3.25,2.55,3.399c0.9,0,1.8-0.05,2.7-0.149v2.7
		c-0.95,0-1.85,0.1-2.8,0.1c-4.2,0-5.65-1.399-5.601-5.8v-17.651h-4.5v-2.65h4.5v-7.75h3.15V620.561z"/>
	<path fill="#010058" d="M233.646,610.661h3.15v5.05h-3.15V610.661z M233.646,620.561h3.15v25.802h-3.15V620.561z"/>
	<path fill="#010058" d="M265.948,633.462c0,7.4-4.3,13.65-12.201,13.65s-12.201-6.25-12.201-13.65s4.3-13.651,12.201-13.651
		S265.948,626.062,265.948,633.462z M244.696,633.462c0,5.5,3,11,9.051,11s9.05-5.5,9.05-11c0-5.501-3-11.001-9.05-11.001
		S244.696,627.961,244.696,633.462z"/>
	<path fill="#010058" d="M270.596,620.561h3.15v4.45h0.1c1.15-3.1,4.601-5.2,8.25-5.2c7.25,0,9.451,3.801,9.451,9.951v16.601h-3.15
		v-16.101c0-4.45-1.45-7.801-6.551-7.801c-5,0-8,3.8-8.1,8.851v15.051h-3.15V620.561z"/>
	<path fill="#010058" d="M311.396,620.561h2.9v6.051h0.1c1.6-4.15,5.1-6.601,9.75-6.4v3.15c-5.7-0.301-9.601,3.899-9.601,9.25
		v13.751h-3.15V620.561z"/>
	<path fill="#010058" d="M328.995,634.312c0.05,4.601,2.45,10.15,8.5,10.15c4.601,0,7.101-2.7,8.101-6.601h3.15
		c-1.35,5.851-4.75,9.251-11.251,9.251c-8.2,0-11.65-6.301-11.65-13.65c0-6.801,3.45-13.651,11.65-13.651
		c8.301,0,11.601,7.251,11.351,14.501H328.995z M345.696,631.662c-0.15-4.75-3.1-9.2-8.201-9.2c-5.15,0-8,4.5-8.5,9.2H345.696z"/>
	<path fill="#010058" d="M368.546,628.112c-0.15-3.9-3.15-5.65-6.75-5.65c-2.8,0-6.101,1.1-6.101,4.45c0,2.8,3.2,3.8,5.351,4.351
		l4.2,0.95c3.6,0.55,7.351,2.649,7.351,7.15c0,5.6-5.55,7.75-10.351,7.75c-6,0-10.101-2.8-10.601-9.101h3.15
		c0.25,4.25,3.4,6.45,7.601,6.45c2.95,0,7.05-1.3,7.05-4.9c0-3-2.8-4-5.65-4.7l-4.05-0.899c-4.1-1.101-7.2-2.501-7.2-6.9
		c0-5.251,5.15-7.251,9.701-7.251c5.15,0,9.25,2.7,9.45,8.301H368.546z"/>
	<path fill="#010058" d="M377.144,620.561h2.9v4.9h0.1c1.45-3.5,5.05-5.65,9.201-5.65c7.85,0,11.601,6.351,11.601,13.651
		c0,7.3-3.75,13.65-11.601,13.65c-3.851,0-7.601-1.95-8.951-5.65h-0.1v14.451h-3.15V620.561z M389.345,622.461
		c-6.951,0-9.051,5.15-9.051,11.001c0,5.35,2.35,11,9.051,11c6,0,8.45-5.65,8.45-11
		C397.795,628.112,395.345,622.461,389.345,622.461z"/>
	<path fill="#010058" d="M428.945,633.462c0,7.4-4.3,13.65-12.201,13.65s-12.201-6.25-12.201-13.65s4.3-13.651,12.201-13.651
		S428.945,626.062,428.945,633.462z M407.694,633.462c0,5.5,3,11,9.051,11s9.05-5.5,9.05-11c0-5.501-3-11.001-9.05-11.001
		S407.694,627.961,407.694,633.462z"/>
	<path fill="#010058" d="M433.594,620.561h3.15v4.45h0.1c1.15-3.1,4.601-5.2,8.25-5.2c7.25,0,9.451,3.801,9.451,9.951v16.601h-3.15
		v-16.101c0-4.45-1.45-7.801-6.551-7.801c-5,0-8,3.8-8.1,8.851v15.051h-3.15V620.561z"/>
	<path fill="#010058" d="M483.194,646.363h-2.9v-4.9h-0.1c-1.35,3.351-5.45,5.65-9.2,5.65c-7.851,0-11.601-6.351-11.601-13.65
		c0-7.301,3.75-13.651,11.601-13.651c3.85,0,7.6,1.95,8.95,5.65h0.1v-14.801h3.15V646.363z M470.994,644.462
		c6.7,0,9.05-5.65,9.05-11c0-5.351-2.35-11.001-9.05-11.001c-6,0-8.451,5.65-8.451,11.001
		C462.543,638.812,464.993,644.462,470.994,644.462z"/>
	<path fill="#010058" d="M504.644,628.112c-0.15-3.9-3.15-5.65-6.75-5.65c-2.8,0-6.101,1.1-6.101,4.45c0,2.8,3.2,3.8,5.351,4.351
		l4.2,0.95c3.6,0.55,7.351,2.649,7.351,7.15c0,5.6-5.55,7.75-10.351,7.75c-6,0-10.101-2.8-10.601-9.101h3.15
		c0.25,4.25,3.4,6.45,7.601,6.45c2.95,0,7.05-1.3,7.05-4.9c0-3-2.8-4-5.65-4.7l-4.05-0.899c-4.1-1.101-7.2-2.501-7.2-6.9
		c0-5.251,5.15-7.251,9.701-7.251c5.15,0,9.25,2.7,9.45,8.301H504.644z"/>
	<path fill="#010058" d="M26.299,680.561h3.35l6.601,22.102h0.1l6.3-22.102h3.55l6.3,22.102h0.1l6.601-22.102h3.35l-8.301,25.802
		h-3.45l-6.35-21.701h-0.1l-6.3,21.701H34.6L26.299,680.561z"/>
	<path fill="#010058" d="M66,670.661h3.15v5.05H66V670.661z M66,680.561h3.15v25.802H66V680.561z"/>
	<path fill="#010058" d="M80.2,680.561h5.25v2.65H80.2v17.401c0,2.05,0.3,3.25,2.55,3.399c0.9,0,1.8-0.05,2.7-0.149v2.7
		c-0.95,0-1.85,0.1-2.8,0.1c-4.2,0-5.65-1.399-5.601-5.8v-17.651h-4.5v-2.65h4.5v-7.75h3.15V680.561z"/>
	<path fill="#010058" d="M89.949,670.661h3.15v14.351h0.1c1.15-3.1,4.601-5.2,8.25-5.2c7.25,0,9.451,3.801,9.451,9.951v16.601h-3.15
		v-16.101c0-4.45-1.45-7.801-6.551-7.801c-5,0-8,3.8-8.1,8.851v15.051h-3.15V670.661z"/>
	<path fill="#010058" d="M132.598,694.312c0.05,4.601,2.45,10.15,8.5,10.15c4.601,0,7.101-2.7,8.101-6.601h3.15
		c-1.35,5.851-4.75,9.251-11.251,9.251c-8.2,0-11.65-6.301-11.65-13.65c0-6.801,3.45-13.651,11.65-13.651
		c8.301,0,11.601,7.251,11.351,14.501H132.598z M149.299,691.662c-0.15-4.75-3.1-9.2-8.201-9.2c-5.15,0-8,4.5-8.5,9.2H149.299z"/>
	<path fill="#010058" d="M156.648,680.561h3.15v4.45h0.1c1.15-3.1,4.601-5.2,8.25-5.2c7.25,0,9.451,3.801,9.451,9.951v16.601h-3.15
		v-16.101c0-4.45-1.45-7.801-6.551-7.801c-5,0-8,3.8-8.1,8.851v15.051h-3.15V680.561z"/>
	<path fill="#010058" d="M201.749,688.662c-0.85-3.851-3.2-6.2-7.3-6.2c-6.05,0-9.051,5.5-9.051,11.001c0,5.5,3,11,9.051,11
		c3.9,0,7.101-3.05,7.5-7.351h3.15c-0.85,6.201-4.9,10.001-10.65,10.001c-7.9,0-12.201-6.25-12.201-13.65s4.3-13.651,12.201-13.651
		c5.5,0,9.75,2.95,10.451,8.851H201.749z"/>
	<path fill="#010058" d="M209.497,680.561h2.9v6.051h0.1c1.6-4.15,5.1-6.601,9.75-6.4v3.15c-5.7-0.301-9.601,3.899-9.601,9.25
		v13.751h-3.15V680.561z"/>
	<path fill="#010058" d="M222.347,680.561h3.35l8.5,22.002l7.951-22.002h3.15l-11.201,29.752c-1.8,4.351-2.85,5.601-6.8,5.601
		c-1.25-0.05-1.9-0.05-2.4-0.25v-2.65c0.75,0.15,1.45,0.25,2.15,0.25c2.8,0,3.45-1.65,4.5-4.05l1.1-2.95L222.347,680.561z"/>
	<path fill="#010058" d="M248.396,680.561h2.9v4.9h0.1c1.45-3.5,5.05-5.65,9.2-5.65c7.851,0,11.601,6.351,11.601,13.651
		c0,7.3-3.75,13.65-11.601,13.65c-3.85,0-7.6-1.95-8.95-5.65h-0.1v14.451h-3.15V680.561z M260.597,682.461
		c-6.95,0-9.05,5.15-9.05,11.001c0,5.35,2.35,11,9.05,11c6,0,8.451-5.65,8.451-11C269.048,688.112,266.598,682.461,260.597,682.461z
		"/>
	<path fill="#010058" d="M282.097,680.561h5.25v2.65h-5.25v17.401c0,2.05,0.3,3.25,2.55,3.399c0.9,0,1.8-0.05,2.7-0.149v2.7
		c-0.95,0-1.85,0.1-2.8,0.1c-4.2,0-5.65-1.399-5.601-5.8v-17.651h-4.5v-2.65h4.5v-7.75h3.15V680.561z"/>
	<path fill="#010058" d="M293.746,694.312c0.05,4.601,2.45,10.15,8.5,10.15c4.601,0,7.101-2.7,8.101-6.601h3.15
		c-1.35,5.851-4.75,9.251-11.251,9.251c-8.2,0-11.65-6.301-11.65-13.65c0-6.801,3.45-13.651,11.65-13.651
		c8.301,0,11.601,7.251,11.351,14.501H293.746z M310.447,691.662c-0.15-4.75-3.1-9.2-8.201-9.2c-5.15,0-8,4.5-8.5,9.2H310.447z"/>
	<path fill="#010058" d="M340.547,706.363h-2.9v-4.9h-0.1c-1.35,3.351-5.45,5.65-9.2,5.65c-7.851,0-11.601-6.351-11.601-13.65
		c0-7.301,3.75-13.651,11.601-13.651c3.85,0,7.6,1.95,8.95,5.65h0.1v-14.801h3.15V706.363z M328.346,704.462
		c6.7,0,9.05-5.65,9.05-11c0-5.351-2.35-11.001-9.05-11.001c-6,0-8.451,5.65-8.451,11.001
		C319.896,698.812,322.346,704.462,328.346,704.462z"/>
	<path fill="#010058" d="M357.545,680.561h3.5l8.101,22.651h0.1l8-22.651h3.25l-9.65,25.802h-3.35L357.545,680.561z"/>
	<path fill="#010058" d="M385.445,694.312c0.05,4.601,2.45,10.15,8.5,10.15c4.601,0,7.101-2.7,8.101-6.601h3.15
		c-1.35,5.851-4.75,9.251-11.251,9.251c-8.2,0-11.65-6.301-11.65-13.65c0-6.801,3.45-13.651,11.65-13.651
		c8.301,0,11.601,7.251,11.351,14.501H385.445z M402.146,691.662c-0.15-4.75-3.1-9.2-8.201-9.2c-5.15,0-8,4.5-8.5,9.2H402.146z"/>
	<path fill="#010058" d="M409.544,680.561h2.9v6.051h0.1c1.6-4.15,5.1-6.601,9.75-6.4v3.15c-5.7-0.301-9.601,3.899-9.601,9.25
		v13.751h-3.15V680.561z"/>
	<path fill="#010058" d="M440.745,688.112c-0.15-3.9-3.15-5.65-6.75-5.65c-2.8,0-6.101,1.1-6.101,4.45c0,2.8,3.2,3.8,5.351,4.351
		l4.2,0.95c3.6,0.55,7.351,2.649,7.351,7.15c0,5.6-5.55,7.75-10.351,7.75c-6,0-10.101-2.8-10.601-9.101h3.15
		c0.25,4.25,3.4,6.45,7.601,6.45c2.95,0,7.05-1.3,7.05-4.9c0-3-2.8-4-5.65-4.7l-4.05-0.899c-4.1-1.101-7.2-2.501-7.2-6.9
		c0-5.251,5.15-7.251,9.701-7.251c5.15,0,9.25,2.7,9.45,8.301H440.745z"/>
	<path fill="#010058" d="M449.394,670.661h3.15v5.05h-3.15V670.661z M449.394,680.561h3.15v25.802h-3.15V680.561z"/>
	<path fill="#010058" d="M481.695,693.462c0,7.4-4.3,13.65-12.201,13.65s-12.201-6.25-12.201-13.65s4.3-13.651,12.201-13.651
		S481.695,686.062,481.695,693.462z M460.443,693.462c0,5.5,3,11,9.051,11s9.05-5.5,9.05-11c0-5.501-3-11.001-9.05-11.001
		S460.443,687.961,460.443,693.462z"/>
	<path fill="#010058" d="M486.343,680.561h3.15v4.45h0.1c1.15-3.1,4.601-5.2,8.25-5.2c7.25,0,9.451,3.801,9.451,9.951v16.601h-3.15
		v-16.101c0-4.45-1.45-7.801-6.551-7.801c-5,0-8,3.8-8.1,8.851v15.051h-3.15V680.561z"/>
	<path fill="#010058" d="M98.25,753.462c0,7.4-4.3,13.65-12.201,13.65s-12.201-6.25-12.201-13.65s4.3-13.651,12.201-13.651
		S98.25,746.062,98.25,753.462z M76.998,753.462c0,5.5,3,11,9.051,11s9.05-5.5,9.05-11c0-5.501-3-11.001-9.05-11.001
		S76.998,747.961,76.998,753.462z"/>
	<path fill="#010058" d="M112.898,743.211h-5.1v23.151h-3.15v-23.151h-4.4v-2.65h4.4v-2.35c-0.05-4.45,1.2-7.551,6.25-7.551
		c0.9,0,1.65,0.05,2.65,0.2v2.7c-0.85-0.15-1.55-0.25-2.3-0.25c-3.5,0-3.4,2.2-3.45,5v2.25h5.1V743.211z"/>
	<path fill="#010058" d="M147.998,748.662c-0.85-3.851-3.2-6.2-7.3-6.2c-6.05,0-9.051,5.5-9.051,11.001c0,5.5,3,11,9.051,11
		c3.9,0,7.101-3.05,7.5-7.351h3.15c-0.85,6.201-4.9,10.001-10.65,10.001c-7.9,0-12.201-6.25-12.201-13.65s4.3-13.651,12.201-13.651
		c5.5,0,9.75,2.95,10.451,8.851H147.998z"/>
	<path fill="#010058" d="M155.697,730.661h3.15v14.351h0.1c1.15-3.1,4.601-5.2,8.25-5.2c7.25,0,9.451,3.801,9.451,9.951v16.601
		h-3.15v-16.101c0-4.45-1.45-7.801-6.551-7.801c-5,0-8,3.8-8.1,8.851v15.051h-3.15V730.661z"/>
	<path fill="#010058" d="M182.296,748.461c0.3-6.05,4.55-8.65,10.451-8.65c4.55,0,9.5,1.4,9.5,8.301v13.701
		c0,1.199,0.6,1.899,1.85,1.899c0.35,0,0.75-0.1,1-0.2v2.65c-0.7,0.15-1.2,0.2-2.05,0.2c-3.2,0-3.701-1.8-3.701-4.5h-0.1
		c-2.2,3.35-4.45,5.25-9.401,5.25c-4.75,0-8.65-2.35-8.65-7.551c0-7.25,7.05-7.5,13.851-8.3c2.6-0.301,4.05-0.65,4.05-3.501
		c0-4.25-3.05-5.3-6.75-5.3c-3.9,0-6.801,1.8-6.9,6H182.296z M199.097,752.262h-0.1c-0.4,0.75-1.8,1-2.65,1.149
		c-5.35,0.95-12,0.9-12,5.951c0,3.149,2.8,5.1,5.75,5.1c4.8,0,9.051-3.05,9-8.101V752.262z"/>
	<path fill="#010058" d="M208.596,730.661h3.15v35.702h-3.15V730.661z"/>
	<path fill="#010058" d="M217.846,730.661h3.15v35.702h-3.15V730.661z"/>
	<path fill="#010058" d="M228.896,754.312c0.05,4.601,2.45,10.15,8.5,10.15c4.601,0,7.101-2.7,8.101-6.601h3.15
		c-1.35,5.851-4.75,9.251-11.251,9.251c-8.2,0-11.65-6.301-11.65-13.65c0-6.801,3.45-13.651,11.65-13.651
		c8.301,0,11.601,7.251,11.351,14.501H228.896z M245.597,751.662c-0.15-4.75-3.1-9.2-8.201-9.2c-5.15,0-8,4.5-8.5,9.2H245.597z"/>
	<path fill="#010058" d="M252.946,740.561h3.15v4.45h0.1c1.15-3.1,4.601-5.2,8.25-5.2c7.25,0,9.451,3.801,9.451,9.951v16.601h-3.15
		v-16.101c0-4.45-1.45-7.801-6.551-7.801c-5,0-8,3.8-8.1,8.851v15.051h-3.15V740.561z"/>
	<path fill="#010058" d="M301.647,764.262c-0.05,7.701-3,12.401-11.451,12.401c-5.15,0-10.25-2.301-10.7-7.801h3.15
		c0.7,3.801,4.05,5.15,7.55,5.15c5.801,0,8.301-3.45,8.301-9.751v-3.5h-0.1c-1.45,3.15-4.5,5.301-8.201,5.301
		c-8.25,0-11.65-5.9-11.65-13.251c0-7.101,4.2-13.001,11.65-13.001c3.75,0,6.951,2.351,8.201,5.2h0.1v-4.45h3.15V764.262z
		 M298.497,753.162c0-5.05-2.35-10.7-8.301-10.7c-6,0-8.5,5.351-8.5,10.7c0,5.201,2.7,10.251,8.5,10.251
		C295.646,763.413,298.497,758.413,298.497,753.162z"/>
	<path fill="#010058" d="M309.495,754.312c0.05,4.601,2.45,10.15,8.5,10.15c4.601,0,7.101-2.7,8.101-6.601h3.15
		c-1.35,5.851-4.75,9.251-11.251,9.251c-8.2,0-11.65-6.301-11.65-13.65c0-6.801,3.45-13.651,11.65-13.651
		c8.301,0,11.601,7.251,11.351,14.501H309.495z M326.196,751.662c-0.15-4.75-3.1-9.2-8.201-9.2c-5.15,0-8,4.5-8.5,9.2H326.196z"/>
	<path fill="#010058" d="M347.445,740.561h3.15v4.45h0.1c1.15-3.1,4.601-5.2,8.25-5.2c7.25,0,9.451,3.801,9.451,9.951v16.601h-3.15
		v-16.101c0-4.45-1.45-7.801-6.551-7.801c-5,0-8,3.8-8.1,8.851v15.051h-3.15V740.561z"/>
	<path fill="#010058" d="M395.246,766.363h-2.9v-4.65h-0.1c-1.65,3.45-5.05,5.4-8.9,5.4c-6.5,0-9.051-3.8-9.051-9.801v-16.751h3.15
		v16.801c0.15,4.65,1.9,7.101,6.9,7.101c5.4,0,7.75-5.1,7.75-10.351v-13.551h3.15V766.363z"/>
	<path fill="#010058" d="M401.194,740.561h2.9v4.351h0.15c1.65-3.101,4.35-5.101,8.451-5.101c3.4,0,6.45,1.65,7.4,5.051
		c1.55-3.4,4.8-5.051,8.201-5.051c5.65,0,8.55,2.95,8.55,9.051v17.501h-3.15v-17.351c0-4.251-1.6-6.551-6.1-6.551
		c-5.45,0-7,4.5-7,9.301v14.601h-3.15v-17.501c0.05-3.5-1.4-6.4-5.4-6.4c-5.451,0-7.651,4.101-7.701,9.501v14.4h-3.15V740.561z"/>
	<path fill="#010058" d="M442.843,730.661h3.15v14.801h0.1c1.35-3.7,5.1-5.65,8.951-5.65c7.85,0,11.601,6.351,11.601,13.651
		c0,7.3-3.75,13.65-11.601,13.65c-4.15,0-7.75-2.15-9.201-5.65h-0.1v4.9h-2.9V730.661z M455.044,742.461
		c-6.701,0-9.051,5.65-9.051,11.001c0,5.35,2.35,11,9.051,11c6,0,8.45-5.65,8.45-11
		C463.495,748.112,461.044,742.461,455.044,742.461z"/>
	<path fill="#010058" d="M473.393,754.312c0.05,4.601,2.45,10.15,8.5,10.15c4.601,0,7.101-2.7,8.101-6.601h3.15
		c-1.35,5.851-4.75,9.251-11.251,9.251c-8.2,0-11.65-6.301-11.65-13.65c0-6.801,3.45-13.651,11.65-13.651
		c8.301,0,11.601,7.251,11.351,14.501H473.393z M490.094,751.662c-0.15-4.75-3.1-9.2-8.201-9.2c-5.15,0-8,4.5-8.5,9.2H490.094z"/>
	<path fill="#010058" d="M497.493,740.561h2.9v6.051h0.1c1.6-4.15,5.1-6.601,9.75-6.4v3.15c-5.7-0.301-9.601,3.899-9.601,9.25
		v13.751h-3.15V740.561z"/>
</g>
<g>
	<path fill="#000054" d="M1050.755,378.196c-0.787-1.232-0.424-2.875,0.812-3.662l34.225-21.792l-34.225-21.792
		c-1.236-0.787-1.6-2.428-0.812-3.661s2.437-1.591,3.662-0.814l37.736,24.029c0.764,0.487,1.227,1.332,1.227,2.237
		c0,0.907-0.463,1.751-1.227,2.237l-37.736,24.029c-0.441,0.28-0.936,0.415-1.422,0.415
		C1052.12,379.423,1051.263,378.988,1050.755,378.196"/>
</g>
<line fill="none" stroke="#000054" stroke-width="5" stroke-miterlimit="10" x1="1089.75" y1="352.578" x2="535.25" y2="352.578"/>
<g>
	<path fill="#000054" d="M1050.425,715.831c-0.787-1.234-0.422-2.876,0.814-3.662l34.225-21.793l-34.225-21.791
		c-1.236-0.788-1.602-2.43-0.814-3.662c0.789-1.232,2.438-1.591,3.662-0.813l37.737,24.029c0.764,0.487,1.227,1.331,1.227,2.237
		s-0.463,1.751-1.227,2.236l-37.737,24.031c-0.439,0.279-0.934,0.414-1.421,0.414
		C1051.791,717.057,1050.933,716.622,1050.425,715.831"/>
</g>
<line fill="none" stroke="#000054" stroke-width="5" stroke-miterlimit="10" x1="1086.552" y1="690.962" x2="533.917" y2="690.962"/>
<g>
	<path fill="#000054" d="M577.647,547.056c0.787-1.232,0.422-2.875-0.813-3.662l-34.225-21.793l34.225-21.791
		c1.235-0.787,1.6-2.429,0.813-3.662c-0.788-1.232-2.437-1.59-3.662-0.812l-37.737,24.029c-0.764,0.486-1.227,1.332-1.227,2.236
		c0,0.907,0.463,1.751,1.227,2.238l37.737,24.029c0.44,0.279,0.934,0.414,1.421,0.414
		C576.283,548.283,577.14,547.847,577.647,547.056"/>
</g>
<line fill="none" stroke="#000054" stroke-width="5" stroke-miterlimit="10" x1="536.875" y1="521.896" x2="1097" y2="521.896"/>
<g>
	<path fill="#000054" d="M577.943,887.951c0.787-1.232,0.422-2.876-0.814-3.662l-34.225-21.793l34.225-21.791
		c1.236-0.788,1.601-2.429,0.814-3.662c-0.788-1.232-2.438-1.59-3.663-0.812l-37.737,24.029c-0.764,0.486-1.227,1.331-1.227,2.236
		c0,0.907,0.463,1.751,1.227,2.238l37.737,24.029c0.44,0.279,0.934,0.414,1.421,0.414
		C576.578,889.177,577.435,888.742,577.943,887.951"/>
</g>
<line fill="none" stroke="#000054" stroke-width="5" stroke-miterlimit="10" x1="538.68" y1="861.794" x2="1095.75" y2="861.794"/>
<line fill="none" stroke="#000054" stroke-width="7" stroke-miterlimit="10" x1="531.237" y1="276.288" x2="531.237" y2="1025.53"/>
<line fill="none" stroke="#000054" stroke-width="7" stroke-miterlimit="10" x1="1097.146" y1="276.288" x2="1097.146" y2="1025.53"/>
<polygon fill="none" stroke="#000054" stroke-width="2" stroke-linecap="round" stroke-linejoin="round" stroke-miterlimit="10" points="
	1138.538,189.01 1096.013,212.567 1138.538,189.01 1138.538,159.102 1095.873,181.036 1095.882,181.04 1095.882,212.651 
	1096.585,213.04 1095.882,212.651 1095.882,240.534 1138.538,218.606 "/>
<polygon fill="none" stroke="#000054" stroke-width="2" stroke-linecap="round" stroke-linejoin="round" stroke-miterlimit="10" points="
	1053.208,189.009 1053.208,218.606 1095.864,240.534 1095.864,212.64 "/>
<polygon fill="none" stroke="#000054" stroke-width="2" stroke-linecap="round" stroke-linejoin="round" stroke-miterlimit="10" points="
	1095.864,181.04 1095.873,181.036 1053.208,159.102 1053.208,189.009 1095.864,212.64 "/>
<polygon fill="none" stroke="#000054" stroke-width="2" stroke-linecap="round" stroke-linejoin="round" stroke-miterlimit="10" points="
	1095.864,212.64 1095.864,240.534 1095.873,240.539 1095.882,240.534 1095.882,212.651 "/>
<polygon fill="none" stroke="#000054" stroke-width="2" stroke-linecap="round" stroke-linejoin="round" stroke-miterlimit="10" points="
	1095.864,212.64 1095.882,212.651 1095.882,181.04 1095.873,181.036 1095.864,181.04 "/>
<polygon fill="none" stroke="#000054" stroke-width="2" stroke-linecap="round" stroke-linejoin="round" stroke-miterlimit="10" points="
	1138.538,159.102 1096.164,134.609 1053.208,159.102 1095.882,181.04 "/>
<ellipse fill="none" stroke="#000054" stroke-width="2" stroke-linecap="round" stroke-linejoin="round" stroke-miterlimit="10" cx="1094.662" cy="157.299" rx="12.622" ry="6.911"/>
<line fill="none" stroke="#000054" stroke-width="2" stroke-linecap="round" stroke-linejoin="round" stroke-miterlimit="10" x1="1094.661" y1="157.299" x2="1094.661" y2="101"/>
<ellipse transform="matrix(0.9623 0.2719 -0.2719 0.9623 68.9817 -293.8121)" fill="none" stroke="#000054" stroke-width="2" stroke-linecap="round" stroke-linejoin="round" stroke-miterlimit="10" cx="1094.661" cy="102.002" rx="4.507" ry="9.617"/>
<ellipse transform="matrix(0.8385 0.5449 -0.5449 0.8385 232.9465 -579.678)" fill="none" stroke="#000054" stroke-width="2" stroke-linecap="round" stroke-linejoin="round" stroke-miterlimit="10" cx="1094.341" cy="103.122" rx="15.68" ry="25.471"/>
<path fill="none" stroke="#000054" stroke-width="2" stroke-linecap="round" stroke-linejoin="round" stroke-miterlimit="10" d="
	M1115.223,116.693c-12.176,18.732-31.396,27.843-42.929,20.348c-11.531-7.496-11.009-28.758,1.166-47.49
	c12.173-18.733,31.394-27.842,42.924-20.348C1127.917,76.698,1127.394,97.96,1115.223,116.693z"/>
<g>
	<path fill="none" d="M529.622,158.604"/>
</g>
<g>
	<path fill="none" d="M529.622,150.708"/>
</g>
<g>
	<path fill="none" d="M542.873,145.833"/>
</g>
<g>
	<path fill="none" d="M540.03,154.775"/>
</g>
<g>
	<path fill="none" d="M537.778,150.271"/>
</g>
<g>
	<path fill="none" d="M518.351,154.775"/>
</g>
<g>
	<path fill="none" d="M520.603,150.271"/>
</g>
<path fill-rule="evenodd" clip-rule="evenodd" fill="none" stroke="#000054" stroke-width="2" stroke-linecap="round" stroke-linejoin="round" stroke-miterlimit="10" d="
	M621.583,175.788c0,3.898-3.157,7.058-7.056,7.058H445.137c-3.897,0-7.057-3.159-7.057-7.058V75.348
	c0-3.897,3.159-7.058,7.057-7.058h169.391c3.898,0,7.056,3.16,7.056,7.058V175.788z"/>
<polygon fill-rule="evenodd" clip-rule="evenodd" fill="#EBEBEB" stroke="#000054" stroke-width="2" stroke-linecap="round" stroke-linejoin="round" stroke-miterlimit="10" points="
	438.016,176.969 409.306,222.692 649.274,222.279 621.649,176.693 "/>
<path fill-rule="evenodd" clip-rule="evenodd" fill="#000054" stroke="#000054" stroke-width="2" stroke-linecap="round" stroke-linejoin="round" stroke-miterlimit="10" d="
	M649.541,222.5L649.541,222.5c0,2.574-2.723,4.661-6.079,4.661H415.665c-3.358,0-6.08-2.087-6.08-4.661l0,0"/>
<rect x="448.311" y="77.501" fill-rule="evenodd" clip-rule="evenodd" fill="#FFFFFF" stroke="#000054" stroke-width="2" stroke-linecap="round" stroke-linejoin="round" stroke-miterlimit="10" width="163.138" height="90.844"/>
<rect x="446.948" y="184.245" fill="#000054" width="5.429" height="5.7"/>
<rect x="446.948" y="191.439" fill="#000054" width="12.215" height="5.7"/>
<rect x="447.218" y="199.31" fill="#000054" width="12.216" height="5.701"/>
<rect x="453.462" y="184.245" fill="#000054" width="5.429" height="5.7"/>
<rect x="459.976" y="184.245" fill="#000054" width="5.431" height="5.7"/>
<rect x="466.492" y="184.245" fill="#000054" width="5.43" height="5.7"/>
<rect x="473.007" y="184.245" fill="#000054" width="5.428" height="5.7"/>
<rect x="479.523" y="184.245" fill="#000054" width="5.428" height="5.7"/>
<rect x="486.037" y="184.245" fill="#000054" width="5.43" height="5.7"/>
<rect x="492.552" y="184.245" fill="#000054" width="5.43" height="5.7"/>
<rect x="499.067" y="184.245" fill="#000054" width="5.43" height="5.7"/>
<rect x="505.581" y="184.245" fill="#000054" width="5.431" height="5.7"/>
<rect x="512.096" y="184.245" fill="#000054" width="5.43" height="5.7"/>
<rect x="518.612" y="184.245" fill="#000054" width="5.429" height="5.7"/>
<rect x="525.127" y="184.245" fill="#000054" width="5.429" height="5.7"/>
<rect x="531.642" y="184.245" fill="#000054" width="5.43" height="5.7"/>
<rect x="538.158" y="184.245" fill="#000054" width="5.429" height="5.7"/>
<rect x="544.671" y="184.245" fill="#000054" width="5.431" height="5.7"/>
<rect x="551.186" y="184.245" fill="#000054" width="5.431" height="5.7"/>
<rect x="557.702" y="184.245" fill="#000054" width="5.429" height="5.7"/>
<rect x="564.217" y="184.245" fill="#000054" width="5.428" height="5.7"/>
<rect x="570.732" y="184.245" fill="#000054" width="5.429" height="5.7"/>
<rect x="577.247" y="184.245" fill="#000054" width="5.43" height="5.7"/>
<rect x="583.762" y="184.245" fill="#000054" width="5.43" height="5.7"/>
<rect x="590.278" y="184.245" fill="#000054" width="5.429" height="5.7"/>
<rect x="596.792" y="184.245" fill="#000054" width="5.43" height="5.7"/>
<rect x="603.306" y="184.245" fill="#000054" width="5.429" height="5.7"/>
<rect x="446.948" y="206.64" fill="#000054" width="5.429" height="5.7"/>
<rect x="453.462" y="206.64" fill="#000054" width="5.429" height="5.7"/>
<rect x="459.976" y="206.64" fill="#000054" width="5.431" height="5.7"/>
<rect x="466.492" y="206.64" fill="#000054" width="5.43" height="5.7"/>
<rect x="473.007" y="206.64" fill="#000054" width="5.428" height="5.7"/>
<rect x="479.523" y="206.64" fill="#000054" width="5.428" height="5.7"/>
<rect x="486.309" y="206.64" fill="#000054" width="83.065" height="5.7"/>
<rect x="570.732" y="206.64" fill="#000054" width="5.429" height="5.7"/>
<rect x="577.247" y="206.64" fill="#000054" width="5.43" height="5.7"/>
<rect x="583.762" y="206.64" fill="#000054" width="5.43" height="5.7"/>
<rect x="590.278" y="206.64" fill="#000054" width="5.429" height="5.7"/>
<rect x="596.792" y="206.64" fill="#000054" width="5.43" height="5.7"/>
<rect x="603.306" y="206.64" fill="#000054" width="5.429" height="5.7"/>
<rect x="459.976" y="191.439" fill="#000054" width="5.431" height="5.7"/>
<rect x="466.492" y="191.439" fill="#000054" width="5.43" height="5.7"/>
<rect x="473.007" y="191.439" fill="#000054" width="5.428" height="5.7"/>
<rect x="479.523" y="191.439" fill="#000054" width="5.428" height="5.7"/>
<rect x="486.037" y="191.439" fill="#000054" width="5.43" height="5.7"/>
<rect x="492.552" y="191.439" fill="#000054" width="5.43" height="5.7"/>
<rect x="499.067" y="191.439" fill="#000054" width="5.43" height="5.7"/>
<rect x="505.581" y="191.439" fill="#000054" width="5.431" height="5.7"/>
<rect x="512.096" y="191.439" fill="#000054" width="5.43" height="5.7"/>
<rect x="518.612" y="191.439" fill="#000054" width="5.429" height="5.7"/>
<rect x="525.127" y="191.439" fill="#000054" width="5.429" height="5.7"/>
<rect x="531.642" y="191.439" fill="#000054" width="5.43" height="5.7"/>
<rect x="538.158" y="191.439" fill="#000054" width="5.429" height="5.7"/>
<rect x="544.671" y="191.439" fill="#000054" width="5.431" height="5.7"/>
<rect x="551.186" y="191.439" fill="#000054" width="5.431" height="5.7"/>
<rect x="557.702" y="191.439" fill="#000054" width="5.429" height="5.7"/>
<rect x="564.217" y="191.439" fill="#000054" width="5.428" height="5.7"/>
<rect x="570.732" y="191.439" fill="#000054" width="5.429" height="5.7"/>
<rect x="577.247" y="191.439" fill="#000054" width="5.43" height="5.7"/>
<rect x="583.762" y="191.439" fill="#000054" width="5.43" height="5.7"/>
<rect x="590.278" y="191.439" fill="#000054" width="5.429" height="5.7"/>
<rect x="596.792" y="191.439" fill="#000054" width="5.43" height="5.7"/>
<rect x="603.306" y="191.439" fill="#000054" width="5.429" height="13.166"/>
<rect x="459.976" y="199.31" fill="#000054" width="5.431" height="5.701"/>
<rect x="466.492" y="199.31" fill="#000054" width="5.43" height="5.701"/>
<rect x="473.007" y="199.31" fill="#000054" width="5.428" height="5.701"/>
<rect x="479.523" y="199.31" fill="#000054" width="5.428" height="5.701"/>
<rect x="486.037" y="199.31" fill="#000054" width="5.43" height="5.701"/>
<rect x="492.552" y="199.31" fill="#000054" width="5.43" height="5.701"/>
<rect x="499.067" y="199.31" fill="#000054" width="5.43" height="5.701"/>
<rect x="505.581" y="199.31" fill="#000054" width="5.431" height="5.701"/>
<rect x="512.096" y="199.31" fill="#000054" width="5.43" height="5.701"/>
<rect x="518.612" y="199.31" fill="#000054" width="5.429" height="5.701"/>
<rect x="525.127" y="199.31" fill="#000054" width="5.429" height="5.701"/>
<rect x="531.642" y="199.31" fill="#000054" width="5.43" height="5.701"/>
<rect x="538.158" y="199.31" fill="#000054" width="5.429" height="5.701"/>
<rect x="544.671" y="199.31" fill="#000054" width="5.431" height="5.701"/>
<rect x="551.186" y="199.31" fill="#000054" width="5.431" height="5.701"/>
<rect x="557.702" y="199.31" fill="#000054" width="5.429" height="5.701"/>
<rect x="564.217" y="199.31" fill="#000054" width="5.428" height="5.701"/>
<rect x="570.732" y="199.31" fill="#000054" width="5.429" height="5.701"/>
<rect x="577.247" y="199.31" fill="#000054" width="5.43" height="5.701"/>
<rect x="583.762" y="199.31" fill="#000054" width="5.43" height="5.701"/>
<rect x="590.278" y="199.31" fill="#000054" width="5.429" height="5.701"/>
<rect x="596.792" y="199.31" fill="#000054" width="5.43" height="5.701"/>
</svg>
