<svg xmlns="http://www.w3.org/2000/svg" viewBox="0 0 1400 2273.97"><polygon points="1278.63 358.37 337.11 358.37 339.11 199.82 1280.63 199.82 1278.63 358.37" fill="#e1e1e1"/><polyline points="533.63 875.87 333.33 875.87 333.33 1016.95" fill="none" stroke="#000054" stroke-linecap="round" stroke-linejoin="round" stroke-width="8"/><line x1="212.73" y1="756.08" x2="564.31" y2="756.08" fill="none" stroke="#000054" stroke-linecap="round" stroke-linejoin="round" stroke-width="8"/><path d="M541,894.93a127.67,127.67,0,0,0-1.74,19.82,109.57,109.57,0,0,0,109.58,109.58H789.38a108.9,108.9,0,0,0,66.79-22.61,58.21,58.21,0,0,0,28.18,7,60.2,60.2,0,0,0,60.18-60.18,59.11,59.11,0,0,0-15.31-40l.35-.34A100.36,100.36,0,0,0,955,842.4c0-54.62-44.17-99.14-98.79-99.14a100.77,100.77,0,0,0-56.36,17.39C784.16,678.2,704.5,623.94,622.05,639.24S485,734.56,500.65,817A151.6,151.6,0,0,0,541,894.93Z" transform="translate(0 -28.96)" fill="#fff" stroke="#000054" stroke-linecap="round" stroke-linejoin="round" stroke-width="6"/><polyline points="933.45 875.87 1066.67 875.87 1066.67 1016.95" fill="none" stroke="#000054" stroke-linecap="round" stroke-linejoin="round" stroke-width="8"/><path d="M613.25,33.81h3.8l14,35.7H627.4l-4.35-11.1H606.8l-4.3,11.1h-3.65Zm-5.4,21.7h14L615,37.21Z" transform="translate(0 -28.96)" fill="#000054"/><path d="M654.6,69.51h-2.9V64.86h-.1a9.6,9.6,0,0,1-8.9,5.4c-6.5,0-9.05-3.8-9.05-9.8V43.71h3.15v16.8c.15,4.65,1.9,7.1,6.9,7.1,5.4,0,7.75-5.1,7.75-10.35V43.71h3.15Z" transform="translate(0 -28.96)" fill="#000054"/><path d="M665.55,43.71h5.25v2.65h-5.25v17.4c0,2.05.3,3.25,2.55,3.4a24.43,24.43,0,0,0,2.7-.15v2.7c-.95,0-1.85.1-2.8.1-4.2,0-5.65-1.4-5.6-5.8V46.36h-4.5V43.71h4.5V36h3.15Z" transform="translate(0 -28.96)" fill="#000054"/><path d="M675.3,33.81h3.15V48.16h.1c1.15-3.1,4.6-5.2,8.25-5.2,7.25,0,9.45,3.8,9.45,9.95v16.6H693.1V53.41c0-4.45-1.45-7.8-6.55-7.8s-8,3.8-8.1,8.85V69.51H675.3Z" transform="translate(0 -28.96)" fill="#000054"/><path d="M704.05,57.46c.05,4.6,2.45,10.15,8.5,10.15,4.6,0,7.1-2.7,8.1-6.6h3.15c-1.35,5.85-4.75,9.25-11.25,9.25-8.2,0-11.65-6.3-11.65-13.65,0-6.8,3.45-13.65,11.65-13.65s11.6,7.25,11.35,14.5Zm16.7-2.65c-.15-4.75-3.1-9.2-8.2-9.2s-8,4.5-8.5,9.2Z" transform="translate(0 -28.96)" fill="#000054"/><path d="M728.1,43.71h3.15v4.45h.1c1.15-3.1,4.6-5.2,8.25-5.2,7.25,0,9.45,3.8,9.45,9.95v16.6H745.9V53.41c0-4.45-1.45-7.8-6.55-7.8s-8,3.8-8.1,8.85V69.51H728.1Z" transform="translate(0 -28.96)" fill="#000054"/><path d="M760,43.71h5.25v2.65H760v17.4c0,2.05.3,3.25,2.55,3.4a24.43,24.43,0,0,0,2.7-.15v2.7c-1,0-1.85.1-2.8.1-4.2,0-5.65-1.4-5.6-5.8V46.36h-4.5V43.71h4.5V36H760Z" transform="translate(0 -28.96)" fill="#000054"/><path d="M769.85,33.81H773v5h-3.15Zm0,9.9H773v25.8h-3.15Z" transform="translate(0 -28.96)" fill="#000054"/><path d="M797.25,51.81c-.85-3.85-3.2-6.2-7.3-6.2-6.05,0-9.05,5.5-9.05,11s3,11,9.05,11c3.9,0,7.1-3,7.5-7.35h3.15c-.85,6.2-4.9,10-10.65,10-7.9,0-12.2-6.25-12.2-13.65S782.05,43,790,43c5.5,0,9.75,2.95,10.45,8.85Z" transform="translate(0 -28.96)" fill="#000054"/><path d="M804.7,51.61c.3-6,4.55-8.65,10.45-8.65,4.55,0,9.5,1.4,9.5,8.3V65a1.68,1.68,0,0,0,1.85,1.9,3,3,0,0,0,1-.2v2.65a8.64,8.64,0,0,1-2,.2c-3.2,0-3.7-1.8-3.7-4.5h-.1c-2.2,3.35-4.45,5.25-9.4,5.25-4.75,0-8.65-2.35-8.65-7.55,0-7.25,7-7.5,13.85-8.3,2.6-.3,4-.65,4-3.5,0-4.25-3-5.3-6.75-5.3-3.9,0-6.8,1.8-6.9,6Zm16.8,3.8h-.1c-.4.75-1.8,1-2.65,1.15-5.35.95-12,.9-12,5.95,0,3.15,2.8,5.1,5.75,5.1,4.8,0,9-3,9-8.1Z" transform="translate(0 -28.96)" fill="#000054"/><path d="M836,43.71h5.25v2.65H836v17.4c0,2.05.3,3.25,2.55,3.4a24.43,24.43,0,0,0,2.7-.15v2.7c-1,0-1.85.1-2.8.1-4.2,0-5.65-1.4-5.6-5.8V46.36h-4.5V43.71h4.5V36H836Z" transform="translate(0 -28.96)" fill="#000054"/><path d="M847.6,57.46c0,4.6,2.45,10.15,8.5,10.15,4.6,0,7.1-2.7,8.1-6.6h3.15c-1.35,5.85-4.75,9.25-11.25,9.25-8.2,0-11.65-6.3-11.65-13.65,0-6.8,3.45-13.65,11.65-13.65s11.6,7.25,11.35,14.5Zm16.7-2.65c-.15-4.75-3.1-9.2-8.2-9.2s-8,4.5-8.5,9.2Z" transform="translate(0 -28.96)" fill="#000054"/><path d="M894.4,69.51h-2.9v-4.9h-.1c-1.35,3.35-5.45,5.65-9.2,5.65-7.85,0-11.6-6.35-11.6-13.65S874.35,43,882.2,43c3.85,0,7.6,1.95,8.95,5.65h.1V33.81h3.15Zm-12.2-1.9c6.7,0,9-5.65,9-11s-2.35-11-9-11c-6,0-8.45,5.65-8.45,11S876.2,67.61,882.2,67.61Z" transform="translate(0 -28.96)" fill="#000054"/><path d="M373,459.81a48.8,48.8,0,0,0-5.45,22.65,50.16,50.16,0,0,0,5.4,23h-5.9a44.26,44.26,0,0,1-6.6-22.5c0-7.45,2.2-16.8,6.6-23.15Z" transform="translate(0 -28.96)" fill="#000054"/><path d="M385.88,460.66h8.05l13.35,35.7h-8.15l-2.7-7.95H383.08l-2.8,7.95h-7.95Zm-.75,21.9h9.25l-4.5-13.1h-.1Z" transform="translate(0 -28.96)" fill="#000054"/><path d="M406.58,505.46a48.46,48.46,0,0,0,5.45-22.6,50.51,50.51,0,0,0-5.4-23.05h5.9a44.58,44.58,0,0,1,6.6,22.55c0,7.45-2.2,16.8-6.6,23.1Z" transform="translate(0 -28.96)" fill="#000054"/><path d="M447,467.26h-10.7v-6.6h29.25v6.6h-10.7v29.1H447Z" transform="translate(0 -28.96)" fill="#000054"/><path d="M499.93,482.86c0,9.65-5.7,14.35-15.25,14.35s-15.2-4.65-15.2-14.35v-22.2h7.85v22.2c0,3.9,1,7.75,7.35,7.75,5.6,0,7.4-2.45,7.4-7.75v-22.2h7.85Z" transform="translate(0 -28.96)" fill="#000054"/><path d="M506.68,460.66h7.8l14.9,23.95h.1V460.66h7.35v35.7H529l-14.85-23.9H514v23.9h-7.35Z" transform="translate(0 -28.96)" fill="#000054"/><path d="M543.73,460.66h7.8l14.9,23.95h.1V460.66h7.35v35.7H566l-14.85-23.9h-.1v23.9h-7.35Z" transform="translate(0 -28.96)" fill="#000054"/><path d="M580.78,460.66h26.7v6.6H588.63v7.65h17.3V481h-17.3v8.75h19.25v6.6h-27.1Z" transform="translate(0 -28.96)" fill="#000054"/><path d="M613.18,460.66H621v29.1h17.4v6.6H613.18Z" transform="translate(0 -28.96)" fill="#000054"/><path d="M642,479.66h15.05v6.1H642Z" transform="translate(0 -28.96)" fill="#000054"/><path d="M663.18,460.66h11.05l8.35,24.55h.1l7.9-24.55h11v35.7h-7.35v-25.3h-.1l-8.75,25.3h-6l-8.75-25.05h-.1v25.05h-7.35Z" transform="translate(0 -28.96)" fill="#000054"/><path d="M724.53,459.81c11.05,0,17.55,8.25,17.55,18.85,0,10.3-6.5,18.55-17.55,18.55S707,489,707,478.66C707,468.06,713.48,459.81,724.53,459.81Zm0,30.8c7.05,0,9.7-6,9.7-11.95,0-6.25-2.65-12.25-9.7-12.25s-9.7,6-9.7,12.25C714.83,484.61,717.48,490.61,724.53,490.61Z" transform="translate(0 -28.96)" fill="#000054"/><path d="M747.43,460.66h15.4c9.25,0,16.2,5.8,16.2,17.65,0,10.35-5.3,18.05-16.2,18.05h-15.4Zm7.85,29.1h7c4.55,0,8.9-2.8,8.9-10.7,0-7.2-2.5-11.8-10.3-11.8h-5.6Z" transform="translate(0 -28.96)" fill="#000054"/><path d="M784.48,460.66h26.7v6.6H792.33v7.65h17.3V481h-17.3v8.75h19.25v6.6h-27.1Z" transform="translate(0 -28.96)" fill="#000054"/><path d="M830.78,460.66h25.1v6.6H838.63v8.25h15v6.1h-15v14.75h-7.85Z" transform="translate(0 -28.96)" fill="#000054"/><path d="M876.42,459.81c11.06,0,17.56,8.25,17.56,18.85,0,10.3-6.5,18.55-17.56,18.55s-17.55-8.25-17.55-18.55C858.87,468.06,865.37,459.81,876.42,459.81Zm0,30.8c7.06,0,9.71-6,9.71-11.95,0-6.25-2.65-12.25-9.71-12.25s-9.7,6-9.7,12.25C866.72,484.61,869.38,490.61,876.42,490.61Z" transform="translate(0 -28.96)" fill="#000054"/><path d="M899.32,460.66h19.26c6.4,0,10.45,4.45,10.45,9.85,0,4.2-1.7,7.35-5.65,8.95v.1c3.85,1,5,4.75,5.2,8.35.15,2.25.1,6.45,1.5,8.45h-7.85c-1-2.25-.85-5.7-1.25-8.55-.55-3.75-2-5.4-6-5.4h-7.86v13.95h-7.85Zm7.85,16.15h8.61c3.5,0,5.4-1.5,5.4-5.1,0-3.45-1.9-4.95-5.4-4.95h-8.61Z" transform="translate(0 -28.96)" fill="#000054"/><path d="M935.42,460.66h11.05l8.36,24.55h.09l7.91-24.55h11v35.7h-7.35v-25.3h-.1l-8.76,25.3h-6l-8.76-25.05h-.1v25.05h-7.35Z" transform="translate(0 -28.96)" fill="#000054"/><path d="M990.52,460.66h8.06l13.35,35.7h-8.15l-2.7-7.95H987.72l-2.8,7.95H977Zm-.75,21.9H999l-4.5-13.1h-.1Z" transform="translate(0 -28.96)" fill="#000054"/><path d="M1022.92,467.26h-10.7v-6.6h29.25v6.6h-10.7v29.1h-7.85Z" transform="translate(0 -28.96)" fill="#000054"/><path d="M336.48,2257.28a48.8,48.8,0,0,0-5.45,22.65,50.23,50.23,0,0,0,5.4,23h-5.9a44.3,44.3,0,0,1-6.6-22.51c0-7.45,2.2-16.8,6.6-23.15Z" transform="translate(0 -28.96)" fill="#000054"/><path d="M339.58,2258.13h16.8c6.8,0,11.4,2.2,11.4,8.85a7.83,7.83,0,0,1-4.85,7.45c4.35,1.25,6.55,4.6,6.55,9.05,0,7.25-6.15,10.35-12.6,10.35h-17.3Zm7.85,14.45h7.95c2.75,0,4.8-1.25,4.8-4.25,0-3.4-2.6-4.1-5.4-4.1h-7.35Zm0,15.15h8.4c3.1,0,5.8-1,5.8-4.7s-2.3-5.1-5.65-5.1h-8.55Z" transform="translate(0 -28.96)" fill="#000054"/><path d="M371,2302.94a48.53,48.53,0,0,0,5.45-22.61,50.51,50.51,0,0,0-5.4-23h5.9a44.58,44.58,0,0,1,6.6,22.55c0,7.45-2.2,16.81-6.6,23.11Z" transform="translate(0 -28.96)" fill="#000054"/><path d="M403.48,2258.13h26.7v6.6H411.33v7.65h17.3v6.1h-17.3v8.75h19.25v6.6h-27.1Z" transform="translate(0 -28.96)" fill="#000054"/><path d="M444.63,2275.13l-11.5-17h9.1l7,11.4,7.25-11.4h8.6l-11.45,17,12.45,18.65h-9.35l-7.8-12.35L441,2293.83h-8.85Z" transform="translate(0 -28.96)" fill="#000054"/><path d="M479,2258.13h8l13.35,35.7h-8.15l-2.7-7.95H476.18l-2.8,7.95h-7.95Zm-.75,21.9h9.25l-4.5-13.1h-.1Z" transform="translate(0 -28.96)" fill="#000054"/><path d="M503.48,2258.13h11l8.35,24.55h.1l7.9-24.55h11v35.7h-7.35v-25.3h-.1l-8.75,25.3h-6.05l-8.75-25h-.1v25h-7.35Z" transform="translate(0 -28.96)" fill="#000054"/><path d="M548.83,2258.13h16.1c8.9,0,12.35,5.65,12.35,11.45S573.83,2281,564.93,2281h-8.25v12.8h-7.85Zm7.85,16.8h6.1c3.65,0,6.9-.8,6.9-5.35s-3.25-5.35-6.9-5.35h-6.1Z" transform="translate(0 -28.96)" fill="#000054"/><path d="M582.18,2258.13H590v29.1h17.4v6.6H582.18Z" transform="translate(0 -28.96)" fill="#000054"/><path d="M611.83,2258.13h26.7v6.6H619.68v7.65H637v6.1h-17.3v8.75h19.25v6.6h-27.1Z" transform="translate(0 -28.96)" fill="#000054"/><path d="M681.93,2270.13c-.5-3.55-3.9-6.25-7.8-6.25-7,0-9.7,6-9.7,12.25,0,5.95,2.65,11.95,9.7,11.95,4.8,0,7.5-3.3,8.1-8h7.6c-.8,8.9-7,14.6-15.7,14.6-11,0-17.56-8.25-17.56-18.55,0-10.6,6.51-18.85,17.56-18.85,7.85,0,14.45,4.6,15.4,12.85Z" transform="translate(0 -28.96)" fill="#000054"/><path d="M711.18,2257.28c11.05,0,17.55,8.25,17.55,18.85,0,10.3-6.5,18.55-17.55,18.55s-17.56-8.25-17.56-18.55C693.62,2265.53,700.13,2257.28,711.18,2257.28Zm0,30.8c7.05,0,9.7-6,9.7-11.95,0-6.25-2.65-12.25-9.7-12.25s-9.7,6-9.7,12.25C701.48,2282.08,704.13,2288.08,711.18,2288.08Z" transform="translate(0 -28.96)" fill="#000054"/><path d="M734.07,2258.13h7.81l14.9,23.95h.1v-23.95h7.35v35.7h-7.85l-14.85-23.9h-.1v23.9h-7.36Z" transform="translate(0 -28.96)" fill="#000054"/><path d="M771.13,2258.13h25.1v6.6H779V2273h15v6.1H779v14.75h-7.84Z" transform="translate(0 -28.96)" fill="#000054"/><path d="M800.77,2258.13h7.86v35.7h-7.86Z" transform="translate(0 -28.96)" fill="#000054"/><path d="M841.33,2289.78a12.09,12.09,0,0,1-9.8,4.9c-11.06,0-17.56-8.25-17.56-18.55,0-10.6,6.5-18.85,17.56-18.85,7.3,0,14.2,4.5,15.05,12.6h-7.5a7.32,7.32,0,0,0-7.55-6c-7.06,0-9.71,6-9.71,12.25,0,5.95,2.65,11.95,9.71,11.95,5.1,0,8.05-2.75,8.5-7.7h-7.9v-5.85h15v19.3h-5Z" transform="translate(0 -28.96)" fill="#000054"/><path d="M883.78,2280.33c0,9.65-5.71,14.35-15.26,14.35s-15.2-4.65-15.2-14.35v-22.2h7.85v22.2c0,3.9,1,7.75,7.35,7.75,5.61,0,7.4-2.45,7.4-7.75v-22.2h7.86Z" transform="translate(0 -28.96)" fill="#000054"/><path d="M890.52,2258.13h19.25c6.4,0,10.45,4.45,10.45,9.85,0,4.2-1.69,7.35-5.65,8.95v.1c3.85,1,5,4.75,5.21,8.35.14,2.25.1,6.45,1.5,8.45h-7.86c-.95-2.25-.85-5.7-1.25-8.55-.55-3.75-2-5.4-5.95-5.4h-7.85v13.95h-7.85Zm7.85,16.15H907c3.5,0,5.41-1.5,5.41-5.1,0-3.45-1.91-4.95-5.41-4.95h-8.6Z" transform="translate(0 -28.96)" fill="#000054"/><path d="M936.37,2258.13h8l13.35,35.7h-8.15l-2.7-7.95H933.57l-2.8,7.95h-7.95Zm-.75,21.9h9.25l-4.5-13.1h-.1Z" transform="translate(0 -28.96)" fill="#000054"/><path d="M968.77,2264.73h-10.7v-6.6h29.25v6.6h-10.7v29.1h-7.85Z" transform="translate(0 -28.96)" fill="#000054"/><path d="M991.42,2258.13h7.85v35.7h-7.85Z" transform="translate(0 -28.96)" fill="#000054"/><path d="M1022.17,2257.28c11.05,0,17.55,8.25,17.55,18.85,0,10.3-6.5,18.55-17.55,18.55s-17.55-8.25-17.55-18.55C1004.62,2265.53,1011.12,2257.28,1022.17,2257.28Zm0,30.8c7.05,0,9.7-6,9.7-11.95,0-6.25-2.65-12.25-9.7-12.25s-9.7,6-9.7,12.25C1012.47,2282.08,1015.12,2288.08,1022.17,2288.08Z" transform="translate(0 -28.96)" fill="#000054"/><path d="M1045.07,2258.13h7.8l14.9,23.95h.1v-23.95h7.35v35.7h-7.85l-14.85-23.9h-.1v23.9h-7.35Z" transform="translate(0 -28.96)" fill="#000054"/><path d="M702.37,133.83H727v2.9H705.77v12.9h19.9v2.9h-19.9v14.1h21.5v2.9h-24.9Z" transform="translate(0 -28.96)" fill="#000054"/><path d="M731.37,143.73h3.15v4.45h.1c1.15-3.1,4.6-5.2,8.25-5.2,7.25,0,9.45,3.8,9.45,10v16.6h-3.15v-16.1c0-4.45-1.45-7.8-6.55-7.8s-8,3.8-8.1,8.85v15.05h-3.15Z" transform="translate(0 -28.96)" fill="#000054"/><path d="M776.47,151.83c-.85-3.85-3.2-6.2-7.3-6.2-6,0-9.06,5.5-9.06,11s3,11,9.06,11c3.9,0,7.1-3,7.5-7.35h3.15c-.85,6.2-4.9,10-10.65,10-7.91,0-12.21-6.25-12.21-13.65S761.26,143,769.17,143c5.5,0,9.75,3,10.45,8.85Z" transform="translate(0 -28.96)" fill="#000054"/><path d="M784.21,143.73h2.91v6.05h.09a9.55,9.55,0,0,1,9.76-6.4v3.15c-5.7-.3-9.6,3.9-9.6,9.25v13.75h-3.16Z" transform="translate(0 -28.96)" fill="#000054"/><path d="M797.06,143.73h3.35l8.5,22,8-22H820l-11.2,29.75c-1.8,4.35-2.85,5.6-6.8,5.6a8.16,8.16,0,0,1-2.4-.25v-2.65a10.92,10.92,0,0,0,2.15.25c2.8,0,3.45-1.65,4.5-4.05l1.1-2.95Z" transform="translate(0 -28.96)" fill="#000054"/><path d="M823.11,143.73H826v4.9h.1a9.66,9.66,0,0,1,9.2-5.65c7.86,0,11.61,6.35,11.61,13.65s-3.75,13.65-11.61,13.65c-3.85,0-7.6-1.95-8.95-5.65h-.1v14.45h-3.15Zm12.2,1.9c-6.95,0-9,5.15-9,11,0,5.35,2.35,11,9,11,6,0,8.45-5.65,8.45-11S841.31,145.63,835.31,145.63Z" transform="translate(0 -28.96)" fill="#000054"/><path d="M856.81,143.73h5.25v2.65h-5.25v17.4c0,2.05.3,3.25,2.55,3.4a24.43,24.43,0,0,0,2.7-.15v2.7c-.95,0-1.85.1-2.8.1-4.2,0-5.65-1.4-5.6-5.8V146.38h-4.5v-2.65h4.5V136h3.15Z" transform="translate(0 -28.96)" fill="#000054"/><path d="M868.46,157.48c0,4.6,2.45,10.15,8.5,10.15,4.6,0,7.1-2.7,8.1-6.6h3.15c-1.35,5.85-4.75,9.25-11.25,9.25-8.2,0-11.65-6.3-11.65-13.65,0-6.8,3.45-13.65,11.65-13.65s11.6,7.25,11.35,14.5Zm16.7-2.65c-.15-4.75-3.1-9.2-8.2-9.2s-8,4.5-8.5,9.2Z" transform="translate(0 -28.96)" fill="#000054"/><path d="M915.26,169.53h-2.9v-4.9h-.1c-1.35,3.35-5.45,5.65-9.2,5.65-7.85,0-11.6-6.35-11.6-13.65S895.21,143,903.06,143c3.85,0,7.6,2,9,5.65h.1v-14.8h3.15Zm-12.2-1.9c6.7,0,9.05-5.65,9.05-11s-2.35-11-9.05-11c-6,0-8.45,5.65-8.45,11S897.06,167.63,903.06,167.63Z" transform="translate(0 -28.96)" fill="#000054"/><path d="M37.29,261.31h3.8l20.8,30.2H62v-30.2h3.4V297h-3.8l-20.8-30.2h-.1V297h-3.4Z" transform="translate(0 -28.96)" fill="#000054"/><path d="M73.79,285c0,4.6,2.45,10.15,8.5,10.15,4.6,0,7.1-2.7,8.1-6.6h3.15c-1.35,5.85-4.75,9.25-11.25,9.25-8.2,0-11.65-6.3-11.65-13.65,0-6.8,3.45-13.65,11.65-13.65s11.6,7.25,11.35,14.5Zm16.7-2.65c-.15-4.75-3.1-9.2-8.2-9.2s-8,4.5-8.5,9.2Z" transform="translate(0 -28.96)" fill="#000054"/><path d="M95.29,271.21h3.35l6.6,22.1h.1l6.3-22.1h3.55l6.3,22.1h.1l6.6-22.1h3.35l-8.3,25.8h-3.45l-6.35-21.7h-.1L107,297h-3.45Z" transform="translate(0 -28.96)" fill="#000054"/><path d="M149.69,261.31h3.4V297h-3.4Z" transform="translate(0 -28.96)" fill="#000054"/><path d="M160.54,261.31h15.85c6.4,0,10.6,3.75,10.6,10.2s-4.2,10.2-10.6,10.2H163.94V297h-3.4Zm3.4,17.5h11.7c4.7,0,8-2.4,8-7.3s-3.25-7.3-8-7.3h-11.7Z" transform="translate(0 -28.96)" fill="#000054"/><path d="M78.39,321.31h3.15v14.35h.1c1.15-3.1,4.6-5.2,8.25-5.2,7.25,0,9.45,3.8,9.45,10V357H96.19v-16.1c0-4.45-1.45-7.8-6.55-7.8s-8,3.8-8.1,8.85V357H78.39Z" transform="translate(0 -28.96)" fill="#000054"/><path d="M128,357h-2.9v-4.9H125c-1.35,3.35-5.45,5.65-9.2,5.65-7.85,0-11.6-6.35-11.6-13.65s3.75-13.65,11.6-13.65c3.85,0,7.6,2,8.95,5.65h.1v-14.8H128Zm-12.2-1.9c6.7,0,9-5.65,9-11s-2.35-11-9-11c-6,0-8.45,5.65-8.45,11S109.79,355.11,115.79,355.11Z" transform="translate(0 -28.96)" fill="#000054"/><path d="M134,331.21h2.9v6.05h.1a9.53,9.53,0,0,1,9.75-6.4V334c-5.7-.3-9.6,3.9-9.6,9.25V357H134Z" transform="translate(0 -28.96)" fill="#000054"/><path d="M26.39,908.55h3.4v22.1c-.05,8.3,3.9,11.45,10.45,11.45s10.55-3.15,10.5-11.45v-22.1h3.4V931.4c0,7.35-4,13.6-13.9,13.6s-13.85-6.25-13.85-13.6Z" transform="translate(0 -28.96)" fill="#000054"/><path d="M75.84,926c-.15-3.9-3.15-5.65-6.75-5.65-2.8,0-6.1,1.1-6.1,4.45,0,2.8,3.2,3.8,5.35,4.35l4.2,1c3.6.55,7.35,2.65,7.35,7.15,0,5.6-5.55,7.75-10.35,7.75-6,0-10.1-2.8-10.6-9.1h3.15c.25,4.25,3.4,6.45,7.6,6.45,3,0,7-1.3,7-4.9,0-3-2.8-4-5.65-4.7l-4-.9c-4.1-1.1-7.2-2.5-7.2-6.9,0-5.25,5.15-7.25,9.7-7.25,5.15,0,9.25,2.7,9.45,8.3Z" transform="translate(0 -28.96)" fill="#000054"/><path d="M86.29,932.2c0,4.6,2.45,10.15,8.5,10.15,4.6,0,7.1-2.7,8.1-6.6H106c-1.35,5.85-4.75,9.25-11.25,9.25-8.2,0-11.65-6.3-11.65-13.65,0-6.8,3.45-13.65,11.65-13.65s11.6,7.25,11.35,14.5Zm16.7-2.65c-.15-4.75-3.1-9.2-8.2-9.2s-8,4.5-8.5,9.2Z" transform="translate(0 -28.96)" fill="#000054"/><path d="M110.38,918.45h2.91v6h.1a9.53,9.53,0,0,1,9.75-6.4v3.15c-5.7-.3-9.6,3.9-9.6,9.25v13.75h-3.16Z" transform="translate(0 -28.96)" fill="#000054"/><path d="M155.49,926c-.15-3.9-3.16-5.65-6.76-5.65-2.8,0-6.1,1.1-6.1,4.45,0,2.8,3.2,3.8,5.35,4.35l4.21,1c3.6.55,7.35,2.65,7.35,7.15,0,5.6-5.55,7.75-10.35,7.75-6,0-10.11-2.8-10.61-9.1h3.15c.25,4.25,3.4,6.45,7.6,6.45,3,0,7.06-1.3,7.06-4.9,0-3-2.81-4-5.66-4.7l-4-.9c-4.1-1.1-7.2-2.5-7.2-6.9,0-5.25,5.15-7.25,9.71-7.25,5.15,0,9.25,2.7,9.45,8.3Z" transform="translate(0 -28.96)" fill="#000054"/><path d="M161.18,918.45h3.35l8.5,22,7.95-22h3.15l-11.2,29.75c-1.8,4.35-2.85,5.6-6.8,5.6a8.16,8.16,0,0,1-2.4-.25V950.9a10.92,10.92,0,0,0,2.15.25c2.8,0,3.45-1.65,4.5-4l1.1-3Z" transform="translate(0 -28.96)" fill="#000054"/><path d="M202.68,926c-.15-3.9-3.15-5.65-6.75-5.65-2.8,0-6.1,1.1-6.1,4.45,0,2.8,3.2,3.8,5.35,4.35l4.2,1c3.6.55,7.35,2.65,7.35,7.15,0,5.6-5.55,7.75-10.35,7.75-6,0-10.1-2.8-10.6-9.1h3.15c.25,4.25,3.4,6.45,7.6,6.45,2.95,0,7.05-1.3,7.05-4.9,0-3-2.8-4-5.65-4.7l-4.05-.9c-4.1-1.1-7.2-2.5-7.2-6.9,0-5.25,5.15-7.25,9.7-7.25,5.15,0,9.25,2.7,9.45,8.3Z" transform="translate(0 -28.96)" fill="#000054"/><path d="M216.28,918.45h5.25v2.65h-5.25v17.4c0,2,.3,3.25,2.55,3.4a24.43,24.43,0,0,0,2.7-.15v2.7c-.95,0-1.85.1-2.8.1-4.2,0-5.65-1.4-5.6-5.8V921.1h-4.5v-2.65h4.5V910.7h3.15Z" transform="translate(0 -28.96)" fill="#000054"/><path d="M227.93,932.2c0,4.6,2.45,10.15,8.5,10.15,4.6,0,7.1-2.7,8.1-6.6h3.15c-1.35,5.85-4.75,9.25-11.25,9.25-8.2,0-11.65-6.3-11.65-13.65,0-6.8,3.45-13.65,11.65-13.65S248,925,247.78,932.2Zm16.7-2.65c-.15-4.75-3.1-9.2-8.2-9.2s-8,4.5-8.5,9.2Z" transform="translate(0 -28.96)" fill="#000054"/><path d="M252,918.45h2.9v4.35h.15a9,9,0,0,1,8.45-5.1c3.4,0,6.45,1.65,7.4,5a8.72,8.72,0,0,1,8.2-5c5.65,0,8.55,2.95,8.55,9v17.5h-3.15V926.9c0-4.25-1.6-6.55-6.1-6.55-5.45,0-7,4.5-7,9.3v14.6h-3.15v-17.5c.05-3.5-1.4-6.4-5.4-6.4-5.45,0-7.65,4.1-7.7,9.5v14.4H252Z" transform="translate(0 -28.96)" fill="#000054"/><path d="M43.39,978.45h3.35l6.6,22.1h.1l6.3-22.1h3.55l6.3,22.1h.1l6.6-22.1h3.35l-8.3,25.8H67.89l-6.35-21.7h-.1l-6.3,21.7H51.69Z" transform="translate(0 -28.96)" fill="#000054"/><path d="M83.09,968.55h3.15v5.05H83.09Zm0,9.9h3.15v25.8H83.09Z" transform="translate(0 -28.96)" fill="#000054"/><path d="M97.29,978.45h5.25v2.65H97.29v17.4c0,2,.3,3.25,2.55,3.4a24.43,24.43,0,0,0,2.7-.15v2.7c-1,0-1.85.1-2.8.1-4.2,0-5.65-1.4-5.6-5.8V981.1h-4.5v-2.65h4.5V970.7h3.15Z" transform="translate(0 -28.96)" fill="#000054"/><path d="M107,968.55h3.16V982.9h.09c1.16-3.1,4.61-5.2,8.26-5.2,7.25,0,9.45,3.8,9.45,9.95v16.6h-3.15v-16.1c0-4.45-1.45-7.8-6.55-7.8s-8,3.8-8.1,8.85v15H107Z" transform="translate(0 -28.96)" fill="#000054"/><path d="M148.68,968.55h3.4v35.7h-3.4Z" transform="translate(0 -28.96)" fill="#000054"/><path d="M159.53,968.55h15.85c6.4,0,10.6,3.75,10.6,10.2s-4.2,10.2-10.6,10.2H162.93v15.3h-3.4Zm3.4,17.5h11.7c4.7,0,8-2.4,8-7.3s-3.25-7.3-8-7.3h-11.7Z" transform="translate(0 -28.96)" fill="#000054"/><path d="M192.63,992.5c-.15,7.35,5.15,9.6,11.65,9.6,3.75,0,9.45-2.05,9.45-7.25,0-4.05-4-5.65-7.35-6.45l-7.95-1.95c-4.2-1.05-8.05-3.05-8.05-8.6,0-3.5,2.25-10.05,12.3-10.05,7,0,13.25,3.8,13.2,11.1h-3.4c-.2-5.45-4.7-8.2-9.75-8.2-4.65,0-8.95,1.8-8.95,7.1,0,3.35,2.5,4.75,5.4,5.45l8.7,2.15c5.05,1.35,9.25,3.55,9.25,9.4,0,2.45-1,10.2-13.65,10.2-8.45,0-14.65-3.8-14.25-12.5Z" transform="translate(0 -28.96)" fill="#000054"/><path d="M223.78,992.2c.05,4.6,2.45,10.15,8.5,10.15,4.6,0,7.1-2.7,8.1-6.6h3.15c-1.35,5.85-4.75,9.25-11.25,9.25-8.2,0-11.65-6.3-11.65-13.65,0-6.8,3.45-13.65,11.65-13.65s11.6,7.25,11.35,14.5Zm16.7-2.65c-.15-4.75-3.1-9.2-8.2-9.2s-8,4.5-8.5,9.2Z" transform="translate(0 -28.96)" fill="#000054"/><path d="M266.08,986.55c-.85-3.85-3.2-6.2-7.3-6.2-6,0-9,5.5-9,11s3,11,9,11c3.9,0,7.1-3.05,7.5-7.35h3.15c-.85,6.2-4.9,10-10.65,10-7.9,0-12.2-6.25-12.2-13.65s4.3-13.65,12.2-13.65c5.5,0,9.75,2.95,10.45,8.85Z" transform="translate(0 -28.96)" fill="#000054"/><path d="M448.78,1114.65h3.8l20.8,30.2h.1v-30.2h3.4v35.7h-3.8l-20.8-30.2h-.1v30.2h-3.4Z" transform="translate(0 -28.96)" fill="#000054"/><path d="M485.28,1138.3c.05,4.6,2.45,10.15,8.5,10.15,4.6,0,7.1-2.7,8.1-6.6H505c-1.35,5.85-4.75,9.25-11.25,9.25-8.2,0-11.65-6.3-11.65-13.65,0-6.8,3.45-13.65,11.65-13.65s11.6,7.25,11.35,14.5Zm16.7-2.65c-.15-4.75-3.1-9.2-8.2-9.2s-8,4.5-8.5,9.2Z" transform="translate(0 -28.96)" fill="#000054"/><path d="M514.38,1124.55h5.25v2.65h-5.25v17.4c0,2.05.3,3.25,2.55,3.4a24.43,24.43,0,0,0,2.7-.15v2.7c-1,0-1.85.1-2.8.1-4.2,0-5.65-1.4-5.6-5.8V1127.2h-4.5v-2.65h4.5v-7.75h3.15Z" transform="translate(0 -28.96)" fill="#000054"/><path d="M521.57,1124.55h3.35l6.61,22.1h.1l6.3-22.1h3.55l6.3,22.1h.1l6.6-22.1h3.35l-8.3,25.8h-3.45l-6.35-21.7h-.1l-6.3,21.7h-3.45Z" transform="translate(0 -28.96)" fill="#000054"/><path d="M584.33,1137.45c0,7.4-4.3,13.65-12.2,13.65s-12.21-6.25-12.21-13.65,4.31-13.65,12.21-13.65S584.33,1130.05,584.33,1137.45Zm-21.26,0c0,5.5,3,11,9.06,11s9-5.5,9-11-3-11-9-11S563.07,1132,563.07,1137.45Z" transform="translate(0 -28.96)" fill="#000054"/><path d="M589,1124.55h2.9v6h.1a9.55,9.55,0,0,1,9.76-6.4v3.15c-5.7-.3-9.61,3.9-9.61,9.25v13.75H589Z" transform="translate(0 -28.96)" fill="#000054"/><path d="M604.77,1114.65h3.15v22.4l14.31-12.5h4.2l-11,9.55,11.76,16.25h-3.95l-10.21-14-5.1,4.25v9.8h-3.15Z" transform="translate(0 -28.96)" fill="#000054"/><path d="M629.82,1114.65H633v5h-3.15Zm0,9.9H633v25.8h-3.15Z" transform="translate(0 -28.96)" fill="#000054"/><path d="M639,1124.55h3.15V1129h.1c1.15-3.1,4.6-5.2,8.25-5.2,7.26,0,9.46,3.8,9.46,10v16.6h-3.15v-16.1c0-4.45-1.45-7.8-6.56-7.8s-8,3.8-8.1,8.85v15H639Z" transform="translate(0 -28.96)" fill="#000054"/><path d="M687.67,1148.25c0,7.7-3,12.4-11.45,12.4-5.15,0-10.25-2.3-10.7-7.8h3.15c.7,3.8,4.05,5.15,7.55,5.15,5.8,0,8.3-3.45,8.3-9.75v-3.5h-.1a8.94,8.94,0,0,1-8.2,5.3c-8.25,0-11.65-5.9-11.65-13.25,0-7.1,4.2-13,11.65-13a9.08,9.08,0,0,1,8.2,5.2h.1v-4.45h3.15Zm-3.15-11.1c0-5.05-2.35-10.7-8.3-10.7s-8.5,5.35-8.5,10.7c0,5.2,2.7,10.25,8.5,10.25C681.67,1147.4,684.52,1142.4,684.52,1137.15Z" transform="translate(0 -28.96)" fill="#000054"/><path d="M730.28,1150.35h-2.9v-4.9h-.11c-1.35,3.35-5.45,5.65-9.2,5.65-7.85,0-11.6-6.35-11.6-13.65s3.75-13.65,11.6-13.65c3.85,0,7.6,2,8.95,5.65h.11v-14.8h3.15Zm-12.21-1.9c6.7,0,9.06-5.65,9.06-11s-2.36-11-9.06-11c-6,0-8.45,5.65-8.45,11S712.07,1148.45,718.07,1148.45Z" transform="translate(0 -28.96)" fill="#000054"/><path d="M738.12,1138.3c0,4.6,2.45,10.15,8.5,10.15,4.6,0,7.1-2.7,8.1-6.6h3.15c-1.35,5.85-4.75,9.25-11.25,9.25-8.2,0-11.65-6.3-11.65-13.65,0-6.8,3.45-13.65,11.65-13.65s11.6,7.25,11.35,14.5Zm16.7-2.65c-.15-4.75-3.1-9.2-8.2-9.2s-8,4.5-8.5,9.2Z" transform="translate(0 -28.96)" fill="#000054"/><path d="M759.32,1124.55h3.5l8.1,22.65h.1l8-22.65h3.25l-9.65,25.8h-3.35Z" transform="translate(0 -28.96)" fill="#000054"/><path d="M785.42,1114.65h3.15v5h-3.15Zm0,9.9h3.15v25.8h-3.15Z" transform="translate(0 -28.96)" fill="#000054"/><path d="M812.82,1132.65c-.85-3.85-3.2-6.2-7.3-6.2-6,0-9,5.5-9,11s3,11,9,11c3.9,0,7.1-3,7.5-7.35h3.15c-.85,6.2-4.9,10-10.65,10-7.9,0-12.2-6.25-12.2-13.65s4.3-13.65,12.2-13.65c5.5,0,9.75,3,10.45,8.85Z" transform="translate(0 -28.96)" fill="#000054"/><path d="M822.42,1138.3c.05,4.6,2.45,10.15,8.5,10.15,4.6,0,7.1-2.7,8.1-6.6h3.15c-1.35,5.85-4.75,9.25-11.25,9.25-8.2,0-11.65-6.3-11.65-13.65,0-6.8,3.45-13.65,11.65-13.65s11.6,7.25,11.35,14.5Zm16.7-2.65c-.15-4.75-3.1-9.2-8.2-9.2s-8,4.5-8.5,9.2Z" transform="translate(0 -28.96)" fill="#000054"/><path d="M445.63,1184.55H449l6.6,22.1h.1l6.3-22.1h3.55l6.3,22.1h.1l6.6-22.1h3.35l-8.3,25.8h-3.45l-6.35-21.7h-.1l-6.3,21.7h-3.45Z" transform="translate(0 -28.96)" fill="#000054"/><path d="M485.33,1174.65h3.15v5h-3.15Zm0,9.9h3.15v25.8h-3.15Z" transform="translate(0 -28.96)" fill="#000054"/><path d="M499.53,1184.55h5.25v2.65h-5.25v17.4c0,2.05.3,3.25,2.55,3.4a24.43,24.43,0,0,0,2.7-.15v2.7c-.95,0-1.85.1-2.8.1-4.2,0-5.65-1.4-5.6-5.8V1187.2h-4.5v-2.65h4.5v-7.75h3.15Z" transform="translate(0 -28.96)" fill="#000054"/><path d="M509.27,1174.65h3.16V1189h.09c1.16-3.1,4.61-5.2,8.26-5.2,7.25,0,9.45,3.8,9.45,10v16.6h-3.15v-16.1c0-4.45-1.45-7.8-6.55-7.8s-8,3.8-8.1,8.85v15h-3.16Z" transform="translate(0 -28.96)" fill="#000054"/><path d="M550.92,1174.65h3.4v35.7h-3.4Z" transform="translate(0 -28.96)" fill="#000054"/><path d="M561.77,1174.65h15.85c6.4,0,10.61,3.75,10.61,10.2s-4.21,10.2-10.61,10.2H565.17v15.3h-3.4Zm3.4,17.5h11.7c4.7,0,8-2.4,8-7.3s-3.26-7.3-8-7.3h-11.7Z" transform="translate(0 -28.96)" fill="#000054"/><path d="M594.87,1198.6c-.15,7.35,5.15,9.6,11.65,9.6,3.75,0,9.45-2,9.45-7.25,0-4-4.05-5.65-7.35-6.45l-8-2c-4.2-1-8-3-8-8.6,0-3.5,2.25-10,12.3-10,7.05,0,13.25,3.8,13.2,11.1h-3.4c-.2-5.45-4.7-8.2-9.75-8.2-4.65,0-9,1.8-9,7.1,0,3.35,2.5,4.75,5.4,5.45l8.7,2.15c5,1.35,9.25,3.55,9.25,9.4,0,2.45-1,10.2-13.65,10.2-8.45,0-14.65-3.8-14.25-12.5Z" transform="translate(0 -28.96)" fill="#000054"/><path d="M626,1198.3c.05,4.6,2.45,10.15,8.5,10.15,4.6,0,7.1-2.7,8.1-6.6h3.15c-1.35,5.85-4.75,9.25-11.25,9.25-8.2,0-11.65-6.3-11.65-13.65,0-6.8,3.45-13.65,11.65-13.65s11.6,7.25,11.35,14.5Zm16.7-2.65c-.15-4.75-3.1-9.2-8.2-9.2s-8,4.5-8.5,9.2Z" transform="translate(0 -28.96)" fill="#000054"/><path d="M668.32,1192.65c-.85-3.85-3.2-6.2-7.3-6.2-6,0-9,5.5-9,11s3,11,9,11c3.9,0,7.1-3,7.5-7.35h3.15c-.85,6.2-4.9,10-10.65,10-7.9,0-12.2-6.25-12.2-13.65s4.3-13.65,12.2-13.65c5.5,0,9.75,3,10.45,8.85Z" transform="translate(0 -28.96)" fill="#000054"/><path d="M448.83,1396.77h24.65v2.9H452.23v12.9h19.9v2.9h-19.9v14.11h21.5v2.9h-24.9Z" transform="translate(0 -28.96)" fill="#000054"/><path d="M482.88,1406.67h5.25v2.65h-5.25v17.41c0,2,.3,3.25,2.55,3.4a24.43,24.43,0,0,0,2.7-.15v2.7c-.95,0-1.85.1-2.8.1-4.2,0-5.65-1.4-5.6-5.8v-17.66h-4.5v-2.65h4.5v-7.75h3.15Z" transform="translate(0 -28.96)" fill="#000054"/><path d="M492.62,1396.77h3.15v14.35h.1c1.15-3.1,4.61-5.2,8.26-5.2,7.25,0,9.45,3.8,9.45,9.95v16.61h-3.15v-16.11c0-4.45-1.45-7.8-6.55-7.8s-8,3.8-8.11,8.86v15h-3.15Z" transform="translate(0 -28.96)" fill="#000054"/><path d="M521.37,1420.43c0,4.6,2.45,10.15,8.5,10.15,4.61,0,7.11-2.7,8.11-6.6h3.15c-1.35,5.85-4.75,9.25-11.26,9.25-8.2,0-11.65-6.3-11.65-13.66,0-6.8,3.45-13.65,11.65-13.65s11.61,7.25,11.36,14.51Zm16.71-2.65c-.15-4.76-3.1-9.21-8.21-9.21s-8,4.5-8.5,9.21Z" transform="translate(0 -28.96)" fill="#000054"/><path d="M545.47,1406.67h2.9v6h.1a9.53,9.53,0,0,1,9.75-6.4v3.15c-5.7-.3-9.6,3.9-9.6,9.25v13.76h-3.15Z" transform="translate(0 -28.96)" fill="#000054"/><path d="M561.17,1406.67h3.15v4.45h.1c1.15-3.1,4.6-5.2,8.25-5.2,7.25,0,9.45,3.8,9.45,9.95v16.61H579v-16.11c0-4.45-1.45-7.8-6.55-7.8s-8,3.8-8.1,8.86v15h-3.15Z" transform="translate(0 -28.96)" fill="#000054"/><path d="M589.92,1420.43c.05,4.6,2.45,10.15,8.5,10.15,4.6,0,7.1-2.7,8.1-6.6h3.15c-1.35,5.85-4.75,9.25-11.25,9.25-8.2,0-11.65-6.3-11.65-13.66,0-6.8,3.45-13.65,11.65-13.65s11.6,7.25,11.35,14.51Zm16.7-2.65c-.15-4.76-3.1-9.21-8.2-9.21s-8,4.5-8.5,9.21Z" transform="translate(0 -28.96)" fill="#000054"/><path d="M619,1406.67h5.25v2.65H619v17.41c0,2,.3,3.25,2.55,3.4a24.43,24.43,0,0,0,2.7-.15v2.7c-.95,0-1.85.1-2.8.1-4.2,0-5.65-1.4-5.6-5.8v-17.66h-4.5v-2.65h4.5v-7.75H619Z" transform="translate(0 -28.96)" fill="#000054"/><path d="M658.17,1414.22c-.15-3.9-3.15-5.65-6.75-5.65-2.8,0-6.1,1.1-6.1,4.45,0,2.8,3.2,3.8,5.35,4.35l4.2,1c3.6.55,7.35,2.66,7.35,7.16,0,5.6-5.55,7.75-10.35,7.75-6,0-10.1-2.8-10.6-9.1h3.15c.25,4.25,3.4,6.45,7.6,6.45,3,0,7.05-1.3,7.05-4.9,0-3-2.8-4-5.65-4.7l-4-.91c-4.1-1.1-7.2-2.5-7.2-6.9,0-5.25,5.15-7.25,9.7-7.25,5.15,0,9.25,2.7,9.45,8.3Z" transform="translate(0 -28.96)" fill="#000054"/><path d="M664.17,1406.67h3.35l6.6,22.11h.1l6.3-22.11h3.55l6.3,22.11h.1l6.6-22.11h3.35l-8.3,25.81h-3.45l-6.35-21.71h-.1l-6.3,21.71h-3.45Z" transform="translate(0 -28.96)" fill="#000054"/><path d="M703.87,1396.77H707v5h-3.15Zm0,9.9H707v25.81h-3.15Z" transform="translate(0 -28.96)" fill="#000054"/><path d="M718.07,1406.67h5.25v2.65h-5.25v17.41c0,2,.3,3.25,2.55,3.4a24.43,24.43,0,0,0,2.7-.15v2.7c-1,0-1.85.1-2.8.1-4.2,0-5.65-1.4-5.6-5.8v-17.66h-4.5v-2.65h4.5v-7.75h3.15Z" transform="translate(0 -28.96)" fill="#000054"/><path d="M746.07,1414.77c-.85-3.85-3.2-6.2-7.3-6.2-6,0-9,5.5-9,11s3,11,9,11c3.9,0,7.1-3,7.5-7.35h3.15c-.85,6.2-4.9,10-10.65,10-7.9,0-12.2-6.25-12.2-13.66s4.3-13.65,12.2-13.65c5.5,0,9.75,2.95,10.45,8.85Z" transform="translate(0 -28.96)" fill="#000054"/><path d="M753.77,1396.77h3.15v14.35h.1c1.15-3.1,4.6-5.2,8.25-5.2,7.25,0,9.45,3.8,9.45,9.95v16.61h-3.15v-16.11c0-4.45-1.45-7.8-6.55-7.8s-8,3.8-8.1,8.86v15h-3.15Z" transform="translate(0 -28.96)" fill="#000054"/><path d="M967.61,723.85h15.85c6.4,0,10.6,3.75,10.6,10.2s-4.2,10.2-10.6,10.2H971v15.3h-3.4Zm3.4,17.5h11.7c4.7,0,7.95-2.4,7.95-7.3s-3.25-7.3-7.95-7.3H971Z" transform="translate(0 -28.96)" fill="#000054"/><path d="M1019.41,759.55h-2.9V754.9h-.1a9.6,9.6,0,0,1-8.9,5.4c-6.5,0-9-3.8-9-9.8V733.75h3.15v16.8c.15,4.65,1.9,7.1,6.9,7.1,5.4,0,7.75-5.1,7.75-10.35V733.75h3.15Z" transform="translate(0 -28.96)" fill="#000054"/><path d="M1025.36,723.85h3.15v14.8h.1c1.35-3.7,5.1-5.65,9-5.65,7.85,0,11.6,6.35,11.6,13.65s-3.75,13.65-11.6,13.65a9.66,9.66,0,0,1-9.2-5.65h-.1v4.9h-2.9Zm12.2,11.8c-6.7,0-9,5.65-9,11s2.35,11,9,11c6,0,8.45-5.65,8.45-11S1043.56,735.65,1037.56,735.65Z" transform="translate(0 -28.96)" fill="#000054"/><path d="M1054.11,723.85h3.15v35.7h-3.15Z" transform="translate(0 -28.96)" fill="#000054"/><path d="M1063.36,723.85h3.15v5h-3.15Zm0,9.9h3.15v25.8h-3.15Z" transform="translate(0 -28.96)" fill="#000054"/><path d="M1090.76,741.85c-.85-3.85-3.2-6.2-7.3-6.2-6,0-9,5.5-9,11s3,11,9,11c3.9,0,7.1-3,7.5-7.35h3.15c-.85,6.2-4.9,10-10.65,10-7.9,0-12.2-6.25-12.2-13.65s4.3-13.65,12.2-13.65c5.5,0,9.75,3,10.45,8.85Z" transform="translate(0 -28.96)" fill="#000054"/><path d="M1119,769.1c-4.45-7.35-7-14.15-7-22.85a42.66,42.66,0,0,1,7-23.15h2.5c-4.45,7.1-6.4,15.5-6.4,24.3a44,44,0,0,0,6.4,21.7Z" transform="translate(0 -28.96)" fill="#000054"/><path d="M1125.31,723.85h3.4v35.7h-3.4Z" transform="translate(0 -28.96)" fill="#000054"/><path d="M1135.51,733.75h3.15v4.45h.1c1.15-3.1,4.6-5.2,8.25-5.2,7.25,0,9.45,3.8,9.45,10v16.6h-3.15v-16.1c0-4.45-1.45-7.8-6.55-7.8s-8,3.8-8.1,8.85v15h-3.15Z" transform="translate(0 -28.96)" fill="#000054"/><path d="M1167.41,733.75h5.25v2.65h-5.25v17.4c0,2.05.3,3.25,2.55,3.4a24.43,24.43,0,0,0,2.7-.15v2.7c-1,0-1.85.1-2.8.1-4.2,0-5.65-1.4-5.6-5.8V736.4h-4.5v-2.65h4.5V726h3.15Z" transform="translate(0 -28.96)" fill="#000054"/><path d="M1179.05,747.5c.06,4.6,2.45,10.15,8.51,10.15,4.6,0,7.1-2.7,8.1-6.6h3.15c-1.35,5.85-4.75,9.25-11.25,9.25-8.2,0-11.65-6.3-11.65-13.65,0-6.8,3.45-13.65,11.65-13.65s11.6,7.25,11.35,14.5Zm16.71-2.65c-.15-4.75-3.1-9.2-8.2-9.2s-8,4.5-8.51,9.2Z" transform="translate(0 -28.96)" fill="#000054"/><path d="M1203.16,733.75h2.9v6h.1a9.53,9.53,0,0,1,9.75-6.4v3.15c-5.7-.3-9.6,3.9-9.6,9.25v13.75h-3.15Z" transform="translate(0 -28.96)" fill="#000054"/><path d="M1218.85,733.75H1222v4.45h.1c1.15-3.1,4.61-5.2,8.25-5.2,7.26,0,9.46,3.8,9.46,10v16.6h-3.15v-16.1c0-4.45-1.45-7.8-6.56-7.8s-8,3.8-8.1,8.85v15h-3.15Z" transform="translate(0 -28.96)" fill="#000054"/><path d="M1247.6,747.5c.05,4.6,2.45,10.15,8.5,10.15,4.61,0,7.11-2.7,8.11-6.6h3.15c-1.36,5.85-4.76,9.25-11.26,9.25-8.2,0-11.65-6.3-11.65-13.65,0-6.8,3.45-13.65,11.65-13.65s11.61,7.25,11.36,14.5Zm16.7-2.65c-.14-4.75-3.09-9.2-8.2-9.2s-8,4.5-8.5,9.2Z" transform="translate(0 -28.96)" fill="#000054"/><path d="M1276.7,733.75H1282v2.65h-5.25v17.4c0,2.05.3,3.25,2.55,3.4a24.43,24.43,0,0,0,2.7-.15v2.7c-1,0-1.85.1-2.8.1-4.2,0-5.65-1.4-5.6-5.8V736.4h-4.5v-2.65h4.5V726h3.15Z" transform="translate(0 -28.96)" fill="#000054"/><path d="M1286,723.1c4.45,7.35,7,14.15,7,22.85a42.66,42.66,0,0,1-7,23.15h-2.5c4.45-7.1,6.4-15.5,6.4-24.3a44,44,0,0,0-6.4-21.7Z" transform="translate(0 -28.96)" fill="#000054"/><path d="M1335.55,746.65c0,7.4-4.3,13.65-12.2,13.65s-12.2-6.25-12.2-13.65,4.3-13.65,12.2-13.65S1335.55,739.25,1335.55,746.65Zm-21.25,0c0,5.5,3,11,9,11s9.05-5.5,9.05-11-3-11-9.05-11S1314.3,741.15,1314.3,746.65Z" transform="translate(0 -28.96)" fill="#000054"/><path d="M1340.25,733.75h2.9v6h.1a9.53,9.53,0,0,1,9.75-6.4v3.15c-5.7-.3-9.6,3.9-9.6,9.25v13.75h-3.15Z" transform="translate(0 -28.96)" fill="#000054"/><path d="M1003.13,793.75h2.9v4.9h.1a9.66,9.66,0,0,1,9.2-5.65c7.85,0,11.6,6.35,11.6,13.65s-3.75,13.65-11.6,13.65c-3.85,0-7.6-1.95-9-5.65h-.1V829.1h-3.15Zm12.2,1.9c-7,0-9.05,5.15-9.05,11,0,5.35,2.35,11,9.05,11,6,0,8.45-5.65,8.45-11S1021.33,795.65,1015.33,795.65Z" transform="translate(0 -28.96)" fill="#000054"/><path d="M1031.83,793.75h2.9v6h.1a9.53,9.53,0,0,1,9.75-6.4v3.15c-5.7-.3-9.6,3.9-9.6,9.25v13.75h-3.15Z" transform="translate(0 -28.96)" fill="#000054"/><path d="M1047.63,783.85h3.15v5h-3.15Zm0,9.9h3.15v25.8h-3.15Z" transform="translate(0 -28.96)" fill="#000054"/><path d="M1053.93,793.75h3.5l8.1,22.65h.1l8-22.65h3.25l-9.65,25.8h-3.35Z" transform="translate(0 -28.96)" fill="#000054"/><path d="M1079.68,801.65c.3-6,4.55-8.65,10.45-8.65,4.55,0,9.5,1.4,9.5,8.3V815a1.68,1.68,0,0,0,1.85,1.9,3,3,0,0,0,1-.2v2.65a8.64,8.64,0,0,1-2,.2c-3.2,0-3.7-1.8-3.7-4.5h-.1c-2.2,3.35-4.45,5.25-9.4,5.25-4.75,0-8.65-2.35-8.65-7.55,0-7.25,7.05-7.5,13.85-8.3,2.6-.3,4-.65,4-3.5,0-4.25-3-5.3-6.75-5.3-3.9,0-6.8,1.8-6.9,6Zm16.8,3.8h-.1c-.4.75-1.8,1-2.65,1.15-5.35.95-12,.9-12,5.95,0,3.15,2.8,5.1,5.75,5.1,4.8,0,9-3,9-8.1Z" transform="translate(0 -28.96)" fill="#000054"/><path d="M1110.93,793.75h5.25v2.65h-5.25v17.4c0,2.05.3,3.25,2.55,3.4a24.43,24.43,0,0,0,2.7-.15v2.7c-1,0-1.85.1-2.8.1-4.2,0-5.65-1.4-5.6-5.8V796.4h-4.5v-2.65h4.5V786h3.15Z" transform="translate(0 -28.96)" fill="#000054"/><path d="M1122.58,807.5c.05,4.6,2.45,10.15,8.5,10.15,4.6,0,7.1-2.7,8.1-6.6h3.15c-1.35,5.85-4.75,9.25-11.25,9.25-8.2,0-11.65-6.3-11.65-13.65,0-6.8,3.45-13.65,11.65-13.65s11.6,7.25,11.35,14.5Zm16.7-2.65c-.15-4.75-3.1-9.2-8.2-9.2s-8,4.5-8.5,9.2Z" transform="translate(0 -28.96)" fill="#000054"/><path d="M1160.53,793.75h3.15v4.45h.1c1.15-3.1,4.6-5.2,8.25-5.2,7.25,0,9.45,3.8,9.45,10v16.6h-3.15v-16.1c0-4.45-1.45-7.8-6.55-7.8s-8,3.8-8.1,8.85v15h-3.15Z" transform="translate(0 -28.96)" fill="#000054"/><path d="M1189.28,807.5c0,4.6,2.45,10.15,8.5,10.15,4.6,0,7.1-2.7,8.1-6.6H1209c-1.35,5.85-4.75,9.25-11.25,9.25-8.2,0-11.65-6.3-11.65-13.65,0-6.8,3.45-13.65,11.65-13.65s11.6,7.25,11.35,14.5Zm16.7-2.65c-.15-4.75-3.1-9.2-8.2-9.2s-8,4.5-8.5,9.2Z" transform="translate(0 -28.96)" fill="#000054"/><path d="M1218.38,793.75h5.25v2.65h-5.25v17.4c0,2.05.3,3.25,2.55,3.4a24.43,24.43,0,0,0,2.7-.15v2.7c-1,0-1.85.1-2.8.1-4.2,0-5.65-1.4-5.6-5.8V796.4h-4.5v-2.65h4.5V786h3.15Z" transform="translate(0 -28.96)" fill="#000054"/><path d="M1225.58,793.75h3.35l6.6,22.1h.1l6.3-22.1h3.55l6.3,22.1h.1l6.6-22.1h3.35l-8.3,25.8h-3.45l-6.35-21.7h-.1l-6.3,21.7h-3.45Z" transform="translate(0 -28.96)" fill="#000054"/><path d="M1288.33,806.65c0,7.4-4.3,13.65-12.2,13.65s-12.2-6.25-12.2-13.65,4.3-13.65,12.2-13.65S1288.33,799.25,1288.33,806.65Zm-21.25,0c0,5.5,3,11,9.05,11s9-5.5,9-11-3-11-9-11S1267.08,801.15,1267.08,806.65Z" transform="translate(0 -28.96)" fill="#000054"/><path d="M1293,793.75h2.9v6h.1a9.53,9.53,0,0,1,9.75-6.4v3.15c-5.7-.3-9.6,3.9-9.6,9.25v13.75H1293Z" transform="translate(0 -28.96)" fill="#000054"/><path d="M1308.78,783.85h3.15v22.4l14.3-12.5h4.2l-11,9.55,11.75,16.25h-4l-10.2-14-5.1,4.25v9.8h-3.15Z" transform="translate(0 -28.96)" fill="#000054"/><path d="M1043.27,2060.69h3.65l11.6,31.95h.1l11.5-31.95h3.6l-13.25,35.7h-4Z" transform="translate(0 -28.96)" fill="#000054"/><path d="M1076.32,2060.69h3.15v5h-3.15Zm0,9.9h3.15v25.8h-3.15Z" transform="translate(0 -28.96)" fill="#000054"/><path d="M1085.52,2070.59h2.9v6h.1a9.53,9.53,0,0,1,9.75-6.4v3.15c-5.7-.3-9.6,3.9-9.6,9.25v13.75h-3.15Z" transform="translate(0 -28.96)" fill="#000054"/><path d="M1106.27,2070.59h5.25v2.65h-5.25v17.4c0,2.05.3,3.25,2.55,3.4a24.43,24.43,0,0,0,2.7-.15v2.7c-1,0-1.85.1-2.8.1-4.2,0-5.65-1.4-5.6-5.8v-17.65h-4.5v-2.65h4.5v-7.75h3.15Z" transform="translate(0 -28.96)" fill="#000054"/><path d="M1137,2096.39h-2.9v-4.65h-.1a9.6,9.6,0,0,1-8.9,5.4c-6.5,0-9-3.8-9-9.8v-16.75h3.15v16.8c.15,4.65,1.9,7.1,6.9,7.1,5.4,0,7.75-5.1,7.75-10.35v-13.55H1137Z" transform="translate(0 -28.96)" fill="#000054"/><path d="M1142.62,2078.49c.3-6,4.55-8.65,10.45-8.65,4.55,0,9.5,1.4,9.5,8.3v13.7a1.68,1.68,0,0,0,1.85,1.9,3,3,0,0,0,1-.2v2.65a8.64,8.64,0,0,1-2.05.2c-3.2,0-3.7-1.8-3.7-4.5h-.1c-2.2,3.35-4.45,5.25-9.4,5.25-4.75,0-8.65-2.35-8.65-7.55,0-7.25,7-7.5,13.85-8.3,2.6-.3,4.05-.65,4.05-3.5,0-4.25-3.05-5.3-6.75-5.3-3.9,0-6.8,1.8-6.9,6Zm16.8,3.8h-.1c-.4.75-1.8,1-2.65,1.15-5.35.95-12,.9-12,5.95,0,3.15,2.8,5.1,5.75,5.1,4.8,0,9-3,9-8.1Z" transform="translate(0 -28.96)" fill="#000054"/><path d="M1168.92,2060.69h3.15v35.7h-3.15Z" transform="translate(0 -28.96)" fill="#000054"/><path d="M1197,2070.59h5.25v2.65H1197v17.4c0,2.05.3,3.25,2.55,3.4a24.43,24.43,0,0,0,2.7-.15v2.7c-1,0-1.85.1-2.8.1-4.2,0-5.65-1.4-5.6-5.8v-17.65h-4.5v-2.65h4.5v-7.75H1197Z" transform="translate(0 -28.96)" fill="#000054"/><path d="M1227.72,2096.39h-2.9v-4.65h-.1a9.6,9.6,0,0,1-8.9,5.4c-6.5,0-9-3.8-9-9.8v-16.75h3.15v16.8c.15,4.65,1.9,7.1,6.9,7.1,5.4,0,7.75-5.1,7.75-10.35v-13.55h3.15Z" transform="translate(0 -28.96)" fill="#000054"/><path d="M1233.62,2070.59h3.15V2075h.1c1.15-3.1,4.6-5.2,8.25-5.2,7.25,0,9.45,3.8,9.45,9.95v16.6h-3.15v-16.1c0-4.45-1.45-7.8-6.55-7.8s-8,3.8-8.1,8.85v15h-3.15Z" transform="translate(0 -28.96)" fill="#000054"/><path d="M1260.47,2070.59h3.15V2075h.1c1.15-3.1,4.6-5.2,8.25-5.2,7.25,0,9.45,3.8,9.45,9.95v16.6h-3.15v-16.1c0-4.45-1.45-7.8-6.55-7.8s-8,3.8-8.1,8.85v15h-3.15Z" transform="translate(0 -28.96)" fill="#000054"/><path d="M1289.22,2084.34c0,4.6,2.45,10.15,8.5,10.15,4.6,0,7.1-2.7,8.1-6.6H1309c-1.35,5.85-4.75,9.25-11.25,9.25-8.2,0-11.65-6.3-11.65-13.65,0-6.8,3.45-13.65,11.65-13.65s11.6,7.25,11.35,14.5Zm16.7-2.65c-.15-4.75-3.1-9.2-8.2-9.2s-8,4.5-8.5,9.2Z" transform="translate(0 -28.96)" fill="#000054"/><path d="M1313.37,2060.69h3.15v35.7h-3.15Z" transform="translate(0 -28.96)" fill="#000054"/><path d="M1324.42,2076.69v-5.3h4.2v5.3Zm0,19.7v-5.3h4.2v5.3Z" transform="translate(0 -28.96)" fill="#000054"/><path d="M984.52,2130.59h2.9v4.9h.1a9.66,9.66,0,0,1,9.2-5.65c7.85,0,11.6,6.35,11.6,13.65s-3.75,13.65-11.6,13.65c-3.85,0-7.6-1.95-9-5.65h-.1v14.45h-3.15Zm12.2,1.9c-7,0-9.05,5.15-9.05,11,0,5.35,2.35,11,9.05,11,6,0,8.45-5.65,8.45-11S1002.72,2132.49,996.72,2132.49Z" transform="translate(0 -28.96)" fill="#000054"/><path d="M1013.22,2130.59h2.9v6h.1a9.53,9.53,0,0,1,9.75-6.4v3.15c-5.7-.3-9.6,3.9-9.6,9.25v13.75h-3.15Z" transform="translate(0 -28.96)" fill="#000054"/><path d="M1052.07,2143.49c0,7.4-4.3,13.65-12.2,13.65s-12.2-6.25-12.2-13.65,4.3-13.65,12.2-13.65S1052.07,2136.09,1052.07,2143.49Zm-21.25,0c0,5.5,3,11,9,11s9.05-5.5,9.05-11-3-11-9.05-11S1030.82,2138,1030.82,2143.49Z" transform="translate(0 -28.96)" fill="#000054"/><path d="M1061.77,2130.59H1067v2.65h-5.25v17.4c0,2.05.3,3.25,2.55,3.4a24.43,24.43,0,0,0,2.7-.15v2.7c-1,0-1.85.1-2.8.1-4.2,0-5.65-1.4-5.6-5.8v-17.65h-4.5v-2.65h4.5v-7.75h3.15Z" transform="translate(0 -28.96)" fill="#000054"/><path d="M1073.42,2144.34c0,4.6,2.45,10.15,8.5,10.15,4.6,0,7.1-2.7,8.1-6.6h3.15c-1.35,5.85-4.75,9.25-11.25,9.25-8.2,0-11.65-6.3-11.65-13.65,0-6.8,3.45-13.65,11.65-13.65s11.6,7.25,11.35,14.5Zm16.7-2.65c-.15-4.75-3.1-9.2-8.2-9.2s-8,4.5-8.5,9.2Z" transform="translate(0 -28.96)" fill="#000054"/><path d="M1115.72,2138.69c-.85-3.85-3.2-6.2-7.3-6.2-6.05,0-9.05,5.5-9.05,11s3,11,9.05,11c3.9,0,7.1-3,7.5-7.35h3.15c-.85,6.2-4.9,10-10.65,10-7.9,0-12.2-6.25-12.2-13.65s4.3-13.65,12.2-13.65c5.5,0,9.75,2.95,10.45,8.85Z" transform="translate(0 -28.96)" fill="#000054"/><path d="M1128.47,2130.59h5.25v2.65h-5.25v17.4c0,2.05.3,3.25,2.55,3.4a24.43,24.43,0,0,0,2.7-.15v2.7c-1,0-1.85.1-2.8.1-4.2,0-5.65-1.4-5.6-5.8v-17.65h-4.5v-2.65h4.5v-7.75h3.15Z" transform="translate(0 -28.96)" fill="#000054"/><path d="M1140.12,2144.34c.05,4.6,2.45,10.15,8.5,10.15,4.6,0,7.1-2.7,8.1-6.6h3.15c-1.35,5.85-4.75,9.25-11.25,9.25-8.2,0-11.65-6.3-11.65-13.65,0-6.8,3.45-13.65,11.65-13.65s11.6,7.25,11.35,14.5Zm16.7-2.65c-.15-4.75-3.1-9.2-8.2-9.2s-8,4.5-8.5,9.2Z" transform="translate(0 -28.96)" fill="#000054"/><path d="M1186.92,2156.39H1184v-4.9h-.1c-1.35,3.35-5.45,5.65-9.2,5.65-7.85,0-11.6-6.35-11.6-13.65s3.75-13.65,11.6-13.65c3.85,0,7.6,1.95,9,5.65h.1v-14.8h3.15Zm-12.2-1.9c6.7,0,9-5.65,9-11s-2.35-11-9-11c-6,0-8.45,5.65-8.45,11S1168.72,2154.49,1174.72,2154.49Z" transform="translate(0 -28.96)" fill="#000054"/><path d="M1206.82,2120.69H1210v14.8h.1c1.35-3.7,5.1-5.65,9-5.65,7.85,0,11.6,6.35,11.6,13.65s-3.75,13.65-11.6,13.65a9.66,9.66,0,0,1-9.2-5.65h-.1v4.9h-2.9Zm12.2,11.8c-6.7,0-9,5.65-9,11s2.35,11,9,11c6,0,8.45-5.65,8.45-11S1225,2132.49,1219,2132.49Z" transform="translate(0 -28.96)" fill="#000054"/><path d="M1232.62,2130.59H1236l8.5,22,8-22h3.15l-11.2,29.75c-1.8,4.35-2.85,5.6-6.8,5.6a8.16,8.16,0,0,1-2.4-.25V2163a10.92,10.92,0,0,0,2.15.25c2.8,0,3.45-1.65,4.5-4.05l1.1-2.95Z" transform="translate(0 -28.96)" fill="#000054"/><path d="M1273.42,2120.69h3.4v35.7h-3.4Z" transform="translate(0 -28.96)" fill="#000054"/><path d="M1284.27,2120.69h15.85c6.4,0,10.6,3.75,10.6,10.2s-4.2,10.2-10.6,10.2h-12.45v15.3h-3.4Zm3.4,17.5h11.7c4.7,0,8-2.4,8-7.3s-3.25-7.3-8-7.3h-11.7Z" transform="translate(0 -28.96)" fill="#000054"/><path d="M1317.37,2144.64c-.15,7.35,5.15,9.6,11.65,9.6,3.75,0,9.45-2,9.45-7.25,0-4-4-5.65-7.35-6.45l-7.95-1.95c-4.2-1.05-8.05-3.05-8.05-8.6,0-3.5,2.25-10,12.3-10,7,0,13.25,3.8,13.2,11.1h-3.4c-.2-5.45-4.7-8.2-9.75-8.2-4.65,0-9,1.8-9,7.1,0,3.35,2.5,4.75,5.4,5.45l8.7,2.15c5.05,1.35,9.25,3.55,9.25,9.4,0,2.45-1,10.2-13.65,10.2-8.45,0-14.65-3.8-14.25-12.5Z" transform="translate(0 -28.96)" fill="#000054"/><path d="M1348.52,2144.34c0,4.6,2.45,10.15,8.5,10.15,4.6,0,7.1-2.7,8.1-6.6h3.15c-1.35,5.85-4.75,9.25-11.25,9.25-8.2,0-11.65-6.3-11.65-13.65,0-6.8,3.45-13.65,11.65-13.65s11.6,7.25,11.35,14.5Zm16.7-2.65c-.15-4.75-3.1-9.2-8.2-9.2s-8,4.5-8.5,9.2Z" transform="translate(0 -28.96)" fill="#000054"/><path d="M1390.82,2138.69c-.85-3.85-3.2-6.2-7.3-6.2-6,0-9,5.5-9,11s3,11,9,11c3.9,0,7.1-3,7.5-7.35h3.15c-.85,6.2-4.9,10-10.65,10-7.9,0-12.2-6.25-12.2-13.65s4.3-13.65,12.2-13.65c5.5,0,9.75,2.95,10.45,8.85Z" transform="translate(0 -28.96)" fill="#000054"/><path d="M616.8,2060.69h3.4v35.7h-3.4Z" transform="translate(0 -28.96)" fill="#000054"/><path d="M627.65,2060.69H643.5c6.4,0,10.6,3.75,10.6,10.2s-4.2,10.2-10.6,10.2H631.05v15.3h-3.4Zm3.4,17.5h11.7c4.7,0,8-2.4,8-7.3s-3.25-7.3-8-7.3h-11.7Z" transform="translate(0 -28.96)" fill="#000054"/><path d="M677.45,2070.59h5.25v2.65h-5.25v17.4c0,2.05.3,3.25,2.55,3.4a24.43,24.43,0,0,0,2.7-.15v2.7c-1,0-1.85.1-2.8.1-4.2,0-5.65-1.4-5.6-5.8v-17.65h-4.5v-2.65h4.5v-7.75h3.15Z" transform="translate(0 -28.96)" fill="#000054"/><path d="M687.25,2070.59h2.9v6h.1a9.53,9.53,0,0,1,9.75-6.4v3.15c-5.7-.3-9.6,3.9-9.6,9.25v13.75h-3.15Z" transform="translate(0 -28.96)" fill="#000054"/><path d="M702.7,2078.49c.3-6,4.55-8.65,10.45-8.65,4.55,0,9.5,1.4,9.5,8.3v13.7a1.68,1.68,0,0,0,1.85,1.9,3,3,0,0,0,1-.2v2.65a8.64,8.64,0,0,1-2,.2c-3.2,0-3.7-1.8-3.7-4.5h-.1c-2.2,3.35-4.45,5.25-9.4,5.25-4.75,0-8.65-2.35-8.65-7.55,0-7.25,7-7.5,13.85-8.3,2.6-.3,4-.65,4-3.5,0-4.25-3-5.3-6.75-5.3-3.9,0-6.8,1.8-6.9,6Zm16.8,3.8h-.1c-.4.75-1.8,1-2.65,1.15-5.35.95-12,.9-12,5.95,0,3.15,2.8,5.1,5.75,5.1,4.8,0,9-3,9-8.1Z" transform="translate(0 -28.96)" fill="#000054"/><path d="M738.9,2073.24h-5.1v23.15h-3.15v-23.15h-4.4v-2.65h4.4v-2.35c0-4.45,1.2-7.55,6.25-7.55a16.58,16.58,0,0,1,2.65.2v2.7a12.91,12.91,0,0,0-2.3-.25c-3.5,0-3.4,2.2-3.45,5v2.25h5.1Z" transform="translate(0 -28.96)" fill="#000054"/><path d="M743.6,2073.24h-4.4v-2.65h4.4v-2.35c-.05-4.45,1.2-7.55,6.25-7.55a16.58,16.58,0,0,1,2.65.2v2.7a12.91,12.91,0,0,0-2.3-.25c-3.5,0-3.4,2.2-3.45,5v2.25h5.1v2.65h-5.1v23.15H743.6Zm11.3-12.55h3.15v5H754.9Zm0,9.9h3.15v25.8H754.9Z" transform="translate(0 -28.96)" fill="#000054"/><path d="M782.3,2078.69c-.85-3.85-3.2-6.2-7.3-6.2-6,0-9,5.5-9,11s3,11,9,11c3.9,0,7.1-3,7.5-7.35h3.15c-.85,6.2-4.9,10-10.65,10-7.9,0-12.2-6.25-12.2-13.65s4.3-13.65,12.2-13.65c5.5,0,9.75,2.95,10.45,8.85Z" transform="translate(0 -28.96)" fill="#000054"/><path d="M496,2130.59h2.9v4.9h.1a9.66,9.66,0,0,1,9.2-5.65c7.85,0,11.6,6.35,11.6,13.65s-3.75,13.65-11.6,13.65c-3.85,0-7.6-1.95-8.95-5.65h-.1v14.45H496Zm12.2,1.9c-6.95,0-9.05,5.15-9.05,11,0,5.35,2.35,11,9.05,11,6,0,8.45-5.65,8.45-11S514.18,2132.49,508.18,2132.49Z" transform="translate(0 -28.96)" fill="#000054"/><path d="M524.68,2130.59h2.9v6h.1a9.53,9.53,0,0,1,9.75-6.4v3.15c-5.7-.3-9.6,3.9-9.6,9.25v13.75h-3.15Z" transform="translate(0 -28.96)" fill="#000054"/><path d="M563.53,2143.49c0,7.4-4.3,13.65-12.2,13.65s-12.2-6.25-12.2-13.65,4.3-13.65,12.2-13.65S563.53,2136.09,563.53,2143.49Zm-21.25,0c0,5.5,3,11,9.05,11s9-5.5,9-11-3-11-9-11S542.28,2138,542.28,2143.49Z" transform="translate(0 -28.96)" fill="#000054"/><path d="M573.23,2130.59h5.25v2.65h-5.25v17.4c0,2.05.3,3.25,2.55,3.4a24.43,24.43,0,0,0,2.7-.15v2.7c-1,0-1.85.1-2.8.1-4.2,0-5.65-1.4-5.6-5.8v-17.65h-4.5v-2.65h4.5v-7.75h3.15Z" transform="translate(0 -28.96)" fill="#000054"/><path d="M584.88,2144.34c0,4.6,2.45,10.15,8.5,10.15,4.6,0,7.1-2.7,8.1-6.6h3.15c-1.35,5.85-4.75,9.25-11.25,9.25-8.2,0-11.65-6.3-11.65-13.65,0-6.8,3.45-13.65,11.65-13.65s11.6,7.25,11.35,14.5Zm16.7-2.65c-.15-4.75-3.1-9.2-8.2-9.2s-8,4.5-8.5,9.2Z" transform="translate(0 -28.96)" fill="#000054"/><path d="M627.18,2138.69c-.85-3.85-3.2-6.2-7.3-6.2-6,0-9,5.5-9,11s3,11,9,11c3.9,0,7.1-3,7.5-7.35h3.15c-.85,6.2-4.9,10-10.65,10-7.9,0-12.2-6.25-12.2-13.65s4.3-13.65,12.2-13.65c5.5,0,9.75,2.95,10.45,8.85Z" transform="translate(0 -28.96)" fill="#000054"/><path d="M639.93,2130.59h5.25v2.65h-5.25v17.4c0,2.05.3,3.25,2.55,3.4a24.43,24.43,0,0,0,2.7-.15v2.7c-.95,0-1.85.1-2.8.1-4.2,0-5.65-1.4-5.6-5.8v-17.65h-4.5v-2.65h4.5v-7.75h3.15Z" transform="translate(0 -28.96)" fill="#000054"/><path d="M651.58,2144.34c0,4.6,2.45,10.15,8.5,10.15,4.6,0,7.1-2.7,8.1-6.6h3.15c-1.35,5.85-4.75,9.25-11.25,9.25-8.2,0-11.65-6.3-11.65-13.65,0-6.8,3.45-13.65,11.65-13.65s11.6,7.25,11.35,14.5Zm16.7-2.65c-.15-4.75-3.1-9.2-8.2-9.2s-8,4.5-8.5,9.2Z" transform="translate(0 -28.96)" fill="#000054"/><path d="M698.38,2156.39h-2.9v-4.9h-.1c-1.35,3.35-5.45,5.65-9.2,5.65-7.85,0-11.6-6.35-11.6-13.65s3.75-13.65,11.6-13.65c3.85,0,7.6,1.95,9,5.65h.1v-14.8h3.15Zm-12.2-1.9c6.7,0,9.05-5.65,9.05-11s-2.35-11-9.05-11c-6,0-8.45,5.65-8.45,11S680.18,2154.49,686.18,2154.49Z" transform="translate(0 -28.96)" fill="#000054"/><path d="M718.27,2120.69h3.15v14.8h.11c1.35-3.7,5.1-5.65,9-5.65,7.85,0,11.6,6.35,11.6,13.65s-3.75,13.65-11.6,13.65a9.66,9.66,0,0,1-9.2-5.65h-.11v4.9h-2.9Zm12.21,11.8c-6.7,0-9.06,5.65-9.06,11s2.36,11,9.06,11c6,0,8.45-5.65,8.45-11S736.48,2132.49,730.48,2132.49Z" transform="translate(0 -28.96)" fill="#000054"/><path d="M744.07,2130.59h3.35l8.5,22,8-22H767l-11.2,29.75c-1.8,4.35-2.86,5.6-6.81,5.6a8.08,8.08,0,0,1-2.39-.25V2163a10.83,10.83,0,0,0,2.14.25c2.81,0,3.45-1.65,4.51-4.05l1.1-2.95Z" transform="translate(0 -28.96)" fill="#000054"/><path d="M784.87,2120.69h3.4v35.7h-3.4Z" transform="translate(0 -28.96)" fill="#000054"/><path d="M795.72,2120.69h15.85c6.4,0,10.6,3.75,10.6,10.2s-4.2,10.2-10.6,10.2H799.12v15.3h-3.4Zm3.4,17.5h11.7c4.7,0,8-2.4,8-7.3s-3.26-7.3-8-7.3h-11.7Z" transform="translate(0 -28.96)" fill="#000054"/><path d="M828.82,2144.64c-.15,7.35,5.15,9.6,11.65,9.6,3.75,0,9.45-2,9.45-7.25,0-4-4-5.65-7.35-6.45l-8-1.95c-4.2-1.05-8-3.05-8-8.6,0-3.5,2.25-10,12.3-10,7,0,13.26,3.8,13.2,11.1h-3.4c-.2-5.45-4.7-8.2-9.75-8.2-4.65,0-8.95,1.8-8.95,7.1,0,3.35,2.5,4.75,5.4,5.45l8.7,2.15c5,1.35,9.25,3.55,9.25,9.4,0,2.45-1,10.2-13.65,10.2-8.45,0-14.65-3.8-14.25-12.5Z" transform="translate(0 -28.96)" fill="#000054"/><path d="M860,2144.34c0,4.6,2.45,10.15,8.5,10.15,4.6,0,7.1-2.7,8.1-6.6h3.15c-1.35,5.85-4.75,9.25-11.25,9.25-8.2,0-11.65-6.3-11.65-13.65,0-6.8,3.45-13.65,11.65-13.65s11.6,7.25,11.35,14.5Zm16.7-2.65c-.15-4.75-3.1-9.2-8.2-9.2s-8,4.5-8.5,9.2Z" transform="translate(0 -28.96)" fill="#000054"/><path d="M902.27,2138.69c-.85-3.85-3.2-6.2-7.3-6.2-6.05,0-9.05,5.5-9.05,11s3,11,9.05,11c3.9,0,7.1-3,7.5-7.35h3.15c-.85,6.2-4.9,10-10.65,10-7.9,0-12.2-6.25-12.2-13.65s4.3-13.65,12.2-13.65c5.5,0,9.75,2.95,10.45,8.85Z" transform="translate(0 -28.96)" fill="#000054"/><path d="M79.8,2060.69h3.4v22.1c0,8.3,3.9,11.45,10.45,11.45s10.56-3.15,10.51-11.45v-22.1h3.4v22.85c0,7.35-4,13.6-13.91,13.6s-13.85-6.25-13.85-13.6Z" transform="translate(0 -28.96)" fill="#000054"/><path d="M113.75,2070.59h3.15V2075h.1c1.15-3.1,4.6-5.2,8.25-5.2,7.25,0,9.46,3.8,9.46,9.95v16.6h-3.15v-16.1c0-4.45-1.46-7.8-6.56-7.8s-8,3.8-8.1,8.85v15h-3.15Z" transform="translate(0 -28.96)" fill="#000054"/><path d="M140.65,2070.59h2.9v4.9h.1a9.66,9.66,0,0,1,9.2-5.65c7.85,0,11.6,6.35,11.6,13.65s-3.75,13.65-11.6,13.65c-3.85,0-7.6-1.95-8.95-5.65h-.1v14.45h-3.15Zm12.2,1.9c-6.95,0-9,5.15-9,11,0,5.35,2.35,11,9,11,6,0,8.45-5.65,8.45-11S158.85,2072.49,152.85,2072.49Z" transform="translate(0 -28.96)" fill="#000054"/><path d="M169.35,2070.59h2.9v6h.1a9.53,9.53,0,0,1,9.75-6.4v3.15c-5.7-.3-9.6,3.9-9.6,9.25v13.75h-3.15Z" transform="translate(0 -28.96)" fill="#000054"/><path d="M208.2,2083.49c0,7.4-4.3,13.65-12.2,13.65s-12.2-6.25-12.2-13.65,4.3-13.65,12.2-13.65S208.2,2076.09,208.2,2083.49Zm-21.25,0c0,5.5,3,11,9.05,11s9.05-5.5,9.05-11-3-11-9.05-11S187,2078,187,2083.49Z" transform="translate(0 -28.96)" fill="#000054"/><path d="M217.9,2070.59h5.25v2.65H217.9v17.4c0,2.05.3,3.25,2.55,3.4a24.43,24.43,0,0,0,2.7-.15v2.7c-1,0-1.85.1-2.8.1-4.2,0-5.65-1.4-5.6-5.8v-17.65h-4.5v-2.65h4.5v-7.75h3.15Z" transform="translate(0 -28.96)" fill="#000054"/><path d="M229.55,2084.34c0,4.6,2.45,10.15,8.5,10.15,4.6,0,7.1-2.7,8.1-6.6h3.15c-1.35,5.85-4.75,9.25-11.25,9.25-8.2,0-11.65-6.3-11.65-13.65,0-6.8,3.45-13.65,11.65-13.65s11.6,7.25,11.35,14.5Zm16.7-2.65c-.15-4.75-3.1-9.2-8.2-9.2s-8,4.5-8.5,9.2Z" transform="translate(0 -28.96)" fill="#000054"/><path d="M271.85,2078.69c-.85-3.85-3.2-6.2-7.3-6.2-6.05,0-9.05,5.5-9.05,11s3,11,9.05,11c3.9,0,7.1-3,7.5-7.35h3.15c-.85,6.2-4.9,10-10.65,10-7.9,0-12.2-6.25-12.2-13.65s4.3-13.65,12.2-13.65c5.5,0,9.75,2.95,10.45,8.85Z" transform="translate(0 -28.96)" fill="#000054"/><path d="M284.6,2070.59h5.25v2.65H284.6v17.4c0,2.05.3,3.25,2.55,3.4a24.43,24.43,0,0,0,2.7-.15v2.7c-1,0-1.85.1-2.8.1-4.2,0-5.65-1.4-5.6-5.8v-17.65H277v-2.65h4.5v-7.75h3.15Z" transform="translate(0 -28.96)" fill="#000054"/><path d="M296.25,2084.34c.05,4.6,2.45,10.15,8.5,10.15,4.6,0,7.1-2.7,8.1-6.6H316c-1.35,5.85-4.75,9.25-11.25,9.25-8.2,0-11.65-6.3-11.65-13.65,0-6.8,3.45-13.65,11.65-13.65s11.6,7.25,11.35,14.5Zm16.7-2.65c-.15-4.75-3.1-9.2-8.2-9.2s-8,4.5-8.5,9.2Z" transform="translate(0 -28.96)" fill="#000054"/><path d="M343.05,2096.39h-2.9v-4.9h-.1c-1.35,3.35-5.45,5.65-9.2,5.65-7.85,0-11.6-6.35-11.6-13.65s3.75-13.65,11.6-13.65c3.85,0,7.6,1.95,8.95,5.65h.1v-14.8h3.15Zm-12.2-1.9c6.7,0,9-5.65,9-11s-2.35-11-9-11c-6,0-8.45,5.65-8.45,11S324.85,2094.49,330.85,2094.49Z" transform="translate(0 -28.96)" fill="#000054"/><path d="M128.1,2120.69h3.4v35.7h-3.4Z" transform="translate(0 -28.96)" fill="#000054"/><path d="M139,2120.69H154.8c6.4,0,10.6,3.75,10.6,10.2s-4.2,10.2-10.6,10.2H142.35v15.3H139Zm3.4,17.5h11.7c4.7,0,7.95-2.4,7.95-7.3s-3.25-7.3-7.95-7.3h-11.7Z" transform="translate(0 -28.96)" fill="#000054"/><path d="M188.75,2130.59H194v2.65h-5.25v17.4c0,2.05.3,3.25,2.55,3.4a24.43,24.43,0,0,0,2.7-.15v2.7c-.95,0-1.85.1-2.8.1-4.2,0-5.65-1.4-5.6-5.8v-17.65h-4.5v-2.65h4.5v-7.75h3.15Z" transform="translate(0 -28.96)" fill="#000054"/><path d="M198.55,2130.59h2.9v6h.1a9.53,9.53,0,0,1,9.75-6.4v3.15c-5.7-.3-9.6,3.9-9.6,9.25v13.75h-3.15Z" transform="translate(0 -28.96)" fill="#000054"/><path d="M214,2138.49c.3-6,4.55-8.65,10.45-8.65,4.55,0,9.5,1.4,9.5,8.3v13.7a1.68,1.68,0,0,0,1.85,1.9,3,3,0,0,0,1-.2v2.65a8.64,8.64,0,0,1-2.05.2c-3.2,0-3.7-1.8-3.7-4.5H231c-2.2,3.35-4.45,5.25-9.4,5.25-4.75,0-8.65-2.35-8.65-7.55,0-7.25,7-7.5,13.85-8.3,2.6-.3,4.05-.65,4.05-3.5,0-4.25-3.05-5.3-6.75-5.3-3.9,0-6.8,1.8-6.9,6Zm16.8,3.8h-.1c-.4.75-1.8,1-2.65,1.15-5.35.95-12,.9-12,5.95,0,3.15,2.8,5.1,5.75,5.1,4.8,0,9-3,9-8.1Z" transform="translate(0 -28.96)" fill="#000054"/><path d="M250.2,2133.24h-5.1v23.15H242v-23.15h-4.4v-2.65H242v-2.35c0-4.45,1.2-7.55,6.25-7.55a16.58,16.58,0,0,1,2.65.2v2.7a12.91,12.91,0,0,0-2.3-.25c-3.5,0-3.4,2.2-3.45,5v2.25h5.1Z" transform="translate(0 -28.96)" fill="#000054"/><path d="M254.9,2133.24h-4.4v-2.65h4.4v-2.35c-.05-4.45,1.2-7.55,6.25-7.55a16.58,16.58,0,0,1,2.65.2v2.7a12.91,12.91,0,0,0-2.3-.25c-3.5,0-3.4,2.2-3.45,5v2.25h5.1v2.65h-5.1v23.15H254.9Zm11.3-12.55h3.15v5H266.2Zm0,9.9h3.15v25.8H266.2Z" transform="translate(0 -28.96)" fill="#000054"/><path d="M293.6,2138.69c-.85-3.85-3.2-6.2-7.3-6.2-6.05,0-9.05,5.5-9.05,11s3,11,9.05,11c3.9,0,7.1-3,7.5-7.35H297c-.85,6.2-4.9,10-10.65,10-7.9,0-12.2-6.25-12.2-13.65s4.3-13.65,12.2-13.65c5.5,0,9.75,2.95,10.45,8.85Z" transform="translate(0 -28.96)" fill="#000054"/><path d="M604.06,1898.13h4.08v39.36h24V1941H604.06Z" transform="translate(0 -28.96)" fill="#000054"/><path d="M639,1926.51c.06,5.52,2.94,12.18,10.2,12.18,5.52,0,8.52-3.24,9.72-7.92h3.78c-1.62,7-5.7,11.1-13.5,11.1-9.84,0-14-7.56-14-16.38,0-8.16,4.14-16.38,14-16.38s13.92,8.7,13.62,17.4Zm20-3.18c-.18-5.7-3.72-11-9.84-11s-9.6,5.4-10.2,11Z" transform="translate(0 -28.96)" fill="#000054"/><path d="M695.26,1938.45c-.06,9.24-3.6,14.88-13.74,14.88-6.18,0-12.3-2.76-12.84-9.36h3.78c.84,4.56,4.86,6.18,9.06,6.18,7,0,10-4.14,10-11.7v-4.2h-.12a10.73,10.73,0,0,1-9.84,6.36c-9.9,0-14-7.08-14-15.9,0-8.52,5-15.6,14-15.6a10.89,10.89,0,0,1,9.84,6.24h.12V1910h3.78Zm-3.78-13.32c0-6.06-2.82-12.84-10-12.84s-10.2,6.42-10.2,12.84c0,6.24,3.24,12.3,10.2,12.3C688.06,1937.43,691.48,1931.43,691.48,1925.13Z" transform="translate(0 -28.96)" fill="#000054"/><path d="M705.88,1926.51c.06,5.52,2.94,12.18,10.2,12.18,5.52,0,8.52-3.24,9.72-7.92h3.78c-1.62,7-5.7,11.1-13.5,11.1-9.84,0-14-7.56-14-16.38,0-8.16,4.14-16.38,14-16.38s13.92,8.7,13.62,17.4Zm20-3.18c-.18-5.7-3.72-11-9.84-11s-9.6,5.4-10.2,11Z" transform="translate(0 -28.96)" fill="#000054"/><path d="M735.94,1910h3.78v5.34h.12c1.38-3.72,5.52-6.24,9.9-6.24,8.7,0,11.34,4.56,11.34,11.94V1941H757.3v-19.32c0-5.34-1.74-9.36-7.86-9.36s-9.6,4.56-9.72,10.62V1941h-3.78Z" transform="translate(0 -28.96)" fill="#000054"/><path d="M796.66,1941h-3.48v-5.88h-.12c-1.62,4-6.54,6.78-11,6.78-9.42,0-13.92-7.62-13.92-16.38s4.5-16.38,13.92-16.38c4.62,0,9.12,2.34,10.74,6.78h.12v-17.76h3.78ZM782,1938.69c8,0,10.86-6.78,10.86-13.2s-2.82-13.2-10.86-13.2c-7.2,0-10.14,6.78-10.14,13.2S774.82,1938.69,782,1938.69Z" transform="translate(0 -28.96)" fill="#000054"/><path d="M234.62,261.31h24.65v2.9H238v12.9h19.9V280H238v14.1h21.5V297h-24.9Z" transform="translate(0 -28.96)" fill="#000054"/><path d="M265.87,285.26c-.15,7.35,5.15,9.6,11.65,9.6,3.75,0,9.45-2.05,9.45-7.25,0-4.05-4.05-5.65-7.35-6.45l-7.95-2c-4.2-1-8.05-3-8.05-8.6,0-3.5,2.25-10.05,12.3-10.05,7.05,0,13.25,3.8,13.2,11.1h-3.4c-.2-5.45-4.7-8.2-9.75-8.2-4.65,0-9,1.8-9,7.1,0,3.35,2.5,4.75,5.4,5.45l8.7,2.15c5.05,1.35,9.25,3.55,9.25,9.4,0,2.45-1,10.2-13.65,10.2-8.45,0-14.65-3.8-14.25-12.5Z" transform="translate(0 -28.96)" fill="#000054"/><path d="M295.77,261.31h15.85c6.4,0,10.6,3.75,10.6,10.2s-4.2,10.2-10.6,10.2H299.17V297h-3.4Zm3.4,17.5h11.7c4.7,0,7.95-2.4,7.95-7.3s-3.25-7.3-7.95-7.3h-11.7Z" transform="translate(0 -28.96)" fill="#000054"/><path d="M244.65,321.31h3.15v14.35h.1c1.15-3.1,4.6-5.2,8.25-5.2,7.25,0,9.45,3.8,9.45,10V357h-3.15v-16.1c0-4.45-1.45-7.8-6.55-7.8s-8,3.8-8.1,8.85V357h-3.15Z" transform="translate(0 -28.96)" fill="#000054"/><path d="M294.25,357h-2.9v-4.9h-.1c-1.35,3.35-5.45,5.65-9.2,5.65-7.85,0-11.6-6.35-11.6-13.65s3.75-13.65,11.6-13.65c3.85,0,7.6,2,8.95,5.65h.1v-14.8h3.15Zm-12.2-1.9c6.7,0,9.05-5.65,9.05-11s-2.35-11-9.05-11c-6,0-8.45,5.65-8.45,11S276.05,355.11,282.05,355.11Z" transform="translate(0 -28.96)" fill="#000054"/><path d="M300.25,331.21h2.9v6.05h.1a9.53,9.53,0,0,1,9.75-6.4V334c-5.7-.3-9.6,3.9-9.6,9.25V357h-3.15Z" transform="translate(0 -28.96)" fill="#000054"/><path d="M397.8,284.11c0,7.4-4.3,13.65-12.2,13.65s-12.2-6.25-12.2-13.65,4.3-13.65,12.2-13.65S397.8,276.71,397.8,284.11Zm-21.25,0c0,5.5,3,11,9.05,11s9-5.5,9-11-3-11-9-11S376.55,278.61,376.55,284.11Z" transform="translate(0 -28.96)" fill="#000054"/><path d="M402.5,271.21h2.9v6.05h.1a9.53,9.53,0,0,1,9.75-6.4V274c-5.7-.3-9.6,3.9-9.6,9.25V297H402.5Z" transform="translate(0 -28.96)" fill="#000054"/><path d="M418.3,261.31h3.15v5.05H418.3Zm0,9.9h3.15V297H418.3Z" transform="translate(0 -28.96)" fill="#000054"/><path d="M449.3,294.91c-.05,7.7-3,12.4-11.45,12.4-5.15,0-10.25-2.3-10.7-7.8h3.15c.7,3.8,4.05,5.15,7.55,5.15,5.8,0,8.3-3.45,8.3-9.75v-3.5h-.1a8.94,8.94,0,0,1-8.2,5.3c-8.25,0-11.65-5.9-11.65-13.25,0-7.1,4.2-13,11.65-13a9.08,9.08,0,0,1,8.2,5.2h.1v-4.45h3.15Zm-3.15-11.1c0-5.05-2.35-10.7-8.3-10.7s-8.5,5.35-8.5,10.7c0,5.2,2.7,10.25,8.5,10.25C443.3,294.06,446.15,289.06,446.15,283.81Z" transform="translate(0 -28.96)" fill="#000054"/><path d="M470.05,261.31h3.4V297h-3.4Z" transform="translate(0 -28.96)" fill="#000054"/><path d="M480.9,261.31h15.85c6.4,0,10.6,3.75,10.6,10.2s-4.2,10.2-10.6,10.2H484.3V297h-3.4Zm3.4,17.5H496c4.7,0,7.95-2.4,7.95-7.3s-3.25-7.3-7.95-7.3H484.3Z" transform="translate(0 -28.96)" fill="#000054"/><path d="M407.55,321.31h3.15v14.35h.1c1.15-3.1,4.6-5.2,8.25-5.2,7.25,0,9.45,3.8,9.45,10V357h-3.15v-16.1c0-4.45-1.45-7.8-6.55-7.8s-8,3.8-8.1,8.85V357h-3.15Z" transform="translate(0 -28.96)" fill="#000054"/><path d="M457.15,357h-2.9v-4.9h-.1c-1.35,3.35-5.45,5.65-9.2,5.65-7.85,0-11.6-6.35-11.6-13.65s3.75-13.65,11.6-13.65c3.85,0,7.6,2,8.95,5.65h.1v-14.8h3.15Zm-12.2-1.9c6.7,0,9.05-5.65,9.05-11s-2.35-11-9.05-11c-6,0-8.45,5.65-8.45,11S439,355.11,445,355.11Z" transform="translate(0 -28.96)" fill="#000054"/><path d="M463.15,331.21h2.9v6.05h.1a9.53,9.53,0,0,1,9.75-6.4V334c-5.7-.3-9.6,3.9-9.6,9.25V357h-3.15Z" transform="translate(0 -28.96)" fill="#000054"/><path d="M833.19,261.31h3.4V297h-3.4Z" transform="translate(0 -28.96)" fill="#000054"/><path d="M844,261.31h15.85c6.4,0,10.6,3.75,10.6,10.2s-4.2,10.2-10.6,10.2H847.44V297H844Zm3.4,17.5h11.7c4.7,0,8-2.4,8-7.3s-3.25-7.3-8-7.3h-11.7Z" transform="translate(0 -28.96)" fill="#000054"/><path d="M768.89,331.21h2.9v4.9h.1a9.66,9.66,0,0,1,9.2-5.65c7.85,0,11.6,6.35,11.6,13.65s-3.75,13.65-11.6,13.65c-3.85,0-7.6-1.95-9-5.65H772v14.45h-3.15Zm12.2,1.9c-7,0-9.05,5.15-9.05,11,0,5.35,2.35,11,9.05,11,6,0,8.45-5.65,8.45-11S787.09,333.11,781.09,333.11Z" transform="translate(0 -28.96)" fill="#000054"/><path d="M797.29,339.11c.3-6.05,4.55-8.65,10.45-8.65,4.55,0,9.5,1.4,9.5,8.3v13.7a1.68,1.68,0,0,0,1.85,1.9,3,3,0,0,0,1-.2v2.65a8.64,8.64,0,0,1-2.05.2c-3.2,0-3.7-1.8-3.7-4.5h-.1c-2.2,3.35-4.45,5.25-9.4,5.25-4.75,0-8.65-2.35-8.65-7.55,0-7.25,7-7.5,13.85-8.3,2.6-.3,4.05-.65,4.05-3.5,0-4.25-3.05-5.3-6.75-5.3-3.9,0-6.8,1.8-6.9,6Zm16.8,3.8H814c-.4.75-1.8,1-2.65,1.15-5.35.95-12,.9-12,5.95,0,3.15,2.8,5.1,5.75,5.1,4.8,0,9-3.05,9-8.1Z" transform="translate(0 -28.96)" fill="#000054"/><path d="M820.64,331.21H824l8.5,22,8-22h3.15L832.39,361c-1.8,4.35-2.85,5.6-6.8,5.6a8.16,8.16,0,0,1-2.4-.25v-2.65a10.92,10.92,0,0,0,2.15.25c2.8,0,3.45-1.65,4.5-4.05l1.1-2.95Z" transform="translate(0 -28.96)" fill="#000054"/><path d="M846.74,321.31h3.15V357h-3.15Z" transform="translate(0 -28.96)" fill="#000054"/><path d="M879,344.11c0,7.4-4.3,13.65-12.2,13.65s-12.2-6.25-12.2-13.65,4.3-13.65,12.2-13.65S879,336.71,879,344.11Zm-21.25,0c0,5.5,3,11,9.05,11s9-5.5,9-11-3-11-9-11S857.79,338.61,857.79,344.11Z" transform="translate(0 -28.96)" fill="#000054"/><path d="M883.44,339.11c.3-6.05,4.55-8.65,10.45-8.65,4.55,0,9.5,1.4,9.5,8.3v13.7a1.68,1.68,0,0,0,1.85,1.9,3,3,0,0,0,1-.2v2.65a8.64,8.64,0,0,1-2,.2c-3.2,0-3.7-1.8-3.7-4.5h-.1c-2.2,3.35-4.45,5.25-9.4,5.25-4.75,0-8.65-2.35-8.65-7.55,0-7.25,7-7.5,13.85-8.3,2.6-.3,4-.65,4-3.5,0-4.25-3-5.3-6.75-5.3-3.9,0-6.8,1.8-6.9,6Zm16.8,3.8h-.1c-.4.75-1.8,1-2.65,1.15-5.35.95-12,.9-12,5.95,0,3.15,2.8,5.1,5.75,5.1,4.8,0,9-3.05,9-8.1Z" transform="translate(0 -28.96)" fill="#000054"/><path d="M932.39,357h-2.9v-4.9h-.1c-1.35,3.35-5.45,5.65-9.2,5.65-7.85,0-11.6-6.35-11.6-13.65s3.75-13.65,11.6-13.65c3.85,0,7.6,2,8.95,5.65h.1v-14.8h3.15Zm-12.2-1.9c6.7,0,9-5.65,9-11s-2.35-11-9-11c-6,0-8.45,5.65-8.45,11S914.19,355.11,920.19,355.11Z" transform="translate(0 -28.96)" fill="#000054"/><path d="M1176.18,261.31h24.65v2.9h-21.25v12.9h19.9V280h-19.9v14.1h21.5V297h-24.9Z" transform="translate(0 -28.96)" fill="#000054"/><path d="M1207.43,285.26c-.15,7.35,5.15,9.6,11.65,9.6,3.75,0,9.45-2.05,9.45-7.25,0-4.05-4-5.65-7.35-6.45l-8-2c-4.2-1-8-3-8-8.6,0-3.5,2.25-10.05,12.3-10.05,7,0,13.25,3.8,13.2,11.1h-3.4c-.2-5.45-4.7-8.2-9.75-8.2-4.65,0-9,1.8-9,7.1,0,3.35,2.5,4.75,5.4,5.45l8.7,2.15c5,1.35,9.25,3.55,9.25,9.4,0,2.45-1,10.2-13.65,10.2-8.45,0-14.65-3.8-14.25-12.5Z" transform="translate(0 -28.96)" fill="#000054"/><path d="M1237.33,261.31h15.85c6.4,0,10.6,3.75,10.6,10.2s-4.2,10.2-10.6,10.2h-12.45V297h-3.4Zm3.4,17.5h11.7c4.7,0,8-2.4,8-7.3s-3.25-7.3-8-7.3h-11.7Z" transform="translate(0 -28.96)" fill="#000054"/><path d="M1199.13,331.21h5.25v2.65h-5.25v17.4c0,2.05.3,3.25,2.55,3.4a24.43,24.43,0,0,0,2.7-.15v2.7c-1,0-1.85.1-2.8.1-4.2,0-5.65-1.4-5.6-5.8V333.86h-4.5v-2.65h4.5v-7.75h3.15Z" transform="translate(0 -28.96)" fill="#000054"/><path d="M1208.93,331.21h2.9v6.05h.1a9.53,9.53,0,0,1,9.75-6.4V334c-5.7-.3-9.6,3.9-9.6,9.25V357h-3.15Z" transform="translate(0 -28.96)" fill="#000054"/><path d="M1224.73,321.31h3.15v5.05h-3.15Zm0,9.9h3.15V357h-3.15Z" transform="translate(0 -28.96)" fill="#000054"/><path d="M1233.93,331.21h2.9v6.05h.1a9.53,9.53,0,0,1,9.75-6.4V334c-5.7-.3-9.6,3.9-9.6,9.25V357h-3.15Z" transform="translate(0 -28.96)" fill="#000054"/><path d="M1297.38,261.31H1322v2.9h-21.26v12.9h19.91V280h-19.91v14.1h21.51V297h-24.91Z" transform="translate(0 -28.96)" fill="#000054"/><path d="M1328.63,285.26c-.15,7.35,5.15,9.6,11.65,9.6,3.75,0,9.45-2.05,9.45-7.25,0-4.05-4-5.65-7.35-6.45l-8-2c-4.2-1-8-3-8-8.6,0-3.5,2.25-10.05,12.3-10.05,7,0,13.26,3.8,13.2,11.1h-3.4c-.19-5.45-4.7-8.2-9.75-8.2-4.65,0-9,1.8-9,7.1,0,3.35,2.5,4.75,5.4,5.45l8.7,2.15c5,1.35,9.25,3.55,9.25,9.4,0,2.45-1,10.2-13.65,10.2-8.45,0-14.65-3.8-14.25-12.5Z" transform="translate(0 -28.96)" fill="#000054"/><path d="M1358.53,261.31h15.85c6.4,0,10.6,3.75,10.6,10.2s-4.2,10.2-10.6,10.2h-12.45V297h-3.4Zm3.4,17.5h11.7c4.7,0,7.95-2.4,7.95-7.3s-3.25-7.3-7.95-7.3h-11.7Z" transform="translate(0 -28.96)" fill="#000054"/><path d="M1295.58,339.11c.3-6.05,4.55-8.65,10.46-8.65,4.54,0,9.5,1.4,9.5,8.3v13.7a1.67,1.67,0,0,0,1.84,1.9,2.91,2.91,0,0,0,1-.2v2.65a8.5,8.5,0,0,1-2,.2c-3.21,0-3.71-1.8-3.71-4.5h-.09c-2.21,3.35-4.46,5.25-9.41,5.25-4.75,0-8.65-2.35-8.65-7.55,0-7.25,7-7.5,13.85-8.3,2.61-.3,4.05-.65,4.05-3.5,0-4.25-3.05-5.3-6.75-5.3-3.9,0-6.8,1.8-6.9,6Zm16.8,3.8h-.09c-.41.75-1.81,1-2.66,1.15-5.34.95-12,.9-12,5.95,0,3.15,2.8,5.1,5.75,5.1,4.8,0,9.06-3.05,9-8.1Z" transform="translate(0 -28.96)" fill="#000054"/><path d="M1342.73,357h-2.9v-4.65h-.1a9.6,9.6,0,0,1-8.9,5.4c-6.5,0-9-3.8-9-9.8V331.21h3.15V348c.15,4.65,1.9,7.1,6.9,7.1,5.4,0,7.75-5.1,7.75-10.35V331.21h3.15Z" transform="translate(0 -28.96)" fill="#000054"/><path d="M1353.68,331.21h5.25v2.65h-5.25v17.4c0,2.05.3,3.25,2.55,3.4a24.43,24.43,0,0,0,2.7-.15v2.7c-1,0-1.85.1-2.8.1-4.2,0-5.65-1.4-5.6-5.8V333.86H1346v-2.65h4.5v-7.75h3.15Z" transform="translate(0 -28.96)" fill="#000054"/><path d="M1363.43,321.31h3.15v14.35h.1c1.15-3.1,4.6-5.2,8.25-5.2,7.25,0,9.45,3.8,9.45,10V357h-3.15v-16.1c0-4.45-1.45-7.8-6.55-7.8s-8,3.8-8.1,8.85V357h-3.15Z" transform="translate(0 -28.96)" fill="#000054"/><circle cx="154.02" cy="702.6" r="150" fill="#ccf5fe"/><rect x="141.1" y="692.23" width="26.41" height="47.09" stroke-width="5" stroke="#000054" stroke-linecap="round" stroke-linejoin="round" fill="#fff"/><rect x="85.4" y="614.21" width="138.5" height="102.11" stroke-width="5" stroke="#000054" stroke-linecap="round" stroke-linejoin="round" fill="#fff"/><line x1="84.7" y1="696.82" x2="222.91" y2="696.82" fill="none" stroke="#000054" stroke-linecap="round" stroke-linejoin="round" stroke-width="5"/><line x1="120.42" y1="739.32" x2="188.18" y2="739.32" fill="#fff" stroke="#000054" stroke-linecap="round" stroke-linejoin="round" stroke-width="5"/><polygon points="229.02 791 79.02 791 84.68 755.39 222.85 755.39 229.02 791" fill="#fff" stroke="#000054" stroke-linecap="round" stroke-linejoin="round" stroke-width="5"/><line x1="90.14" y1="779.51" x2="217.62" y2="779.51" fill="#fff" stroke="#000054" stroke-linecap="round" stroke-linejoin="round" stroke-width="5"/><line x1="948.44" y1="1646.85" x2="948.44" y2="1646.85" fill="none" stroke="#000054" stroke-linecap="round" stroke-linejoin="round" stroke-width="5"/><line x1="958.3" y1="1646.85" x2="1190.15" y2="1646.85" fill="none" stroke-dasharray="0 9.87" stroke-linecap="round" stroke-linejoin="round" stroke-width="5" stroke="#000054"/><line x1="1195.08" y1="1646.85" x2="1195.08" y2="1646.85" fill="none" stroke="#000054" stroke-linecap="round" stroke-linejoin="round" stroke-width="5"/><circle cx="883.33" cy="1648.64" r="150" fill="#e1e1e1"/><rect x="870.41" y="1638.27" width="26.41" height="47.09" stroke-width="5" stroke="#000054" stroke-linecap="round" stroke-linejoin="round" fill="#fff"/><rect x="814.72" y="1560.25" width="138.5" height="102.11" stroke-width="5" stroke="#000054" stroke-linecap="round" stroke-linejoin="round" fill="#fff"/><line x1="814.01" y1="1642.86" x2="952.22" y2="1642.86" fill="none" stroke="#000054" stroke-linecap="round" stroke-linejoin="round" stroke-width="5"/><line x1="849.74" y1="1685.36" x2="917.5" y2="1685.36" fill="#fff" stroke="#000054" stroke-linecap="round" stroke-linejoin="round" stroke-width="5"/><polygon points="958.33 1737.04 808.33 1737.04 813.99 1701.43 952.16 1701.43 958.33 1737.04" fill="#fff" stroke="#000054" stroke-linecap="round" stroke-linejoin="round" stroke-width="5"/><line x1="819.45" y1="1725.55" x2="946.93" y2="1725.55" fill="#fff" stroke="#000054" stroke-linecap="round" stroke-linejoin="round" stroke-width="5"/><line x1="195.27" y1="1646.85" x2="195.27" y2="1646.85" fill="none" stroke="#000054" stroke-linecap="round" stroke-linejoin="round" stroke-width="5"/><line x1="205.14" y1="1646.85" x2="436.98" y2="1646.85" fill="none" stroke-dasharray="0 9.87" stroke-linecap="round" stroke-linejoin="round" stroke-width="5" stroke="#000054"/><line x1="441.92" y1="1646.85" x2="441.92" y2="1646.85" fill="none" stroke="#000054" stroke-linecap="round" stroke-linejoin="round" stroke-width="5"/><circle cx="516.67" cy="1648.64" r="150" fill="#e1e1e1"/><rect x="503.74" y="1638.27" width="26.41" height="47.09" stroke-width="5" stroke="#000054" stroke-linecap="round" stroke-linejoin="round" fill="#fff"/><rect x="448.05" y="1560.25" width="138.5" height="102.11" stroke-width="5" stroke="#000054" stroke-linecap="round" stroke-linejoin="round" fill="#fff"/><line x1="447.35" y1="1642.86" x2="585.56" y2="1642.86" fill="none" stroke="#000054" stroke-linecap="round" stroke-linejoin="round" stroke-width="5"/><line x1="483.07" y1="1685.36" x2="550.83" y2="1685.36" fill="#fff" stroke="#000054" stroke-linecap="round" stroke-linejoin="round" stroke-width="5"/><polygon points="591.67 1737.04 441.67 1737.04 447.32 1701.43 585.49 1701.43 591.67 1737.04" fill="#fff" stroke="#000054" stroke-linecap="round" stroke-linejoin="round" stroke-width="5"/><line x1="452.79" y1="1725.55" x2="580.27" y2="1725.55" fill="#fff" stroke="#000054" stroke-linecap="round" stroke-linejoin="round" stroke-width="5"/><circle cx="150" cy="1648.64" r="150" fill="#e1e1e1"/><circle cx="1250" cy="1648.64" r="150" fill="#e1e1e1"/><rect x="1237.07" y="1638.27" width="26.41" height="47.09" stroke-width="5" stroke="#000054" stroke-linecap="round" stroke-linejoin="round" fill="#fff"/><rect x="1181.38" y="1560.25" width="138.5" height="102.11" stroke-width="5" stroke="#000054" stroke-linecap="round" stroke-linejoin="round" fill="#fff"/><line x1="1180.68" y1="1642.86" x2="1318.89" y2="1642.86" fill="none" stroke="#000054" stroke-linecap="round" stroke-linejoin="round" stroke-width="5"/><line x1="1216.4" y1="1685.36" x2="1284.16" y2="1685.36" fill="#fff" stroke="#000054" stroke-linecap="round" stroke-linejoin="round" stroke-width="5"/><polygon points="1325 1737.04 1175 1737.04 1180.66 1701.43 1318.83 1701.43 1325 1737.04" fill="#fff" stroke="#000054" stroke-linecap="round" stroke-linejoin="round" stroke-width="5"/><line x1="1186.12" y1="1725.55" x2="1313.6" y2="1725.55" fill="#fff" stroke="#000054" stroke-linecap="round" stroke-linejoin="round" stroke-width="5"/><path d="M303.57,1439.53c1-4.11,2.75-4,5.2-5.47q34.71-20.54,69.42-41.29c.35-.21.71-.45,1.05-.61.92-.44,1.53.16,1.55,1.45a4.33,4.33,0,0,1-1.5,3.34,11.81,11.81,0,0,1-1.05.64l-69.75,41.54c-1.76,1-1.77,1.07-1.77,3.75V1488c0,2.28.11,2.38,1.63,1.48,3.4-2,6.8-4.06,10.2-6.07a4.4,4.4,0,0,1,1.25-.59c.79-.16,1.27.52,1.09,1.74a9.19,9.19,0,0,1-1.17,2.85c-.26.45-.75.59-1.13.82-3.34,2-6.67,3.85-10,6-2.42,1.56-4.14,1.32-5-1.72Z" transform="translate(0 -28.96)" fill="#000054"/><path d="M326.71,1483.38a10.37,10.37,0,0,1-1.16.64c-.89.37-1.4-.13-1.4-1.53a3.93,3.93,0,0,1,1.4-3.2,12.16,12.16,0,0,1,1.37-.88l79.3-47.23c1.91-1.14,1.91-1.14,1.91-4.13v-5.51l-3.72,2.21c-1.16.67-1.85.2-1.87-1.24a4.26,4.26,0,0,1,1.82-3.57c1.22-.76,2.44-1.46,3.71-2.22v-4.59c-1.21.72-2.4,1.44-3.58,2.13s-1.95.22-1.95-1.26a4.08,4.08,0,0,1,1.95-3.58c1.15-.7,2.31-1.38,3.55-2.12v-4.65c-1.19.72-2.37,1.44-3.56,2.12s-1.94.21-1.94-1.28a4.16,4.16,0,0,1,2-3.57c1.19-.73,2.37-1.42,3.58-2.13v-4.67c-1.27.75-2.49,1.49-3.71,2.2s-1.84.14-1.83-1.32a4.22,4.22,0,0,1,1.86-3.53c1.19-.75,2.38-1.43,3.72-2.23,0-2.46,0-4.88,0-7.25,0-1-.57-.85-1.15-.51-2.49,1.5-5,3-7.47,4.46-4.48,2.67-9,5.38-13.46,8a1.47,1.47,0,0,1-1.74,0c-.77-.83-.15-3.28,1-4.29a5.78,5.78,0,0,1,1-.6l20.61-12.28c2.86-1.7,4.44-.23,4.45,4.12v46.23c0,4.61-1.52,7.85-4.54,9.65C391.32,1444.91,335.93,1477.89,326.71,1483.38Z" transform="translate(0 -28.96)" fill="#000054"/><path d="M384,1413.26c0-1.73,0-3.27,0-4.83,0-2.07.59-3.3,1.93-4.12,2.32-1.4,4.63-2.77,6.94-4.13,1.39-.81,1.94-.26,2,1.91,0,1.49,0,3,0,4.71.57-.34,1.05-.66,1.52-.89,1.11-.55,1.69,0,1.7,1.63q0,8.22,0,16.47a3.9,3.9,0,0,1-1.64,3.49q-7,4.2-14,8.33c-1.13.66-1.65.06-1.66-1.82,0-5.16,0-10.33,0-15.5,0-2.59.48-3.59,2.2-4.65Zm7.7-7.53-2.29,1.36-2.25,1.34c0,1.83,0,3.43,0,5,0,1.91-.56,3-1.81,3.83l-1.33.79V1430l10.82-6.44v-11.87l-.92.55c-1.8,1-2.21.67-2.21-2.11C391.66,1408.7,391.67,1407.31,391.67,1405.73Z" transform="translate(0 -28.96)" fill="#000054"/><path d="M340.39,1439.22c0-1.82,0-3.42,0-5a4.15,4.15,0,0,1,1.73-3.78q3.67-2.26,7.36-4.38c1.1-.63,1.66,0,1.69,1.63s0,3.31,0,5.14c.6-.36,1.09-.69,1.57-.93,1.08-.52,1.69,0,1.69,1.68q0,8.13,0,16.31a4,4,0,0,1-1.79,3.71q-6.89,4.13-13.77,8.2c-1.14.67-1.72.21-1.73-1.52q0-8.21,0-16.47a4.12,4.12,0,0,1,1.72-3.65C339.33,1439.81,339.79,1439.58,340.39,1439.22Zm0,4.84v11.85l10.87-6.47v-11.76c-.37.19-.68.33-1,.5-1.79,1-2.22.64-2.23-2.12v-4.21l-4.49,2.67c0,1.8,0,3.45,0,5.14a4,4,0,0,1-1.65,3.5C341.4,1443.48,340.92,1443.74,340.38,1444.06Z" transform="translate(0 -28.96)" fill="#000054"/><path d="M362.2,1426.24c0-1.73,0-3.23,0-4.73,0-2.22.55-3.39,1.95-4.24q3.48-2.1,6.94-4.13c1.34-.78,1.9-.21,1.91,1.85,0,1.54,0,3.1,0,4.82a15.43,15.43,0,0,1,1.64-1c1-.43,1.57,0,1.58,1.56,0,5.54,0,11.08,0,16.64a3.79,3.79,0,0,1-1.66,3.47q-7,4.2-14,8.32c-1,.61-1.63.06-1.64-1.55,0-5.48,0-11,0-16.48a4.27,4.27,0,0,1,1.63-3.58C361.05,1426.87,361.54,1426.63,362.2,1426.24Zm7.65-7.4-4.5,2.68c0,1.78,0,3.42,0,5.11a4,4,0,0,1-1.74,3.6c-.47.31-1,.57-1.46.88V1443l10.86-6.47v-11.87l-1,.61c-1.65,1-2.12.52-2.13-2Z" transform="translate(0 -28.96)" fill="#000054"/><path d="M318.57,1452.22c0-1.65,0-3.14,0-4.63,0-2.3.56-3.49,2-4.37,2.28-1.38,4.55-2.74,6.83-4.07,1.41-.82,2-.29,2,1.85,0,1.49,0,3,0,4.76a17.47,17.47,0,0,1,1.59-.93c1.05-.5,1.61,0,1.61,1.63q0,8.2,0,16.46a3.87,3.87,0,0,1-1.71,3.59q-6.93,4.15-13.86,8.25c-1.11.66-1.69.11-1.7-1.59q0-8.13,0-16.3a4.21,4.21,0,0,1,1.75-3.78C317.55,1452.79,318,1452.55,318.57,1452.22Zm0,4.84v11.86l10.82-6.45v-11.85l-.92.55c-1.79,1-2.19.64-2.2-2.16v-4.2l-4.54,2.7c0,1.62,0,3.12,0,4.63,0,2.26-.51,3.31-1.94,4.2Z" transform="translate(0 -28.96)" fill="#000054"/><line x1="407.58" y1="1347.35" x2="361.88" y2="1314.89" fill="none" stroke="#000054" stroke-linecap="round" stroke-linejoin="round" stroke-width="5"/><line x1="303.29" y1="1409.33" x2="257.59" y2="1376.87" fill="none" stroke="#000054" stroke-linecap="round" stroke-linejoin="round" stroke-width="5"/><polyline points="305.57 1463.84 255.8 1429.83 255.38 1374.91 361.39 1314.89" fill="none" stroke="#000054" stroke-linecap="round" stroke-linejoin="round" stroke-width="5"/><polygon points="409.54 1167.65 315.63 1219.05 315.63 1102.02 409.54 1050.62 409.54 1167.65" fill="#fff" stroke="#000054" stroke-linecap="round" stroke-linejoin="round" stroke-width="5"/><polyline points="313.83 1102.02 257.13 1061.08 257.13 1178.11 313.83 1219.05" fill="none" stroke="#000054" stroke-linecap="round" stroke-linejoin="round" stroke-width="5"/><line x1="409.17" y1="1051.02" x2="352.47" y2="1010.08" fill="none" stroke="#000054" stroke-linecap="round" stroke-linejoin="round" stroke-width="5"/><line x1="378.59" y1="1066.91" x2="321.89" y2="1025.96" fill="none" stroke="#000054" stroke-linecap="round" stroke-linejoin="round" stroke-width="5"/><line x1="345.91" y1="1084.85" x2="289.21" y2="1043.91" fill="none" stroke="#000054" stroke-linecap="round" stroke-linejoin="round" stroke-width="5"/><line x1="257.64" y1="1060.84" x2="351.55" y2="1009.44" fill="#fff" stroke="#000054" stroke-linecap="round" stroke-linejoin="round" stroke-width="5"/><line x1="273.11" y1="1072.48" x2="367.02" y2="1021.08" fill="#fff" stroke="#000054" stroke-linecap="round" stroke-linejoin="round" stroke-width="5"/><line x1="293.69" y1="1086.37" x2="387.59" y2="1034.97" fill="#fff" stroke="#000054" stroke-linecap="round" stroke-linejoin="round" stroke-width="5"/><polyline points="396.13 1150.5 378.33 1160.25 349.88 1125.66 330.38 1136.34" fill="#fff"/><polyline points="396.13 1150.5 378.33 1160.25 349.88 1125.66 330.38 1136.34" fill="none" stroke="#000054" stroke-linecap="round" stroke-linejoin="round" stroke-width="5"/><polygon points="383.59 1147.7 395.1 1151.07 391.73 1162.58 398.04 1159.12 401.41 1147.62 389.9 1144.25 383.59 1147.7" fill="#000054"/><polygon points="334.78 1124.26 331.41 1135.77 342.92 1139.13 336.6 1142.59 325.1 1139.22 328.46 1127.72 334.78 1124.26" fill="#000054"/><polyline points="330.38 1186.49 349.88 1175.82 378.33 1110.09 396.13 1100.35" fill="#fff"/><polyline points="330.38 1186.49 349.88 1175.82 378.33 1110.09 396.13 1100.35" fill="none" stroke="#000054" stroke-linecap="round" stroke-linejoin="round" stroke-width="5"/><polygon points="342.92 1189.29 331.41 1185.93 334.78 1174.42 328.46 1177.88 325.1 1189.38 336.6 1192.75 342.92 1189.29" fill="#000054"/><polygon points="391.73 1112.42 395.1 1100.91 383.59 1097.55 389.9 1094.09 401.41 1097.46 398.04 1108.96 391.73 1112.42" fill="#000054"/><path d="M1036.9,1439.53c1-4.11,2.75-4,5.2-5.47q34.71-20.54,69.43-41.29a11.37,11.37,0,0,1,1-.61c.91-.44,1.53.16,1.54,1.45a4.33,4.33,0,0,1-1.5,3.34,11.81,11.81,0,0,1-1,.64l-69.74,41.54c-1.76,1-1.77,1.07-1.77,3.75V1488c0,2.28.1,2.38,1.62,1.48,3.4-2,6.81-4.06,10.21-6.07a4.4,4.4,0,0,1,1.25-.59c.79-.16,1.27.52,1.09,1.74a9.47,9.47,0,0,1-1.18,2.85c-.25.45-.75.59-1.13.82-3.33,2-6.67,3.85-10,6-2.43,1.56-4.14,1.32-5-1.72Z" transform="translate(0 -28.96)" fill="#000054"/><path d="M1060,1483.38a9.45,9.45,0,0,1-1.15.64c-.9.37-1.4-.13-1.41-1.53a3.93,3.93,0,0,1,1.4-3.2,12.16,12.16,0,0,1,1.37-.88l79.31-47.23c1.9-1.14,1.9-1.14,1.9-4.13v-5.51c-1.29.77-2.5,1.5-3.72,2.21s-1.85.2-1.87-1.24a4.24,4.24,0,0,1,1.83-3.57c1.21-.76,2.43-1.46,3.71-2.22v-4.59c-1.22.72-2.4,1.44-3.58,2.13s-2,.22-2-1.26a4.12,4.12,0,0,1,2-3.58c1.15-.7,2.31-1.38,3.55-2.12v-4.65c-1.19.72-2.37,1.44-3.55,2.12s-2,.21-2-1.28a4.15,4.15,0,0,1,2-3.57c1.18-.73,2.36-1.42,3.57-2.13v-4.67l-3.7,2.2c-1.15.66-1.85.14-1.84-1.32a4.25,4.25,0,0,1,1.86-3.53c1.19-.75,2.38-1.43,3.72-2.23,0-2.46,0-4.88,0-7.25,0-1-.58-.85-1.16-.51-2.49,1.5-5,3-7.46,4.46-4.49,2.67-9,5.38-13.47,8a1.46,1.46,0,0,1-1.73,0c-.77-.83-.16-3.28,1-4.29a5.31,5.31,0,0,1,.94-.6l20.62-12.28c2.85-1.7,4.44-.23,4.44,4.12v46.23c0,4.61-1.52,7.85-4.54,9.65C1124.66,1444.91,1069.26,1477.89,1060,1483.38Z" transform="translate(0 -28.96)" fill="#000054"/><path d="M1117.31,1413.26c0-1.73,0-3.27,0-4.83,0-2.07.6-3.3,1.94-4.12,2.31-1.4,4.62-2.77,6.93-4.13,1.39-.81,2-.26,2,1.91,0,1.49,0,3,0,4.71.56-.34,1-.66,1.51-.89,1.11-.55,1.7,0,1.7,1.63q0,8.22,0,16.47a3.9,3.9,0,0,1-1.64,3.49q-7,4.2-14,8.33c-1.14.66-1.66.06-1.66-1.82,0-5.16,0-10.33,0-15.5,0-2.59.48-3.59,2.21-4.65Zm7.69-7.53-2.29,1.36-2.25,1.34c0,1.83,0,3.43,0,5,0,1.91-.57,3-1.82,3.83l-1.33.79V1430l10.83-6.44v-11.87l-.92.55c-1.81,1-2.21.67-2.22-2.11Z" transform="translate(0 -28.96)" fill="#000054"/><path d="M1073.72,1439.22c0-1.82,0-3.42,0-5a4.15,4.15,0,0,1,1.73-3.78q3.69-2.26,7.36-4.38c1.1-.63,1.66,0,1.69,1.63s0,3.31,0,5.14c.61-.36,1.09-.69,1.57-.93,1.09-.52,1.69,0,1.7,1.68q0,8.13,0,16.31a4,4,0,0,1-1.8,3.71q-6.88,4.13-13.77,8.2c-1.14.67-1.72.21-1.73-1.52q0-8.21,0-16.47a4.12,4.12,0,0,1,1.72-3.65C1072.67,1439.81,1073.12,1439.58,1073.72,1439.22Zm0,4.84v11.85l10.86-6.47v-11.76c-.37.19-.68.33-1,.5-1.8,1-2.22.64-2.23-2.12,0-1.39,0-2.77,0-4.21l-4.49,2.67c0,1.8,0,3.45,0,5.14a4.06,4.06,0,0,1-1.65,3.5C1074.74,1443.48,1074.25,1443.74,1073.72,1444.06Z" transform="translate(0 -28.96)" fill="#000054"/><path d="M1095.53,1426.24c0-1.73,0-3.23,0-4.73,0-2.22.56-3.39,2-4.24q3.46-2.1,6.94-4.13c1.33-.78,1.89-.21,1.91,1.85,0,1.54,0,3.1,0,4.82a16.54,16.54,0,0,1,1.65-1c1-.43,1.57,0,1.57,1.56q0,8.31,0,16.64a3.76,3.76,0,0,1-1.65,3.47q-7,4.2-14,8.32c-1,.61-1.64.06-1.65-1.55q0-8.22,0-16.48a4.27,4.27,0,0,1,1.63-3.58C1094.38,1426.87,1094.87,1426.63,1095.53,1426.24Zm7.65-7.4-4.5,2.68c0,1.78,0,3.42,0,5.11a4,4,0,0,1-1.73,3.6c-.48.31-1,.57-1.47.88V1443l10.86-6.47v-11.87l-1,.61c-1.65,1-2.12.52-2.13-2Z" transform="translate(0 -28.96)" fill="#000054"/><path d="M1051.9,1452.22c0-1.65,0-3.14,0-4.63,0-2.3.57-3.49,2-4.37q3.42-2.07,6.83-4.07c1.41-.82,2-.29,2,1.85,0,1.49,0,3,0,4.76.58-.34,1.09-.7,1.59-.93,1.05-.5,1.61,0,1.62,1.63q0,8.2,0,16.46a3.91,3.91,0,0,1-1.71,3.59q-6.95,4.15-13.87,8.25c-1.11.66-1.69.11-1.69-1.59q0-8.13,0-16.3a4.16,4.16,0,0,1,1.75-3.78C1050.88,1452.79,1051.33,1452.55,1051.9,1452.22Zm0,4.84v11.86l10.82-6.45v-11.85l-.93.55c-1.79,1-2.19.64-2.19-2.16v-4.2l-4.55,2.7c0,1.62,0,3.12,0,4.63,0,2.26-.5,3.31-1.94,4.2Z" transform="translate(0 -28.96)" fill="#000054"/><line x1="1140.91" y1="1347.35" x2="1095.21" y2="1314.89" fill="none" stroke="#000054" stroke-linecap="round" stroke-linejoin="round" stroke-width="5"/><line x1="1036.63" y1="1409.33" x2="990.93" y2="1376.87" fill="none" stroke="#000054" stroke-linecap="round" stroke-linejoin="round" stroke-width="5"/><polyline points="1038.9 1463.84 989.13 1429.83 988.71 1374.91 1094.72 1314.89" fill="none" stroke="#000054" stroke-linecap="round" stroke-linejoin="round" stroke-width="5"/><polygon points="1142.87 1167.65 1048.96 1219.05 1048.96 1102.02 1142.87 1050.62 1142.87 1167.65" fill="#fff" stroke="#000054" stroke-linecap="round" stroke-linejoin="round" stroke-width="5"/><polyline points="1047.16 1102.02 990.46 1061.08 990.46 1178.11 1047.16 1219.05" fill="none" stroke="#000054" stroke-linecap="round" stroke-linejoin="round" stroke-width="5"/><line x1="1142.51" y1="1051.02" x2="1085.81" y2="1010.08" fill="none" stroke="#000054" stroke-linecap="round" stroke-linejoin="round" stroke-width="5"/><line x1="1111.93" y1="1066.91" x2="1055.22" y2="1025.96" fill="none" stroke="#000054" stroke-linecap="round" stroke-linejoin="round" stroke-width="5"/><line x1="1079.24" y1="1084.85" x2="1022.54" y2="1043.91" fill="none" stroke="#000054" stroke-linecap="round" stroke-linejoin="round" stroke-width="5"/><line x1="990.98" y1="1060.84" x2="1084.88" y2="1009.44" fill="#fff" stroke="#000054" stroke-linecap="round" stroke-linejoin="round" stroke-width="5"/><line x1="1006.44" y1="1072.48" x2="1100.35" y2="1021.08" fill="#fff" stroke="#000054" stroke-linecap="round" stroke-linejoin="round" stroke-width="5"/><line x1="1027.02" y1="1086.37" x2="1120.92" y2="1034.97" fill="#fff" stroke="#000054" stroke-linecap="round" stroke-linejoin="round" stroke-width="5"/><polyline points="1129.46 1150.5 1111.66 1160.25 1083.21 1125.66 1063.71 1136.34" fill="#fff"/><polyline points="1129.46 1150.5 1111.66 1160.25 1083.21 1125.66 1063.71 1136.34" fill="none" stroke="#000054" stroke-linecap="round" stroke-linejoin="round" stroke-width="5"/><polygon points="1116.92 1147.7 1128.43 1151.07 1125.06 1162.58 1131.38 1159.12 1134.74 1147.62 1123.24 1144.25 1116.92 1147.7" fill="#000054"/><polygon points="1068.11 1124.26 1064.74 1135.77 1076.25 1139.13 1069.94 1142.59 1058.43 1139.22 1061.8 1127.72 1068.11 1124.26" fill="#000054"/><polyline points="1063.71 1186.49 1083.21 1175.82 1111.66 1110.09 1129.46 1100.35" fill="#fff"/><polyline points="1063.71 1186.49 1083.21 1175.82 1111.66 1110.09 1129.46 1100.35" fill="none" stroke="#000054" stroke-linecap="round" stroke-linejoin="round" stroke-width="5"/><polygon points="1076.25 1189.29 1064.74 1185.93 1068.11 1174.42 1061.8 1177.88 1058.43 1189.38 1069.94 1192.75 1076.25 1189.29" fill="#000054"/><polygon points="1125.06 1112.42 1128.43 1100.91 1116.92 1097.55 1123.24 1094.09 1134.74 1097.46 1131.38 1108.96 1125.06 1112.42" fill="#000054"/><polygon points="199.87 1736.18 134.49 1736.18 134.49 1542.04 199.87 1564.2 199.87 1736.18" fill="#fff" stroke="#000054" stroke-linecap="round" stroke-linejoin="round" stroke-width="5"/><polyline points="132.69 1542.04 75.99 1572.25 75.99 1736.18 132.69 1736.18" fill="#fff" stroke="#000054" stroke-linecap="round" stroke-linejoin="round" stroke-width="5"/><line x1="171.39" y1="1675.08" x2="171.39" y2="1714.27" fill="#fff" stroke="#000054" stroke-linecap="round" stroke-linejoin="round" stroke-width="5"/><line x1="171.39" y1="1603.97" x2="171.39" y2="1643.16" fill="#fff" stroke="#000054" stroke-linecap="round" stroke-linejoin="round" stroke-width="5"/><line x1="145.46" y1="1559.81" x2="190.74" y2="1575.16" fill="none" stroke="#000054" stroke-linecap="round" stroke-linejoin="round" stroke-width="5"/><line x1="145.46" y1="1572.96" x2="190.74" y2="1588.3" fill="none" stroke="#000054" stroke-linecap="round" stroke-linejoin="round" stroke-width="5"/><path d="M1395,231.31V385.16H5V231.31H1395m5-5H0V390.16H1400V226.31Z" transform="translate(0 -28.96)" fill="#000054"/><line x1="542.76" y1="358.27" x2="542.76" y2="200.27" fill="none" stroke="#000054" stroke-linecap="round" stroke-linejoin="round" stroke-width="5"/><line x1="1158.51" y1="358.27" x2="1158.51" y2="200.27" fill="none" stroke="#000054" stroke-linecap="round" stroke-linejoin="round" stroke-width="5"/><line x1="1279.29" y1="358.27" x2="1279.29" y2="200.27" fill="none" stroke="#000054" stroke-linecap="round" stroke-linejoin="round" stroke-width="5"/><line x1="216.96" y1="358.27" x2="216.96" y2="200.27" fill="none" stroke="#000054" stroke-linecap="round" stroke-linejoin="round" stroke-width="5"/><line x1="337.74" y1="358.27" x2="337.74" y2="200.27" fill="none" stroke="#000054" stroke-linecap="round" stroke-linejoin="round" stroke-width="5"/><line x1="919.29" y1="25.15" x2="1273.28" y2="25.15" fill="none" stroke="#000054" stroke-linecap="round" stroke-linejoin="round" stroke-width="5"/><path d="M1239.11,78.11a2.5,2.5,0,0,1,.76-3.45l32.27-20.55-32.27-20.54a2.5,2.5,0,0,1,2.69-4.22L1278.13,52a2.5,2.5,0,0,1,0,4.22l-35.57,22.66a2.5,2.5,0,0,1-3.45-.77Z" transform="translate(0 -28.96)" fill="#000054"/><line x1="222.97" y1="25.15" x2="576.96" y2="25.15" fill="none" stroke="#000054" stroke-linecap="round" stroke-linejoin="round" stroke-width="5"/><path d="M257.14,78.11a2.5,2.5,0,0,0-.77-3.45L224.11,54.11l32.26-20.54a2.5,2.5,0,1,0-2.68-4.22L218.11,52a2.51,2.51,0,0,0,0,4.22l35.58,22.66a2.5,2.5,0,0,0,3.45-.77Z" transform="translate(0 -28.96)" fill="#000054"/><line x1="949.29" y1="122.01" x2="1273.28" y2="122.01" fill="none" stroke="#000054" stroke-linecap="round" stroke-linejoin="round" stroke-width="5"/><path d="M1239.11,175a2.5,2.5,0,0,1,.76-3.45L1272.14,151l-32.27-20.55a2.5,2.5,0,0,1,2.69-4.22l35.57,22.66a2.5,2.5,0,0,1,0,4.22l-35.57,22.66a2.5,2.5,0,0,1-3.45-.77Z" transform="translate(0 -28.96)" fill="#000054"/><line x1="343.75" y1="122.01" x2="667.74" y2="122.01" fill="none" stroke="#000054" stroke-linecap="round" stroke-linejoin="round" stroke-width="5"/><path d="M377.92,175a2.5,2.5,0,0,0-.77-3.45L344.89,151l32.26-20.55a2.5,2.5,0,1,0-2.68-4.22l-35.58,22.66a2.51,2.51,0,0,0,0,4.22l35.58,22.66a2.5,2.5,0,0,0,3.45-.77Z" transform="translate(0 -28.96)" fill="#000054"/><path d="M937.07,918l-4.64-4.57a447.94,447.94,0,0,0-431.91-113l-4.82,1.31-8.05-29.5,4.82-1.31A479.94,479.94,0,0,1,802.88,791c49.74,20.82,101.82,55.39,146.65,97.33l2.88,2.69ZM618.52,774.71c118.71,0,230.77,45.07,316.27,127.07l5-8.82C897,853.56,845.92,819.87,799,800.23a470.1,470.1,0,0,0-299.08-20.94l2.78,10.21A459,459,0,0,1,618.52,774.71Z" transform="translate(0 -28.96)" fill="#fff"/><path d="M946.11,892l-10.17,17.88c-85.13-83.94-197.86-130.16-317.42-130.16a453.07,453.07,0,0,0-119.31,15.91l-5.42-19.86A475,475,0,0,1,801,795.62c52,21.76,104,57.83,145.16,96.37" transform="translate(0 -28.96)" fill="#00cefa"/><path d="M548.46,907.19a2.54,2.54,0,0,1-.85-.15l-19.36-7a2.5,2.5,0,0,1-1.5-3.2,78.93,78.93,0,0,0-43.48-99.36,2.44,2.44,0,0,1-1.35-1.36,2.48,2.48,0,0,1,0-1.91l8-19a2.51,2.51,0,0,1,2.31-1.52,2.58,2.58,0,0,1,1,.19,104.5,104.5,0,0,1,57.58,131.6A2.48,2.48,0,0,1,548.46,907.19Z" transform="translate(0 -28.96)" fill="#00cefa"/><path d="M492.26,776.25a102,102,0,0,1,56.2,128.44l-19.36-7A81.42,81.42,0,0,0,484.24,795.2l8-19m0-5a5,5,0,0,0-4.61,3l-8,19a5,5,0,0,0,2.66,6.56A76.42,76.42,0,0,1,524.4,896a5,5,0,0,0,3,6.4l19.36,7a4.79,4.79,0,0,0,1.69.3,5,5,0,0,0,4.71-3.3,107,107,0,0,0-59-134.75,4.91,4.91,0,0,0-1.94-.39Z" transform="translate(0 -28.96)" fill="#fff"/><path d="M546.8,918.88a2.49,2.49,0,0,1-1.8-.77l-17.35-18a2.5,2.5,0,0,1,.69-4c66.16-32.91,144.09-51.78,213.8-51.78A470.86,470.86,0,0,1,946.65,890.5a2.5,2.5,0,0,1,1.25,3.18l-8.47,21.2a2.55,2.55,0,0,1-1.41,1.4,2.58,2.58,0,0,1-.91.17,2.41,2.41,0,0,1-1.08-.25c-62.34-29.76-127.81-44.85-194.6-44.85-64.52,0-127.83,15.46-193.55,47.28A2.55,2.55,0,0,1,546.8,918.88Z" transform="translate(0 -28.96)" fill="#00cefa"/><path d="M742.14,846.86a468.4,468.4,0,0,1,203.44,45.9L937.11,914c-61-29.12-127.56-45.11-195.68-45.11-69,0-133,17.72-194.63,47.54l-17.35-18c63.56-31.61,140.6-51.52,212.69-51.52m0-5c-70.09,0-148.42,19-214.92,52a5,5,0,0,0-1.37,8l17.35,18a5,5,0,0,0,3.6,1.53,5.06,5.06,0,0,0,2.17-.5c65.38-31.65,128.33-47,192.46-47a438.32,438.32,0,0,1,99.38,11.51A462.37,462.37,0,0,1,935,918.46a5.09,5.09,0,0,0,2.16.49,5,5,0,0,0,4.64-3.15l8.47-21.19a5,5,0,0,0-2.49-6.37,473.5,473.5,0,0,0-205.59-46.38Z" transform="translate(0 -28.96)" fill="#fff"/><line x1="333.33" y1="1210.57" x2="333.33" y2="1210.57" fill="none" stroke="#000054" stroke-linecap="round" stroke-linejoin="round" stroke-width="5"/><line x1="333.33" y1="1220.51" x2="333.33" y2="1324.87" fill="none" stroke-dasharray="0 9.94" stroke-linecap="round" stroke-linejoin="round" stroke-width="5" stroke="#000054"/><line x1="333.33" y1="1329.83" x2="333.33" y2="1329.83" fill="none" stroke="#000054" stroke-linecap="round" stroke-linejoin="round" stroke-width="5"/><line x1="1066.67" y1="1210.57" x2="1066.67" y2="1210.57" fill="none" stroke="#000054" stroke-linecap="round" stroke-linejoin="round" stroke-width="5"/><line x1="1066.67" y1="1220.51" x2="1066.67" y2="1324.87" fill="none" stroke-dasharray="0 9.94" stroke-linecap="round" stroke-linejoin="round" stroke-width="5" stroke="#000054"/><line x1="1066.67" y1="1329.83" x2="1066.67" y2="1329.83" fill="none" stroke="#000054" stroke-linecap="round" stroke-linejoin="round" stroke-width="5"/><line x1="333.33" y1="1448.64" x2="333.33" y2="1448.64" fill="none" stroke="#000054" stroke-linecap="round" stroke-linejoin="round" stroke-width="5"/><line x1="333.33" y1="1458.55" x2="333.33" y2="1641.83" fill="none" stroke-dasharray="0 9.91" stroke-linecap="round" stroke-linejoin="round" stroke-width="5" stroke="#000054"/><line x1="333.33" y1="1646.78" x2="333.33" y2="1646.78" fill="none" stroke="#000054" stroke-linecap="round" stroke-linejoin="round" stroke-width="5"/><line x1="1066.67" y1="1448.64" x2="1066.67" y2="1448.64" fill="none" stroke="#000054" stroke-linecap="round" stroke-linejoin="round" stroke-width="5"/><line x1="1066.67" y1="1458.55" x2="1066.67" y2="1641.83" fill="none" stroke-dasharray="0 9.91" stroke-linecap="round" stroke-linejoin="round" stroke-width="5" stroke="#000054"/><line x1="1066.67" y1="1646.78" x2="1066.67" y2="1646.78" fill="none" stroke="#000054" stroke-linecap="round" stroke-linejoin="round" stroke-width="5"/><line x1="20.27" y1="1982.96" x2="388.96" y2="1982.96" fill="none" stroke-dasharray="0 10" stroke-linecap="round" stroke-linejoin="round" stroke-width="5" stroke="#000054"/><line x1="515.66" y1="1982.96" x2="884.34" y2="1982.96" fill="none" stroke="#000054" stroke-linecap="round" stroke-linejoin="round" stroke-width="8"/><line x1="1011.04" y1="1982.96" x2="1379.73" y2="1982.96" fill="none" stroke="#00cefa" stroke-linecap="square" stroke-linejoin="round" stroke-width="20"/></svg>