<svg xmlns="http://www.w3.org/2000/svg" viewBox="0 0 1320.37 628.17"><line x1="559.44" y1="404.73" x2="343.2" y2="404.73" fill="none" stroke="#000054" stroke-linecap="round" stroke-linejoin="round" stroke-width="6"/><line x1="1032.46" y1="404.73" x2="816.22" y2="404.73" fill="none" stroke="#000054" stroke-linecap="round" stroke-linejoin="round" stroke-width="6"/><path d="M121.6,442.42a111.2,111.2,0,0,0-1.52,17.31,95.65,95.65,0,0,0,95.67,95.66H338.44a95.15,95.15,0,0,0,58.31-19.74,50.82,50.82,0,0,0,24.59,6.08,52.56,52.56,0,0,0,52.54-52.54,51.6,51.6,0,0,0-13.36-34.93l.3-.3A87.59,87.59,0,0,0,483,396.56c0-47.68-38.57-86.55-86.24-86.55a88,88,0,0,0-49.2,15.18c-13.67-72-83.21-119.35-155.19-106s-119.65,83.21-106,155.18A132.43,132.43,0,0,0,121.6,442.42Z" transform="translate(-14.18 -19.2)" fill="#fff" stroke="#000054" stroke-linecap="round" stroke-linejoin="round" stroke-width="6"/><path d="M954.57,442.42a111.2,111.2,0,0,0-1.52,17.31,95.65,95.65,0,0,0,95.67,95.66h122.69a95.15,95.15,0,0,0,58.31-19.74,50.82,50.82,0,0,0,24.59,6.08,52.56,52.56,0,0,0,52.54-52.54,51.6,51.6,0,0,0-13.36-34.93l.3-.3a87.59,87.59,0,0,0,22.17-57.4c0-47.68-38.57-86.55-86.24-86.55a88,88,0,0,0-49.2,15.18c-13.67-72-83.21-119.35-155.19-106s-119.65,83.21-106,155.18A132.43,132.43,0,0,0,954.57,442.42Z" transform="translate(-14.18 -19.2)" fill="#fff" stroke="#000054" stroke-linecap="round" stroke-linejoin="round" stroke-width="6"/><path d="M457.75,601.71a48.8,48.8,0,0,0-5.45,22.65,50.16,50.16,0,0,0,5.4,23h-5.9a44.26,44.26,0,0,1-6.6-22.5c0-7.45,2.2-16.8,6.6-23.15Z" transform="translate(-14.18 -19.2)" fill="#000054"/><path d="M470.6,602.56h8L492,638.26h-8.15l-2.7-8H467.8l-2.8,8h-7.95Zm-.75,21.9h9.25l-4.5-13.1h-.1Z" transform="translate(-14.18 -19.2)" fill="#000054"/><path d="M491.3,647.36a48.46,48.46,0,0,0,5.45-22.6,50.51,50.51,0,0,0-5.4-23h5.9a44.58,44.58,0,0,1,6.6,22.55c0,7.45-2.2,16.8-6.6,23.1Z" transform="translate(-14.18 -19.2)" fill="#000054"/><path d="M549.6,634.21a12.08,12.08,0,0,1-9.8,4.9c-11,0-17.55-8.25-17.55-18.55,0-10.6,6.5-18.85,17.55-18.85,7.3,0,14.2,4.5,15.05,12.6h-7.5a7.32,7.32,0,0,0-7.55-6c-7,0-9.7,6-9.7,12.25,0,6,2.65,12,9.7,12,5.1,0,8.05-2.75,8.5-7.7h-7.9V619h15v19.3h-5Z" transform="translate(-14.18 -19.2)" fill="#000054"/><path d="M561.75,602.56h26.7v6.6H569.6v7.65h17.3v6.1H569.6v8.75h19.25v6.6h-27.1Z" transform="translate(-14.18 -19.2)" fill="#000054"/><path d="M594.15,602.56H602l14.9,24h.1v-24h7.35v35.7h-7.85l-14.85-23.9h-.1v23.9h-7.35Z" transform="translate(-14.18 -19.2)" fill="#000054"/><path d="M631.2,602.56h26.7v6.6H639.05v7.65h17.3v6.1h-17.3v8.75H658.3v6.6H631.2Z" transform="translate(-14.18 -19.2)" fill="#000054"/><path d="M663.6,602.56h19.25c6.4,0,10.45,4.45,10.45,9.85,0,4.2-1.7,7.35-5.65,9v.1c3.85,1,5,4.75,5.2,8.35.15,2.25.1,6.45,1.5,8.45H686.5c-1-2.25-.85-5.7-1.25-8.55-.55-3.75-2-5.4-6-5.4h-7.85v14H663.6Zm7.85,16.15h8.6c3.5,0,5.4-1.5,5.4-5.1s-1.9-5-5.4-5h-8.6Z" transform="translate(-14.18 -19.2)" fill="#000054"/><path d="M709.45,602.56h8l13.35,35.7H722.7l-2.7-8H706.65l-2.8,8h-8Zm-.75,21.9H718l-4.5-13.1h-.1Z" transform="translate(-14.18 -19.2)" fill="#000054"/><path d="M734,602.56h7.85v29.1h17.4v6.6H734Z" transform="translate(-14.18 -19.2)" fill="#000054"/><path d="M777.5,602.56h11l8.35,24.55h.1l7.9-24.55H816v35.7H808.6V613h-.1l-8.75,25.3h-6l-8.75-25h-.1v25H777.5Z" transform="translate(-14.18 -19.2)" fill="#000054"/><path d="M838.85,601.71c11,0,17.55,8.25,17.55,18.85,0,10.3-6.5,18.55-17.55,18.55s-17.55-8.25-17.55-18.55C821.3,610,827.8,601.71,838.85,601.71Zm0,30.8c7,0,9.7-6,9.7-12,0-6.25-2.65-12.25-9.7-12.25s-9.7,6-9.7,12.25C829.15,626.51,831.8,632.51,838.85,632.51Z" transform="translate(-14.18 -19.2)" fill="#000054"/><path d="M861.75,602.56h15.4c9.25,0,16.2,5.8,16.2,17.65,0,10.35-5.3,18-16.2,18h-15.4Zm7.85,29.1h7c4.55,0,8.9-2.8,8.9-10.7,0-7.2-2.5-11.8-10.3-11.8h-5.6Z" transform="translate(-14.18 -19.2)" fill="#000054"/><path d="M898.8,602.56h26.7v6.6H906.65v7.65H924v6.1h-17.3v8.75H925.9v6.6H898.8Z" transform="translate(-14.18 -19.2)" fill="#000054"/><path d="M931.2,602.56h7.85v29.1h17.4v6.6H931.2Z" transform="translate(-14.18 -19.2)" fill="#000054"/><path d="M80.8,20h3.4v35.7H80.8Z" transform="translate(-14.18 -19.2)" fill="#000054"/><path d="M91,29.85h3.15V34.3h.1c1.15-3.1,4.6-5.2,8.25-5.2,7.25,0,9.45,3.8,9.45,9.95v16.6H108.8V39.55c0-4.45-1.45-7.8-6.55-7.8s-8,3.8-8.1,8.85v15H91Z" transform="translate(-14.18 -19.2)" fill="#000054"/><path d="M122.9,29.85h5.25V32.5H122.9V49.9c0,2.05.3,3.25,2.55,3.4a24.43,24.43,0,0,0,2.7-.15v2.7c-1,0-1.85.1-2.8.1-4.2,0-5.65-1.4-5.6-5.8V32.5h-4.5V29.85h4.5V22.1h3.15Z" transform="translate(-14.18 -19.2)" fill="#000054"/><path d="M134.55,43.6c0,4.6,2.45,10.15,8.5,10.15,4.6,0,7.1-2.7,8.1-6.6h3.15C153,53,149.55,56.4,143.05,56.4c-8.2,0-11.65-6.3-11.65-13.65,0-6.8,3.45-13.65,11.65-13.65s11.6,7.25,11.35,14.5ZM151.25,41c-.15-4.75-3.1-9.2-8.2-9.2s-8,4.5-8.5,9.2Z" transform="translate(-14.18 -19.2)" fill="#000054"/><path d="M158.65,29.85h2.9v6h.1a9.53,9.53,0,0,1,9.75-6.4v3.15c-5.7-.3-9.6,3.9-9.6,9.25V55.65h-3.15Z" transform="translate(-14.18 -19.2)" fill="#000054"/><path d="M174.35,29.85h3.15V34.3h.1c1.15-3.1,4.6-5.2,8.25-5.2,7.25,0,9.45,3.8,9.45,9.95v16.6h-3.15V39.55c0-4.45-1.45-7.8-6.55-7.8s-8,3.8-8.1,8.85v15h-3.15Z" transform="translate(-14.18 -19.2)" fill="#000054"/><path d="M201,37.75c.3-6.05,4.55-8.65,10.45-8.65,4.55,0,9.5,1.4,9.5,8.3V51.1a1.68,1.68,0,0,0,1.85,1.9,3,3,0,0,0,1-.2v2.65a8.64,8.64,0,0,1-2.05.2c-3.2,0-3.7-1.8-3.7-4.5h-.1c-2.2,3.35-4.45,5.25-9.4,5.25-4.75,0-8.65-2.35-8.65-7.55,0-7.25,7.05-7.5,13.85-8.3,2.6-.3,4.05-.65,4.05-3.5,0-4.25-3.05-5.3-6.75-5.3-3.9,0-6.8,1.8-6.9,6Zm16.8,3.8h-.1c-.4.75-1.8,1-2.65,1.15-5.35.95-12,.9-12,5.95,0,3.15,2.8,5.1,5.75,5.1,4.8,0,9.05-3,9-8.1Z" transform="translate(-14.18 -19.2)" fill="#000054"/><path d="M227.25,20h3.15v35.7h-3.15Z" transform="translate(-14.18 -19.2)" fill="#000054"/><path d="M257,65.2c-4.45-7.35-7-14.15-7-22.85a42.66,42.66,0,0,1,7-23.15h2.5c-4.45,7.1-6.4,15.5-6.4,24.3a44,44,0,0,0,6.4,21.7Z" transform="translate(-14.18 -19.2)" fill="#000054"/><path d="M262.4,29.85h2.9v4.9h.1a9.66,9.66,0,0,1,9.2-5.65c7.85,0,11.6,6.35,11.6,13.65S282.45,56.4,274.6,56.4c-3.85,0-7.6-1.95-9-5.65h-.1V65.2H262.4Zm12.2,1.9c-7,0-9.05,5.15-9.05,11,0,5.35,2.35,11,9.05,11,6,0,8.45-5.65,8.45-11S280.6,31.75,274.6,31.75Z" transform="translate(-14.18 -19.2)" fill="#000054"/><path d="M291.1,29.85H294v6h.1a9.53,9.53,0,0,1,9.75-6.4v3.15c-5.7-.3-9.6,3.9-9.6,9.25V55.65H291.1Z" transform="translate(-14.18 -19.2)" fill="#000054"/><path d="M330,42.75c0,7.4-4.3,13.65-12.2,13.65s-12.2-6.25-12.2-13.65,4.3-13.65,12.2-13.65S330,35.35,330,42.75Zm-21.25,0c0,5.5,3,11,9.05,11s9.05-5.5,9.05-11-3-11-9.05-11S308.7,37.25,308.7,42.75Z" transform="translate(-14.18 -19.2)" fill="#000054"/><path d="M339.65,29.85h5.25V32.5h-5.25V49.9c0,2.05.3,3.25,2.55,3.4a24.43,24.43,0,0,0,2.7-.15v2.7c-.95,0-1.85.1-2.8.1-4.2,0-5.65-1.4-5.6-5.8V32.5H332V29.85h4.5V22.1h3.15Z" transform="translate(-14.18 -19.2)" fill="#000054"/><path d="M351.3,43.6c.05,4.6,2.45,10.15,8.5,10.15,4.6,0,7.1-2.7,8.1-6.6h3.15C369.7,53,366.3,56.4,359.8,56.4c-8.2,0-11.65-6.3-11.65-13.65,0-6.8,3.45-13.65,11.65-13.65s11.6,7.25,11.35,14.5ZM368,41c-.15-4.75-3.1-9.2-8.2-9.2s-8,4.5-8.5,9.2Z" transform="translate(-14.18 -19.2)" fill="#000054"/><path d="M393.6,38c-.85-3.85-3.2-6.2-7.3-6.2-6.05,0-9.05,5.5-9.05,11s3,11,9.05,11c3.9,0,7.1-3,7.5-7.35H397c-.85,6.2-4.9,10-10.65,10-7.9,0-12.2-6.25-12.2-13.65s4.3-13.65,12.2-13.65c5.5,0,9.75,2.95,10.45,8.85Z" transform="translate(-14.18 -19.2)" fill="#000054"/><path d="M406.35,29.85h5.25V32.5h-5.25V49.9c0,2.05.3,3.25,2.55,3.4a24.43,24.43,0,0,0,2.7-.15v2.7c-1,0-1.85.1-2.8.1-4.2,0-5.65-1.4-5.6-5.8V32.5h-4.5V29.85h4.5V22.1h3.15Z" transform="translate(-14.18 -19.2)" fill="#000054"/><path d="M418,43.6c.05,4.6,2.45,10.15,8.5,10.15,4.6,0,7.1-2.7,8.1-6.6h3.15C436.4,53,433,56.4,426.5,56.4c-8.2,0-11.65-6.3-11.65-13.65,0-6.8,3.45-13.65,11.65-13.65s11.6,7.25,11.35,14.5ZM434.7,41c-.15-4.75-3.1-9.2-8.2-9.2s-8,4.5-8.5,9.2Z" transform="translate(-14.18 -19.2)" fill="#000054"/><path d="M464.8,55.65h-2.9v-4.9h-.1c-1.35,3.35-5.45,5.65-9.2,5.65-7.85,0-11.6-6.35-11.6-13.65s3.75-13.65,11.6-13.65c3.85,0,7.6,1.95,8.95,5.65h.1V20h3.15Zm-12.2-1.9c6.7,0,9-5.65,9-11s-2.35-11-9-11c-6,0-8.45,5.65-8.45,11S446.6,53.75,452.6,53.75Z" transform="translate(-14.18 -19.2)" fill="#000054"/><path d="M470.25,19.2c4.45,7.35,7.05,14.15,7.05,22.85a42.66,42.66,0,0,1-7.05,23.15h-2.5c4.45-7.1,6.4-15.5,6.4-24.3a44,44,0,0,0-6.4-21.7Z" transform="translate(-14.18 -19.2)" fill="#000054"/><path d="M194.75,89.85h3.15V94.3h.1c1.15-3.1,4.6-5.2,8.25-5.2,7.25,0,9.45,3.8,9.45,10v16.6h-3.15V99.55c0-4.45-1.45-7.8-6.55-7.8s-8,3.8-8.1,8.85v15.05h-3.15Z" transform="translate(-14.18 -19.2)" fill="#000054"/><path d="M223.5,103.6c.05,4.6,2.45,10.15,8.5,10.15,4.6,0,7.1-2.7,8.1-6.6h3.15C241.9,113,238.5,116.4,232,116.4c-8.2,0-11.65-6.3-11.65-13.65,0-6.8,3.45-13.65,11.65-13.65s11.6,7.25,11.35,14.5ZM240.2,101c-.15-4.75-3.1-9.2-8.2-9.2s-8,4.5-8.5,9.2Z" transform="translate(-14.18 -19.2)" fill="#000054"/><path d="M252.6,89.85h5.25V92.5H252.6v17.4c0,2,.3,3.25,2.55,3.4a24.43,24.43,0,0,0,2.7-.15v2.7c-1,0-1.85.1-2.8.1-4.2,0-5.65-1.4-5.6-5.8V92.5H245V89.85h4.5V82.1h3.15Z" transform="translate(-14.18 -19.2)" fill="#000054"/><path d="M259.8,89.85h3.35l6.6,22.1h.1l6.3-22.1h3.55L286,112h.1l6.6-22.1h3.35l-8.3,25.8H284.3L278,94h-.1l-6.3,21.7H268.1Z" transform="translate(-14.18 -19.2)" fill="#000054"/><path d="M322.55,102.75c0,7.4-4.3,13.65-12.2,13.65s-12.2-6.25-12.2-13.65,4.3-13.65,12.2-13.65S322.55,95.35,322.55,102.75Zm-21.25,0c0,5.5,3,11,9.05,11s9-5.5,9-11-3-11-9-11S301.3,97.25,301.3,102.75Z" transform="translate(-14.18 -19.2)" fill="#000054"/><path d="M327.25,89.85h2.9V95.9h.1A9.53,9.53,0,0,1,340,89.5v3.15c-5.7-.3-9.6,3.9-9.6,9.25v13.75h-3.15Z" transform="translate(-14.18 -19.2)" fill="#000054"/><path d="M343,80h3.15v22.4l14.3-12.5h4.2l-11,9.55,11.75,16.25h-3.95l-10.2-14.05-5.1,4.25v9.8H343Z" transform="translate(-14.18 -19.2)" fill="#000054"/><path d="M21.23,185.2c-4.45-7.35-7-14.15-7-22.85a42.66,42.66,0,0,1,7.05-23.15h2.5c-4.45,7.1-6.4,15.5-6.4,24.3a44,44,0,0,0,6.4,21.7Z" transform="translate(-14.18 -19.2)" fill="#000054"/><path d="M28.53,163.6c0,4.6,2.45,10.15,8.5,10.15,4.6,0,7.1-2.7,8.1-6.6h3.15C46.93,173,43.53,176.4,37,176.4c-8.2,0-11.65-6.3-11.65-13.65,0-6.8,3.45-13.65,11.65-13.65s11.6,7.25,11.35,14.5ZM45.23,161c-.15-4.75-3.1-9.2-8.2-9.2s-8,4.5-8.5,9.2Z" transform="translate(-14.18 -19.2)" fill="#000054"/><path d="M54.48,175.65v-5.3h4.2v5.3Z" transform="translate(-14.18 -19.2)" fill="#000054"/><path d="M88.33,173.55c0,7.7-3,12.4-11.45,12.4-5.15,0-10.25-2.3-10.7-7.8h3.15c.7,3.8,4,5.15,7.55,5.15,5.8,0,8.3-3.45,8.3-9.75v-3.5h-.1a8.94,8.94,0,0,1-8.2,5.3c-8.25,0-11.65-5.9-11.65-13.25,0-7.1,4.2-13,11.65-13a9.08,9.08,0,0,1,8.2,5.2h.1v-4.45h3.15Zm-3.15-11.1c0-5-2.35-10.7-8.3-10.7s-8.5,5.35-8.5,10.7,2.7,10.25,8.5,10.25C82.33,172.7,85.18,167.7,85.18,162.45Z" transform="translate(-14.18 -19.2)" fill="#000054"/><path d="M96.18,175.65v-5.3h4.2v5.3Z" transform="translate(-14.18 -19.2)" fill="#000054"/><path d="M114.28,170.35v5.35c0,2.9-1.4,6-4.4,6.8v-2.15c1.65-.6,2.4-3,2.3-4.7h-2.1v-5.3Z" transform="translate(-14.18 -19.2)" fill="#000054"/><path d="M137.88,163.6c.05,4.6,2.45,10.15,8.5,10.15,4.6,0,7.1-2.7,8.1-6.6h3.15c-1.35,5.85-4.75,9.25-11.25,9.25-8.2,0-11.65-6.3-11.65-13.65,0-6.8,3.45-13.65,11.65-13.65s11.6,7.25,11.35,14.5Zm16.7-2.65c-.15-4.75-3.1-9.2-8.2-9.2s-8,4.5-8.5,9.2Z" transform="translate(-14.18 -19.2)" fill="#000054"/><path d="M161.93,149.85h3.15v4.45h.1c1.15-3.1,4.6-5.2,8.25-5.2,7.25,0,9.45,3.8,9.45,10v16.6h-3.15v-16.1c0-4.45-1.45-7.8-6.55-7.8s-8,3.8-8.1,8.85v15.05h-3.15Z" transform="translate(-14.18 -19.2)" fill="#000054"/><path d="M193.83,149.85h5.25v2.65h-5.25v17.4c0,2,.3,3.25,2.55,3.4a24.43,24.43,0,0,0,2.7-.15v2.7c-1,0-1.85.1-2.8.1-4.2,0-5.65-1.4-5.6-5.8V152.5h-4.5v-2.65h4.5V142.1h3.15Z" transform="translate(-14.18 -19.2)" fill="#000054"/><path d="M205.48,163.6c.05,4.6,2.45,10.15,8.5,10.15,4.6,0,7.1-2.7,8.1-6.6h3.15c-1.35,5.85-4.75,9.25-11.25,9.25-8.2,0-11.65-6.3-11.65-13.65,0-6.8,3.45-13.65,11.65-13.65s11.6,7.25,11.35,14.5Zm16.7-2.65c-.15-4.75-3.1-9.2-8.2-9.2s-8,4.5-8.5,9.2Z" transform="translate(-14.18 -19.2)" fill="#000054"/><path d="M229.58,149.85h2.9v6.05h.1a9.53,9.53,0,0,1,9.75-6.4v3.15c-5.7-.3-9.6,3.9-9.6,9.25v13.75h-3.15Z" transform="translate(-14.18 -19.2)" fill="#000054"/><path d="M245.32,149.85h2.91v4.9h.1a9.66,9.66,0,0,1,9.2-5.65c7.85,0,11.6,6.35,11.6,13.65s-3.75,13.65-11.6,13.65c-3.85,0-7.6-2-8.95-5.65h-.1V185.2h-3.16Zm12.21,1.9c-6.95,0-9,5.15-9,11,0,5.35,2.35,11,9,11,6,0,8.45-5.65,8.45-11S263.53,151.75,257.53,151.75Z" transform="translate(-14.18 -19.2)" fill="#000054"/><path d="M274,149.85h2.9v6.05h.1a9.55,9.55,0,0,1,9.76-6.4v3.15c-5.7-.3-9.61,3.9-9.61,9.25v13.75H274Z" transform="translate(-14.18 -19.2)" fill="#000054"/><path d="M289.82,140H293V145h-3.15Zm0,9.9H293v25.8h-3.15Z" transform="translate(-14.18 -19.2)" fill="#000054"/><path d="M314.48,157.4c-.15-3.9-3.16-5.65-6.76-5.65-2.8,0-6.1,1.1-6.1,4.45,0,2.8,3.2,3.8,5.35,4.35l4.2.95c3.6.55,7.36,2.65,7.36,7.15,0,5.6-5.55,7.75-10.36,7.75-6,0-10.1-2.8-10.6-9.1h3.15c.25,4.25,3.4,6.45,7.6,6.45,2.95,0,7.06-1.3,7.06-4.9,0-3-2.81-4-5.66-4.7l-4.05-.9c-4.1-1.1-7.2-2.5-7.2-6.9,0-5.25,5.15-7.25,9.7-7.25,5.16,0,9.26,2.7,9.46,8.3Z" transform="translate(-14.18 -19.2)" fill="#000054"/><path d="M324.92,163.6c.05,4.6,2.45,10.15,8.5,10.15,4.6,0,7.1-2.7,8.1-6.6h3.15c-1.35,5.85-4.75,9.25-11.25,9.25-8.2,0-11.65-6.3-11.65-13.65,0-6.8,3.45-13.65,11.65-13.65s11.6,7.25,11.35,14.5Zm16.7-2.65c-.15-4.75-3.1-9.2-8.2-9.2s-8,4.5-8.5,9.2Z" transform="translate(-14.18 -19.2)" fill="#000054"/><path d="M362.87,149.85H366v4.45h.1c1.15-3.1,4.6-5.2,8.25-5.2,7.25,0,9.45,3.8,9.45,10v16.6h-3.15v-16.1c0-4.45-1.45-7.8-6.55-7.8s-8,3.8-8.1,8.85v15.05h-3.15Z" transform="translate(-14.18 -19.2)" fill="#000054"/><path d="M391.62,163.6c.05,4.6,2.45,10.15,8.5,10.15,4.6,0,7.1-2.7,8.1-6.6h3.15c-1.35,5.85-4.75,9.25-11.25,9.25-8.2,0-11.65-6.3-11.65-13.65,0-6.8,3.45-13.65,11.65-13.65s11.6,7.25,11.35,14.5Zm16.7-2.65c-.15-4.75-3.1-9.2-8.2-9.2s-8,4.5-8.5,9.2Z" transform="translate(-14.18 -19.2)" fill="#000054"/><path d="M420.72,149.85H426v2.65h-5.25v17.4c0,2,.3,3.25,2.55,3.4a24.43,24.43,0,0,0,2.7-.15v2.7c-1,0-1.85.1-2.8.1-4.2,0-5.65-1.4-5.6-5.8V152.5h-4.5v-2.65h4.5V142.1h3.15Z" transform="translate(-14.18 -19.2)" fill="#000054"/><path d="M427.92,149.85h3.35l6.6,22.1h.1l6.3-22.1h3.55l6.3,22.1h.1l6.6-22.1h3.35l-8.3,25.8h-3.45L446.07,154H446l-6.3,21.7h-3.45Z" transform="translate(-14.18 -19.2)" fill="#000054"/><path d="M490.67,162.75c0,7.4-4.3,13.65-12.2,13.65s-12.2-6.25-12.2-13.65,4.3-13.65,12.2-13.65S490.67,155.35,490.67,162.75Zm-21.25,0c0,5.5,3,11,9.05,11s9-5.5,9-11-3-11-9-11S469.42,157.25,469.42,162.75Z" transform="translate(-14.18 -19.2)" fill="#000054"/><path d="M495.37,149.85h2.9v6.05h.1a9.53,9.53,0,0,1,9.75-6.4v3.15c-5.7-.3-9.6,3.9-9.6,9.25v13.75h-3.15Z" transform="translate(-14.18 -19.2)" fill="#000054"/><path d="M511.12,140h3.15v22.4l14.3-12.5h4.2l-11,9.55,11.75,16.25h-3.95l-10.2-14.05-5.1,4.25v9.8h-3.15Z" transform="translate(-14.18 -19.2)" fill="#000054"/><path d="M535.57,139.2c4.45,7.35,7,14.15,7,22.85a42.66,42.66,0,0,1-7,23.15h-2.5c4.45-7.1,6.4-15.5,6.4-24.3a44,44,0,0,0-6.4-21.7Z" transform="translate(-14.18 -19.2)" fill="#000054"/><path d="M925.86,20h24.65v2.9H929.26v12.9h19.9v2.9h-19.9v14.1h21.5v2.9h-24.9Z" transform="translate(-14.18 -19.2)" fill="#000054"/><path d="M962,42.25l-9.25-12.4h3.95l7.35,9.8,7.2-9.8h3.95l-9.3,12.35,10,13.45h-4l-8.1-10.85-7.95,10.85H952Z" transform="translate(-14.18 -19.2)" fill="#000054"/><path d="M984,29.85h5.25V32.5H984V49.9c0,2.05.3,3.25,2.55,3.4a24.43,24.43,0,0,0,2.7-.15v2.7c-1,0-1.85.1-2.8.1-4.2,0-5.65-1.4-5.6-5.8V32.5h-4.5V29.85h4.5V22.1H984Z" transform="translate(-14.18 -19.2)" fill="#000054"/><path d="M995.61,43.6c0,4.6,2.45,10.15,8.5,10.15,4.6,0,7.1-2.7,8.1-6.6h3.15c-1.35,5.85-4.75,9.25-11.25,9.25-8.2,0-11.65-6.3-11.65-13.65,0-6.8,3.45-13.65,11.65-13.65s11.6,7.25,11.35,14.5Zm16.7-2.65c-.15-4.75-3.1-9.2-8.2-9.2s-8,4.5-8.5,9.2Z" transform="translate(-14.18 -19.2)" fill="#000054"/><path d="M1019.71,29.85h2.9v6h.1a9.53,9.53,0,0,1,9.75-6.4v3.15c-5.7-.3-9.6,3.9-9.6,9.25V55.65h-3.15Z" transform="translate(-14.18 -19.2)" fill="#000054"/><path d="M1035.41,29.85h3.15V34.3h.1c1.15-3.1,4.6-5.2,8.25-5.2,7.25,0,9.45,3.8,9.45,9.95v16.6h-3.15V39.55c0-4.45-1.45-7.8-6.55-7.8s-8,3.8-8.1,8.85v15h-3.15Z" transform="translate(-14.18 -19.2)" fill="#000054"/><path d="M1062,37.75c.3-6.05,4.55-8.65,10.45-8.65,4.55,0,9.5,1.4,9.5,8.3V51.1a1.68,1.68,0,0,0,1.85,1.9,3,3,0,0,0,1-.2v2.65a8.64,8.64,0,0,1-2,.2c-3.2,0-3.7-1.8-3.7-4.5h-.1c-2.2,3.35-4.45,5.25-9.4,5.25-4.75,0-8.65-2.35-8.65-7.55,0-7.25,7-7.5,13.85-8.3,2.6-.3,4-.65,4-3.5,0-4.25-3-5.3-6.75-5.3-3.9,0-6.8,1.8-6.9,6Zm16.8,3.8h-.1c-.4.75-1.8,1-2.65,1.15-5.35.95-12,.9-12,5.95,0,3.15,2.8,5.1,5.75,5.1,4.8,0,9-3,9-8.1Z" transform="translate(-14.18 -19.2)" fill="#000054"/><path d="M1088.31,20h3.15v35.7h-3.15Z" transform="translate(-14.18 -19.2)" fill="#000054"/><path d="M1118,65.2c-4.45-7.35-7-14.15-7-22.85a42.66,42.66,0,0,1,7-23.15h2.5c-4.45,7.1-6.4,15.5-6.4,24.3a44,44,0,0,0,6.4,21.7Z" transform="translate(-14.18 -19.2)" fill="#000054"/><path d="M1144.36,55.65h-2.9V51h-.1a9.6,9.6,0,0,1-8.9,5.4c-6.5,0-9-3.8-9-9.8V29.85h3.15v16.8c.15,4.65,1.9,7.1,6.9,7.1,5.4,0,7.75-5.1,7.75-10.35V29.85h3.15Z" transform="translate(-14.18 -19.2)" fill="#000054"/><path d="M1150.26,29.85h3.15V34.3h.1c1.15-3.1,4.6-5.2,8.25-5.2,7.25,0,9.45,3.8,9.45,9.95v16.6h-3.15V39.55c0-4.45-1.45-7.8-6.55-7.8s-8,3.8-8.1,8.85v15h-3.15Z" transform="translate(-14.18 -19.2)" fill="#000054"/><path d="M1182.16,29.85h5.25V32.5h-5.25V49.9c0,2.05.3,3.25,2.55,3.4a24.43,24.43,0,0,0,2.7-.15v2.7c-1,0-1.85.1-2.8.1-4.2,0-5.65-1.4-5.61-5.8V32.5h-4.5V29.85h4.5V22.1h3.16Z" transform="translate(-14.18 -19.2)" fill="#000054"/><path d="M1192,29.85h2.9v6h.11a9.52,9.52,0,0,1,9.75-6.4v3.15c-5.71-.3-9.61,3.9-9.61,9.25V55.65H1192Z" transform="translate(-14.18 -19.2)" fill="#000054"/><path d="M1228.61,55.65h-2.9V51h-.1a9.61,9.61,0,0,1-8.9,5.4c-6.51,0-9.06-3.8-9.06-9.8V29.85h3.15v16.8c.15,4.65,1.9,7.1,6.91,7.1,5.4,0,7.75-5.1,7.75-10.35V29.85h3.15Z" transform="translate(-14.18 -19.2)" fill="#000054"/><path d="M1250,37.4c-.15-3.9-3.15-5.65-6.75-5.65-2.8,0-6.1,1.1-6.1,4.45,0,2.8,3.2,3.8,5.35,4.35l4.2,1c3.6.55,7.35,2.65,7.35,7.15,0,5.6-5.55,7.75-10.35,7.75-6,0-10.1-2.8-10.6-9.1h3.15c.25,4.25,3.4,6.45,7.6,6.45,3,0,7.05-1.3,7.05-4.9,0-3-2.8-4-5.65-4.7l-4-.9c-4.1-1.1-7.2-2.5-7.2-6.9,0-5.25,5.15-7.25,9.7-7.25,5.15,0,9.26,2.7,9.46,8.3Z" transform="translate(-14.18 -19.2)" fill="#000054"/><path d="M1263.6,29.85h5.25V32.5h-5.25V49.9c0,2.05.3,3.25,2.55,3.4a24.43,24.43,0,0,0,2.7-.15v2.7c-.95,0-1.85.1-2.8.1-4.2,0-5.65-1.4-5.6-5.8V32.5H1256V29.85h4.5V22.1h3.15Z" transform="translate(-14.18 -19.2)" fill="#000054"/><path d="M1275.25,43.6c0,4.6,2.45,10.15,8.5,10.15,4.6,0,7.1-2.7,8.1-6.6H1295c-1.35,5.85-4.75,9.25-11.25,9.25-8.2,0-11.65-6.3-11.65-13.65,0-6.8,3.45-13.65,11.65-13.65s11.6,7.25,11.35,14.5ZM1292,41c-.15-4.75-3.1-9.2-8.2-9.2s-8,4.5-8.5,9.2Z" transform="translate(-14.18 -19.2)" fill="#000054"/><path d="M1322.05,55.65h-2.9v-4.9h-.1c-1.35,3.35-5.45,5.65-9.2,5.65-7.85,0-11.6-6.35-11.6-13.65s3.75-13.65,11.6-13.65c3.85,0,7.6,1.95,9,5.65h.1V20h3.15Zm-12.2-1.9c6.7,0,9.05-5.65,9.05-11s-2.35-11-9.05-11c-6,0-8.45,5.65-8.45,11S1303.85,53.75,1309.85,53.75Z" transform="translate(-14.18 -19.2)" fill="#000054"/><path d="M1327.5,19.2c4.45,7.35,7,14.15,7,22.85a42.66,42.66,0,0,1-7,23.15H1325c4.45-7.1,6.4-15.5,6.4-24.3a44,44,0,0,0-6.4-21.7Z" transform="translate(-14.18 -19.2)" fill="#000054"/><path d="M1046,89.85h3.15V94.3h.1c1.15-3.1,4.6-5.2,8.25-5.2,7.25,0,9.45,3.8,9.45,10v16.6h-3.15V99.55c0-4.45-1.45-7.8-6.55-7.8s-8,3.8-8.1,8.85v15.05H1046Z" transform="translate(-14.18 -19.2)" fill="#000054"/><path d="M1074.78,103.6c0,4.6,2.45,10.15,8.5,10.15,4.6,0,7.1-2.7,8.1-6.6h3.15c-1.35,5.85-4.75,9.25-11.25,9.25-8.2,0-11.65-6.3-11.65-13.65,0-6.8,3.45-13.65,11.65-13.65s11.6,7.25,11.35,14.5Zm16.7-2.65c-.15-4.75-3.1-9.2-8.2-9.2s-8,4.5-8.5,9.2Z" transform="translate(-14.18 -19.2)" fill="#000054"/><path d="M1103.88,89.85h5.25V92.5h-5.25v17.4c0,2,.3,3.25,2.55,3.4a24.43,24.43,0,0,0,2.7-.15v2.7c-1,0-1.85.1-2.8.1-4.2,0-5.65-1.4-5.6-5.8V92.5h-4.5V89.85h4.5V82.1h3.15Z" transform="translate(-14.18 -19.2)" fill="#000054"/><path d="M1111.08,89.85h3.35L1121,112h.1l6.3-22.1H1131l6.3,22.1h.1l6.6-22.1h3.35l-8.3,25.8h-3.45L1129.23,94h-.1l-6.3,21.7h-3.45Z" transform="translate(-14.18 -19.2)" fill="#000054"/><path d="M1173.83,102.75c0,7.4-4.3,13.65-12.2,13.65s-12.2-6.25-12.2-13.65,4.3-13.65,12.2-13.65S1173.83,95.35,1173.83,102.75Zm-21.25,0c0,5.5,3,11,9.05,11s9-5.5,9-11-3-11-9-11S1152.58,97.25,1152.58,102.75Z" transform="translate(-14.18 -19.2)" fill="#000054"/><path d="M1178.53,89.85h2.9V95.9h.1a9.53,9.53,0,0,1,9.75-6.4v3.15c-5.7-.3-9.6,3.9-9.6,9.25v13.75h-3.15Z" transform="translate(-14.18 -19.2)" fill="#000054"/><path d="M1194.28,80h3.15v22.4l14.3-12.5h4.2l-11,9.55,11.75,16.25h-4l-10.2-14.05-5.1,4.25v9.8h-3.15Z" transform="translate(-14.18 -19.2)" fill="#000054"/><path d="M991.53,185.2c-4.45-7.35-7-14.15-7-22.85a42.66,42.66,0,0,1,7-23.15H994c-4.45,7.1-6.4,15.5-6.4,24.3a44,44,0,0,0,6.4,21.7Z" transform="translate(-14.18 -19.2)" fill="#000054"/><path d="M998.83,163.6c0,4.6,2.45,10.15,8.5,10.15,4.6,0,7.1-2.7,8.1-6.6h3.15c-1.35,5.85-4.75,9.25-11.25,9.25-8.2,0-11.65-6.3-11.65-13.65,0-6.8,3.45-13.65,11.65-13.65s11.6,7.25,11.35,14.5Zm16.7-2.65c-.15-4.75-3.1-9.2-8.2-9.2s-8,4.5-8.5,9.2Z" transform="translate(-14.18 -19.2)" fill="#000054"/><path d="M1024.78,175.65v-5.3h4.2v5.3Z" transform="translate(-14.18 -19.2)" fill="#000054"/><path d="M1058.63,173.55c-.05,7.7-3,12.4-11.45,12.4-5.15,0-10.25-2.3-10.7-7.8h3.15c.7,3.8,4,5.15,7.55,5.15,5.8,0,8.3-3.45,8.3-9.75v-3.5h-.1a8.94,8.94,0,0,1-8.2,5.3c-8.25,0-11.65-5.9-11.65-13.25,0-7.1,4.2-13,11.65-13a9.08,9.08,0,0,1,8.2,5.2h.1v-4.45h3.15Zm-3.15-11.1c0-5-2.35-10.7-8.3-10.7s-8.5,5.35-8.5,10.7,2.7,10.25,8.5,10.25C1052.63,172.7,1055.48,167.7,1055.48,162.45Z" transform="translate(-14.18 -19.2)" fill="#000054"/><path d="M1066.48,175.65v-5.3h4.2v5.3Z" transform="translate(-14.18 -19.2)" fill="#000054"/><path d="M1084.58,170.35v5.35c0,2.9-1.4,6-4.4,6.8v-2.15c1.65-.6,2.4-3,2.3-4.7h-2.1v-5.3Z" transform="translate(-14.18 -19.2)" fill="#000054"/><path d="M1107.18,140h3.4v35.7h-3.4Z" transform="translate(-14.18 -19.2)" fill="#000054"/><path d="M1117.38,149.85h3.15v4.45h.1c1.15-3.1,4.6-5.2,8.25-5.2,7.25,0,9.45,3.8,9.45,10v16.6h-3.15v-16.1c0-4.45-1.45-7.8-6.55-7.8s-8,3.8-8.1,8.85v15.05h-3.15Z" transform="translate(-14.18 -19.2)" fill="#000054"/><path d="M1149.28,149.85h5.25v2.65h-5.25v17.4c0,2,.3,3.25,2.55,3.4a24.43,24.43,0,0,0,2.7-.15v2.7c-1,0-1.85.1-2.8.1-4.2,0-5.65-1.4-5.6-5.8V152.5h-4.5v-2.65h4.5V142.1h3.15Z" transform="translate(-14.18 -19.2)" fill="#000054"/><path d="M1160.93,163.6c0,4.6,2.45,10.15,8.5,10.15,4.6,0,7.1-2.7,8.1-6.6h3.15c-1.35,5.85-4.75,9.25-11.25,9.25-8.2,0-11.65-6.3-11.65-13.65,0-6.8,3.45-13.65,11.65-13.65s11.6,7.25,11.35,14.5Zm16.7-2.65c-.15-4.75-3.1-9.2-8.2-9.2s-8,4.5-8.5,9.2Z" transform="translate(-14.18 -19.2)" fill="#000054"/><path d="M1185,149.85h2.9v6.05h.1a9.53,9.53,0,0,1,9.75-6.4v3.15c-5.7-.3-9.6,3.9-9.6,9.25v13.75H1185Z" transform="translate(-14.18 -19.2)" fill="#000054"/><path d="M1200.73,149.85h3.15v4.45h.1c1.15-3.1,4.6-5.2,8.25-5.2,7.25,0,9.45,3.8,9.45,10v16.6h-3.15v-16.1c0-4.45-1.45-7.8-6.55-7.8s-8,3.8-8.1,8.85v15.05h-3.15Z" transform="translate(-14.18 -19.2)" fill="#000054"/><path d="M1229.48,163.6c0,4.6,2.45,10.15,8.5,10.15,4.6,0,7.1-2.7,8.1-6.6h3.15c-1.35,5.85-4.75,9.25-11.25,9.25-8.2,0-11.65-6.3-11.65-13.65,0-6.8,3.45-13.65,11.65-13.65s11.6,7.25,11.35,14.5Zm16.7-2.65c-.15-4.75-3.1-9.2-8.2-9.2s-8,4.5-8.5,9.2Z" transform="translate(-14.18 -19.2)" fill="#000054"/><path d="M1258.58,149.85h5.25v2.65h-5.25v17.4c0,2,.3,3.25,2.55,3.4a24.43,24.43,0,0,0,2.7-.15v2.7c-.95,0-1.85.1-2.8.1-4.2,0-5.65-1.4-5.6-5.8V152.5h-4.5v-2.65h4.5V142.1h3.15Z" transform="translate(-14.18 -19.2)" fill="#000054"/><path d="M1267.83,139.2c4.45,7.35,7.05,14.15,7.05,22.85a42.66,42.66,0,0,1-7.05,23.15h-2.5c4.45-7.1,6.4-15.5,6.4-24.3a44,44,0,0,0-6.4-21.7Z" transform="translate(-14.18 -19.2)" fill="#000054"/><path d="M624,80.76H646.6v2.9H627.35v12.9h17.1v2.9h-17.1v17H624Z" transform="translate(-14.18 -19.2)" fill="#000054"/><path d="M650.25,80.76h3.15v5h-3.15Zm0,9.9h3.15v25.81h-3.15Z" transform="translate(-14.18 -19.2)" fill="#000054"/><path d="M659.45,90.66h2.9v6h.1a9.53,9.53,0,0,1,9.75-6.4v3.15c-5.7-.3-9.6,3.9-9.6,9.25v13.76h-3.15Z" transform="translate(-14.18 -19.2)" fill="#000054"/><path d="M677.05,104.42c.05,4.6,2.45,10.15,8.5,10.15,4.6,0,7.1-2.7,8.1-6.6h3.15c-1.35,5.85-4.75,9.25-11.25,9.25-8.2,0-11.65-6.3-11.65-13.65,0-6.81,3.45-13.66,11.65-13.66s11.6,7.25,11.35,14.51Zm16.7-2.65c-.15-4.76-3.1-9.21-8.2-9.21s-8,4.5-8.5,9.21Z" transform="translate(-14.18 -19.2)" fill="#000054"/><path d="M698.55,90.66h3.35l6.6,22.11h.1l6.3-22.11h3.55l6.3,22.11h.1l6.6-22.11h3.35l-8.3,25.81h-3.45L716.7,94.76h-.1l-6.3,21.71h-3.45Z" transform="translate(-14.18 -19.2)" fill="#000054"/><path d="M737.9,98.57c.3-6.06,4.55-8.66,10.45-8.66,4.55,0,9.5,1.4,9.5,8.3v13.71a1.68,1.68,0,0,0,1.85,1.9,3,3,0,0,0,1-.2v2.65a8.64,8.64,0,0,1-2.05.2c-3.2,0-3.7-1.8-3.7-4.5h-.1c-2.2,3.35-4.45,5.25-9.4,5.25-4.75,0-8.65-2.35-8.65-7.55,0-7.25,7.05-7.5,13.85-8.31,2.6-.29,4.05-.65,4.05-3.5,0-4.25-3.05-5.3-6.75-5.3-3.9,0-6.8,1.8-6.9,6Zm16.8,3.79h-.1c-.4.76-1.8,1-2.65,1.16-5.35,1-12,.9-12,6,0,3.15,2.8,5.1,5.75,5.1,4.8,0,9-3,9-8.1Z" transform="translate(-14.18 -19.2)" fill="#000054"/><path d="M764.2,80.76h3.15v35.71H764.2Z" transform="translate(-14.18 -19.2)" fill="#000054"/><path d="M773.45,80.76h3.15v35.71h-3.15Z" transform="translate(-14.18 -19.2)" fill="#000054"/><path d="M579.79,499.4a13.65,13.65,0,0,1-9.87-9.87V451.07c1.1-1.47,2.58-2.07,5-2.07,14,0,28,.05,38.66.05h36.45V412.12H577.18l-.25.67-.1.24a1.82,1.82,0,0,0-.19.74l0,3.05c0,4.29,0,8.72,0,13.08a3.53,3.53,0,0,1-1.86,3.54,3.16,3.16,0,0,1-1.5.43c-1.06,0-2.15-.79-3.32-2.4V371.26a2.07,2.07,0,0,0,.39-.61c2.38-6.41,6.14-9,13-9h85l-.31-1.27c-.14-.6-.29-1.17-.44-1.73a32.6,32.6,0,0,1-.75-3.24,56.09,56.09,0,0,1,9.44-42.05,10,10,0,0,1,8.41-4.46,11.92,11.92,0,0,1,3.59.58A11.2,11.2,0,0,1,696,319.61l0,.37a27.9,27.9,0,0,0,1.1,7.44c1.61,4.71,5,7.52,9.21,7.52a11.36,11.36,0,0,0,8-3.71,13.07,13.07,0,0,1,9.13-4.32c4.81,0,8.84,3.53,10.52,9.22a45.89,45.89,0,0,1,1.5,8.58,3.39,3.39,0,0,1-.68,2.58,3.15,3.15,0,0,1-2.24,1.07h-.33c-2.38,0-3.11-2-3.33-3.2q-.21-1.1-.39-2.22a46.88,46.88,0,0,0-1.25-5.87c-.66-2.15-2.21-3.49-4.06-3.49a4.75,4.75,0,0,0-3.4,1.63c-4.2,4.42-8.38,6.58-12.8,6.58a15.67,15.67,0,0,1-6.06-1.31c-7.15-3-10.93-8.88-11.56-18,0-.37,0-.76,0-1.14,0-2.05-.07-4.87-3.58-5.59a5.31,5.31,0,0,0-1-.11c-2.54,0-3.62,2.11-4.41,3.65-.18.35-.35.68-.53,1a49.25,49.25,0,0,0-6.35,33.9v.07a2.23,2.23,0,0,0,0,.23c1.33,6.55,2.06,7.16,8.72,7.16h29.57c12.61,0,27.54,0,42.63.06,2.44,0,3.71-.9,4.44-3.1,7-21.14,3.52-41.08-10.42-59.26a3.27,3.27,0,0,0-2.39-1.56c-1.24,0-2,1.16-2.48,2-2.11,3.91-4.78,5.73-8.4,5.73-.2,0-.42,0-.63,0-4.45-.25-7.49-3.11-8.33-7.82-1-5.53-2.55-11.9-6.57-17.26a47.92,47.92,0,0,0-8.82-9.18c-7.84-6.07-12.12-13.33-13.08-22.2a4.53,4.53,0,0,0-.8-1.89c-.12-.19-.24-.39-.34-.59l-.53-1-1,.65-.54.32a5.49,5.49,0,0,0-1.47,1.09c-11.95,13.88-18.73,29.7-20.13,47-.38,4.7-2.57,7.68-6.51,8.85a9.19,9.19,0,0,1-2.63.4c-2.81,0-5.32-1.52-7.44-4.52a2.49,2.49,0,0,0-4.55-.2c-10.21,12.88-14.91,27.25-14,42.72,0,.38.06.75.1,1.13.05.56.1,1.1.11,1.63,0,2.11-1.17,3.57-3,3.71h-.3c-1.84,0-3.08-1.28-3.32-3.42a65.31,65.31,0,0,1,2.84-27.11,70.62,70.62,0,0,1,12.26-22.72c2.15-2.69,4.84-4.18,7.58-4.18s5.61,1.61,7.73,4.52a4.34,4.34,0,0,0,1.47,1.13l.51.29,1,.7.47-1.17c.08-.21.19-.42.29-.63a5.29,5.29,0,0,0,.64-1.88c1.66-18.81,9-35.94,22-50.92,2.16-2.5,4.45-3.72,7-3.72a9.59,9.59,0,0,1,2.62.4c4,1.14,6.08,3.76,6.47,8a24.15,24.15,0,0,0,10.25,17.93c9.67,7.06,15.55,16.75,18,29.64a6.56,6.56,0,0,0,1,2.22c.17.27.33.53.46.78l.66,1.24,1-1c.22-.22.45-.43.69-.64a8,8,0,0,0,1.64-1.79c2-3.24,4.9-5.1,8.06-5.1a9.45,9.45,0,0,1,7.41,4c15,19.33,19.24,40.64,12.51,63.34a10.84,10.84,0,0,0-.3,1.3c-.05.24-.1.5-.16.81l-.27,1.24h23.36c3.38,0,4.37,1,4.38,4.42,0,6.94,0,14,0,20.82v19.63c0,4.79-.66,5.46-5.39,5.46H657.1v36.92h86V432c0-.47,0-.94,0-1.41,0-1,0-2.12,0-3.17.08-2.39,1.33-3.81,3.34-3.81h.11c2,.05,3.19,1.41,3.2,3.75,0,4.77,0,9.45,0,14.41v7.07h73.53V411.94h-8.19c-1.78,0-3.24,0-4.61,0a3.76,3.76,0,0,1-3-1.38,3.13,3.13,0,0,1-.41-2.77c.47-1.66,1.67-2.48,3.67-2.5h12.68V394q0-9.47,0-18.95c0-4.77-1.94-6.73-6.68-6.76H815a7.46,7.46,0,0,1-1.37-.1,3.15,3.15,0,0,1-2.85-3,3.08,3.08,0,0,1,2.4-3.4,12.58,12.58,0,0,1,3.77-.58,13.24,13.24,0,0,1,12.92,10.25,19.78,19.78,0,0,1,.25,3.88v.24q0,47.58,0,95.16v14.43c0,8-2.14,11.08-9.93,14.26Zm213.26-6.67h23.81c4.58,0,6.54-2,6.55-6.65,0-9.38,0-18.91,0-27.11a13.6,13.6,0,0,0-.09-1.45l-.06-.61-.07-.95H793.05ZM576.63,456.92c0,2.76,0,5.52,0,8.26,0,7.4,0,15.06.07,22.55a4.9,4.9,0,0,0,5,4.92c3.13.05,6.57.07,10.82.07h14.54v-4c0-1.7,0-3.4,0-5.1,0-4,0-8.2,0-12.3,0-1.69.59-3.71,3.19-3.78h.13c2.74,0,3.27,2.37,3.34,3.79,0,.8,0,1.6,0,2.45v18.8h82.67V455.89H576.63Zm126.91,35.69H786V455.9h-82.5Zm-89.62-87.49h82.72v-3.9c0-1.57,0-3.14,0-4.71,0-3.66,0-7.44,0-11.15,0-2.62,1.27-4.18,3.32-4.18,3,0,3.35,3,3.36,4.25,0,2.43,0,4.91,0,7.31,0,1.06,0,2.11,0,3.17v9.17H786v-36.6H613.92Zm-21.41-36.83h-9.27c-4.72,0-6.64,2-6.65,6.79q0,9.48,0,19V405.1h30.33V368.29Z" transform="translate(-14.18 -19.2)" fill="#000054"/></svg>