<svg xmlns="http://www.w3.org/2000/svg" viewBox="0 0 1400 1008.61"><line x1="895.72" y1="601.22" x2="851.78" y2="601.22" fill="none" stroke="#000054" stroke-miterlimit="10" stroke-width="5"/><path d="M861.55,587a2.5,2.5,0,0,0,.76,3.45L894.58,611,862.31,631.5a2.5,2.5,0,0,0,2.69,4.22l35.57-22.65a2.5,2.5,0,0,0,0-4.22L865,586.19a2.54,2.54,0,0,0-1.34-.39A2.49,2.49,0,0,0,861.55,587Z" transform="translate(0 -9.73)" fill="#000054"/><path d="M587.53,660.25H831a9.82,9.82,0,0,0,4.62-1.2,13.27,13.27,0,0,0,1.27-.79l.29-.2c.4-.3.79-.62,1.18-1l0,0,.74-.71.15-.16c.18-.19.36-.38.53-.58l.05-.06c.38-.43.74-.88,1.09-1.36a.69.69,0,0,0,.11-.13,2.14,2.14,0,0,0,.13-.19c.34-.47.68-1,1-1.47h0a.59.59,0,0,1,0-.08c.37-.58.72-1.19,1.06-1.82l.08-.13c.08-.15.15-.32.24-.48.26-.51.52-1,.78-1.57l.15-.31c.17-.36.33-.73.49-1.11l.09-.19c.21-.49.41-1,.61-1.5,0-.12.09-.25.14-.37l.22-.6.54-1.53c.06-.19.13-.39.2-.58l.09-.29c.16-.49.31-1,.46-1.5,0-.16.1-.3.14-.46.21-.71.41-1.44.6-2.18l0-.12c.23-.9.45-1.81.65-2.74.16-.73.32-1.48.47-2.24a1.7,1.7,0,0,1,0-.22c.12-.65.24-1.31.35-2,.05-.32.11-.63.17-.95.15-1,.3-2,.44-3h0s0-.06,0-.09c.14-1.07.26-2.16.37-3.26,0-.36.07-.73.1-1.09.07-.79.14-1.59.2-2.39,0-.2,0-.4.05-.6l0-.64c0-.85.09-1.7.12-2.56,0-.38,0-.76,0-1.14,0-1.23.06-2.46.06-3.71,0-.29,0-.57,0-.85v-.3c0-1.56-.06-3.11-.13-4.63l0-.55c-.08-1.51-.18-3-.31-4.47,0-.09,0-.19,0-.29s0-.23,0-.35c-.07-.79-.16-1.58-.25-2.36,0-.12,0-.24,0-.36-.1-.89-.22-1.77-.34-2.64l-.12-.73c-.09-.64-.19-1.28-.3-1.91,0-.26-.09-.53-.14-.8-.12-.68-.25-1.36-.39-2,0-.12,0-.25-.07-.37s0-.06,0-.09c-.19-.92-.4-1.82-.61-2.7l-.15-.63c-.21-.83-.42-1.65-.65-2.44a1.33,1.33,0,0,1,0-.19c-.25-.85-.5-1.66-.76-2.46-.07-.2-.13-.39-.2-.58-.27-.8-.54-1.58-.83-2.34s-.55-1.36-.83-2l-.24-.55c-.24-.52-.48-1-.72-1.52-.07-.13-.13-.27-.2-.41-.31-.6-.62-1.18-.94-1.74l-.23-.37q-.39-.66-.81-1.29c0-.08-.1-.18-.16-.26s-.11-.14-.16-.22l-.46-.63c-.13-.19-.27-.38-.41-.55s-.32-.4-.48-.59-.19-.25-.29-.36l-.29-.31c-.3-.34-.62-.67-.94-1h0c-.13-.13-.27-.24-.41-.36s-.37-.34-.56-.49h0c-.27-.22-.55-.43-.83-.63a.33.33,0,0,1-.1-.06l-.22-.14-.43-.28-.47-.26-.28-.14c-.21-.11-.43-.21-.65-.3l-.11,0-.16-.06-.38-.15c-.22-.07-.44-.14-.66-.19h0l-.68-.15-.39-.05-.19,0-.15,0a7.34,7.34,0,0,0-.81-.05H587.48" transform="translate(0 -9.73)" fill="none" stroke="#000054" stroke-miterlimit="10" stroke-width="5"/><line x1="1151.14" y1="676.92" x2="1151.14" y2="813.53" fill="none" stroke="#000054" stroke-linecap="round" stroke-miterlimit="10" stroke-width="5"/><path d="M1127.14,720.82a2.49,2.49,0,0,0,3.45-.76l20.55-32.27,20.55,32.27a2.5,2.5,0,0,0,4.21-2.69l-22.65-35.57a2.5,2.5,0,0,0-4.22,0l-22.66,35.57a2.54,2.54,0,0,0-.39,1.34A2.49,2.49,0,0,0,1127.14,720.82Z" transform="translate(0 -9.73)" fill="#000054"/><line x1="387.41" y1="601.22" x2="87.08" y2="601.22" fill="none" stroke="#000054" stroke-miterlimit="10" stroke-width="5"/><path d="M353.24,587a2.49,2.49,0,0,0,.76,3.45L386.27,611,354,631.5a2.5,2.5,0,0,0,2.69,4.22l35.57-22.65a2.5,2.5,0,0,0,0-4.22l-35.57-22.66a2.54,2.54,0,0,0-1.34-.39A2.48,2.48,0,0,0,353.24,587Z" transform="translate(0 -9.73)" fill="#000054"/><line x1="1290.65" y1="601.22" x2="990.33" y2="601.22" fill="none" stroke="#000054" stroke-miterlimit="10" stroke-width="5"/><path d="M1256.48,587a2.5,2.5,0,0,0,.77,3.45L1289.51,611l-32.26,20.54a2.5,2.5,0,1,0,2.68,4.22l35.58-22.65a2.51,2.51,0,0,0,0-4.22l-35.58-22.66a2.5,2.5,0,0,0-3.45.77Z" transform="translate(0 -9.73)" fill="#000054"/><path d="M496.56,9.73h28.31v2.9H512.42v32.8H509V12.63H496.56Z" transform="translate(0 -9.73)" fill="#000054"/><path d="M527.61,19.63h2.9v6.05h.1a9.54,9.54,0,0,1,9.76-6.4v3.15c-5.7-.3-9.61,3.9-9.61,9.25V45.43h-3.15Z" transform="translate(0 -9.73)" fill="#000054"/><path d="M564.27,45.43h-2.9V40.78h-.1a9.62,9.62,0,0,1-8.91,5.4c-6.5,0-9.05-3.8-9.05-9.8V19.63h3.15v16.8c.15,4.65,1.9,7.1,6.9,7.1,5.4,0,7.76-5.1,7.76-10.35V19.63h3.15Z" transform="translate(0 -9.73)" fill="#000054"/><path d="M585.66,27.18c-.15-3.9-3.15-5.65-6.75-5.65-2.8,0-6.1,1.1-6.1,4.45,0,2.8,3.2,3.8,5.35,4.35l4.2,1c3.6.55,7.35,2.65,7.35,7.15,0,5.6-5.55,7.75-10.35,7.75-6,0-10.1-2.8-10.6-9.1h3.15c.25,4.25,3.4,6.45,7.6,6.45,3,0,7-1.3,7-4.9,0-3-2.8-4-5.65-4.7l-4-.9c-4.1-1.1-7.2-2.5-7.2-6.9,0-5.25,5.15-7.25,9.7-7.25,5.15,0,9.25,2.7,9.45,8.3Z" transform="translate(0 -9.73)" fill="#000054"/><path d="M599.26,19.63h5.25v2.65h-5.25v17.4c0,2,.3,3.25,2.55,3.4a24.43,24.43,0,0,0,2.7-.15v2.7c-1,0-1.85.1-2.8.1-4.2,0-5.65-1.4-5.6-5.8V22.28h-4.5V19.63h4.5V11.88h3.15Z" transform="translate(0 -9.73)" fill="#000054"/><path d="M610.91,33.38c.05,4.6,2.45,10.15,8.5,10.15,4.6,0,7.1-2.7,8.1-6.6h3.15c-1.35,5.85-4.75,9.25-11.25,9.25-8.2,0-11.65-6.3-11.65-13.65,0-6.8,3.45-13.65,11.65-13.65s11.6,7.25,11.35,14.5Zm16.7-2.65c-.15-4.75-3.1-9.2-8.2-9.2s-8,4.5-8.5,9.2Z" transform="translate(0 -9.73)" fill="#000054"/><path d="M657.71,45.43h-2.9v-4.9h-.1c-1.35,3.35-5.45,5.65-9.2,5.65-7.85,0-11.6-6.35-11.6-13.65s3.75-13.65,11.6-13.65c3.85,0,7.6,1.95,9,5.65h.1V9.73h3.15Zm-12.2-1.9c6.7,0,9-5.65,9-11s-2.35-11-9-11c-6,0-8.45,5.65-8.45,11S639.51,43.53,645.51,43.53Z" transform="translate(0 -9.73)" fill="#000054"/><path d="M682.61,19.63h5.25v2.65h-5.25v17.4c0,2,.3,3.25,2.55,3.4a24.43,24.43,0,0,0,2.7-.15v2.7c-1,0-1.85.1-2.8.1-4.2,0-5.65-1.4-5.6-5.8V22.28H675V19.63h4.5V11.88h3.15Z" transform="translate(0 -9.73)" fill="#000054"/><path d="M692.36,9.73h3.15V24.08h.1c1.15-3.1,4.6-5.2,8.25-5.2,7.25,0,9.45,3.8,9.45,10v16.6h-3.15V29.33c0-4.45-1.45-7.8-6.55-7.8s-8,3.8-8.1,8.85V45.43h-3.15Z" transform="translate(0 -9.73)" fill="#000054"/><path d="M719.31,9.73h3.15v5h-3.15Zm0,9.9h3.15v25.8h-3.15Z" transform="translate(0 -9.73)" fill="#000054"/><path d="M728.51,19.63h2.9v6.05h.1a9.53,9.53,0,0,1,9.75-6.4v3.15c-5.7-.3-9.6,3.9-9.6,9.25V45.43h-3.15Z" transform="translate(0 -9.73)" fill="#000054"/><path d="M767,45.43h-2.9v-4.9H764c-1.35,3.35-5.45,5.65-9.2,5.65-7.85,0-11.6-6.35-11.6-13.65s3.75-13.65,11.6-13.65c3.85,0,7.6,1.95,9,5.65h.1V9.73H767Zm-12.2-1.9c6.7,0,9-5.65,9-11s-2.35-11-9-11c-6,0-8.45,5.65-8.45,11S748.76,43.53,754.76,43.53Z" transform="translate(0 -9.73)" fill="#000054"/><path d="M786.86,19.63h2.9v4.9h.1a9.66,9.66,0,0,1,9.2-5.65c7.85,0,11.6,6.35,11.6,13.65s-3.75,13.65-11.6,13.65c-3.85,0-7.6-2-8.95-5.65H790V55h-3.15Zm12.2,1.9c-6.95,0-9,5.15-9,11,0,5.35,2.35,11,9,11,6,0,8.45-5.65,8.45-11S805.06,21.53,799.06,21.53Z" transform="translate(0 -9.73)" fill="#000054"/><path d="M815.26,27.53c.3-6.05,4.55-8.65,10.45-8.65,4.55,0,9.5,1.4,9.5,8.3v13.7a1.68,1.68,0,0,0,1.85,1.9,3,3,0,0,0,1-.2v2.65a8.64,8.64,0,0,1-2,.2c-3.2,0-3.7-1.8-3.7-4.5h-.1c-2.2,3.35-4.45,5.25-9.4,5.25-4.75,0-8.65-2.35-8.65-7.55,0-7.25,7.05-7.5,13.85-8.3,2.6-.3,4-.65,4-3.5,0-4.25-3-5.3-6.75-5.3-3.9,0-6.8,1.8-6.9,6Zm16.8,3.8H832c-.4.75-1.8,1-2.65,1.15-5.35,1-12,.9-12,6,0,3.15,2.8,5.1,5.75,5.1,4.8,0,9.05-3.05,9-8.1Z" transform="translate(0 -9.73)" fill="#000054"/><path d="M841.51,19.63h2.9v6.05h.1a9.53,9.53,0,0,1,9.75-6.4v3.15c-5.7-.3-9.6,3.9-9.6,9.25V45.43h-3.15Z" transform="translate(0 -9.73)" fill="#000054"/><path d="M862.26,19.63h5.25v2.65h-5.25v17.4c0,2,.3,3.25,2.55,3.4a24.43,24.43,0,0,0,2.7-.15v2.7c-1,0-1.85.1-2.8.1-4.2,0-5.65-1.4-5.6-5.8V22.28h-4.5V19.63h4.5V11.88h3.15Z" transform="translate(0 -9.73)" fill="#000054"/><path d="M869.16,19.63h3.35l8.5,22,8-22h3.15l-11.2,29.75c-1.8,4.35-2.85,5.61-6.8,5.61a8.16,8.16,0,0,1-2.4-.25V52.09a11.74,11.74,0,0,0,2.15.25c2.8,0,3.45-1.65,4.5-4.06l1.1-3Z" transform="translate(0 -9.73)" fill="#000054"/><path d="M318,98.56c-3.64-5.7-6-11.13-6-17.78a29.93,29.93,0,0,1,6-17.52h2.47a31.43,31.43,0,0,0-5,17.52,32,32,0,0,0,5,17.78Z" transform="translate(0 -9.73)" fill="#000054"/><path d="M339.29,84.8c-.87,4.33-4,6.69-8.4,6.69-6.26,0-9.23-4.33-9.42-10.33,0-5.89,3.88-10.22,9.23-10.22,7,0,9.09,6.49,8.9,11.24H324.89c-.11,3.42,1.82,6.46,6.12,6.46,2.66,0,4.52-1.29,5.09-3.84Zm-3.11-5.47a5.65,5.65,0,0,0-5.67-5.54c-3.38,0-5.39,2.54-5.62,5.54Z" transform="translate(0 -9.73)" fill="#000054"/><path d="M343.66,86.82h4.22V91h-4.22Z" transform="translate(0 -9.73)" fill="#000054"/><path d="M370.45,89.36c0,6.39-2.92,9.65-9.12,9.65-3.68,0-7.94-1.48-8.13-5.77h3.23c.15,2.35,3,3.19,5.09,3.19,4.22,0,5.89-3,5.89-7.45V87.69h-.07a6.54,6.54,0,0,1-6.12,3.57c-5.85,0-8.78-4.59-8.78-10,0-4.64,2.28-10.37,9.08-10.37a6.41,6.41,0,0,1,5.85,3.26h0V71.39h3Zm-3.19-8.55c0-3.45-1.52-7-5.59-7s-5.81,3.38-5.81,7.14c0,3.53,1.29,7.48,5.55,7.48S367.26,84.5,367.26,80.81Z" transform="translate(0 -9.73)" fill="#000054"/><path d="M376,86.82h4.22V91H376Z" transform="translate(0 -9.73)" fill="#000054"/><path d="M386.6,86.82h4.22v3.83c0,2.85-1.25,5.13-4.18,6v-1.9a3.63,3.63,0,0,0,2.2-3.69H386.6Z" transform="translate(0 -9.73)" fill="#000054"/><path d="M424.41,91a4.37,4.37,0,0,1-2.32.53c-1.67,0-2.73-.91-2.73-3a8.73,8.73,0,0,1-6.92,3c-3.57,0-6.5-1.59-6.5-5.51,0-4.44,3.31-5.39,6.65-6,3.58-.68,6.62-.46,6.62-2.89,0-2.81-2.32-3.26-4.37-3.26-2.74,0-4.75.83-4.91,3.72h-3.22c.19-4.86,4-6.57,8.32-6.57,3.53,0,7.37.79,7.37,5.39V86.44c0,1.52,0,2.2,1,2.2a2.82,2.82,0,0,0,1-.19Zm-5.24-10.07c-1.26.91-3.69,1-5.85,1.33s-4,1.14-4,3.53c0,2.13,1.83,2.89,3.8,2.89,4.26,0,6-2.66,6-4.44Z" transform="translate(0 -9.73)" fill="#000054"/><path d="M427.3,71.39h3v4.14h.08c1.55-3.15,3.72-4.71,7.22-4.59v3.42c-5.21,0-7.11,3-7.11,7.94V91H427.3Z" transform="translate(0 -9.73)" fill="#000054"/><path d="M440.18,63.91h3.23V74.05h.08c1.06-2.16,3.57-3.11,6.27-3.11,6,0,9,4.78,9,10.33s-3,10.22-9,10.22c-2,0-4.9-.76-6.34-3.08h-.08V91h-3.23Zm9.12,9.88c-4.33,0-6,3.72-6,7.4,0,3.88,1.75,7.45,6.19,7.45s5.89-3.76,5.89-7.6C455.38,77.36,453.48,73.79,449.3,73.79Z" transform="translate(0 -9.73)" fill="#000054"/><path d="M466,67.86h-3.23v-4H466Zm-3.23,3.53H466V91h-3.23Z" transform="translate(0 -9.73)" fill="#000054"/><path d="M475.52,71.39h3.91v2.85h-3.91v12.2c0,1.48.42,1.75,2.43,1.75h1.48V91H477c-3.34,0-4.67-.68-4.67-4.29V74.24H469V71.39h3.34V65.5h3.23Z" transform="translate(0 -9.73)" fill="#000054"/><path d="M499.76,84.8c-.87,4.33-4,6.69-8.39,6.69-6.27,0-9.24-4.33-9.43-10.33,0-5.89,3.88-10.22,9.24-10.22,6.95,0,9.08,6.49,8.89,11.24H485.36c-.11,3.42,1.83,6.46,6.12,6.46,2.66,0,4.52-1.29,5.09-3.84Zm-3.11-5.47A5.65,5.65,0,0,0,491,73.79c-3.39,0-5.4,2.54-5.63,5.54Z" transform="translate(0 -9.73)" fill="#000054"/><path d="M503.3,71.39h3v4.14h.07c1.56-3.15,3.73-4.71,7.22-4.59v3.42c-5.2,0-7.1,3-7.1,7.94V91H503.3Z" transform="translate(0 -9.73)" fill="#000054"/><path d="M516.79,86.82H521v3.83c0,2.85-1.26,5.13-4.18,6v-1.9A3.63,3.63,0,0,0,519,91h-2.24Z" transform="translate(0 -9.73)" fill="#000054"/><path d="M554.75,91h-3.23V88.38h-.08c-1.06,2.16-3.57,3.11-6.27,3.11-6,0-9-4.79-9-10.33s3-10.22,9-10.22c2,0,4.9.76,6.34,3.07h.08V63.91h3.23Zm-9.12-2.39c4.33,0,6-3.72,6-7.41,0-3.87-1.75-7.44-6.19-7.44s-5.89,3.76-5.89,7.59S541.45,88.64,545.63,88.64Z" transform="translate(0 -9.73)" fill="#000054"/><path d="M563.15,67.86h-3.23v-4h3.23Zm-3.23,3.53h3.23V91h-3.23Z" transform="translate(0 -9.73)" fill="#000054"/><path d="M570.14,84.84c.11,2.89,2.62,3.8,5.28,3.8,2,0,4.75-.45,4.75-2.92s-3.19-2.93-6.42-3.65-6.42-1.79-6.42-5.55c0-4,3.91-5.58,7.33-5.58,4.33,0,7.79,1.36,8.05,6.15h-3.23c-.22-2.51-2.43-3.3-4.55-3.3-1.94,0-4.18.53-4.18,2.5,0,2.32,3.42,2.7,6.42,3.42,3.23.72,6.42,1.79,6.42,5.59,0,4.67-4.37,6.19-8.36,6.19-4.41,0-8.13-1.78-8.32-6.65Z" transform="translate(0 -9.73)" fill="#000054"/><path d="M591.65,71.39h3.91v2.85h-3.91v12.2c0,1.48.41,1.75,2.43,1.75h1.48V91h-2.47c-3.34,0-4.67-.68-4.67-4.29V74.24h-3.35V71.39h3.35V65.5h3.23Z" transform="translate(0 -9.73)" fill="#000054"/><path d="M599,71.39h3v4.14h.07c1.56-3.15,3.73-4.71,7.22-4.59v3.42c-5.2,0-7.1,3-7.1,7.94V91H599Z" transform="translate(0 -9.73)" fill="#000054"/><path d="M615.21,67.86H612v-4h3.23ZM612,71.39h3.23V91H612Z" transform="translate(0 -9.73)" fill="#000054"/><path d="M620.34,63.91h3.23V74.05h.07c1.07-2.16,3.57-3.11,6.27-3.11,6,0,9,4.78,9,10.33s-3,10.22-9,10.22c-2,0-4.91-.76-6.35-3.08h-.07V91h-3.23Zm9.11,9.88c-4.33,0-6,3.72-6,7.4,0,3.88,1.75,7.45,6.19,7.45s5.89-3.76,5.89-7.6C635.53,77.36,633.63,73.79,629.45,73.79Z" transform="translate(0 -9.73)" fill="#000054"/><path d="M659,91h-3V87.92h-.08a6.84,6.84,0,0,1-6.38,3.57c-5.17,0-6.77-3-6.77-7.18V71.39H646v13.3a3.7,3.7,0,0,0,4,4c3.92,0,5.82-2.62,5.82-6.15V71.39H659Z" transform="translate(0 -9.73)" fill="#000054"/><path d="M668.37,71.39h3.91v2.85h-3.91v12.2c0,1.48.41,1.75,2.43,1.75h1.48V91h-2.47c-3.34,0-4.67-.68-4.67-4.29V74.24h-3.35V71.39h3.35V65.5h3.23Z" transform="translate(0 -9.73)" fill="#000054"/><path d="M684.33,70.94c6.23,0,9.53,4.52,9.53,10.29s-3.3,10.26-9.53,10.26-9.54-4.52-9.54-10.26S678.09,70.94,684.33,70.94Zm0,17.7c3.38,0,6.11-2.66,6.11-7.41s-2.73-7.44-6.11-7.44-6.12,2.65-6.12,7.44S680.94,88.64,684.33,88.64Z" transform="translate(0 -9.73)" fill="#000054"/><path d="M697.55,71.39h3v4.14h.08c1.55-3.15,3.72-4.71,7.21-4.59v3.42c-5.2,0-7.1,3-7.1,7.94V91h-3.23Z" transform="translate(0 -9.73)" fill="#000054"/><path d="M729.35,70.94c6.24,0,9.54,4.52,9.54,10.29s-3.3,10.26-9.54,10.26-9.53-4.52-9.53-10.26S723.12,70.94,729.35,70.94Zm0,17.7c3.39,0,6.12-2.66,6.12-7.41s-2.73-7.44-6.12-7.44-6.11,2.65-6.11,7.44S726,88.64,729.35,88.64Z" transform="translate(0 -9.73)" fill="#000054"/><path d="M744,74.24h-3.3V71.39H744V68.47c0-3.2,1.9-4.87,5.44-4.87a8,8,0,0,1,2.09.31v2.81a6.1,6.1,0,0,0-1.83-.27c-1.55,0-2.47.5-2.47,2.21v2.73h3.8v2.85h-3.8V91H744Z" transform="translate(0 -9.73)" fill="#000054"/><path d="M766.48,84.84c.11,2.89,2.62,3.8,5.28,3.8,2,0,4.75-.45,4.75-2.92s-3.19-2.93-6.42-3.65-6.42-1.79-6.42-5.55c0-4,3.91-5.58,7.33-5.58,4.33,0,7.79,1.36,8.06,6.15h-3.23c-.23-2.51-2.43-3.3-4.56-3.3-1.94,0-4.18.53-4.18,2.5,0,2.32,3.42,2.7,6.42,3.42,3.23.72,6.42,1.79,6.42,5.59,0,4.67-4.37,6.19-8.36,6.19-4.4,0-8.13-1.78-8.32-6.65Z" transform="translate(0 -9.73)" fill="#000054"/><path d="M800.26,84.8c-.87,4.33-4,6.69-8.4,6.69-6.27,0-9.23-4.33-9.42-10.33,0-5.89,3.88-10.22,9.23-10.22,7,0,9.08,6.49,8.89,11.24h-14.7c-.11,3.42,1.82,6.46,6.12,6.46,2.66,0,4.52-1.29,5.09-3.84Zm-3.11-5.47a5.65,5.65,0,0,0-5.67-5.54c-3.38,0-5.39,2.54-5.62,5.54Z" transform="translate(0 -9.73)" fill="#000054"/><path d="M817.25,77.7a4.58,4.58,0,0,0-4.87-3.91c-4.67,0-6.11,3.68-6.11,7.67,0,3.61,1.63,7.18,5.73,7.18,3.12,0,5-1.82,5.4-4.79h3.3C820,88.64,817,91.49,812,91.49c-6,0-9.19-4.18-9.19-10s3-10.52,9.27-10.52c4.44,0,8,2.09,8.47,6.76Z" transform="translate(0 -9.73)" fill="#000054"/><path d="M824.2,71.39h3v4.14h.08c1.56-3.15,3.72-4.71,7.22-4.59v3.42c-5.21,0-7.11,3-7.11,7.94V91H824.2Z" transform="translate(0 -9.73)" fill="#000054"/><path d="M853.73,84.8c-.88,4.33-4,6.69-8.4,6.69-6.27,0-9.23-4.33-9.42-10.33,0-5.89,3.87-10.22,9.23-10.22,7,0,9.08,6.49,8.89,11.24h-14.7c-.12,3.42,1.82,6.46,6.11,6.46,2.66,0,4.52-1.29,5.09-3.84Zm-3.12-5.47A5.64,5.64,0,0,0,845,73.79c-3.38,0-5.4,2.54-5.62,5.54Z" transform="translate(0 -9.73)" fill="#000054"/><path d="M861.86,71.39h3.91v2.85h-3.91v12.2c0,1.48.42,1.75,2.43,1.75h1.48V91H863.3c-3.34,0-4.67-.68-4.67-4.29V74.24h-3.34V71.39h3.34V65.5h3.23Z" transform="translate(0 -9.73)" fill="#000054"/><path d="M883.33,67.86H880.1v-4h3.23Zm-3.23,3.53h3.23V91H880.1Z" transform="translate(0 -9.73)" fill="#000054"/><path d="M888.34,71.39h3v3.12h.08a6.84,6.84,0,0,1,6.38-3.57c5.17,0,6.77,3,6.77,7.18V91h-3.23V77.74a3.7,3.7,0,0,0-4-3.95c-3.92,0-5.82,2.62-5.82,6.15V91h-3.23Z" transform="translate(0 -9.73)" fill="#000054"/><path d="M910.8,74.24h-3.3V71.39h3.3V68.47c0-3.2,1.9-4.87,5.44-4.87a8,8,0,0,1,2.09.31v2.81a6.15,6.15,0,0,0-1.83-.27c-1.56,0-2.47.5-2.47,2.21v2.73h3.8v2.85H914V91H910.8Z" transform="translate(0 -9.73)" fill="#000054"/><path d="M929.19,70.94c6.23,0,9.54,4.52,9.54,10.29s-3.31,10.26-9.54,10.26-9.53-4.52-9.53-10.26S923,70.94,929.19,70.94Zm0,17.7c3.38,0,6.12-2.66,6.12-7.41s-2.74-7.44-6.12-7.44-6.11,2.65-6.11,7.44S925.81,88.64,929.19,88.64Z" transform="translate(0 -9.73)" fill="#000054"/><path d="M942.42,71.39h3v4.14h.07c1.56-3.15,3.73-4.71,7.22-4.59v3.42c-5.2,0-7.1,3-7.1,7.94V91h-3.23Z" transform="translate(0 -9.73)" fill="#000054"/><path d="M955.19,71.39h3v2.89h.08a7.25,7.25,0,0,1,6.35-3.34c2.39,0,4.59,1,5.39,3.34a7.27,7.27,0,0,1,6.16-3.34c3.91,0,6.53,1.63,6.53,5.69V91H979.5V78.15c0-2.43-.64-4.36-3.8-4.36a4.76,4.76,0,0,0-5.13,5V91h-3.23V78.15c0-2.54-.79-4.36-3.68-4.36a5.29,5.29,0,0,0-5.24,5V91h-3.23Z" transform="translate(0 -9.73)" fill="#000054"/><path d="M1005,91a4.37,4.37,0,0,1-2.32.53c-1.67,0-2.73-.91-2.73-3a8.73,8.73,0,0,1-6.92,3c-3.57,0-6.49-1.59-6.49-5.51,0-4.44,3.3-5.39,6.64-6,3.58-.68,6.62-.46,6.62-2.89,0-2.81-2.32-3.26-4.37-3.26-2.74,0-4.75.83-4.9,3.72h-3.24c.2-4.86,4-6.57,8.33-6.57,3.53,0,7.37.79,7.37,5.39V86.44c0,1.52,0,2.2,1,2.2a2.82,2.82,0,0,0,1-.19Zm-5.24-10.07c-1.26.91-3.69,1-5.85,1.33S990,83.36,990,85.75c0,2.13,1.82,2.89,3.79,2.89,4.26,0,6-2.66,6-4.44Z" transform="translate(0 -9.73)" fill="#000054"/><path d="M1012.49,71.39h3.91v2.85h-3.91v12.2c0,1.48.42,1.75,2.43,1.75h1.48V91h-2.47c-3.34,0-4.67-.68-4.67-4.29V74.24h-3.34V71.39h3.34V65.5h3.23Z" transform="translate(0 -9.73)" fill="#000054"/><path d="M1023.39,67.86h-3.22v-4h3.22Zm-3.22,3.53h3.22V91h-3.22Z" transform="translate(0 -9.73)" fill="#000054"/><path d="M1036.88,70.94c6.23,0,9.54,4.52,9.54,10.29s-3.31,10.26-9.54,10.26-9.53-4.52-9.53-10.26S1030.65,70.94,1036.88,70.94Zm0,17.7c3.38,0,6.12-2.66,6.12-7.41s-2.74-7.44-6.12-7.44-6.12,2.65-6.12,7.44S1033.5,88.64,1036.88,88.64Z" transform="translate(0 -9.73)" fill="#000054"/><path d="M1050.22,71.39h3v3.12h.08a6.83,6.83,0,0,1,6.38-3.57c5.17,0,6.76,3,6.76,7.18V91h-3.23V77.74a3.7,3.7,0,0,0-4-3.95c-3.91,0-5.81,2.62-5.81,6.15V91h-3.23Z" transform="translate(0 -9.73)" fill="#000054"/><path d="M1068.54,98.56a31.43,31.43,0,0,0,5-17.52,32,32,0,0,0-5-17.78H1071c3.65,5.7,6,11.13,6,17.78a29.93,29.93,0,0,1-6,17.52Z" transform="translate(0 -9.73)" fill="#000054"/><path d="M24.55,369.57c-.55-5.1-3.95-7.3-8.85-7.3-4,0-8,1.45-8,6.1,0,4.4,5.7,5.05,11.45,6.35S30.55,378,30.55,385c0,7.6-7.45,10.65-13.95,10.65-8,0-14.75-3.9-14.75-12.6h4.5c0,6,5,8.6,10.4,8.6,4.3,0,9.05-1.35,9.05-6.5,0-4.9-5.7-5.76-11.4-7S3,375.27,3,368.72c0-7.25,6.45-10.45,13-10.45,7.3,0,12.85,3.45,13.15,11.3Z" transform="translate(0 -9.73)" fill="#000054"/><path d="M57.65,386.63c-1.15,5.7-5.25,8.8-11,8.8-8.25,0-12.15-5.7-12.4-13.61,0-7.75,5.1-13.45,12.15-13.45,9.15,0,11.95,8.55,11.7,14.8H38.7c-.15,4.51,2.4,8.51,8,8.51,3.5,0,6-1.7,6.7-5.05Zm-4.1-7.21a7.44,7.44,0,0,0-7.45-7.3c-4.45,0-7.1,3.35-7.4,7.3Z" transform="translate(0 -9.73)" fill="#000054"/><path d="M62.45,369h4v4.1h.1a9,9,0,0,1,8.4-4.7c6.8,0,8.9,3.9,8.9,9.45v17H79.6V377.32a4.87,4.87,0,0,0-5.25-5.2c-5.15,0-7.65,3.45-7.65,8.1v14.61H62.45Z" transform="translate(0 -9.73)" fill="#000054"/><path d="M113.35,394.83H109.1v-3.5H109c-1.4,2.85-4.7,4.1-8.25,4.1-8,0-11.9-6.3-11.9-13.61s3.9-13.45,11.8-13.45c2.65,0,6.45,1,8.35,4.05h.1v-13.3h4.25Zm-12-3.15c5.7,0,7.9-4.9,7.9-9.76,0-5.1-2.3-9.8-8.15-9.8s-7.75,4.95-7.75,10C93.35,387,95.85,391.68,101.35,391.68Z" transform="translate(0 -9.73)" fill="#000054"/><path d="M142,386.63c-1.15,5.7-5.25,8.8-11,8.8-8.25,0-12.15-5.7-12.4-13.61,0-7.75,5.1-13.45,12.15-13.45,9.15,0,11.95,8.55,11.7,14.8H123c-.15,4.51,2.4,8.51,8.05,8.51,3.5,0,5.95-1.7,6.7-5.05Zm-4.1-7.21a7.44,7.44,0,0,0-7.45-7.3c-4.45,0-7.1,3.35-7.4,7.3Z" transform="translate(0 -9.73)" fill="#000054"/><path d="M146.6,369h4v5.45h.1c2.05-4.15,4.9-6.2,9.5-6.05v4.5c-6.85,0-9.35,3.9-9.35,10.46v11.5H146.6Z" transform="translate(0 -9.73)" fill="#000054"/><path d="M1193.71,359.12h16.8c6.7,0,10.85,3.65,10.85,9.35,0,4.3-1.9,7.85-6.2,9v.1c4.15.8,5,3.86,5.35,7.36s.1,7.4,2.1,9.85h-5.3c-1.35-1.45-.6-5.3-1.3-8.8-.5-3.5-1.35-6.46-6-6.46h-11.6v15.26h-4.75Zm14.65,16.45c4.45,0,8.25-1.15,8.25-6.35,0-3.5-1.9-6.1-6.35-6.1h-11.8v12.45Z" transform="translate(0 -9.73)" fill="#000054"/><path d="M1249.31,386.63c-1.15,5.7-5.25,8.8-11,8.8-8.26,0-12.15-5.7-12.4-13.61,0-7.75,5.1-13.45,12.15-13.45,9.15,0,12,8.55,11.7,14.8h-19.35c-.15,4.51,2.4,8.51,8.05,8.51,3.5,0,5.95-1.7,6.7-5.05Zm-4.1-7.21a7.44,7.44,0,0,0-7.45-7.3c-4.45,0-7.1,3.35-7.4,7.3Z" transform="translate(0 -9.73)" fill="#000054"/><path d="M1271.66,377.27a6,6,0,0,0-6.41-5.15c-6.15,0-8,4.85-8,10.11,0,4.75,2.15,9.45,7.55,9.45,4.11,0,6.56-2.4,7.11-6.3h4.35c-1,6.3-4.9,10.05-11.41,10.05-7.9,0-12.1-5.5-12.1-13.2s4-13.86,12.21-13.86c5.84,0,10.55,2.75,11.15,8.9Z" transform="translate(0 -9.73)" fill="#000054"/><path d="M1285.45,364.32h-4.25v-5.2h4.25ZM1281.2,369h4.25v25.86h-4.25Z" transform="translate(0 -9.73)" fill="#000054"/><path d="M1292.2,369h4.25v3.5h.1c1.4-2.85,4.7-4.1,8.25-4.1,8,0,11.9,6.3,11.9,13.61s-3.9,13.45-11.8,13.45c-2.65,0-6.45-1-8.35-4.05h-.1v13.35h-4.25Zm12,3.15c-5.7,0-7.9,4.9-7.9,9.76,0,5.1,2.3,9.8,8.15,9.8s7.75-4.95,7.75-10C1312.2,376.82,1309.7,372.12,1304.2,372.12Z" transform="translate(0 -9.73)" fill="#000054"/><path d="M1326.2,364.32H1322v-5.2h4.25ZM1322,369h4.25v25.86H1322Z" transform="translate(0 -9.73)" fill="#000054"/><path d="M1354.85,386.63c-1.15,5.7-5.25,8.8-11,8.8-8.25,0-12.15-5.7-12.4-13.61,0-7.75,5.1-13.45,12.15-13.45,9.15,0,12,8.55,11.7,14.8H1335.9c-.15,4.51,2.4,8.51,8,8.51,3.5,0,6-1.7,6.7-5.05Zm-4.1-7.21a7.44,7.44,0,0,0-7.45-7.3c-4.45,0-7.1,3.35-7.4,7.3Z" transform="translate(0 -9.73)" fill="#000054"/><path d="M1359.65,369h4v4.1h.1a9,9,0,0,1,8.4-4.7c6.8,0,8.9,3.9,8.9,9.45v17h-4.25V377.32a4.87,4.87,0,0,0-5.25-5.2c-5.15,0-7.65,3.45-7.65,8.1v14.61h-4.25Z" transform="translate(0 -9.73)" fill="#000054"/><path d="M1393.35,369h5.15v3.75h-5.15v16.06c0,2,.55,2.3,3.2,2.3h2v3.75h-3.25c-4.4,0-6.15-.9-6.15-5.65V372.72h-4.4V369h4.4v-7.75h4.25Z" transform="translate(0 -9.73)" fill="#000054"/><path d="M577.23,423H582v35.7h-4.75Z" transform="translate(0 -9.73)" fill="#000054"/><path d="M589.28,432.86h4V437h.1a9,9,0,0,1,8.4-4.7c6.8,0,8.9,3.9,8.9,9.45v17h-4.25v-17.5a4.87,4.87,0,0,0-5.25-5.2c-5.15,0-7.65,3.45-7.65,8.1v14.6h-4.25Z" transform="translate(0 -9.73)" fill="#000054"/><path d="M618.83,436.61h-4.35v-3.75h4.35V429c0-4.2,2.5-6.4,7.15-6.4a10.45,10.45,0,0,1,2.75.4v3.7a8,8,0,0,0-2.4-.35c-2.05,0-3.25.65-3.25,2.9v3.6h5v3.75h-5v22.1h-4.25Z" transform="translate(0 -9.73)" fill="#000054"/><path d="M643,432.26c8.2,0,12.55,5.95,12.55,13.55s-4.35,13.5-12.55,13.5-12.55-5.95-12.55-13.5S634.83,432.26,643,432.26Zm0,23.3c4.45,0,8.05-3.5,8.05-9.75s-3.6-9.8-8.05-9.8-8,3.5-8,9.8S638.58,455.56,643,455.56Z" transform="translate(0 -9.73)" fill="#000054"/><path d="M660.43,432.86h4v5.45h.1c2.05-4.15,4.9-6.2,9.5-6.05v4.5c-6.85,0-9.35,3.9-9.35,10.45v11.5h-4.25Z" transform="translate(0 -9.73)" fill="#000054"/><path d="M677.23,432.86h4v3.8h.1a9.53,9.53,0,0,1,8.35-4.4c3.15,0,6.05,1.25,7.1,4.4a9.57,9.57,0,0,1,8.1-4.4c5.15,0,8.6,2.15,8.6,7.5v18.95h-4.25V441.76c0-3.2-.85-5.75-5-5.75s-6.75,2.6-6.75,6.6v16.1h-4.25V441.76c0-3.35-1.05-5.75-4.85-5.75a7,7,0,0,0-6.9,6.6v16.1h-4.25Z" transform="translate(0 -9.73)" fill="#000054"/><path d="M742.78,458.61a5.73,5.73,0,0,1-3,.7c-2.2,0-3.6-1.2-3.6-4a11.47,11.47,0,0,1-9.1,4c-4.7,0-8.55-2.1-8.55-7.25,0-5.85,4.35-7.1,8.75-7.95,4.7-.9,8.7-.6,8.7-3.8,0-3.7-3-4.3-5.75-4.3-3.6,0-6.25,1.1-6.45,4.9h-4.25c.25-6.4,5.2-8.65,10.95-8.65,4.65,0,9.7,1.05,9.7,7.1v13.3c0,2,0,2.9,1.35,2.9a3.65,3.65,0,0,0,1.3-.25Zm-6.9-13.25c-1.65,1.2-4.85,1.25-7.7,1.75s-5.2,1.5-5.2,4.65c0,2.8,2.4,3.8,5,3.8,5.6,0,7.9-3.5,7.9-5.85Z" transform="translate(0 -9.73)" fill="#000054"/><path d="M752.63,432.86h5.15v3.75h-5.15v16.05c0,1.95.54,2.3,3.2,2.3h1.95v3.75h-3.25c-4.4,0-6.15-.9-6.15-5.65V436.61H744v-3.75h4.41v-7.75h4.25Z" transform="translate(0 -9.73)" fill="#000054"/><path d="M767,428.21h-4.25V423H767Zm-4.25,4.65H767v25.85h-4.25Z" transform="translate(0 -9.73)" fill="#000054"/><path d="M784.72,432.26c8.2,0,12.56,5.95,12.56,13.55s-4.36,13.5-12.56,13.5-12.55-5.95-12.55-13.5S776.52,432.26,784.72,432.26Zm0,23.3c4.45,0,8-3.5,8-9.75s-3.6-9.8-8-9.8-8.05,3.5-8.05,9.8S780.27,455.56,784.72,455.56Z" transform="translate(0 -9.73)" fill="#000054"/><path d="M802.27,432.86h4V437h.1a9,9,0,0,1,8.4-4.7c6.8,0,8.9,3.9,8.9,9.45v17h-4.25v-17.5a4.87,4.87,0,0,0-5.25-5.2c-5.15,0-7.65,3.45-7.65,8.1v14.6h-4.25Z" transform="translate(0 -9.73)" fill="#000054"/><path d="M633.23,501.16a6,6,0,0,0-6.4-5.15c-6.15,0-8.05,4.85-8.05,10.1,0,4.75,2.15,9.45,7.55,9.45,4.1,0,6.55-2.4,7.1-6.3h4.35c-.95,6.3-4.9,10-11.4,10-7.9,0-12.1-5.5-12.1-13.2s4-13.85,12.2-13.85c5.85,0,10.55,2.75,11.15,8.9Z" transform="translate(0 -9.73)" fill="#000054"/><path d="M642.53,483h4.25v13.65h.1c1.4-3.1,5-4.4,8.15-4.4,6.8,0,8.9,3.9,8.9,9.45v17h-4.25v-17.5a4.87,4.87,0,0,0-5.25-5.2c-5.15,0-7.65,3.45-7.65,8.1v14.6h-4.25Z" transform="translate(0 -9.73)" fill="#000054"/><path d="M693.23,518.61a5.73,5.73,0,0,1-3.05.7c-2.2,0-3.6-1.2-3.6-4a11.47,11.47,0,0,1-9.1,4c-4.7,0-8.55-2.1-8.55-7.25,0-5.85,4.35-7.1,8.75-7.95,4.7-.9,8.7-.6,8.7-3.8,0-3.7-3-4.3-5.75-4.3-3.6,0-6.25,1.1-6.45,4.9h-4.25c.25-6.4,5.2-8.65,11-8.65,4.65,0,9.7,1.05,9.7,7.1v13.3c0,2,0,2.9,1.35,2.9a3.65,3.65,0,0,0,1.3-.25Zm-6.9-13.25c-1.65,1.2-4.85,1.25-7.7,1.75s-5.2,1.5-5.2,4.65c0,2.8,2.4,3.8,5,3.8,5.6,0,7.9-3.5,7.9-5.85Z" transform="translate(0 -9.73)" fill="#000054"/><path d="M697.18,492.86h4V497h.1a9,9,0,0,1,8.4-4.7c6.8,0,8.9,3.9,8.9,9.45v17h-4.25v-17.5a4.87,4.87,0,0,0-5.25-5.2c-5.15,0-7.65,3.45-7.65,8.1v14.6h-4.25Z" transform="translate(0 -9.73)" fill="#000054"/><path d="M725,492.86h4V497h.1a9,9,0,0,1,8.4-4.7c6.8,0,8.9,3.9,8.9,9.45v17h-4.25v-17.5a4.87,4.87,0,0,0-5.25-5.2c-5.15,0-7.65,3.45-7.65,8.1v14.6H725Z" transform="translate(0 -9.73)" fill="#000054"/><path d="M774.83,510.51c-1.15,5.7-5.25,8.8-11.05,8.8-8.25,0-12.15-5.7-12.4-13.6,0-7.75,5.1-13.45,12.15-13.45,9.15,0,12,8.55,11.7,14.8H755.88c-.15,4.5,2.4,8.5,8,8.5,3.5,0,6-1.7,6.7-5Zm-4.1-7.2a7.44,7.44,0,0,0-7.45-7.3c-4.45,0-7.1,3.35-7.4,7.3Z" transform="translate(0 -9.73)" fill="#000054"/><path d="M779.88,483h4.25v35.7h-4.25Z" transform="translate(0 -9.73)" fill="#000054"/><path d="M132.41,448.31c-.42-3.88-3-5.55-6.72-5.55-3,0-6.08,1.1-6.08,4.64,0,3.34,4.33,3.83,8.7,4.82s8.66,2.51,8.66,7.83c0,5.77-5.66,8.09-10.6,8.09-6.08,0-11.21-3-11.21-9.57h3.42c0,4.56,3.8,6.53,7.9,6.53,3.27,0,6.88-1,6.88-4.94,0-3.72-4.33-4.37-8.66-5.32s-8.7-2.2-8.7-7.18c0-5.51,4.9-7.94,9.84-7.94,5.54,0,9.76,2.62,10,8.59Z" transform="translate(0 -9.73)" fill="#000054"/><path d="M157.57,461.27c-.88,4.33-4,6.68-8.4,6.68-6.27,0-9.23-4.33-9.42-10.33,0-5.89,3.87-10.22,9.23-10.22,7,0,9.08,6.49,8.89,11.24h-14.7c-.12,3.42,1.82,6.46,6.11,6.46,2.66,0,4.53-1.29,5.1-3.83Zm-3.12-5.48a5.65,5.65,0,0,0-5.66-5.54c-3.38,0-5.4,2.54-5.62,5.54Z" transform="translate(0 -9.73)" fill="#000054"/><path d="M174.55,454.16a4.56,4.56,0,0,0-4.86-3.91c-4.67,0-6.12,3.68-6.12,7.67,0,3.61,1.64,7.18,5.74,7.18a5.07,5.07,0,0,0,5.39-4.78H178c-.72,4.78-3.72,7.63-8.66,7.63-6,0-9.2-4.18-9.2-10s3-10.52,9.27-10.52c4.45,0,8,2.09,8.48,6.76Z" transform="translate(0 -9.73)" fill="#000054"/><path d="M197.88,467.5h-3v-3.12h-.07a6.84,6.84,0,0,1-6.38,3.57c-5.17,0-6.77-3-6.77-7.18V447.85h3.23v13.3a3.7,3.7,0,0,0,4,4c3.91,0,5.81-2.62,5.81-6.15v-11.1h3.23Z" transform="translate(0 -9.73)" fill="#000054"/><path d="M202.64,447.85h3V452h.07c1.56-3.16,3.73-4.72,7.22-4.6v3.42c-5.2,0-7.1,3-7.1,7.94v8.74h-3.23Z" transform="translate(0 -9.73)" fill="#000054"/><path d="M218.82,444.32h-3.23v-3.95h3.23Zm-3.23,3.53h3.23V467.5h-3.23Z" transform="translate(0 -9.73)" fill="#000054"/><path d="M228.32,447.85h3.92v2.85h-3.92v12.2c0,1.48.42,1.75,2.43,1.75h1.49v2.85h-2.47c-3.35,0-4.68-.69-4.68-4.3V450.7h-3.34v-2.85h3.34V442h3.23Z" transform="translate(0 -9.73)" fill="#000054"/><path d="M243.52,470.12c-1.48,3.84-2.81,5.24-5.7,5.24a6.32,6.32,0,0,1-2.24-.34v-3a6.58,6.58,0,0,0,1.9.45,2.79,2.79,0,0,0,2.66-1.78l1.33-3.35-7.79-19.53h3.65l5.74,16.08h.07l5.51-16.08h3.42Z" transform="translate(0 -9.73)" fill="#000054"/><path d="M254.28,455.41h11v3h-11Z" transform="translate(0 -9.73)" fill="#000054"/><path d="M269.48,447.85h3V452h.07c1.56-3.16,3.73-4.72,7.22-4.6v3.42c-5.2,0-7.1,3-7.1,7.94v8.74h-3.23Z" transform="translate(0 -9.73)" fill="#000054"/><path d="M299,461.27c-.87,4.33-4,6.68-8.4,6.68-6.27,0-9.23-4.33-9.42-10.33,0-5.89,3.88-10.22,9.23-10.22,7,0,9.08,6.49,8.89,11.24H284.6c-.11,3.42,1.82,6.46,6.12,6.46,2.66,0,4.52-1.29,5.09-3.83Zm-3.12-5.48a5.65,5.65,0,0,0-5.66-5.54c-3.38,0-5.39,2.54-5.62,5.54Z" transform="translate(0 -9.73)" fill="#000054"/><path d="M302.84,440.37h3.23V467.5h-3.23Z" transform="translate(0 -9.73)" fill="#000054"/><path d="M328.49,467.42a4.4,4.4,0,0,1-2.32.53c-1.67,0-2.74-.91-2.74-3a8.71,8.71,0,0,1-6.91,3c-3.57,0-6.5-1.59-6.5-5.51,0-4.44,3.31-5.39,6.65-6,3.57-.68,6.61-.45,6.61-2.89,0-2.81-2.32-3.26-4.37-3.26-2.73,0-4.75.83-4.9,3.72h-3.23c.19-4.86,4-6.57,8.32-6.57,3.54,0,7.37.8,7.37,5.39V462.9c0,1.52,0,2.2,1,2.2a2.64,2.64,0,0,0,1-.19Zm-5.25-10.07c-1.25.91-3.68.95-5.85,1.33s-3.95,1.14-3.95,3.54c0,2.12,1.82,2.88,3.8,2.88,4.26,0,6-2.66,6-4.44Z" transform="translate(0 -9.73)" fill="#000054"/><path d="M336,447.85h3.92v2.85H336v12.2c0,1.48.42,1.75,2.44,1.75h1.48v2.85h-2.47c-3.35,0-4.68-.69-4.68-4.3V450.7H329.4v-2.85h3.34V442H336Z" transform="translate(0 -9.73)" fill="#000054"/><path d="M360.22,461.27c-.88,4.33-4,6.68-8.4,6.68-6.27,0-9.23-4.33-9.42-10.33,0-5.89,3.87-10.22,9.23-10.22,6.95,0,9.08,6.49,8.89,11.24h-14.7c-.12,3.42,1.82,6.46,6.11,6.46,2.66,0,4.52-1.29,5.09-3.83Zm-3.12-5.48a5.65,5.65,0,0,0-5.66-5.54c-3.38,0-5.4,2.54-5.62,5.54Z" transform="translate(0 -9.73)" fill="#000054"/><path d="M381.42,467.5h-3.23v-2.66h-.08c-1.06,2.16-3.57,3.11-6.27,3.11-6,0-9-4.78-9-10.33s3-10.22,9-10.22c2,0,4.9.76,6.34,3.08h.08V440.37h3.23Zm-9.12-2.4c4.33,0,6-3.72,6-7.41,0-3.87-1.74-7.44-6.19-7.44s-5.89,3.76-5.89,7.6C366.22,461.53,368.12,465.1,372.3,465.1Z" transform="translate(0 -9.73)" fill="#000054"/><path d="M132.26,493.45h3.91v2.85h-3.91v12.2c0,1.48.42,1.75,2.43,1.75h1.48v2.85H133.7c-3.34,0-4.67-.69-4.67-4.3V496.3h-3.34v-2.85H129v-5.89h3.23Z" transform="translate(0 -9.73)" fill="#000054"/><path d="M139.63,493.45h3v4.14h.08c1.56-3.15,3.72-4.71,7.22-4.59v3.42c-5.21,0-7.11,3-7.11,7.94v8.74h-3.23Z" transform="translate(0 -9.73)" fill="#000054"/><path d="M169.8,513a4.37,4.37,0,0,1-2.32.53c-1.67,0-2.73-.91-2.73-3a8.73,8.73,0,0,1-6.92,3c-3.57,0-6.49-1.59-6.49-5.51,0-4.44,3.3-5.39,6.64-6,3.58-.68,6.62-.45,6.62-2.89,0-2.81-2.32-3.26-4.37-3.26-2.74,0-4.75.83-4.9,3.72H152.1c.19-4.86,4-6.57,8.32-6.57,3.53,0,7.37.8,7.37,5.39V508.5c0,1.52,0,2.2,1,2.2a2.61,2.61,0,0,0,1-.19ZM164.56,503c-1.26.91-3.69.95-5.85,1.33s-4,1.14-4,3.54c0,2.12,1.83,2.88,3.8,2.88,4.26,0,6-2.66,6-4.44Z" transform="translate(0 -9.73)" fill="#000054"/><path d="M172.81,493.45h3v3.12h.08A6.84,6.84,0,0,1,182.3,493c5.17,0,6.77,3,6.77,7.18V513.1h-3.23V499.8a3.7,3.7,0,0,0-4-3.95c-3.92,0-5.82,2.62-5.82,6.15v11.1h-3.22Z" transform="translate(0 -9.73)" fill="#000054"/><path d="M195.91,506.9c.11,2.89,2.62,3.8,5.28,3.8,2,0,4.75-.45,4.75-2.92s-3.19-2.93-6.42-3.65-6.42-1.79-6.42-5.55c0-3.95,3.91-5.58,7.33-5.58,4.33,0,7.79,1.37,8,6.15h-3.22c-.23-2.5-2.44-3.3-4.56-3.3-1.94,0-4.18.53-4.18,2.51,0,2.31,3.42,2.69,6.42,3.41,3.23.73,6.42,1.79,6.42,5.59,0,4.67-4.37,6.19-8.36,6.19-4.41,0-8.13-1.78-8.32-6.65Z" transform="translate(0 -9.73)" fill="#000054"/><path d="M214.26,496.3H211v-2.85h3.3v-2.92c0-3.19,1.9-4.87,5.44-4.87a8,8,0,0,1,2.09.31v2.81a6.1,6.1,0,0,0-1.83-.27c-1.56,0-2.47.5-2.47,2.21v2.73h3.8v2.85h-3.8v16.8h-3.23Z" transform="translate(0 -9.73)" fill="#000054"/><path d="M232.65,493c6.23,0,9.54,4.52,9.54,10.29s-3.31,10.26-9.54,10.26-9.53-4.52-9.53-10.26S226.42,493,232.65,493Zm0,17.7c3.39,0,6.12-2.66,6.12-7.41s-2.73-7.44-6.12-7.44-6.11,2.66-6.11,7.44S229.27,510.7,232.65,510.7Z" transform="translate(0 -9.73)" fill="#000054"/><path d="M245.88,493.45h3v4.14H249c1.56-3.15,3.73-4.71,7.22-4.59v3.42c-5.2,0-7.1,3-7.1,7.94v8.74h-3.23Z" transform="translate(0 -9.73)" fill="#000054"/><path d="M258.65,493.45h3v2.89h.07a7.26,7.26,0,0,1,6.35-3.34c2.39,0,4.59.95,5.39,3.34a7.27,7.27,0,0,1,6.16-3.34c3.91,0,6.53,1.63,6.53,5.7v14.4H283V500.22c0-2.43-.64-4.37-3.8-4.37a4.76,4.76,0,0,0-5.13,5V513.1H270.8V500.22c0-2.55-.79-4.37-3.68-4.37a5.29,5.29,0,0,0-5.24,5V513.1h-3.23Z" transform="translate(0 -9.73)" fill="#000054"/><path d="M308.46,513a4.37,4.37,0,0,1-2.32.53c-1.67,0-2.73-.91-2.73-3a8.73,8.73,0,0,1-6.92,3c-3.57,0-6.49-1.59-6.49-5.51,0-4.44,3.3-5.39,6.65-6,3.57-.68,6.61-.45,6.61-2.89,0-2.81-2.32-3.26-4.37-3.26-2.74,0-4.75.83-4.9,3.72h-3.23c.19-4.86,3.95-6.57,8.32-6.57,3.53,0,7.37.8,7.37,5.39V508.5c0,1.52,0,2.2,1,2.2a2.61,2.61,0,0,0,1-.19ZM303.22,503c-1.26.91-3.69.95-5.85,1.33s-3.95,1.14-3.95,3.54c0,2.12,1.82,2.88,3.8,2.88,4.25,0,6-2.66,6-4.44Z" transform="translate(0 -9.73)" fill="#000054"/><path d="M316,493.45h3.91v2.85H316v12.2c0,1.48.42,1.75,2.43,1.75h1.48v2.85h-2.47c-3.34,0-4.67-.69-4.67-4.3V496.3h-3.34v-2.85h3.34v-5.89H316Z" transform="translate(0 -9.73)" fill="#000054"/><path d="M326.85,489.92h-3.22V486h3.22Zm-3.22,3.53h3.22V513.1h-3.22Z" transform="translate(0 -9.73)" fill="#000054"/><path d="M340.34,493c6.23,0,9.54,4.52,9.54,10.29s-3.31,10.26-9.54,10.26-9.53-4.52-9.53-10.26S334.11,493,340.34,493Zm0,17.7c3.38,0,6.12-2.66,6.12-7.41s-2.74-7.44-6.12-7.44-6.11,2.66-6.11,7.44S337,510.7,340.34,510.7Z" transform="translate(0 -9.73)" fill="#000054"/><path d="M353.68,493.45h3v3.12h.08a6.84,6.84,0,0,1,6.38-3.57c5.17,0,6.76,3,6.76,7.18V513.1h-3.23V499.8a3.7,3.7,0,0,0-4-3.95c-3.91,0-5.81,2.62-5.81,6.15v11.1h-3.23Z" transform="translate(0 -9.73)" fill="#000054"/><line x1="248.86" y1="676.92" x2="248.86" y2="813.53" fill="none" stroke="#000054" stroke-linecap="round" stroke-miterlimit="10" stroke-width="5"/><path d="M224.86,720.82a2.49,2.49,0,0,0,3.45-.76l20.55-32.27,20.55,32.27a2.5,2.5,0,0,0,4.22-2.69L251,681.8a2.5,2.5,0,0,0-4.22,0L224.1,717.37a2.46,2.46,0,0,0-.4,1.34A2.49,2.49,0,0,0,224.86,720.82Z" transform="translate(0 -9.73)" fill="#000054"/><circle cx="248.86" cy="600.82" r="41.25" fill="#fff" stroke="#000054" stroke-linecap="round" stroke-miterlimit="10" stroke-width="5"/><path d="M212.28,851.37c-.41-3.88-3-5.55-6.72-5.55-3,0-6.08,1.1-6.08,4.63,0,3.35,4.33,3.84,8.7,4.83s8.66,2.51,8.66,7.83c0,5.77-5.66,8.09-10.6,8.09-6.08,0-11.2-3-11.2-9.58h3.41c0,4.56,3.8,6.54,7.91,6.54,3.27,0,6.87-1,6.87-4.94,0-3.72-4.33-4.37-8.66-5.32s-8.7-2.2-8.7-7.18c0-5.51,4.9-7.94,9.84-7.94,5.55,0,9.77,2.62,10,8.59Z" transform="translate(0 -9.73)" fill="#000054"/><path d="M237.44,864.32c-.87,4.33-4,6.69-8.4,6.69-6.27,0-9.23-4.33-9.42-10.34,0-5.88,3.88-10.22,9.23-10.22,7,0,9.08,6.5,8.89,11.25H223c-.11,3.42,1.82,6.46,6.12,6.46,2.66,0,4.52-1.29,5.09-3.84Zm-3.11-5.47a5.66,5.66,0,0,0-5.67-5.55c-3.38,0-5.39,2.55-5.62,5.55Z" transform="translate(0 -9.73)" fill="#000054"/><path d="M254.43,857.22a4.59,4.59,0,0,0-4.87-3.92c-4.67,0-6.11,3.69-6.11,7.68,0,3.61,1.63,7.18,5.73,7.18,3.12,0,5-1.82,5.4-4.79h3.3c-.72,4.79-3.72,7.64-8.66,7.64-6,0-9.19-4.18-9.19-10s3-10.53,9.27-10.53c4.44,0,8,2.09,8.47,6.77Z" transform="translate(0 -9.73)" fill="#000054"/><path d="M261.38,850.91h3v4.14h.08c1.56-3.15,3.72-4.71,7.22-4.6v3.42c-5.21,0-7.11,3-7.11,7.94v8.74h-3.23Z" transform="translate(0 -9.73)" fill="#000054"/><path d="M290.9,864.32c-.87,4.33-4,6.69-8.39,6.69-6.27,0-9.23-4.33-9.42-10.34,0-5.88,3.87-10.22,9.23-10.22,6.95,0,9.08,6.5,8.89,11.25H276.5c-.11,3.42,1.83,6.46,6.12,6.46,2.66,0,4.52-1.29,5.09-3.84Zm-3.11-5.47a5.65,5.65,0,0,0-5.66-5.55c-3.38,0-5.4,2.55-5.63,5.55Z" transform="translate(0 -9.73)" fill="#000054"/><path d="M299,850.91H303v2.85H299V866c0,1.48.42,1.74,2.43,1.74H303v2.85h-2.47c-3.34,0-4.67-.68-4.67-4.29v-12.5h-3.34v-2.85h3.34V845H299Z" transform="translate(0 -9.73)" fill="#000054"/><path d="M159,893h-3.23v-4H159Zm-3.23,3.53H159v19.64h-3.23Z" transform="translate(0 -9.73)" fill="#000054"/><path d="M164,896.51h3v3.12h.07a6.84,6.84,0,0,1,6.39-3.58c5.16,0,6.76,3,6.76,7.19v12.91H177V902.86a3.7,3.7,0,0,0-4-4c-3.91,0-5.81,2.63-5.81,6.16v11.09H164Z" transform="translate(0 -9.73)" fill="#000054"/><path d="M186.47,899.36h-3.31v-2.85h3.31v-2.93c0-3.19,1.9-4.86,5.43-4.86A8,8,0,0,1,194,889v2.81a6,6,0,0,0-1.82-.27c-1.56,0-2.47.5-2.47,2.2v2.74h3.8v2.85h-3.8v16.79h-3.23Z" transform="translate(0 -9.73)" fill="#000054"/><path d="M204.86,896.05c6.23,0,9.53,4.53,9.53,10.3s-3.3,10.26-9.53,10.26-9.54-4.52-9.54-10.26S198.63,896.05,204.86,896.05Zm0,17.71c3.38,0,6.11-2.66,6.11-7.41s-2.73-7.45-6.11-7.45-6.12,2.66-6.12,7.45S201.48,913.76,204.86,913.76Z" transform="translate(0 -9.73)" fill="#000054"/><path d="M218.08,896.51h3v4.14h.08c1.55-3.15,3.72-4.71,7.22-4.6v3.42c-5.21,0-7.11,3-7.11,7.94v8.74h-3.23Z" transform="translate(0 -9.73)" fill="#000054"/><path d="M230.85,896.51h3v2.89H234a7.25,7.25,0,0,1,6.35-3.35c2.39,0,4.6,1,5.4,3.35a7.25,7.25,0,0,1,6.15-3.35c3.91,0,6.54,1.64,6.54,5.7v14.4h-3.23V903.27c0-2.43-.65-4.37-3.8-4.37a4.76,4.76,0,0,0-5.13,5v12.23H243V903.27c0-2.54-.8-4.37-3.69-4.37a5.3,5.3,0,0,0-5.24,5v12.23h-3.23Z" transform="translate(0 -9.73)" fill="#000054"/><path d="M280.66,916.08a4.36,4.36,0,0,1-2.31.53c-1.67,0-2.74-.91-2.74-3a8.71,8.71,0,0,1-6.91,3c-3.57,0-6.5-1.6-6.5-5.51,0-4.45,3.3-5.39,6.65-6,3.57-.68,6.61-.46,6.61-2.89,0-2.81-2.32-3.27-4.37-3.27-2.74,0-4.75.84-4.9,3.73H263c.19-4.87,4-6.58,8.32-6.58,3.53,0,7.37.8,7.37,5.4v10.11c0,1.52,0,2.2,1,2.2a2.77,2.77,0,0,0,1-.19ZM275.42,906c-1.25.91-3.68,1-5.85,1.33s-3.95,1.14-3.95,3.53c0,2.13,1.82,2.89,3.8,2.89,4.25,0,6-2.66,6-4.45Z" transform="translate(0 -9.73)" fill="#000054"/><path d="M288.15,896.51h3.92v2.85h-3.92v12.2c0,1.48.42,1.74,2.43,1.74h1.49v2.85H289.6c-3.35,0-4.68-.68-4.68-4.29v-12.5h-3.34v-2.85h3.34v-5.89h3.23Z" transform="translate(0 -9.73)" fill="#000054"/><path d="M299.06,893h-3.23v-4h3.23Zm-3.23,3.53h3.23v19.64h-3.23Z" transform="translate(0 -9.73)" fill="#000054"/><path d="M312.55,896.05c6.23,0,9.53,4.53,9.53,10.3s-3.3,10.26-9.53,10.26S303,912.09,303,906.35,306.31,896.05,312.55,896.05Zm0,17.71c3.38,0,6.11-2.66,6.11-7.41s-2.73-7.45-6.11-7.45-6.12,2.66-6.12,7.45S309.16,913.76,312.55,913.76Z" transform="translate(0 -9.73)" fill="#000054"/><path d="M325.89,896.51h3v3.12H329a6.83,6.83,0,0,1,6.38-3.58c5.17,0,6.77,3,6.77,7.19v12.91h-3.23V902.86a3.7,3.7,0,0,0-4-4c-3.92,0-5.82,2.63-5.82,6.16v11.09h-3.22Z" transform="translate(0 -9.73)" fill="#000054"/><path d="M606.9,971.89c11.35,0,17.1,9,17.1,18.7s-5.75,18.7-17.1,18.7-17.1-9-17.1-18.7S595.55,971.89,606.9,971.89Zm0,33.4c8.7,0,12.35-7.5,12.35-14.7s-3.65-14.7-12.35-14.7-12.35,7.5-12.35,14.7S598.2,1005.29,606.9,1005.29Z" transform="translate(0 -9.73)" fill="#000054"/><path d="M629.25,982.59h4.25v3.5h.1c1.4-2.85,4.7-4.1,8.25-4.1,7.95,0,11.9,6.3,11.9,13.6S649.85,1009,642,1009c-2.65,0-6.45-1-8.35-4h-.1v13.35h-4.25Zm12,3.15c-5.7,0-7.9,4.9-7.9,9.75,0,5.1,2.3,9.8,8.15,9.8s7.75-4.95,7.75-10C649.25,990.44,646.75,985.74,641.25,985.74Z" transform="translate(0 -9.73)" fill="#000054"/><path d="M658.9,982.59h4.25v3.5h.1c1.4-2.85,4.7-4.1,8.25-4.1,8,0,11.9,6.3,11.9,13.6S679.5,1009,671.6,1009c-2.65,0-6.45-1-8.35-4h-.1v13.35H658.9Zm12,3.15c-5.7,0-7.9,4.9-7.9,9.75,0,5.1,2.3,9.8,8.15,9.8s7.75-4.95,7.75-10C678.9,990.44,676.4,985.74,670.9,985.74Z" transform="translate(0 -9.73)" fill="#000054"/><path d="M699.55,982c8.2,0,12.55,6,12.55,13.55s-4.35,13.5-12.55,13.5S687,1003.09,687,995.54,691.35,982,699.55,982Zm0,23.3c4.45,0,8.05-3.5,8.05-9.75s-3.6-9.8-8.05-9.8-8,3.5-8,9.8S695.1,1005.29,699.55,1005.29Z" transform="translate(0 -9.73)" fill="#000054"/><path d="M717.1,982.59h4v4.1h.1a9,9,0,0,1,8.4-4.7c6.8,0,8.9,3.9,8.9,9.45v17h-4.25v-17.5a4.87,4.87,0,0,0-5.25-5.2c-5.15,0-7.65,3.45-7.65,8.1v14.6H717.1Z" transform="translate(0 -9.73)" fill="#000054"/><path d="M767,1000.24c-1.15,5.7-5.25,8.8-11.05,8.8-8.25,0-12.15-5.7-12.4-13.6,0-7.75,5.1-13.45,12.15-13.45,9.15,0,12,8.55,11.7,14.8H748c-.15,4.5,2.4,8.5,8,8.5,3.5,0,6-1.7,6.7-5Zm-4.1-7.2a7.44,7.44,0,0,0-7.45-7.3c-4.45,0-7.1,3.35-7.4,7.3Z" transform="translate(0 -9.73)" fill="#000054"/><path d="M771.75,982.59h4v4.1h.1a9,9,0,0,1,8.4-4.7c6.8,0,8.9,3.9,8.9,9.45v17H788.9v-17.5a4.87,4.87,0,0,0-5.25-5.2c-5.15,0-7.65,3.45-7.65,8.1v14.6h-4.25Z" transform="translate(0 -9.73)" fill="#000054"/><path d="M805.45,982.59h5.15v3.75h-5.15v16c0,2,.55,2.3,3.2,2.3h2v3.75h-3.25c-4.4,0-6.15-.9-6.15-5.65V986.34h-4.4v-3.75h4.4v-7.75h4.25Z" transform="translate(0 -9.73)" fill="#000054"/><line x1="172.79" y1="305.26" x2="464.39" y2="128.54" fill="none" stroke="#000054" stroke-linecap="round" stroke-miterlimit="10" stroke-width="5"/><path d="M214.46,317.81a2.52,2.52,0,0,0-2.45-2.56l-38.24-.85,16.94-34.29a2.5,2.5,0,1,0-4.48-2.21l-18.68,37.81a2.5,2.5,0,0,0,.1,2.4,2.52,2.52,0,0,0,2.09,1.21l42.16.93a2.4,2.4,0,0,0,1.35-.36A2.5,2.5,0,0,0,214.46,317.81Z" transform="translate(0 -9.73)" fill="#000054"/><path d="M447.61,176.51a2.5,2.5,0,0,1-1.14-3.35l16.95-34.3L425.17,138a2.49,2.49,0,0,1-2.44-2.55,2.52,2.52,0,0,1,2.55-2.45l42.17.94a2.51,2.51,0,0,1,2.19,3.61L451,175.37a2.52,2.52,0,0,1-3.35,1.14Z" transform="translate(0 -9.73)" fill="#000054"/><line x1="1227.21" y1="305.26" x2="935.61" y2="128.54" fill="none" stroke="#000054" stroke-linecap="round" stroke-miterlimit="10" stroke-width="5"/><path d="M1210.42,276.76a2.5,2.5,0,0,0-1.13,3.35l16.94,34.29-38.24.85a2.5,2.5,0,1,0,.11,5l42.16-.93a2.52,2.52,0,0,0,2.09-1.21,2.5,2.5,0,0,0,.1-2.4l-18.68-37.81a2.42,2.42,0,0,0-.94-1A2.51,2.51,0,0,0,1210.42,276.76Z" transform="translate(0 -9.73)" fill="#000054"/><path d="M977.27,135.46a2.49,2.49,0,0,1-2.44,2.55l-38.25.85,16.95,34.3a2.5,2.5,0,1,1-4.49,2.21l-18.68-37.81a2.51,2.51,0,0,1,2.19-3.61l42.17-.94a2.54,2.54,0,0,1,1.34.36A2.5,2.5,0,0,1,977.27,135.46Z" transform="translate(0 -9.73)" fill="#000054"/><line x1="701.19" y1="131.43" x2="698.81" y2="372.2" fill="none" stroke="#000054" stroke-linecap="round" stroke-miterlimit="10" stroke-width="5"/><path d="M676.85,175.1a2.51,2.51,0,0,0,3.46-.73l20.87-32.06,20.22,32.46a2.5,2.5,0,0,0,4.25-2.64l-22.3-35.8a2.51,2.51,0,0,0-4.22,0l-23,35.35a2.44,2.44,0,0,0-.4,1.34A2.51,2.51,0,0,0,676.85,175.1Z" transform="translate(0 -9.73)" fill="#000054"/><path d="M675.15,347.52a2.51,2.51,0,0,1,3.45.8l20.22,32.47,20.87-32.06a2.5,2.5,0,0,1,4.19,2.72l-23,35.35a2.48,2.48,0,0,1-2.12,1.14,2.52,2.52,0,0,1-2.1-1.18L674.35,351a2.56,2.56,0,0,1-.38-1.35A2.52,2.52,0,0,1,675.15,347.52Z" transform="translate(0 -9.73)" fill="#000054"/><line x1="700" y1="659.94" x2="700" y2="933.79" fill="none" stroke="#000054" stroke-linecap="round" stroke-miterlimit="10" stroke-width="5"/><path d="M676,703.84a2.5,2.5,0,0,0,3.45-.77L700,670.81l20.55,32.26a2.5,2.5,0,1,0,4.21-2.68l-22.65-35.58a2.51,2.51,0,0,0-4.22,0l-22.66,35.58a2.5,2.5,0,0,0,.77,3.45Z" transform="translate(0 -9.73)" fill="#000054"/><path d="M676,909.35a2.49,2.49,0,0,1,3.45.76L700,942.38l20.55-32.27a2.5,2.5,0,0,1,4.22,2.69l-22.66,35.57a2.5,2.5,0,0,1-4.22,0L675.24,912.8a2.45,2.45,0,0,1-.39-1.34A2.51,2.51,0,0,1,676,909.35Z" transform="translate(0 -9.73)" fill="#000054"/><rect y="426.22" width="100" height="350" fill="#ebebeb"/><path d="M34.58,685V680l22.79-8.55-22.79-8.58V658H61.7v3.42H39.13v.07l22.57,8.47V673l-22.57,8.47v.08H61.7V685Z" transform="translate(0 -9.73)" fill="#000054"/><path d="M55.47,635.74c4.33.87,6.69,4,6.69,8.39,0,6.27-4.33,9.23-10.33,9.42-5.89,0-10.23-3.87-10.23-9.23,0-7,6.5-9.08,11.25-8.89v14.71c3.42.11,6.46-1.83,6.46-6.12,0-2.66-1.29-4.52-3.84-5.09ZM50,638.85a5.65,5.65,0,0,0-5.55,5.66c0,3.38,2.55,5.4,5.55,5.63Z" transform="translate(0 -9.73)" fill="#000054"/><path d="M55.51,630.11c2.89-.11,3.8-2.62,3.8-5.28,0-2-.46-4.75-2.93-4.75s-2.92,3.19-3.64,6.42-1.79,6.42-5.55,6.42c-3.95,0-5.59-3.91-5.59-7.33,0-4.33,1.37-7.79,6.16-8.06v3.23c-2.51.23-3.31,2.43-3.31,4.56,0,1.94.54,4.18,2.51,4.18,2.32,0,2.7-3.42,3.42-6.42.72-3.23,1.79-6.42,5.59-6.42,4.67,0,6.19,4.37,6.19,8.36,0,4.41-1.79,8.13-6.65,8.32Z" transform="translate(0 -9.73)" fill="#000054"/><path d="M55.51,611.11c2.89-.11,3.8-2.62,3.8-5.28,0-2-.46-4.75-2.93-4.75s-2.92,3.19-3.64,6.42-1.79,6.42-5.55,6.42c-3.95,0-5.59-3.91-5.59-7.33,0-4.33,1.37-7.79,6.16-8.06v3.23c-2.51.23-3.31,2.43-3.31,4.56,0,1.94.54,4.18,2.51,4.18,2.32,0,2.7-3.42,3.42-6.42.72-3.23,1.79-6.42,5.59-6.42,4.67,0,6.19,4.37,6.19,8.36,0,4.41-1.79,8.13-6.65,8.32Z" transform="translate(0 -9.73)" fill="#000054"/><path d="M61.63,576.68a4.4,4.4,0,0,1,.53,2.32c0,1.67-.91,2.74-3,2.74a8.71,8.71,0,0,1,3,6.91c0,3.57-1.6,6.5-5.51,6.5-4.44,0-5.39-3.31-6-6.65-.68-3.57-.46-6.61-2.89-6.61-2.81,0-3.27,2.32-3.27,4.37,0,2.73.84,4.75,3.73,4.9v3.23c-4.87-.19-6.58-3.95-6.58-8.32,0-3.53.8-7.37,5.4-7.37H57.11c1.52,0,2.2,0,2.2-1a2.86,2.86,0,0,0-.19-1Zm-10.07,5.25c.91,1.25.95,3.68,1.33,5.85s1.14,4,3.53,4c2.13,0,2.89-1.82,2.89-3.8,0-4.26-2.66-6-4.44-6Z" transform="translate(0 -9.73)" fill="#000054"/><path d="M60,556.73c6.39,0,9.65,2.93,9.65,9.12,0,3.69-1.48,7.94-5.77,8.13v-3.23c2.35-.15,3.19-3,3.19-5.09,0-4.21-3-5.89-7.45-5.89H58.36v.08A6.55,6.55,0,0,1,61.93,566c0,5.85-4.6,8.77-10,8.77-4.64,0-10.38-2.28-10.38-9.08a6.42,6.42,0,0,1,3.27-5.85v0H42.06v-3Zm-8.55,3.2c-3.45,0-7,1.52-7,5.58s3.39,5.81,7.15,5.81c3.53,0,7.48-1.29,7.48-5.54S55.17,559.93,51.48,559.93Z" transform="translate(0 -9.73)" fill="#000054"/><path d="M55.47,535.11c4.33.88,6.69,4,6.69,8.4,0,6.27-4.33,9.23-10.33,9.42-5.89,0-10.23-3.87-10.23-9.23,0-7,6.5-9.08,11.25-8.89v14.7c3.42.12,6.46-1.82,6.46-6.11,0-2.66-1.29-4.53-3.84-5.1ZM50,538.23a5.65,5.65,0,0,0-5.55,5.66c0,3.38,2.55,5.39,5.55,5.62Z" transform="translate(0 -9.73)" fill="#000054"/><path d="M1034.69,448.31c-.42-3.88-3-5.55-6.73-5.55-3,0-6.08,1.1-6.08,4.64,0,3.34,4.34,3.84,8.7,4.82s8.67,2.51,8.67,7.83c0,5.78-5.66,8.09-10.6,8.09-6.08,0-11.21-3-11.21-9.57h3.42c0,4.56,3.8,6.53,7.9,6.53,3.27,0,6.88-1,6.88-4.94,0-3.72-4.33-4.36-8.66-5.32s-8.71-2.2-8.71-7.18c0-5.51,4.91-7.94,9.85-7.94,5.54,0,9.76,2.62,10,8.59Z" transform="translate(0 -9.73)" fill="#000054"/><path d="M1059.84,461.27c-.87,4.33-4,6.68-8.39,6.68-6.27,0-9.24-4.33-9.43-10.33,0-5.89,3.88-10.22,9.24-10.22,7,0,9.08,6.5,8.89,11.24h-14.71c-.11,3.42,1.83,6.46,6.12,6.46,2.66,0,4.52-1.29,5.09-3.83Zm-3.11-5.47a5.65,5.65,0,0,0-5.66-5.55c-3.38,0-5.4,2.54-5.63,5.55Z" transform="translate(0 -9.73)" fill="#000054"/><path d="M1076.83,454.16a4.56,4.56,0,0,0-4.86-3.91c-4.68,0-6.12,3.68-6.12,7.67,0,3.61,1.63,7.18,5.74,7.18,3.11,0,5-1.82,5.39-4.78h3.31c-.72,4.78-3.73,7.63-8.66,7.63-6,0-9.2-4.18-9.2-10s3-10.52,9.27-10.52c4.45,0,8,2.09,8.47,6.76Z" transform="translate(0 -9.73)" fill="#000054"/><path d="M1100.16,467.5h-3v-3.12h-.07a6.85,6.85,0,0,1-6.39,3.57c-5.16,0-6.76-3-6.76-7.18V447.85h3.23v13.3a3.7,3.7,0,0,0,4,4c3.91,0,5.81-2.62,5.81-6.15v-11.1h3.23Z" transform="translate(0 -9.73)" fill="#000054"/><path d="M1104.91,447.85h3V452h.08c1.56-3.16,3.72-4.72,7.22-4.6v3.42c-5.21,0-7.11,3-7.11,7.94v8.74h-3.23Z" transform="translate(0 -9.73)" fill="#000054"/><path d="M1121.1,444.32h-3.23v-3.95h3.23Zm-3.23,3.53h3.23V467.5h-3.23Z" transform="translate(0 -9.73)" fill="#000054"/><path d="M1130.6,447.85h3.91v2.85h-3.91v12.2c0,1.48.42,1.75,2.43,1.75h1.48v2.85H1132c-3.34,0-4.67-.69-4.67-4.3V450.7H1124v-2.85h3.34V442h3.23Z" transform="translate(0 -9.73)" fill="#000054"/><path d="M1145.8,470.12c-1.48,3.84-2.81,5.24-5.7,5.24a6.32,6.32,0,0,1-2.24-.34v-3a6.58,6.58,0,0,0,1.9.45,2.79,2.79,0,0,0,2.66-1.78l1.33-3.35L1136,447.85h3.65l5.73,16.08h.08l5.51-16.08h3.42Z" transform="translate(0 -9.73)" fill="#000054"/><path d="M1156.55,455.42h11v3h-11Z" transform="translate(0 -9.73)" fill="#000054"/><path d="M1171.75,447.85h3V452h.08c1.56-3.16,3.72-4.72,7.22-4.6v3.42c-5.21,0-7.11,3-7.11,7.94v8.74h-3.23Z" transform="translate(0 -9.73)" fill="#000054"/><path d="M1201.28,461.27c-.88,4.33-4,6.68-8.4,6.68-6.27,0-9.23-4.33-9.42-10.33,0-5.89,3.87-10.22,9.23-10.22,7,0,9.08,6.5,8.89,11.24h-14.7c-.12,3.42,1.82,6.46,6.11,6.46,2.66,0,4.53-1.29,5.1-3.83Zm-3.12-5.47a5.65,5.65,0,0,0-5.66-5.55c-3.38,0-5.39,2.54-5.62,5.55Z" transform="translate(0 -9.73)" fill="#000054"/><path d="M1205.12,440.37h3.23V467.5h-3.23Z" transform="translate(0 -9.73)" fill="#000054"/><path d="M1230.76,467.42a4.36,4.36,0,0,1-2.31.53c-1.68,0-2.74-.91-2.74-3a8.72,8.72,0,0,1-6.91,3c-3.58,0-6.5-1.59-6.5-5.51,0-4.44,3.3-5.39,6.65-6,3.57-.68,6.61-.45,6.61-2.88,0-2.82-2.32-3.27-4.37-3.27-2.74,0-4.75.83-4.9,3.72h-3.23c.19-4.86,4-6.57,8.32-6.57,3.53,0,7.37.8,7.37,5.39V462.9c0,1.52,0,2.2,1,2.2a2.56,2.56,0,0,0,1-.19Zm-5.24-10.07c-1.25.91-3.69.95-5.85,1.33s-4,1.14-4,3.54c0,2.12,1.82,2.88,3.8,2.88,4.25,0,6-2.66,6-4.44Z" transform="translate(0 -9.73)" fill="#000054"/><path d="M1238.25,447.85h3.92v2.85h-3.92v12.2c0,1.48.42,1.75,2.43,1.75h1.49v2.85h-2.47c-3.35,0-4.68-.69-4.68-4.3V450.7h-3.34v-2.85H1235V442h3.23Z" transform="translate(0 -9.73)" fill="#000054"/><path d="M1262.49,461.27c-.87,4.33-4,6.68-8.39,6.68-6.27,0-9.24-4.33-9.43-10.33,0-5.89,3.88-10.22,9.24-10.22,6.95,0,9.08,6.5,8.89,11.24h-14.71c-.11,3.42,1.83,6.46,6.12,6.46,2.66,0,4.52-1.29,5.09-3.83Zm-3.11-5.47a5.65,5.65,0,0,0-5.66-5.55c-3.39,0-5.4,2.54-5.63,5.55Z" transform="translate(0 -9.73)" fill="#000054"/><path d="M1283.7,467.5h-3.23v-2.66h-.08c-1.06,2.16-3.57,3.11-6.27,3.11-6,0-9-4.78-9-10.33s3-10.22,9-10.22c2,0,4.9.76,6.34,3.08h.08V440.37h3.23Zm-9.12-2.4c4.33,0,6-3.72,6-7.41,0-3.87-1.75-7.44-6.19-7.44s-5.89,3.76-5.89,7.6C1268.5,461.53,1270.4,465.1,1274.58,465.1Z" transform="translate(0 -9.73)" fill="#000054"/><path d="M1034.54,493.45h3.91v2.85h-3.91v12.2c0,1.48.42,1.75,2.43,1.75h1.48v2.85H1036c-3.34,0-4.67-.69-4.67-4.3V496.3H1028v-2.85h3.35v-5.88h3.23Z" transform="translate(0 -9.73)" fill="#000054"/><path d="M1041.91,493.45h3v4.15h.08c1.55-3.16,3.72-4.72,7.21-4.6v3.42c-5.2,0-7.1,3-7.1,7.94v8.74h-3.23Z" transform="translate(0 -9.73)" fill="#000054"/><path d="M1072.08,513a4.37,4.37,0,0,1-2.32.53c-1.67,0-2.73-.91-2.73-3a8.73,8.73,0,0,1-6.92,3c-3.57,0-6.5-1.59-6.5-5.51,0-4.44,3.31-5.39,6.65-6,3.57-.68,6.61-.45,6.61-2.88,0-2.82-2.31-3.27-4.37-3.27-2.73,0-4.75.83-4.9,3.72h-3.23c.19-4.86,4-6.57,8.32-6.57,3.54,0,7.37.8,7.37,5.39V508.5c0,1.52,0,2.2,1,2.2a2.61,2.61,0,0,0,1-.19ZM1066.83,503c-1.25.91-3.68.95-5.85,1.33s-4,1.14-4,3.54c0,2.12,1.83,2.88,3.8,2.88,4.26,0,6-2.66,6-4.44Z" transform="translate(0 -9.73)" fill="#000054"/><path d="M1075.08,493.45h3v3.12h.08a6.84,6.84,0,0,1,6.38-3.57c5.17,0,6.76,3,6.76,7.18V513.1h-3.22V499.8a3.71,3.71,0,0,0-4-3.95c-3.92,0-5.82,2.62-5.82,6.15v11.1h-3.23Z" transform="translate(0 -9.73)" fill="#000054"/><path d="M1098.19,506.9c.11,2.89,2.62,3.8,5.28,3.8,2,0,4.75-.45,4.75-2.92s-3.19-2.93-6.42-3.65-6.42-1.79-6.42-5.55c0-3.95,3.91-5.58,7.33-5.58,4.33,0,7.79,1.37,8,6.15h-3.23c-.23-2.5-2.43-3.3-4.56-3.3-1.93,0-4.18.53-4.18,2.51,0,2.31,3.42,2.69,6.43,3.42,3.23.72,6.42,1.78,6.42,5.58,0,4.67-4.37,6.19-8.36,6.19-4.41,0-8.13-1.78-8.32-6.65Z" transform="translate(0 -9.73)" fill="#000054"/><path d="M1116.54,496.3h-3.3v-2.85h3.3v-2.92c0-3.19,1.9-4.86,5.43-4.86a7.88,7.88,0,0,1,2.09.3v2.81a6,6,0,0,0-1.82-.27c-1.56,0-2.47.5-2.47,2.21v2.73h3.8v2.85h-3.8v16.8h-3.23Z" transform="translate(0 -9.73)" fill="#000054"/><path d="M1134.93,493c6.23,0,9.54,4.52,9.54,10.29s-3.31,10.26-9.54,10.26-9.54-4.52-9.54-10.26S1128.7,493,1134.93,493Zm0,17.7c3.38,0,6.12-2.66,6.12-7.41s-2.74-7.44-6.12-7.44-6.12,2.66-6.12,7.44S1131.55,510.7,1134.93,510.7Z" transform="translate(0 -9.73)" fill="#000054"/><path d="M1148.16,493.45h3v4.15h.07c1.56-3.16,3.73-4.72,7.22-4.6v3.42c-5.2,0-7.1,3-7.1,7.94v8.74h-3.23Z" transform="translate(0 -9.73)" fill="#000054"/><path d="M1160.92,493.45h3v2.89h.08a7.24,7.24,0,0,1,6.34-3.34c2.4,0,4.6.95,5.4,3.34a7.27,7.27,0,0,1,6.15-3.34c3.92,0,6.54,1.63,6.54,5.7v14.4h-3.23V500.22c0-2.43-.65-4.37-3.8-4.37a4.76,4.76,0,0,0-5.13,5V513.1h-3.23V500.22c0-2.55-.8-4.37-3.68-4.37a5.3,5.3,0,0,0-5.25,5V513.1h-3.23Z" transform="translate(0 -9.73)" fill="#000054"/><path d="M1210.74,513a4.37,4.37,0,0,1-2.32.53c-1.67,0-2.73-.91-2.73-3a8.73,8.73,0,0,1-6.92,3c-3.57,0-6.5-1.59-6.5-5.51,0-4.44,3.31-5.39,6.65-6,3.57-.68,6.61-.45,6.61-2.88,0-2.82-2.31-3.27-4.37-3.27-2.73,0-4.74.83-4.9,3.72H1193c.19-4.86,4-6.57,8.32-6.57,3.54,0,7.38.8,7.38,5.39V508.5c0,1.52,0,2.2,1,2.2a2.61,2.61,0,0,0,1-.19ZM1205.5,503c-1.26.91-3.69.95-5.86,1.33s-4,1.14-4,3.54c0,2.12,1.83,2.88,3.8,2.88,4.26,0,6-2.66,6-4.44Z" transform="translate(0 -9.73)" fill="#000054"/><path d="M1218.23,493.45h3.91v2.85h-3.91v12.2c0,1.48.41,1.75,2.43,1.75h1.48v2.85h-2.47c-3.34,0-4.67-.69-4.67-4.3V496.3h-3.35v-2.85H1215v-5.88h3.23Z" transform="translate(0 -9.73)" fill="#000054"/><path d="M1229.13,489.92h-3.23V486h3.23Zm-3.23,3.53h3.23V513.1h-3.23Z" transform="translate(0 -9.73)" fill="#000054"/><path d="M1242.62,493c6.23,0,9.54,4.52,9.54,10.29s-3.31,10.26-9.54,10.26-9.54-4.52-9.54-10.26S1236.39,493,1242.62,493Zm0,17.7c3.38,0,6.12-2.66,6.12-7.41s-2.74-7.44-6.12-7.44-6.12,2.66-6.12,7.44S1239.24,510.7,1242.62,510.7Z" transform="translate(0 -9.73)" fill="#000054"/><path d="M1256,493.45h3v3.12h.08a6.83,6.83,0,0,1,6.38-3.57c5.17,0,6.76,3,6.76,7.18V513.1H1269V499.8a3.7,3.7,0,0,0-4-3.95c-3.91,0-5.81,2.62-5.81,6.15v11.1H1256Z" transform="translate(0 -9.73)" fill="#000054"/><circle cx="1151.14" cy="600.82" r="41.25" fill="#fff" stroke="#000054" stroke-linecap="round" stroke-miterlimit="10" stroke-width="5"/><path d="M1114.56,851.37c-.42-3.88-3-5.55-6.72-5.55-3,0-6.08,1.1-6.08,4.63,0,3.35,4.33,3.84,8.7,4.83s8.66,2.51,8.66,7.83c0,5.77-5.66,8.09-10.6,8.09-6.08,0-11.21-3-11.21-9.58h3.42c0,4.56,3.8,6.54,7.9,6.54,3.27,0,6.88-1,6.88-4.94,0-3.72-4.33-4.37-8.66-5.32s-8.7-2.2-8.7-7.18c0-5.51,4.9-7.94,9.84-7.94,5.55,0,9.76,2.62,10,8.59Z" transform="translate(0 -9.73)" fill="#000054"/><path d="M1139.72,864.32c-.88,4.33-4,6.69-8.4,6.69-6.27,0-9.23-4.33-9.42-10.34,0-5.88,3.87-10.22,9.23-10.22,6.95,0,9.08,6.5,8.89,11.25h-14.7c-.12,3.42,1.82,6.46,6.12,6.46,2.65,0,4.52-1.29,5.09-3.84Zm-3.12-5.47a5.65,5.65,0,0,0-5.66-5.55c-3.38,0-5.39,2.55-5.62,5.55Z" transform="translate(0 -9.73)" fill="#000054"/><path d="M1156.7,857.22a4.57,4.57,0,0,0-4.86-3.92c-4.67,0-6.12,3.69-6.12,7.68,0,3.61,1.64,7.18,5.74,7.18,3.12,0,5-1.82,5.4-4.79h3.3c-.72,4.79-3.72,7.64-8.66,7.64-6,0-9.2-4.18-9.2-10s3-10.53,9.27-10.53c4.45,0,8,2.09,8.48,6.77Z" transform="translate(0 -9.73)" fill="#000054"/><path d="M1163.66,850.91h3v4.14h.08c1.55-3.15,3.72-4.71,7.21-4.6v3.42c-5.2,0-7.1,3-7.1,7.94v8.74h-3.23Z" transform="translate(0 -9.73)" fill="#000054"/><path d="M1193.18,864.32c-.87,4.33-4,6.69-8.39,6.69-6.27,0-9.24-4.33-9.43-10.34,0-5.88,3.88-10.22,9.24-10.22,7,0,9.08,6.5,8.89,11.25h-14.71c-.11,3.42,1.83,6.46,6.12,6.46,2.66,0,4.52-1.29,5.09-3.84Zm-3.11-5.47a5.65,5.65,0,0,0-5.66-5.55c-3.39,0-5.4,2.55-5.63,5.55Z" transform="translate(0 -9.73)" fill="#000054"/><path d="M1201.32,850.91h3.91v2.85h-3.91V866c0,1.48.41,1.74,2.43,1.74h1.48v2.85h-2.47c-3.34,0-4.67-.68-4.67-4.29v-12.5h-3.35v-2.85h3.35V845h3.23Z" transform="translate(0 -9.73)" fill="#000054"/><path d="M1061.27,893H1058v-4h3.23Zm-3.23,3.53h3.23v19.64H1058Z" transform="translate(0 -9.73)" fill="#000054"/><path d="M1066.29,896.51h3v3.12h.07a6.83,6.83,0,0,1,6.38-3.58c5.17,0,6.77,3,6.77,7.19v12.91h-3.23V902.86a3.7,3.7,0,0,0-4-4c-3.91,0-5.81,2.63-5.81,6.16v11.09h-3.23Z" transform="translate(0 -9.73)" fill="#000054"/><path d="M1088.74,899.36h-3.3v-2.85h3.3v-2.93c0-3.19,1.9-4.86,5.44-4.86a8,8,0,0,1,2.09.31v2.81a6.1,6.1,0,0,0-1.83-.27c-1.56,0-2.47.5-2.47,2.2v2.74h3.8v2.85H1092v16.79h-3.23Z" transform="translate(0 -9.73)" fill="#000054"/><path d="M1107.13,896.05c6.24,0,9.54,4.53,9.54,10.3s-3.3,10.26-9.54,10.26-9.53-4.52-9.53-10.26S1100.9,896.05,1107.13,896.05Zm0,17.71c3.39,0,6.12-2.66,6.12-7.41s-2.73-7.45-6.12-7.45-6.11,2.66-6.11,7.45S1103.75,913.76,1107.13,913.76Z" transform="translate(0 -9.73)" fill="#000054"/><path d="M1120.36,896.51h3v4.14h.07c1.56-3.15,3.73-4.71,7.22-4.6v3.42c-5.2,0-7.1,3-7.1,7.94v8.74h-3.23Z" transform="translate(0 -9.73)" fill="#000054"/><path d="M1133.13,896.51h3v2.89h.07a7.25,7.25,0,0,1,6.35-3.35c2.39,0,4.59,1,5.39,3.35a7.28,7.28,0,0,1,6.16-3.35c3.91,0,6.53,1.64,6.53,5.7v14.4h-3.23V903.27c0-2.43-.64-4.37-3.8-4.37a4.76,4.76,0,0,0-5.13,5v12.23h-3.22V903.27c0-2.54-.8-4.37-3.69-4.37a5.3,5.3,0,0,0-5.24,5v12.23h-3.23Z" transform="translate(0 -9.73)" fill="#000054"/><path d="M1182.94,916.08a4.36,4.36,0,0,1-2.31.53c-1.68,0-2.74-.91-2.74-3a8.73,8.73,0,0,1-6.92,3c-3.57,0-6.49-1.6-6.49-5.51,0-4.45,3.3-5.39,6.65-6,3.57-.68,6.61-.46,6.61-2.89,0-2.81-2.32-3.27-4.37-3.27-2.74,0-4.75.84-4.9,3.73h-3.23c.19-4.87,4-6.58,8.32-6.58,3.53,0,7.37.8,7.37,5.4v10.11c0,1.52,0,2.2,1,2.2a2.82,2.82,0,0,0,1-.19ZM1177.7,906c-1.25.91-3.69,1-5.85,1.33s-3.95,1.14-3.95,3.53c0,2.13,1.82,2.89,3.8,2.89,4.25,0,6-2.66,6-4.45Z" transform="translate(0 -9.73)" fill="#000054"/><path d="M1190.43,896.51h3.91v2.85h-3.91v12.2c0,1.48.42,1.74,2.43,1.74h1.48v2.85h-2.47c-3.34,0-4.67-.68-4.67-4.29v-12.5h-3.34v-2.85h3.34v-5.89h3.23Z" transform="translate(0 -9.73)" fill="#000054"/><path d="M1201.33,893h-3.22v-4h3.22Zm-3.22,3.53h3.22v19.64h-3.22Z" transform="translate(0 -9.73)" fill="#000054"/><path d="M1214.82,896.05c6.23,0,9.54,4.53,9.54,10.3s-3.31,10.26-9.54,10.26-9.53-4.52-9.53-10.26S1208.59,896.05,1214.82,896.05Zm0,17.71c3.39,0,6.12-2.66,6.12-7.41s-2.73-7.45-6.12-7.45-6.11,2.66-6.11,7.45S1211.44,913.76,1214.82,913.76Z" transform="translate(0 -9.73)" fill="#000054"/><path d="M1228.16,896.51h3v3.12h.08a6.83,6.83,0,0,1,6.38-3.58c5.17,0,6.76,3,6.76,7.19v12.91h-3.22V902.86a3.71,3.71,0,0,0-4-4c-3.92,0-5.82,2.63-5.82,6.16v11.09h-3.23Z" transform="translate(0 -9.73)" fill="#000054"/><rect x="902.28" y="426.22" width="100" height="350" fill="#ebebeb"/><path d="M944.79,734.12c-3.87.41-5.54,3-5.54,6.72,0,3,1.1,6.08,4.63,6.08,3.35,0,3.84-4.33,4.83-8.7s2.5-8.66,7.83-8.66c5.77,0,8.09,5.66,8.09,10.6,0,6.08-3,11.21-9.58,11.21V748c4.56,0,6.54-3.8,6.54-7.91,0-3.26-1-6.87-4.94-6.87-3.72,0-4.37,4.33-5.32,8.66s-2.2,8.7-7.18,8.7c-5.51,0-7.94-4.9-7.94-9.84,0-5.55,2.62-9.77,8.58-10Z" transform="translate(0 -9.73)" fill="#000054"/><path d="M957.75,709c4.33.87,6.69,4,6.69,8.4,0,6.27-4.33,9.23-10.34,9.42-5.89,0-10.22-3.88-10.22-9.23,0-7,6.5-9.08,11.25-8.89v14.7c3.42.11,6.46-1.82,6.46-6.12,0-2.66-1.29-4.52-3.84-5.09Zm-5.47,3.12a5.65,5.65,0,0,0-5.55,5.66c0,3.38,2.55,5.39,5.55,5.62Z" transform="translate(0 -9.73)" fill="#000054"/><path d="M950.65,692a4.59,4.59,0,0,0-3.92,4.87c0,4.67,3.69,6.11,7.68,6.11,3.61,0,7.18-1.63,7.18-5.73,0-3.12-1.83-5-4.79-5.4v-3.3c4.79.72,7.64,3.72,7.64,8.66,0,6-4.18,9.19-10,9.19s-10.53-3-10.53-9.27c0-4.44,2.09-8,6.77-8.47Z" transform="translate(0 -9.73)" fill="#000054"/><path d="M964,668.64v3h-3.11v.08a6.84,6.84,0,0,1,3.57,6.38c0,5.17-3,6.76-7.18,6.76H944.34v-3.23h13.3a3.7,3.7,0,0,0,4-4c0-3.92-2.62-5.82-6.16-5.82H944.34v-3.23Z" transform="translate(0 -9.73)" fill="#000054"/><path d="M944.34,663.89v-3h4.14v-.07c-3.15-1.56-4.71-3.73-4.6-7.22h3.42c0,5.2,3,7.1,7.94,7.1H964v3.23Z" transform="translate(0 -9.73)" fill="#000054"/><path d="M957.75,634.37c4.33.87,6.69,4,6.69,8.39,0,6.27-4.33,9.24-10.34,9.43-5.89,0-10.22-3.88-10.22-9.24,0-7,6.5-9.08,11.25-8.89v14.71c3.42.11,6.46-1.83,6.46-6.12,0-2.66-1.29-4.52-3.84-5.09Zm-5.47,3.11a5.66,5.66,0,0,0-5.55,5.66c0,3.39,2.55,5.4,5.55,5.63Z" transform="translate(0 -9.73)" fill="#000054"/><path d="M944.34,620.15v-3h2.89V617a7.25,7.25,0,0,1-3.35-6.35c0-2.39,1-4.59,3.35-5.39a7.28,7.28,0,0,1-3.35-6.16c0-3.91,1.64-6.53,5.7-6.53H964v3.23H951.1c-2.43,0-4.37.64-4.37,3.8a4.76,4.76,0,0,0,5,5.13H964V608H951.1c-2.54,0-4.37.79-4.37,3.68a5.3,5.3,0,0,0,5,5.24H964v3.23Z" transform="translate(0 -9.73)" fill="#000054"/><path d="M957.75,571c4.33.88,6.69,4,6.69,8.4,0,6.27-4.33,9.23-10.34,9.42-5.89,0-10.22-3.87-10.22-9.23,0-7,6.5-9.08,11.25-8.89v14.7c3.42.12,6.46-1.82,6.46-6.11,0-2.66-1.29-4.52-3.84-5.09Zm-5.47,3.12a5.65,5.65,0,0,0-5.55,5.66c0,3.38,2.55,5.4,5.55,5.62Z" transform="translate(0 -9.73)" fill="#000054"/><path d="M957.79,565.36c2.89-.12,3.8-2.62,3.8-5.28,0-2-.46-4.75-2.93-4.75s-2.92,3.19-3.65,6.42-1.78,6.42-5.54,6.42c-4,0-5.59-3.91-5.59-7.33,0-4.33,1.37-7.79,6.16-8.06V556c-2.51.23-3.31,2.43-3.31,4.56,0,1.94.53,4.18,2.51,4.18,2.32,0,2.7-3.42,3.42-6.42.72-3.23,1.79-6.42,5.58-6.42,4.68,0,6.2,4.37,6.2,8.36,0,4.4-1.79,8.13-6.65,8.32Z" transform="translate(0 -9.73)" fill="#000054"/><path d="M957.79,546.36c2.89-.12,3.8-2.62,3.8-5.28,0-2-.46-4.75-2.93-4.75s-2.92,3.19-3.65,6.42-1.78,6.42-5.54,6.42c-4,0-5.59-3.91-5.59-7.33,0-4.33,1.37-7.79,6.16-8.06V537c-2.51.23-3.31,2.43-3.31,4.56,0,1.94.53,4.18,2.51,4.18,2.32,0,2.7-3.42,3.42-6.42.72-3.23,1.79-6.42,5.58-6.42,4.68,0,6.2,4.37,6.2,8.36,0,4.4-1.79,8.13-6.65,8.32Z" transform="translate(0 -9.73)" fill="#000054"/><path d="M963.91,511.93a4.37,4.37,0,0,1,.53,2.32c0,1.67-.91,2.74-3,2.74a8.71,8.71,0,0,1,3,6.91c0,3.57-1.6,6.5-5.51,6.5-4.45,0-5.4-3.31-6-6.65-.69-3.57-.46-6.61-2.89-6.61-2.81,0-3.27,2.32-3.27,4.37,0,2.73.84,4.75,3.73,4.9v3.23c-4.87-.19-6.58-3.95-6.58-8.32,0-3.54.8-7.37,5.4-7.37h10.1c1.52,0,2.21,0,2.21-1a2.82,2.82,0,0,0-.19-1Zm-10.07,5.25c.91,1.25.95,3.68,1.33,5.85s1.14,4,3.53,4c2.13,0,2.89-1.83,2.89-3.8,0-4.26-2.66-6-4.45-6Z" transform="translate(0 -9.73)" fill="#000054"/><path d="M962.31,492c6.38,0,9.65,2.93,9.65,9.12,0,3.69-1.48,7.94-5.77,8.13V506c2.35-.15,3.19-3,3.19-5.09,0-4.22-3-5.89-7.45-5.89h-1.29v.08a6.55,6.55,0,0,1,3.57,6.12c0,5.85-4.6,8.77-10,8.77-4.63,0-10.37-2.28-10.37-9.08a6.41,6.41,0,0,1,3.27-5.85v0h-2.81v-3Zm-8.55,3.19c-3.46,0-7,1.52-7,5.59s3.38,5.81,7.15,5.81c3.53,0,7.48-1.29,7.48-5.54S957.45,495.17,953.76,495.17Z" transform="translate(0 -9.73)" fill="#000054"/><path d="M957.75,470.36c4.33.87,6.69,4,6.69,8.4,0,6.27-4.33,9.23-10.34,9.42-5.89,0-10.22-3.87-10.22-9.23,0-6.95,6.5-9.08,11.25-8.89v14.7c3.42.12,6.46-1.82,6.46-6.12,0-2.66-1.29-4.52-3.84-5.09Zm-5.47,3.12a5.65,5.65,0,0,0-5.55,5.66c0,3.38,2.55,5.39,5.55,5.62Z" transform="translate(0 -9.73)" fill="#000054"/><rect x="1300" y="426.22" width="100" height="350" fill="#ebebeb"/><path d="M1334.58,685V680l22.79-8.55-22.79-8.58V658h27.12v3.42h-22.57v.07l22.57,8.47V673l-22.57,8.47v.08h22.57V685Z" transform="translate(0 -9.73)" fill="#000054"/><path d="M1355.47,635.74c4.33.87,6.69,4,6.69,8.39,0,6.27-4.33,9.23-10.33,9.42-5.89,0-10.23-3.87-10.23-9.23,0-7,6.5-9.08,11.25-8.89v14.71c3.42.11,6.46-1.83,6.46-6.12,0-2.66-1.29-4.52-3.84-5.09Zm-5.47,3.11a5.65,5.65,0,0,0-5.55,5.66c0,3.38,2.55,5.4,5.55,5.63Z" transform="translate(0 -9.73)" fill="#000054"/><path d="M1355.51,630.11c2.89-.11,3.8-2.62,3.8-5.28,0-2-.46-4.75-2.93-4.75s-2.92,3.19-3.64,6.42-1.79,6.42-5.55,6.42c-4,0-5.59-3.91-5.59-7.33,0-4.33,1.37-7.79,6.16-8.06v3.23c-2.51.23-3.31,2.43-3.31,4.56,0,1.94.54,4.18,2.51,4.18,2.32,0,2.7-3.42,3.42-6.42.72-3.23,1.79-6.42,5.59-6.42,4.67,0,6.19,4.37,6.19,8.36,0,4.41-1.79,8.13-6.65,8.32Z" transform="translate(0 -9.73)" fill="#000054"/><path d="M1355.51,611.11c2.89-.11,3.8-2.62,3.8-5.28,0-2-.46-4.75-2.93-4.75s-2.92,3.19-3.64,6.42-1.79,6.42-5.55,6.42c-4,0-5.59-3.91-5.59-7.33,0-4.33,1.37-7.79,6.16-8.06v3.23c-2.51.23-3.31,2.43-3.31,4.56,0,1.94.54,4.18,2.51,4.18,2.32,0,2.7-3.42,3.42-6.42.72-3.23,1.79-6.42,5.59-6.42,4.67,0,6.19,4.37,6.19,8.36,0,4.41-1.79,8.13-6.65,8.32Z" transform="translate(0 -9.73)" fill="#000054"/><path d="M1361.63,576.68a4.4,4.4,0,0,1,.53,2.32c0,1.67-.91,2.74-3,2.74a8.71,8.71,0,0,1,3,6.91c0,3.57-1.6,6.5-5.51,6.5-4.44,0-5.39-3.31-6-6.65-.68-3.57-.46-6.61-2.89-6.61-2.81,0-3.27,2.32-3.27,4.37,0,2.73.84,4.75,3.73,4.9v3.23c-4.87-.19-6.58-3.95-6.58-8.32,0-3.53.8-7.37,5.4-7.37h10.11c1.52,0,2.2,0,2.2-1a2.86,2.86,0,0,0-.19-1Zm-10.07,5.25c.91,1.25,1,3.68,1.33,5.85s1.14,4,3.53,4c2.13,0,2.89-1.82,2.89-3.8,0-4.26-2.66-6-4.44-6Z" transform="translate(0 -9.73)" fill="#000054"/><path d="M1360,556.73c6.39,0,9.65,2.93,9.65,9.12,0,3.69-1.48,7.94-5.77,8.13v-3.23c2.35-.15,3.19-3,3.19-5.09,0-4.21-3-5.89-7.45-5.89h-1.29v.08a6.55,6.55,0,0,1,3.57,6.12c0,5.85-4.6,8.77-10,8.77-4.64,0-10.38-2.28-10.38-9.08a6.42,6.42,0,0,1,3.27-5.85v0h-2.81v-3Zm-8.55,3.2c-3.45,0-7,1.52-7,5.58s3.39,5.81,7.15,5.81c3.53,0,7.48-1.29,7.48-5.54S1355.17,559.93,1351.48,559.93Z" transform="translate(0 -9.73)" fill="#000054"/><path d="M1355.47,535.11c4.33.88,6.69,4,6.69,8.4,0,6.27-4.33,9.23-10.33,9.42-5.89,0-10.23-3.87-10.23-9.23,0-7,6.5-9.08,11.25-8.89v14.7c3.42.12,6.46-1.82,6.46-6.11,0-2.66-1.29-4.53-3.84-5.1Zm-5.47,3.12a5.65,5.65,0,0,0-5.55,5.66c0,3.38,2.55,5.39,5.55,5.62Z" transform="translate(0 -9.73)" fill="#000054"/><line x1="571.8" y1="601.22" x2="472.26" y2="601.22" fill="none" stroke="#000054" stroke-miterlimit="10" stroke-width="5"/><path d="M537.63,587a2.49,2.49,0,0,0,.76,3.45L570.65,611,538.39,631.5a2.5,2.5,0,0,0,2.69,4.22l35.57-22.65a2.5,2.5,0,0,0,0-4.22l-35.57-22.66a2.54,2.54,0,0,0-1.34-.39A2.48,2.48,0,0,0,537.63,587Z" transform="translate(0 -9.73)" fill="#000054"/><rect x="397.72" y="426.22" width="100" height="350" fill="#ebebeb"/><path d="M440.24,734.12c-3.88.41-5.55,3-5.55,6.72,0,3,1.1,6.08,4.64,6.08,3.34,0,3.83-4.33,4.82-8.7s2.51-8.66,7.83-8.66c5.77,0,8.09,5.66,8.09,10.6,0,6.08-3,11.21-9.57,11.21V748c4.56,0,6.53-3.8,6.53-7.91,0-3.26-1-6.87-4.94-6.87-3.72,0-4.37,4.33-5.32,8.66s-2.2,8.7-7.18,8.7c-5.51,0-7.94-4.9-7.94-9.84,0-5.55,2.62-9.77,8.59-10Z" transform="translate(0 -9.73)" fill="#000054"/><path d="M453.2,709c4.33.87,6.68,4,6.68,8.4,0,6.27-4.33,9.23-10.33,9.42-5.89,0-10.22-3.88-10.22-9.23,0-7,6.49-9.08,11.24-8.89v14.7c3.42.11,6.46-1.82,6.46-6.12,0-2.66-1.29-4.52-3.83-5.09Zm-5.48,3.12a5.65,5.65,0,0,0-5.54,5.66c0,3.38,2.54,5.39,5.54,5.62Z" transform="translate(0 -9.73)" fill="#000054"/><path d="M446.09,692a4.58,4.58,0,0,0-3.91,4.87c0,4.67,3.68,6.11,7.67,6.11,3.61,0,7.18-1.63,7.18-5.73a5.08,5.08,0,0,0-4.78-5.4v-3.3c4.78.72,7.63,3.72,7.63,8.66,0,6-4.18,9.19-10,9.19s-10.52-3-10.52-9.27c0-4.44,2.09-8,6.76-8.47Z" transform="translate(0 -9.73)" fill="#000054"/><path d="M459.43,668.64v3h-3.12v.08a6.84,6.84,0,0,1,3.57,6.38c0,5.17-3,6.76-7.18,6.76H439.78v-3.23h13.3a3.7,3.7,0,0,0,3.95-4c0-3.92-2.62-5.82-6.15-5.82h-11.1v-3.23Z" transform="translate(0 -9.73)" fill="#000054"/><path d="M439.78,663.89v-3h4.14v-.07c-3.15-1.56-4.71-3.73-4.59-7.22h3.42c0,5.2,3,7.1,7.94,7.1h8.74v3.23Z" transform="translate(0 -9.73)" fill="#000054"/><path d="M453.2,634.37c4.33.87,6.68,4,6.68,8.39,0,6.27-4.33,9.24-10.33,9.43-5.89,0-10.22-3.88-10.22-9.24,0-7,6.49-9.08,11.24-8.89v14.71c3.42.11,6.46-1.83,6.46-6.12,0-2.66-1.29-4.52-3.83-5.09Zm-5.48,3.11a5.66,5.66,0,0,0-5.54,5.66c0,3.39,2.54,5.4,5.54,5.63Z" transform="translate(0 -9.73)" fill="#000054"/><path d="M439.78,620.15v-3h2.89V617a7.26,7.26,0,0,1-3.34-6.35c0-2.39.95-4.59,3.34-5.39a7.27,7.27,0,0,1-3.34-6.16c0-3.91,1.63-6.53,5.7-6.53h14.4v3.23H446.55c-2.44,0-4.37.64-4.37,3.8a4.76,4.76,0,0,0,5,5.13h12.24V608H446.55c-2.55,0-4.37.79-4.37,3.68a5.29,5.29,0,0,0,5,5.24h12.24v3.23Z" transform="translate(0 -9.73)" fill="#000054"/><path d="M453.2,571c4.33.88,6.68,4,6.68,8.4,0,6.27-4.33,9.23-10.33,9.42-5.89,0-10.22-3.87-10.22-9.23,0-7,6.49-9.08,11.24-8.89v14.7c3.42.12,6.46-1.82,6.46-6.11,0-2.66-1.29-4.52-3.83-5.09Zm-5.48,3.12a5.65,5.65,0,0,0-5.54,5.66c0,3.38,2.54,5.4,5.54,5.62Z" transform="translate(0 -9.73)" fill="#000054"/><path d="M453.23,565.36c2.89-.12,3.8-2.62,3.8-5.28,0-2-.45-4.75-2.92-4.75s-2.93,3.19-3.65,6.42-1.79,6.42-5.55,6.42c-4,0-5.58-3.91-5.58-7.33,0-4.33,1.36-7.79,6.15-8.06V556c-2.51.23-3.3,2.43-3.3,4.56,0,1.94.53,4.18,2.5,4.18,2.32,0,2.7-3.42,3.42-6.42.73-3.23,1.79-6.42,5.59-6.42,4.67,0,6.19,4.37,6.19,8.36,0,4.4-1.78,8.13-6.65,8.32Z" transform="translate(0 -9.73)" fill="#000054"/><path d="M453.23,546.36c2.89-.12,3.8-2.62,3.8-5.28,0-2-.45-4.75-2.92-4.75s-2.93,3.19-3.65,6.42-1.79,6.42-5.55,6.42c-4,0-5.58-3.91-5.58-7.33,0-4.33,1.36-7.79,6.15-8.06V537c-2.51.23-3.3,2.43-3.3,4.56,0,1.94.53,4.18,2.5,4.18,2.32,0,2.7-3.42,3.42-6.42.73-3.23,1.79-6.42,5.59-6.42,4.67,0,6.19,4.37,6.19,8.36,0,4.4-1.78,8.13-6.65,8.32Z" transform="translate(0 -9.73)" fill="#000054"/><path d="M459.35,511.93a4.37,4.37,0,0,1,.53,2.32c0,1.67-.91,2.74-3,2.74a8.71,8.71,0,0,1,3,6.91c0,3.57-1.59,6.5-5.51,6.5-4.44,0-5.39-3.31-6-6.65-.68-3.57-.45-6.61-2.89-6.61-2.81,0-3.26,2.32-3.26,4.37,0,2.73.83,4.75,3.72,4.9v3.23c-4.86-.19-6.57-3.95-6.57-8.32,0-3.54.8-7.37,5.39-7.37h10.11c1.52,0,2.2,0,2.2-1a2.82,2.82,0,0,0-.19-1Zm-10.07,5.25c.91,1.25,1,3.68,1.33,5.85s1.14,4,3.54,4c2.12,0,2.88-1.83,2.88-3.8,0-4.26-2.66-6-4.44-6Z" transform="translate(0 -9.73)" fill="#000054"/><path d="M457.75,492c6.39,0,9.66,2.93,9.66,9.12,0,3.69-1.49,7.94-5.78,8.13V506c2.36-.15,3.19-3,3.19-5.09,0-4.22-3-5.89-7.45-5.89h-1.29v.08a6.53,6.53,0,0,1,3.57,6.12c0,5.85-4.59,8.77-9.95,8.77-4.64,0-10.37-2.28-10.37-9.08a6.42,6.42,0,0,1,3.26-5.85v0h-2.81v-3Zm-8.54,3.19c-3.46,0-7,1.52-7,5.59s3.38,5.81,7.14,5.81c3.53,0,7.48-1.29,7.48-5.54S452.89,495.17,449.21,495.17Z" transform="translate(0 -9.73)" fill="#000054"/><path d="M453.2,470.36c4.33.87,6.68,4,6.68,8.4,0,6.27-4.33,9.23-10.33,9.42-5.89,0-10.22-3.87-10.22-9.23,0-6.95,6.49-9.08,11.24-8.89v14.7c3.42.12,6.46-1.82,6.46-6.12,0-2.66-1.29-4.52-3.83-5.09Zm-5.48,3.12a5.65,5.65,0,0,0-5.54,5.66c0,3.38,2.54,5.39,5.54,5.62Z" transform="translate(0 -9.73)" fill="#000054"/><path d="M598.51,646.66c3.45-9,5.67-21.68,5.66-35.72a118.89,118.89,0,0,0-2.57-25.25c-1.64-7.39-4-13.52-6.62-17.68a15.63,15.63,0,0,0-5.38-5.57,6.17,6.17,0,0,0-2.94-.78,6.23,6.23,0,0,0-2.95.78,11.74,11.74,0,0,0-3.07,2.51,33.37,33.37,0,0,0-5.83,10.27c-3.46,9-5.67,21.66-5.67,35.72a118.18,118.18,0,0,0,2.59,25.25c1.63,7.39,4,13.51,6.61,17.68a15.57,15.57,0,0,0,5.37,5.56,6.35,6.35,0,0,0,2.95.78,6.28,6.28,0,0,0,2.94-.78,11.75,11.75,0,0,0,3.08-2.5,33.29,33.29,0,0,0,5.83-10.27" transform="translate(0 -9.73)" fill="none" stroke="#000054" stroke-miterlimit="10" stroke-width="5"/></svg>