<svg xmlns="http://www.w3.org/2000/svg" viewBox="0 0 1988.95 960.75"><path d="M640.34,261.45c2.21-1.53,4.33-3.19,6.63-4.55a38.47,38.47,0,0,1,20.77-5.36,39.78,39.78,0,0,1,25.41,9.61,3.35,3.35,0,0,0,.52.3l3.81,3.8,1.88,2.55a38.33,38.33,0,0,1,8,24.77c-.52,15.41-7.64,27-21,34.7a1.69,1.69,0,0,0-1,1.72c0,6.89,0,13.79,0,20.68q0,20.88,0,41.74a5.14,5.14,0,0,1-1.61,3.92c-4.65,4.59-9.24,9.23-13.86,13.83-1.87,1.87-3.94,1.88-5.8,0-4.71-4.69-9.4-9.41-14.11-14.1a4.34,4.34,0,0,1-1.37-3.27c0-2,.06-4.08,0-6.12a4.76,4.76,0,0,1,2.18-4.37c1.25-.88,2.39-1.9,3.6-2.87-1.69-2.07-3.31-4-4.83-5.92a3.53,3.53,0,0,1-.11-4.62,17,17,0,0,1,1.06-1.35l3.89-4.73c-1.28-1-2.43-2-3.62-2.92-2.7-2.08-2.87-4.26-.49-6.65l4.25-4.25c-1.51-1.5-2.86-2.91-4.28-4.25a4.75,4.75,0,0,1-1.56-3.7c0-3.79-.08-7.59,0-11.38a1.85,1.85,0,0,0-1.14-1.88,38.71,38.71,0,0,1-18.21-20.63c-4.5-11.9-3.44-23.45,2.81-34.49,1.27-2.26,2.93-4.3,4.41-6.44ZM659.23,285a11,11,0,1,0,0-15.51A11,11,0,0,0,659.23,285Z" transform="translate(-1.69 -10.74)" fill="#fff" stroke="#000054" stroke-miterlimit="10" stroke-width="4"/><path d="M1314.65,261.45c2.2-1.53,4.33-3.19,6.63-4.55a38.45,38.45,0,0,1,20.77-5.36,39.75,39.75,0,0,1,25.4,9.61,3,3,0,0,0,.53.3l3.81,3.8,1.87,2.55a38.4,38.4,0,0,1,8,24.77c-.52,15.41-7.65,27-21,34.7a1.71,1.71,0,0,0-1,1.72c0,6.89,0,13.79,0,20.68q0,20.88,0,41.74a5.09,5.09,0,0,1-1.6,3.92c-4.65,4.59-9.24,9.23-13.87,13.83-1.86,1.87-3.94,1.88-5.79,0-4.71-4.69-9.4-9.41-14.12-14.1a4.34,4.34,0,0,1-1.37-3.27c0-2,.06-4.08,0-6.12a4.76,4.76,0,0,1,2.18-4.37c1.24-.88,2.39-1.9,3.6-2.87-1.7-2.07-3.31-4-4.83-5.92a3.53,3.53,0,0,1-.11-4.62,15,15,0,0,1,1.06-1.35l3.89-4.73c-1.28-1-2.44-2-3.63-2.92-2.7-2.08-2.87-4.26-.49-6.65,1.4-1.4,2.81-2.8,4.25-4.25-1.5-1.5-2.85-2.91-4.27-4.25a4.72,4.72,0,0,1-1.56-3.7c0-3.79-.08-7.59,0-11.38a1.85,1.85,0,0,0-1.14-1.88,38.77,38.77,0,0,1-18.22-20.63c-4.5-11.9-3.44-23.45,2.81-34.49,1.28-2.26,2.93-4.3,4.41-6.44Zm18.88,23.5a11,11,0,1,0,0-15.51A11,11,0,0,0,1333.53,285Z" transform="translate(-1.69 -10.74)" fill="#fff" stroke="#000054" stroke-miterlimit="10" stroke-width="4"/><path d="M397.23,772.29h29.58v3.48h-25.5v15.48h23.88v3.48H401.31v16.92h25.8v3.48H397.23Z" transform="translate(-1.69 -10.74)" fill="#000054"/><path d="M432.93,784.17h3.78v5.34h.12c1.38-3.72,5.52-6.24,9.9-6.24,8.7,0,11.34,4.56,11.34,11.94v19.92h-3.78V795.81c0-5.34-1.74-9.36-7.86-9.36s-9.6,4.56-9.72,10.62v18.06h-3.78Z" transform="translate(-1.69 -10.74)" fill="#000054"/><path d="M488,793.89c-1-4.62-3.84-7.44-8.76-7.44-7.26,0-10.86,6.6-10.86,13.2s3.6,13.2,10.86,13.2c4.68,0,8.52-3.66,9-8.82H492c-1,7.44-5.88,12-12.78,12-9.48,0-14.64-7.5-14.64-16.38s5.16-16.38,14.64-16.38c6.6,0,11.7,3.54,12.54,10.62Z" transform="translate(-1.69 -10.74)" fill="#000054"/><path d="M498.15,784.17h3.48v7.26h.12a11.44,11.44,0,0,1,11.7-7.68v3.78c-6.84-.36-11.52,4.68-11.52,11.1v16.5h-3.78Z" transform="translate(-1.69 -10.74)" fill="#000054"/><path d="M514.47,784.17h4l10.2,26.4,9.54-26.4H542l-13.44,35.7c-2.16,5.22-3.42,6.72-8.16,6.72a9.79,9.79,0,0,1-2.88-.3v-3.18a13.11,13.11,0,0,0,2.58.3c3.36,0,4.14-2,5.4-4.86l1.32-3.54Z" transform="translate(-1.69 -10.74)" fill="#000054"/><path d="M546.63,784.17h3.48v5.88h.12c1.74-4.2,6.06-6.78,11-6.78,9.42,0,13.92,7.62,13.92,16.38S570.69,816,561.27,816c-4.62,0-9.12-2.34-10.74-6.78h-.12v17.34h-3.78Zm14.64,2.28c-8.34,0-10.86,6.18-10.86,13.2,0,6.42,2.82,13.2,10.86,13.2,7.2,0,10.14-6.78,10.14-13.2S568.47,786.45,561.27,786.45Z" transform="translate(-1.69 -10.74)" fill="#000054"/><path d="M588,784.17h6.3v3.18H588v20.88c0,2.46.36,3.9,3.06,4.08a29.32,29.32,0,0,0,3.24-.18v3.24c-1.14,0-2.22.12-3.36.12-5,0-6.78-1.68-6.72-7V787.35h-5.4v-3.18h5.4v-9.3H588Z" transform="translate(-1.69 -10.74)" fill="#000054"/><path d="M600.69,772.29h3.78v6.06h-3.78Zm0,11.88h3.78v31h-3.78Z" transform="translate(-1.69 -10.74)" fill="#000054"/><path d="M640.35,799.65c0,8.88-5.16,16.38-14.64,16.38s-14.64-7.5-14.64-16.38,5.16-16.38,14.64-16.38S640.35,790.77,640.35,799.65Zm-25.5,0c0,6.6,3.6,13.2,10.86,13.2s10.86-6.6,10.86-13.2-3.6-13.2-10.86-13.2S614.85,793.05,614.85,799.65Z" transform="translate(-1.69 -10.74)" fill="#000054"/><path d="M646.83,784.17h3.78v5.34h.12c1.38-3.72,5.52-6.24,9.9-6.24,8.7,0,11.34,4.56,11.34,11.94v19.92h-3.78V795.81c0-5.34-1.74-9.36-7.86-9.36s-9.6,4.56-9.72,10.62v18.06h-3.78Z" transform="translate(-1.69 -10.74)" fill="#000054"/><path d="M697.23,793.65c.36-7.26,5.46-10.38,12.54-10.38,5.46,0,11.4,1.68,11.4,10v16.44a2,2,0,0,0,2.22,2.28,3.55,3.55,0,0,0,1.2-.24v3.18a10.37,10.37,0,0,1-2.46.24c-3.84,0-4.44-2.16-4.44-5.4h-.12c-2.64,4-5.34,6.3-11.28,6.3-5.7,0-10.38-2.82-10.38-9.06,0-8.7,8.46-9,16.62-10,3.12-.36,4.86-.78,4.86-4.2,0-5.1-3.66-6.36-8.1-6.36-4.68,0-8.16,2.16-8.28,7.2Zm20.16,4.56h-.12c-.48.9-2.16,1.2-3.18,1.38-6.42,1.14-14.4,1.08-14.4,7.14,0,3.78,3.36,6.12,6.9,6.12,5.76,0,10.86-3.66,10.8-9.72Z" transform="translate(-1.69 -10.74)" fill="#000054"/><path d="M729.69,772.29h3.78v42.84h-3.78Z" transform="translate(-1.69 -10.74)" fill="#000054"/><path d="M767.79,812.61c-.06,9.24-3.6,14.88-13.74,14.88-6.18,0-12.3-2.76-12.84-9.36H745c.84,4.56,4.86,6.18,9.06,6.18,7,0,10-4.14,10-11.7v-4.2h-.12a10.73,10.73,0,0,1-9.84,6.36c-9.9,0-14-7.08-14-15.9,0-8.52,5-15.6,14-15.6a10.89,10.89,0,0,1,9.84,6.24H764v-5.34h3.78ZM764,799.29c0-6.06-2.82-12.84-10-12.84s-10.2,6.42-10.2,12.84c0,6.24,3.24,12.3,10.2,12.3C760.59,811.59,764,805.59,764,799.29Z" transform="translate(-1.69 -10.74)" fill="#000054"/><path d="M803.61,799.65c0,8.88-5.16,16.38-14.64,16.38s-14.64-7.5-14.64-16.38,5.16-16.38,14.64-16.38S803.61,790.77,803.61,799.65Zm-25.5,0c0,6.6,3.6,13.2,10.86,13.2s10.86-6.6,10.86-13.2-3.6-13.2-10.86-13.2S778.11,793.05,778.11,799.65Z" transform="translate(-1.69 -10.74)" fill="#000054"/><path d="M810.15,784.17h3.48v7.26h.12a11.44,11.44,0,0,1,11.7-7.68v3.78c-6.84-.36-11.52,4.68-11.52,11.1v16.5h-3.78Z" transform="translate(-1.69 -10.74)" fill="#000054"/><path d="M830,772.29h3.78v6.06H830Zm0,11.88h3.78v31H830Z" transform="translate(-1.69 -10.74)" fill="#000054"/><path d="M848,784.17h6.3v3.18H848v20.88c0,2.46.36,3.9,3.06,4.08a29.32,29.32,0,0,0,3.24-.18v3.24c-1.14,0-2.22.12-3.36.12-5,0-6.78-1.68-6.72-7V787.35h-5.4v-3.18h5.4v-9.3H848Z" transform="translate(-1.69 -10.74)" fill="#000054"/><path d="M860.55,772.29h3.78v17.22h.12c1.38-3.72,5.52-6.24,9.9-6.24,8.7,0,11.34,4.56,11.34,11.94v19.92h-3.78V795.81c0-5.34-1.74-9.36-7.86-9.36s-9.6,4.56-9.72,10.62v18.06h-3.78Z" transform="translate(-1.69 -10.74)" fill="#000054"/><path d="M893.73,784.17h3.48v5.22h.18a10.81,10.81,0,0,1,10.14-6.12c4.08,0,7.74,2,8.88,6.06a10.47,10.47,0,0,1,9.84-6.06c6.78,0,10.26,3.54,10.26,10.86v21h-3.78V794.31c0-5.1-1.92-7.86-7.32-7.86-6.54,0-8.4,5.4-8.4,11.16v17.52h-3.78v-21c.06-4.2-1.68-7.68-6.48-7.68-6.54,0-9.18,4.92-9.24,11.4v17.28h-3.78Z" transform="translate(-1.69 -10.74)" fill="#000054"/><path d="M537.87,898.59c-5.34-8.82-8.46-17-8.46-27.42a51.19,51.19,0,0,1,8.46-27.78h3c-5.34,8.52-7.68,18.6-7.68,29.16,0,8.7,3.12,18.6,7.68,26Z" transform="translate(-1.69 -10.74)" fill="#000054"/><path d="M547.53,872.67c.06,5.52,2.94,12.18,10.2,12.18,5.52,0,8.52-3.24,9.72-7.92h3.78c-1.62,7-5.7,11.1-13.5,11.1-9.84,0-14-7.56-14-16.38,0-8.16,4.14-16.38,14-16.38s13.92,8.7,13.62,17.4Zm20-3.18c-.18-5.7-3.72-11-9.84-11s-9.6,5.4-10.2,11Z" transform="translate(-1.69 -10.74)" fill="#000054"/><path d="M579.57,887.13v-6.36h5v6.36Z" transform="translate(-1.69 -10.74)" fill="#000054"/><path d="M621.09,884.61c-.06,9.24-3.6,14.88-13.74,14.88-6.18,0-12.3-2.76-12.84-9.36h3.78c.84,4.56,4.86,6.18,9.06,6.18,7,0,10-4.14,10-11.7v-4.2h-.12a10.73,10.73,0,0,1-9.84,6.36c-9.9,0-14-7.08-14-15.9,0-8.52,5-15.6,14-15.6a10.89,10.89,0,0,1,9.84,6.24h.12v-5.34h3.78Zm-3.78-13.32c0-6.06-2.82-12.84-10-12.84s-10.2,6.42-10.2,12.84c0,6.24,3.24,12.3,10.2,12.3C613.89,883.59,617.31,877.59,617.31,871.29Z" transform="translate(-1.69 -10.74)" fill="#000054"/><path d="M631.41,887.13v-6.36h5v6.36Z" transform="translate(-1.69 -10.74)" fill="#000054"/><path d="M654,880.77v6.42c-.06,3.48-1.68,7.14-5.28,8.16v-2.58c2-.72,2.88-3.66,2.76-5.64H649v-6.36Z" transform="translate(-1.69 -10.74)" fill="#000054"/><path d="M695.19,844.29h4.56l16.8,42.84h-4.38L707,873.81h-19.5l-5.16,13.32h-4.38Zm-6.48,26h16.86l-8.28-22Z" transform="translate(-1.69 -10.74)" fill="#000054"/><path d="M721.35,844.29h29.58v3.48h-25.5v15.48h23.88v3.48H725.43v16.92h25.8v3.48H721.35Z" transform="translate(-1.69 -10.74)" fill="#000054"/><path d="M759.75,873c-.18,8.82,6.18,11.52,14,11.52,4.5,0,11.34-2.46,11.34-8.7,0-4.86-4.86-6.78-8.82-7.74l-9.54-2.34c-5-1.26-9.66-3.66-9.66-10.32,0-4.2,2.7-12.06,14.76-12.06,8.46,0,15.9,4.56,15.84,13.32h-4.08c-.24-6.54-5.64-9.84-11.7-9.84-5.58,0-10.74,2.16-10.74,8.52,0,4,3,5.7,6.48,6.54l10.44,2.58c6.06,1.62,11.1,4.26,11.1,11.28,0,2.94-1.2,12.24-16.38,12.24-10.14,0-17.58-4.56-17.1-15Z" transform="translate(-1.69 -10.74)" fill="#000054"/><path d="M795.15,843.39c5.34,8.82,8.46,17,8.46,27.42a51.19,51.19,0,0,1-8.46,27.78h-3c5.34-8.52,7.68-18.6,7.68-29.16,0-8.7-3.12-18.6-7.68-26Z" transform="translate(-1.69 -10.74)" fill="#000054"/><path d="M1.69,772.29h19c7.68,0,12.72,4.5,12.72,12.24s-5,12.24-12.72,12.24H5.77v18.36H1.69Zm4.08,21h14c5.64,0,9.54-2.88,9.54-8.76s-3.9-8.76-9.54-8.76h-14Z" transform="translate(-1.69 -10.74)" fill="#000054"/><path d="M39.73,772.29h3.78v42.84H39.73Z" transform="translate(-1.69 -10.74)" fill="#000054"/><path d="M51.31,793.65c.36-7.26,5.46-10.38,12.54-10.38,5.46,0,11.4,1.68,11.4,10v16.44A2,2,0,0,0,77.47,812a3.55,3.55,0,0,0,1.2-.24v3.18a10.37,10.37,0,0,1-2.46.24c-3.84,0-4.44-2.16-4.44-5.4h-.12c-2.64,4-5.34,6.3-11.28,6.3C54.67,816,50,813.21,50,807c0-8.7,8.46-9,16.62-10,3.12-.36,4.86-.78,4.86-4.2,0-5.1-3.66-6.36-8.1-6.36-4.68,0-8.16,2.16-8.28,7.2Zm20.16,4.56h-.12c-.48.9-2.16,1.2-3.18,1.38-6.42,1.14-14.4,1.08-14.4,7.14,0,3.78,3.36,6.12,6.9,6.12,5.76,0,10.86-3.66,10.8-9.72Z" transform="translate(-1.69 -10.74)" fill="#000054"/><path d="M83.77,772.29h3.78v6.06H83.77Zm0,11.88h3.78v31H83.77Z" transform="translate(-1.69 -10.74)" fill="#000054"/><path d="M95.65,784.17h3.78v5.34h.12c1.38-3.72,5.52-6.24,9.9-6.24,8.7,0,11.34,4.56,11.34,11.94v19.92H117V795.81c0-5.34-1.74-9.36-7.86-9.36s-9.6,4.56-9.72,10.62v18.06H95.65Z" transform="translate(-1.69 -10.74)" fill="#000054"/><path d="M134.83,784.17h6.3v3.18h-6.3v20.88c0,2.46.36,3.9,3.06,4.08a29.32,29.32,0,0,0,3.24-.18v3.24c-1.14,0-2.22.12-3.36.12-5,0-6.78-1.68-6.72-7V787.35h-5.4v-3.18h5.4v-9.3h3.78Z" transform="translate(-1.69 -10.74)" fill="#000054"/><path d="M149.71,800.67c.06,5.52,2.94,12.18,10.2,12.18,5.52,0,8.52-3.24,9.72-7.92h3.78c-1.62,7-5.7,11.1-13.5,11.1-9.84,0-14-7.56-14-16.38,0-8.16,4.14-16.38,14-16.38s13.92,8.7,13.62,17.4Zm20-3.18c-.18-5.7-3.72-11-9.84-11s-9.6,5.4-10.2,11Z" transform="translate(-1.69 -10.74)" fill="#000054"/><path d="M188,799.05l-11.1-14.88h4.74l8.82,11.76,8.64-11.76h4.74L192.67,799l12.06,16.14h-4.8l-9.72-13-9.54,13H176Z" transform="translate(-1.69 -10.74)" fill="#000054"/><path d="M215.29,784.17h6.3v3.18h-6.3v20.88c0,2.46.36,3.9,3.06,4.08a29.32,29.32,0,0,0,3.24-.18v3.24c-1.14,0-2.22.12-3.36.12-5,0-6.78-1.68-6.72-7V787.35h-5.4v-3.18h5.4v-9.3h3.78Z" transform="translate(-1.69 -10.74)" fill="#000054"/><path d="M48.4,844.29h3.78v6.06H48.4Zm0,11.88h3.78v31H48.4Z" transform="translate(-1.69 -10.74)" fill="#000054"/><path d="M60.28,856.17h3.78v5.34h.12c1.38-3.72,5.52-6.24,9.9-6.24,8.7,0,11.34,4.56,11.34,11.94v19.92H81.64V867.81c0-5.34-1.74-9.36-7.86-9.36s-9.6,4.56-9.72,10.62v18.06H60.28Z" transform="translate(-1.69 -10.74)" fill="#000054"/><path d="M93.46,856.17h3.48v5.88h.12c1.74-4.2,6.06-6.78,11-6.78,9.42,0,13.92,7.62,13.92,16.38S117.52,888,108.1,888c-4.62,0-9.12-2.34-10.74-6.78h-.12v17.34H93.46Zm14.64,2.28c-8.34,0-10.86,6.18-10.86,13.2,0,6.42,2.82,13.2,10.86,13.2,7.2,0,10.14-6.78,10.14-13.2S115.3,858.45,108.1,858.45Z" transform="translate(-1.69 -10.74)" fill="#000054"/><path d="M153.88,887.13H150.4v-5.58h-.12A11.52,11.52,0,0,1,139.6,888c-7.8,0-10.86-4.56-10.86-11.76v-20.1h3.78v20.16c.18,5.58,2.28,8.52,8.28,8.52,6.48,0,9.3-6.12,9.3-12.42V856.17h3.78Z" transform="translate(-1.69 -10.74)" fill="#000054"/><path d="M167.92,856.17h6.3v3.18h-6.3v20.88c0,2.46.36,3.9,3.06,4.08a29.32,29.32,0,0,0,3.24-.18v3.24c-1.14,0-2.22.12-3.36.12-5,0-6.78-1.68-6.72-7V859.35h-5.4v-3.18h5.4v-9.3h3.78Z" transform="translate(-1.69 -10.74)" fill="#000054"/><path d="M1770.74,772.29h19c7.68,0,12.72,4.5,12.72,12.24s-5,12.24-12.72,12.24h-14.94v18.36h-4.08Zm4.08,21h14c5.64,0,9.54-2.88,9.54-8.76s-3.9-8.76-9.54-8.76h-14Z" transform="translate(-1.69 -10.74)" fill="#000054"/><path d="M1808.78,772.29h3.78v42.84h-3.78Z" transform="translate(-1.69 -10.74)" fill="#000054"/><path d="M1820.36,793.65c.36-7.26,5.46-10.38,12.54-10.38,5.46,0,11.4,1.68,11.4,10v16.44a2,2,0,0,0,2.22,2.28,3.55,3.55,0,0,0,1.2-.24v3.18a10.37,10.37,0,0,1-2.46.24c-3.84,0-4.44-2.16-4.44-5.4h-.12c-2.64,4-5.34,6.3-11.28,6.3-5.7,0-10.38-2.82-10.38-9.06,0-8.7,8.46-9,16.62-10,3.12-.36,4.86-.78,4.86-4.2,0-5.1-3.66-6.36-8.1-6.36-4.68,0-8.16,2.16-8.28,7.2Zm20.16,4.56h-.12c-.48.9-2.16,1.2-3.18,1.38-6.42,1.14-14.4,1.08-14.4,7.14,0,3.78,3.36,6.12,6.9,6.12,5.76,0,10.86-3.66,10.8-9.72Z" transform="translate(-1.69 -10.74)" fill="#000054"/><path d="M1852.82,772.29h3.78v6.06h-3.78Zm0,11.88h3.78v31h-3.78Z" transform="translate(-1.69 -10.74)" fill="#000054"/><path d="M1864.7,784.17h3.78v5.34h.12c1.38-3.72,5.52-6.24,9.9-6.24,8.7,0,11.34,4.56,11.34,11.94v19.92h-3.78V795.81c0-5.34-1.74-9.36-7.86-9.36s-9.6,4.56-9.72,10.62v18.06h-3.78Z" transform="translate(-1.69 -10.74)" fill="#000054"/><path d="M1903.88,784.17h6.3v3.18h-6.3v20.88c0,2.46.36,3.9,3.06,4.08a29.32,29.32,0,0,0,3.24-.18v3.24c-1.14,0-2.22.12-3.36.12-5,0-6.78-1.68-6.72-7V787.35h-5.4v-3.18h5.4v-9.3h3.78Z" transform="translate(-1.69 -10.74)" fill="#000054"/><path d="M1918.76,800.67c.06,5.52,2.94,12.18,10.2,12.18,5.52,0,8.52-3.24,9.72-7.92h3.78c-1.62,7-5.7,11.1-13.5,11.1-9.84,0-14-7.56-14-16.38,0-8.16,4.14-16.38,14-16.38s13.92,8.7,13.62,17.4Zm20-3.18c-.18-5.7-3.72-11-9.84-11s-9.6,5.4-10.2,11Z" transform="translate(-1.69 -10.74)" fill="#000054"/><path d="M1957,799.05l-11.1-14.88h4.74l8.82,11.76,8.64-11.76h4.74L1961.72,799l12.06,16.14H1969l-9.72-13-9.54,13H1945Z" transform="translate(-1.69 -10.74)" fill="#000054"/><path d="M1984.34,784.17h6.3v3.18h-6.3v20.88c0,2.46.36,3.9,3.06,4.08a29.32,29.32,0,0,0,3.24-.18v3.24c-1.14,0-2.22.12-3.36.12-5,0-6.78-1.68-6.72-7V787.35h-5.4v-3.18h5.4v-9.3h3.78Z" transform="translate(-1.69 -10.74)" fill="#000054"/><path d="M1824.65,871.65c0,8.88-5.16,16.38-14.64,16.38s-14.64-7.5-14.64-16.38,5.16-16.38,14.64-16.38S1824.65,862.77,1824.65,871.65Zm-25.5,0c0,6.6,3.6,13.2,10.86,13.2s10.86-6.6,10.86-13.2-3.6-13.2-10.86-13.2S1799.15,865.05,1799.15,871.65Z" transform="translate(-1.69 -10.74)" fill="#000054"/><path d="M1856.27,887.13h-3.48v-5.58h-.12A11.52,11.52,0,0,1,1842,888c-7.8,0-10.86-4.56-10.86-11.76v-20.1h3.78v20.16c.18,5.58,2.28,8.52,8.28,8.52,6.48,0,9.3-6.12,9.3-12.42V856.17h3.78Z" transform="translate(-1.69 -10.74)" fill="#000054"/><path d="M1870.31,856.17h6.3v3.18h-6.3v20.88c0,2.46.36,3.9,3.06,4.08a29.32,29.32,0,0,0,3.24-.18v3.24c-1.14,0-2.22.12-3.36.12-5,0-6.78-1.68-6.72-7V859.35h-5.4v-3.18h5.4v-9.3h3.78Z" transform="translate(-1.69 -10.74)" fill="#000054"/><path d="M1883,856.17h3.48v5.88h.12c1.74-4.2,6.06-6.78,11-6.78,9.42,0,13.92,7.62,13.92,16.38S1907,888,1897.61,888c-4.62,0-9.12-2.34-10.74-6.78h-.12v17.34H1883Zm14.64,2.28c-8.34,0-10.86,6.18-10.86,13.2,0,6.42,2.82,13.2,10.86,13.2,7.2,0,10.14-6.78,10.14-13.2S1904.81,858.45,1897.61,858.45Z" transform="translate(-1.69 -10.74)" fill="#000054"/><path d="M1943.39,887.13h-3.48v-5.58h-.12a11.52,11.52,0,0,1-10.68,6.48c-7.8,0-10.86-4.56-10.86-11.76v-20.1H1922v20.16c.18,5.58,2.28,8.52,8.28,8.52,6.48,0,9.3-6.12,9.3-12.42V856.17h3.78Z" transform="translate(-1.69 -10.74)" fill="#000054"/><path d="M1957.43,856.17h6.3v3.18h-6.3v20.88c0,2.46.36,3.9,3.06,4.08a29.32,29.32,0,0,0,3.24-.18v3.24c-1.14,0-2.22.12-3.36.12-5,0-6.78-1.68-6.72-7V859.35h-5.4v-3.18h5.4v-9.3h3.78Z" transform="translate(-1.69 -10.74)" fill="#000054"/><path d="M1502.16,632.75l-10.56-20.51h4.5l8.88,18,15.54-18h4.86l-18.6,21.17,11.16,21.66h-4.32L1504.08,636l-16.8,19.08h-4.8Z" transform="translate(-1.69 -10.74)" fill="#000054"/><path d="M1567.2,635.57H1537v-3.18h30.18Zm0,11.82H1537v-3.18h30.18Z" transform="translate(-1.69 -10.74)" fill="#000054"/><path d="M1587.48,612.24h14.82c12.9.3,19.68,7.37,19.68,21.41s-6.78,21.12-19.68,21.42h-14.82Zm4.08,39.35h8.7c12.3.06,17.64-5.16,17.64-17.94s-5.34-18-17.64-17.93h-8.7Z" transform="translate(-1.69 -10.74)" fill="#000054"/><path d="M1630.92,666.53V611.34h9.66v3.18h-5.88v48.83h5.88v3.18Z" transform="translate(-1.69 -10.74)" fill="#000054"/><path d="M1652.34,612.24h4.08l-4.92,22.85.12.12,27.66-23h5.7l-22,17.87,15.3,25h-4.68L1660,632.63l-9.54,7.62-3.18,14.82h-4.08Z" transform="translate(-1.69 -10.74)" fill="#000054"/><path d="M1693.56,648.71v6.42c-.06,3.48-1.68,7.14-5.28,8.16v-2.58c2-.72,2.88-3.66,2.76-5.64h-2.52v-6.36Z" transform="translate(-1.69 -10.74)" fill="#000054"/><path d="M1737.06,612.24h5l-21.48,25.55-3.78,17.28h-4.14l3.9-17.7-11.4-25.13h4.32l9.66,21.71Z" transform="translate(-1.69 -10.74)" fill="#000054"/><path d="M1753.62,611.34v55.19H1744v-3.18h5.88V614.52H1744v-3.18Z" transform="translate(-1.69 -10.74)" fill="#000054"/><path d="M1406.54,320.15h4.08L1405.7,343l.12.12,27.66-23h5.7l-22,17.88,15.3,25h-4.68l-13.62-22.44-9.54,7.62L1401.5,363h-4.08Z" transform="translate(-1.69 -10.74)" fill="#000054"/><path d="M735.66,320.15h4.08L734.82,343l.12.12,27.66-23h5.7l-22,17.88,15.3,25H757l-13.62-22.44-9.54,7.62L730.62,363h-4.08Z" transform="translate(-1.69 -10.74)" fill="#000054"/><path d="M373.43,521.49,362.87,501h4.5l8.87,18,15.54-18h4.86L378,522.15,389.2,543.8h-4.32l-9.53-19.07-16.8,19.07h-4.8Z" transform="translate(-1.69 -10.74)" fill="#000054"/><path d="M841.57,428.24h34v3.48H860.59v39.35h-4.08V431.72H841.57Z" transform="translate(-1.69 -10.74)" fill="#000054"/><path d="M879.73,440.11h3.48v7.26h.12a11.44,11.44,0,0,1,11.7-7.68v3.78c-6.84-.36-11.52,4.68-11.52,11.1v16.5h-3.78Z" transform="translate(-1.69 -10.74)" fill="#000054"/><path d="M899.17,449.59c.36-7.26,5.46-10.38,12.54-10.38,5.46,0,11.4,1.68,11.4,10v16.44a2,2,0,0,0,2.22,2.28,3.55,3.55,0,0,0,1.2-.24v3.18a10.37,10.37,0,0,1-2.46.24c-3.84,0-4.44-2.16-4.44-5.4h-.12c-2.64,4-5.34,6.3-11.28,6.3-5.7,0-10.38-2.82-10.38-9.06,0-8.7,8.46-9,16.62-10,3.12-.36,4.86-.78,4.86-4.2,0-5.1-3.66-6.36-8.1-6.36-4.68,0-8.16,2.16-8.28,7.2Zm20.16,4.56h-.12c-.48.9-2.16,1.2-3.18,1.38-6.42,1.14-14.4,1.08-14.4,7.14,0,3.78,3.36,6.12,6.9,6.12,5.76,0,10.86-3.66,10.8-9.72Z" transform="translate(-1.69 -10.74)" fill="#000054"/><path d="M931.51,440.11h3.78v5.34h.12c1.38-3.72,5.52-6.24,9.9-6.24,8.7,0,11.34,4.56,11.34,11.94v19.92h-3.78V451.75c0-5.34-1.74-9.36-7.86-9.36s-9.6,4.56-9.72,10.62v18.06h-3.78Z" transform="translate(-1.69 -10.74)" fill="#000054"/><path d="M983.23,449.17c-.18-4.68-3.78-6.78-8.1-6.78-3.36,0-7.32,1.32-7.32,5.34,0,3.36,3.84,4.56,6.42,5.22l5,1.14c4.32.66,8.82,3.18,8.82,8.58,0,6.72-6.66,9.3-12.42,9.3-7.2,0-12.12-3.36-12.72-10.92h3.78c.3,5.1,4.08,7.74,9.12,7.74,3.54,0,8.46-1.56,8.46-5.88,0-3.6-3.36-4.8-6.78-5.64l-4.86-1.08c-4.92-1.32-8.64-3-8.64-8.28,0-6.3,6.18-8.7,11.64-8.7,6.18,0,11.1,3.24,11.34,10Z" transform="translate(-1.69 -10.74)" fill="#000054"/><path d="M994.45,440.11h3.48v5.22h.18a10.81,10.81,0,0,1,10.14-6.12c4.08,0,7.74,2,8.88,6.06a10.47,10.47,0,0,1,9.84-6.06c6.78,0,10.26,3.54,10.26,10.86v21h-3.78V450.25c0-5.1-1.92-7.86-7.32-7.86-6.54,0-8.4,5.4-8.4,11.16v17.52H1014v-21c.06-4.2-1.68-7.68-6.48-7.68-6.54,0-9.18,4.92-9.24,11.4v17.28h-3.78Z" transform="translate(-1.69 -10.74)" fill="#000054"/><path d="M1045.39,428.24h3.78v6.06h-3.78Zm0,11.87h3.78v31h-3.78Z" transform="translate(-1.69 -10.74)" fill="#000054"/><path d="M1063.33,440.11h6.3v3.18h-6.3v20.88c0,2.46.36,3.9,3.06,4.08a29.32,29.32,0,0,0,3.24-.18v3.24c-1.14,0-2.22.12-3.36.12-5,0-6.78-1.68-6.72-7V443.29h-5.4v-3.18h5.4v-9.29h3.78Z" transform="translate(-1.69 -10.74)" fill="#000054"/><path d="M1082,440.11h6.3v3.18H1082v20.88c0,2.46.36,3.9,3.06,4.08a29.32,29.32,0,0,0,3.24-.18v3.24c-1.14,0-2.22.12-3.36.12-5,0-6.78-1.68-6.72-7V443.29h-5.4v-3.18h5.4v-9.29H1082Z" transform="translate(-1.69 -10.74)" fill="#000054"/><path d="M1096.87,456.61c.06,5.52,2.94,12.18,10.2,12.18,5.52,0,8.52-3.24,9.72-7.92h3.78c-1.62,7-5.7,11.1-13.5,11.1-9.84,0-14-7.56-14-16.38,0-8.16,4.14-16.38,14-16.38s13.92,8.7,13.62,17.4Zm20-3.18c-.18-5.7-3.72-11-9.84-11s-9.6,5.4-10.2,11Z" transform="translate(-1.69 -10.74)" fill="#000054"/><path d="M1153.93,471.07h-3.48v-5.88h-.12c-1.62,4-6.54,6.78-11,6.78-9.42,0-13.92-7.62-13.92-16.38s4.5-16.38,13.92-16.38c4.62,0,9.12,2.34,10.74,6.78h.12V428.24h3.78Zm-14.64-2.28c8,0,10.86-6.78,10.86-13.2s-2.82-13.2-10.86-13.2c-7.2,0-10.14,6.78-10.14,13.2S1132.09,468.79,1139.29,468.79Z" transform="translate(-1.69 -10.74)" fill="#000054"/><path d="M893.86,521.83c-1-4.62-3.84-7.44-8.76-7.44-7.26,0-10.86,6.6-10.86,13.2s3.6,13.2,10.86,13.2c4.68,0,8.52-3.66,9-8.82h3.78c-1,7.44-5.88,12-12.78,12-9.48,0-14.64-7.5-14.64-16.38s5.16-16.38,14.64-16.38c6.6,0,11.7,3.54,12.54,10.62Z" transform="translate(-1.69 -10.74)" fill="#000054"/><path d="M904.12,500.24h3.78v6.06h-3.78Zm0,11.87h3.78v31h-3.78Z" transform="translate(-1.69 -10.74)" fill="#000054"/><path d="M916.06,512.11h3.48V518h.12c1.74-4.2,6.06-6.78,11-6.78,9.42,0,13.92,7.62,13.92,16.38S940.12,544,930.7,544c-4.62,0-9.12-2.34-10.74-6.78h-.12v17.34h-3.78Zm14.64,2.28c-8.34,0-10.86,6.18-10.86,13.2,0,6.42,2.82,13.2,10.86,13.2,7.2,0,10.14-6.78,10.14-13.2S937.9,514.39,930.7,514.39Z" transform="translate(-1.69 -10.74)" fill="#000054"/><path d="M951.34,500.24h3.78v17.21h.12c1.38-3.72,5.52-6.24,9.9-6.24,8.7,0,11.34,4.56,11.34,11.94v19.92H972.7V523.75c0-5.34-1.74-9.36-7.86-9.36s-9.6,4.56-9.72,10.62v18.06h-3.78Z" transform="translate(-1.69 -10.74)" fill="#000054"/><path d="M986.74,528.61c.06,5.52,2.94,12.18,10.2,12.18,5.52,0,8.52-3.24,9.72-7.92h3.78c-1.62,7-5.7,11.1-13.5,11.1-9.84,0-14-7.56-14-16.38,0-8.16,4.14-16.38,14-16.38s13.92,8.7,13.62,17.4Zm20-3.18c-.18-5.7-3.72-11-9.84-11s-9.6,5.4-10.2,11Z" transform="translate(-1.69 -10.74)" fill="#000054"/><path d="M1016.56,512.11H1020v7.26h.12a11.44,11.44,0,0,1,11.7-7.68v3.78c-6.84-.36-11.52,4.68-11.52,11.1v16.5h-3.78Z" transform="translate(-1.69 -10.74)" fill="#000054"/><path d="M1042.36,512.11h6.3v3.18h-6.3v20.88c0,2.46.36,3.9,3.06,4.08a29.32,29.32,0,0,0,3.24-.18v3.24c-1.14,0-2.22.12-3.36.12-5,0-6.78-1.68-6.72-7V515.29h-5.4v-3.18h5.4v-9.29h3.78Z" transform="translate(-1.69 -10.74)" fill="#000054"/><path d="M1057.24,528.61c.06,5.52,2.94,12.18,10.2,12.18,5.52,0,8.52-3.24,9.72-7.92h3.78c-1.62,7-5.7,11.1-13.5,11.1-9.84,0-14-7.56-14-16.38,0-8.16,4.14-16.38,14-16.38s13.92,8.7,13.62,17.4Zm20-3.18c-.18-5.7-3.72-11-9.84-11s-9.6,5.4-10.2,11Z" transform="translate(-1.69 -10.74)" fill="#000054"/><path d="M1095.52,527l-11.1-14.88h4.74l8.82,11.76,8.64-11.76h4.74l-11.16,14.82,12.06,16.14h-4.8l-9.72-13-9.54,13h-4.68Z" transform="translate(-1.69 -10.74)" fill="#000054"/><path d="M1122.82,512.11h6.3v3.18h-6.3v20.88c0,2.46.36,3.9,3.06,4.08a29.32,29.32,0,0,0,3.24-.18v3.24c-1.14,0-2.22.12-3.36.12-5,0-6.78-1.68-6.72-7V515.29h-5.4v-3.18h5.4v-9.29h3.78Z" transform="translate(-1.69 -10.74)" fill="#000054"/><path d="M898.78,612.24h5l-21.48,25.55-3.78,17.28h-4.14l3.9-17.7-11.4-25.13h4.32L880.84,634Z" transform="translate(-1.69 -10.74)" fill="#000054"/><path d="M943.54,635.57H913.36v-3.18h30.18Zm0,11.82H913.36v-3.18h30.18Z" transform="translate(-1.69 -10.74)" fill="#000054"/><path d="M963.82,612.24H993.4v3.48H967.9v15.47h23.88v3.48H967.9v16.92h25.8v3.48H963.82Z" transform="translate(-1.69 -10.74)" fill="#000054"/><path d="M1001.74,666.53V611.34h9.66v3.18h-5.88v48.83h5.88v3.18Z" transform="translate(-1.69 -10.74)" fill="#000054"/><path d="M1023.16,612.24h4.08l-4.92,22.85.12.12,27.66-23h5.7l-22,17.87,15.3,25h-4.68l-13.62-22.44-9.54,7.62-3.18,14.82H1014Z" transform="translate(-1.69 -10.74)" fill="#000054"/><path d="M1064.38,648.71v6.42c-.06,3.48-1.68,7.14-5.28,8.16v-2.58c2-.72,2.88-3.66,2.76-5.64h-2.52v-6.36Z" transform="translate(-1.69 -10.74)" fill="#000054"/><path d="M1096.3,632.75l-10.56-20.51h4.5l8.88,18,15.54-18h4.86l-18.6,21.17,11.16,21.66h-4.32L1098.22,636l-16.8,19.08h-4.8Z" transform="translate(-1.69 -10.74)" fill="#000054"/><path d="M1131.94,611.34v55.19h-9.66v-3.18h5.88V614.52h-5.88v-3.18Z" transform="translate(-1.69 -10.74)" fill="#000054"/><path d="M523.17,40.38c-.18,8.82,6.18,11.52,14,11.52,4.5,0,11.34-2.46,11.34-8.7,0-4.86-4.86-6.78-8.82-7.74l-9.54-2.34c-5-1.26-9.66-3.66-9.66-10.32,0-4.2,2.7-12.06,14.76-12.06,8.46,0,15.9,4.56,15.84,13.32H547c-.24-6.54-5.64-9.84-11.7-9.84-5.58,0-10.74,2.16-10.74,8.52,0,4,3,5.7,6.48,6.54l10.44,2.58c6.06,1.62,11.1,4.26,11.1,11.28,0,2.94-1.2,12.24-16.38,12.24-10.14,0-17.58-4.56-17.1-15Z" transform="translate(-1.69 -10.74)" fill="#000054"/><path d="M561.45,40c.06,5.52,2.94,12.18,10.2,12.18,5.52,0,8.52-3.24,9.72-7.92h3.78c-1.62,7-5.7,11.1-13.5,11.1-9.84,0-14-7.56-14-16.38,0-8.16,4.14-16.38,14-16.38s13.92,8.7,13.62,17.4Zm20-3.18c-.18-5.7-3.72-11-9.84-11s-9.6,5.4-10.2,11Z" transform="translate(-1.69 -10.74)" fill="#000054"/><path d="M613.11,33.24c-1-4.62-3.84-7.44-8.76-7.44-7.26,0-10.86,6.6-10.86,13.2s3.6,13.2,10.86,13.2c4.68,0,8.52-3.66,9-8.82h3.78c-1,7.44-5.88,12-12.78,12-9.48,0-14.64-7.5-14.64-16.38s5.16-16.38,14.64-16.38c6.6,0,11.7,3.54,12.54,10.62Z" transform="translate(-1.69 -10.74)" fill="#000054"/><path d="M623.31,23.52h3.48v7.26h.12a11.44,11.44,0,0,1,11.7-7.68v3.78c-6.84-.36-11.52,4.68-11.52,11.1v16.5h-3.78Z" transform="translate(-1.69 -10.74)" fill="#000054"/><path d="M645.33,40c.06,5.52,2.94,12.18,10.2,12.18,5.52,0,8.52-3.24,9.72-7.92H669c-1.62,7-5.7,11.1-13.5,11.1-9.84,0-14-7.56-14-16.38,0-8.16,4.14-16.38,14-16.38s13.92,8.7,13.62,17.4Zm20-3.18c-.18-5.7-3.72-11-9.84-11s-9.6,5.4-10.2,11Z" transform="translate(-1.69 -10.74)" fill="#000054"/><path d="M681.15,23.52h6.3V26.7h-6.3V47.58c0,2.46.36,3.9,3.06,4.08a29.32,29.32,0,0,0,3.24-.18v3.24c-1.14,0-2.22.12-3.36.12-5,0-6.78-1.68-6.72-7V26.7H672V23.52h5.4v-9.3h3.78Z" transform="translate(-1.69 -10.74)" fill="#000054"/><path d="M711.39,11.64h3.78V38.52l17.16-15h5L724.17,35l14.1,19.5h-4.74L721.29,37.62l-6.12,5.1V54.48h-3.78Z" transform="translate(-1.69 -10.74)" fill="#000054"/><path d="M744.51,40c.06,5.52,2.94,12.18,10.2,12.18,5.52,0,8.52-3.24,9.72-7.92h3.78c-1.62,7-5.7,11.1-13.5,11.1-9.84,0-14-7.56-14-16.38,0-8.16,4.14-16.38,14-16.38s13.92,8.7,13.62,17.4Zm20-3.18c-.18-5.7-3.72-11-9.84-11s-9.6,5.4-10.2,11Z" transform="translate(-1.69 -10.74)" fill="#000054"/><path d="M770.85,23.52h4l10.2,26.4,9.54-26.4h3.78L785,59.22c-2.16,5.21-3.42,6.71-8.16,6.71a9.79,9.79,0,0,1-2.88-.3V62.45a13.15,13.15,0,0,0,2.58.31c3.36,0,4.14-2,5.4-4.86l1.32-3.54Z" transform="translate(-1.69 -10.74)" fill="#000054"/><path d="M448.62,104.58c-.18-4.68-3.78-6.78-8.1-6.78-3.35,0-7.31,1.32-7.31,5.34,0,3.36,3.83,4.56,6.42,5.22l5,1.14c4.32.66,8.82,3.18,8.82,8.58,0,6.72-6.66,9.3-12.42,9.3-7.19,0-12.11-3.36-12.71-10.92h3.78c.3,5.1,4.08,7.74,9.11,7.74,3.54,0,8.46-1.56,8.46-5.88,0-3.6-3.36-4.8-6.78-5.64l-4.86-1.08c-4.91-1.32-8.63-3-8.63-8.28,0-6.3,6.17-8.7,11.63-8.7,6.18,0,11.1,3.24,11.34,10Z" transform="translate(-1.69 -10.74)" fill="#000054"/><path d="M459.78,83.64h3.78v17.22h.12c1.38-3.72,5.52-6.24,9.9-6.24,8.7,0,11.34,4.56,11.34,11.94v19.92h-3.78V107.16c0-5.34-1.74-9.36-7.86-9.36s-9.6,4.56-9.72,10.62v18.06h-3.78Z" transform="translate(-1.69 -10.74)" fill="#000054"/><path d="M492.6,105c.36-7.26,5.46-10.38,12.54-10.38,5.46,0,11.4,1.68,11.4,10V121a2,2,0,0,0,2.22,2.28,3.55,3.55,0,0,0,1.2-.24v3.18a10.37,10.37,0,0,1-2.46.24c-3.84,0-4.44-2.16-4.44-5.4h-.12c-2.64,4-5.34,6.3-11.28,6.3-5.7,0-10.38-2.82-10.38-9.06,0-8.7,8.46-9,16.62-10,3.12-.36,4.86-.78,4.86-4.2,0-5.1-3.66-6.36-8.1-6.36-4.68,0-8.16,2.16-8.28,7.2Zm20.16,4.56h-.12c-.48.9-2.16,1.2-3.18,1.38-6.42,1.14-14.4,1.08-14.4,7.14,0,3.78,3.36,6.12,6.9,6.12,5.76,0,10.86-3.66,10.8-9.72Z" transform="translate(-1.69 -10.74)" fill="#000054"/><path d="M525,95.52h3.48v7.26h.12a11.44,11.44,0,0,1,11.7-7.68v3.78c-6.84-.36-11.52,4.68-11.52,11.1v16.5H525Z" transform="translate(-1.69 -10.74)" fill="#000054"/><path d="M547,112c.06,5.52,2.94,12.18,10.2,12.18,5.52,0,8.52-3.24,9.72-7.92h3.78c-1.62,7-5.7,11.1-13.5,11.1-9.84,0-14-7.56-14-16.38,0-8.16,4.14-16.38,14-16.38s13.92,8.7,13.62,17.4Zm20-3.18c-.18-5.7-3.72-11-9.84-11s-9.6,5.4-10.2,11Z" transform="translate(-1.69 -10.74)" fill="#000054"/><path d="M604.08,126.48H600.6V120.6h-.12c-1.62,4-6.54,6.78-11,6.78-9.42,0-13.92-7.62-13.92-16.38s4.5-16.38,13.92-16.38c4.62,0,9.12,2.34,10.74,6.78h.12V83.64h3.78Zm-14.64-2.28c8,0,10.86-6.78,10.86-13.2s-2.82-13.2-10.86-13.2c-7.2,0-10.14,6.78-10.14,13.2S582.24,124.2,589.44,124.2Z" transform="translate(-1.69 -10.74)" fill="#000054"/><path d="M629.76,83.64h3.78V101.4h.12c1.62-4.44,6.12-6.78,10.74-6.78,9.42,0,13.92,7.62,13.92,16.38s-4.5,16.38-13.92,16.38c-5,0-9.3-2.58-11-6.78h-.12v5.88h-3.48ZM644.4,97.8c-8,0-10.86,6.78-10.86,13.2s2.82,13.2,10.86,13.2c7.2,0,10.14-6.78,10.14-13.2S651.6,97.8,644.4,97.8Z" transform="translate(-1.69 -10.74)" fill="#000054"/><path d="M661.62,95.52h4l10.2,26.4,9.54-26.4h3.78l-13.44,35.7c-2.16,5.21-3.42,6.71-8.16,6.71a9.79,9.79,0,0,1-2.88-.3v-3.18a13.15,13.15,0,0,0,2.58.31c3.36,0,4.14-2,5.4-4.86l1.32-3.54Z" transform="translate(-1.69 -10.74)" fill="#000054"/><path d="M729.9,104.58c-.18-4.68-3.78-6.78-8.1-6.78-3.36,0-7.32,1.32-7.32,5.34,0,3.36,3.84,4.56,6.42,5.22l5,1.14c4.32.66,8.82,3.18,8.82,8.58,0,6.72-6.66,9.3-12.42,9.3-7.2,0-12.12-3.36-12.72-10.92h3.78c.3,5.1,4.08,7.74,9.12,7.74,3.54,0,8.46-1.56,8.46-5.88,0-3.6-3.36-4.8-6.78-5.64l-4.86-1.08c-4.92-1.32-8.64-3-8.64-8.28,0-6.3,6.18-8.7,11.64-8.7,6.18,0,11.1,3.24,11.34,10Z" transform="translate(-1.69 -10.74)" fill="#000054"/><path d="M743.34,112c.06,5.52,2.94,12.18,10.2,12.18,5.52,0,8.52-3.24,9.72-7.92H767c-1.62,7-5.7,11.1-13.5,11.1-9.84,0-14-7.56-14-16.38,0-8.16,4.14-16.38,14-16.38s13.92,8.7,13.62,17.4Zm20-3.18c-.18-5.7-3.72-11-9.84-11s-9.6,5.4-10.2,11Z" transform="translate(-1.69 -10.74)" fill="#000054"/><path d="M773.1,95.52h3.78v5.34H777c1.38-3.72,5.52-6.24,9.9-6.24,8.7,0,11.34,4.56,11.34,11.94v19.92h-3.78V107.16c0-5.34-1.74-9.36-7.86-9.36s-9.6,4.56-9.72,10.62v18.06H773.1Z" transform="translate(-1.69 -10.74)" fill="#000054"/><path d="M833.52,126.48H830V120.6h-.12c-1.62,4-6.54,6.78-11,6.78-9.42,0-13.92-7.62-13.92-16.38s4.5-16.38,13.92-16.38c4.62,0,9.12,2.34,10.74,6.78h.12V83.64h3.78Zm-14.64-2.28c8,0,10.86-6.78,10.86-13.2s-2.82-13.2-10.86-13.2c-7.2,0-10.14,6.78-10.14,13.2S811.68,124.2,818.88,124.2Z" transform="translate(-1.69 -10.74)" fill="#000054"/><path d="M843.84,112c.06,5.52,2.94,12.18,10.2,12.18,5.52,0,8.52-3.24,9.72-7.92h3.78c-1.62,7-5.7,11.1-13.5,11.1-9.84,0-14-7.56-14-16.38,0-8.16,4.14-16.38,14-16.38s13.92,8.7,13.62,17.4Zm20-3.18c-.18-5.7-3.72-11-9.84-11s-9.6,5.4-10.2,11Z" transform="translate(-1.69 -10.74)" fill="#000054"/><path d="M873.66,95.52h3.48v7.26h.12A11.44,11.44,0,0,1,889,95.1v3.78c-6.84-.36-11.52,4.68-11.52,11.1v16.5h-3.78Z" transform="translate(-1.69 -10.74)" fill="#000054"/><path d="M497.64,177c.36-7.26,5.46-10.38,12.54-10.38,5.46,0,11.4,1.68,11.4,10V193a2,2,0,0,0,2.22,2.28,3.55,3.55,0,0,0,1.2-.24v3.18a10.37,10.37,0,0,1-2.46.24c-3.84,0-4.44-2.16-4.44-5.4H518c-2.64,4-5.34,6.3-11.28,6.3-5.7,0-10.38-2.82-10.38-9.06,0-8.7,8.46-9,16.62-10,3.12-.36,4.86-.78,4.86-4.2,0-5.1-3.66-6.36-8.1-6.36-4.68,0-8.16,2.16-8.28,7.2Zm20.16,4.56h-.12c-.48.9-2.16,1.2-3.18,1.38-6.42,1.14-14.4,1.08-14.4,7.14,0,3.78,3.36,6.12,6.9,6.12,5.76,0,10.86-3.66,10.8-9.72Z" transform="translate(-1.69 -10.74)" fill="#000054"/><path d="M530,167.52h3.78v5.34h.12c1.38-3.72,5.52-6.24,9.9-6.24,8.7,0,11.34,4.56,11.34,11.94v19.92h-3.78V179.16c0-5.34-1.74-9.36-7.86-9.36s-9.6,4.56-9.72,10.62v18.06H530Z" transform="translate(-1.69 -10.74)" fill="#000054"/><path d="M590.4,198.48h-3.48V192.6h-.12c-1.62,4-6.54,6.78-11,6.78-9.42,0-13.92-7.62-13.92-16.38s4.5-16.38,13.92-16.38c4.62,0,9.12,2.34,10.74,6.78h.12V155.64h3.78Zm-14.64-2.28c8,0,10.86-6.78,10.86-13.2s-2.82-13.2-10.86-13.2c-7.2,0-10.14,6.78-10.14,13.2S568.56,196.2,575.76,196.2Z" transform="translate(-1.69 -10.74)" fill="#000054"/><path d="M616.08,167.52h3.48v7.26h.12a11.44,11.44,0,0,1,11.7-7.68v3.78c-6.84-.36-11.52,4.68-11.52,11.1v16.5h-3.78Z" transform="translate(-1.69 -10.74)" fill="#000054"/><path d="M638.1,184c.06,5.52,2.94,12.18,10.2,12.18,5.52,0,8.52-3.24,9.72-7.92h3.78c-1.62,7-5.7,11.1-13.5,11.1-9.84,0-14-7.56-14-16.38,0-8.16,4.14-16.38,14-16.38s13.92,8.7,13.62,17.4Zm20-3.18c-.18-5.7-3.72-11-9.84-11s-9.6,5.4-10.2,11Z" transform="translate(-1.69 -10.74)" fill="#000054"/><path d="M689.76,177.24c-1-4.62-3.84-7.44-8.76-7.44-7.26,0-10.86,6.6-10.86,13.2s3.6,13.2,10.86,13.2c4.68,0,8.52-3.66,9-8.82h3.78c-1,7.44-5.88,12-12.78,12-9.48,0-14.64-7.5-14.64-16.38s5.16-16.38,14.64-16.38c6.6,0,11.7,3.54,12.54,10.62Z" transform="translate(-1.69 -10.74)" fill="#000054"/><path d="M700,155.64h3.78v6.06H700Zm0,11.88h3.78v31H700Z" transform="translate(-1.69 -10.74)" fill="#000054"/><path d="M712,167.52h3.48v5.88h.12c1.74-4.2,6.06-6.78,11-6.78,9.42,0,13.92,7.62,13.92,16.38s-4.5,16.38-13.92,16.38c-4.62,0-9.12-2.34-10.74-6.78h-.12v17.33H712Zm14.64,2.28c-8.34,0-10.86,6.18-10.86,13.2,0,6.42,2.82,13.2,10.86,13.2,7.2,0,10.14-6.78,10.14-13.2S733.8,169.8,726.6,169.8Z" transform="translate(-1.69 -10.74)" fill="#000054"/><path d="M747.36,155.64h3.78v6.06h-3.78Zm0,11.88h3.78v31h-3.78Z" transform="translate(-1.69 -10.74)" fill="#000054"/><path d="M761.52,184c.06,5.52,2.94,12.18,10.2,12.18,5.52,0,8.52-3.24,9.72-7.92h3.78c-1.62,7-5.7,11.1-13.5,11.1-9.84,0-14-7.56-14-16.38,0-8.16,4.14-16.38,14-16.38s13.92,8.7,13.62,17.4Zm20-3.18c-.18-5.7-3.72-11-9.84-11s-9.6,5.4-10.2,11Z" transform="translate(-1.69 -10.74)" fill="#000054"/><path d="M791.28,167.52h3.78v5.34h.12c1.38-3.72,5.52-6.24,9.9-6.24,8.7,0,11.34,4.56,11.34,11.94v19.92h-3.78V179.16c0-5.34-1.74-9.36-7.86-9.36s-9.6,4.56-9.72,10.62v18.06h-3.78Z" transform="translate(-1.69 -10.74)" fill="#000054"/><path d="M830.46,167.52h6.3v3.18h-6.3v20.88c0,2.46.36,3.9,3.06,4.08a29.32,29.32,0,0,0,3.24-.18v3.24c-1.14,0-2.22.12-3.36.12-5,0-6.78-1.68-6.72-7V170.7h-5.4v-3.18h5.4v-9.3h3.78Z" transform="translate(-1.69 -10.74)" fill="#000054"/><path d="M1192,40.38c-.18,8.82,6.18,11.52,14,11.52,4.5,0,11.34-2.46,11.34-8.7,0-4.86-4.86-6.78-8.82-7.74l-9.54-2.34c-5-1.26-9.66-3.66-9.66-10.32,0-4.2,2.7-12.06,14.76-12.06,8.46,0,15.9,4.56,15.84,13.32h-4.08c-.24-6.54-5.64-9.84-11.7-9.84-5.58,0-10.74,2.16-10.74,8.52,0,4,3,5.7,6.48,6.54l10.44,2.58c6.06,1.62,11.1,4.26,11.1,11.28,0,2.94-1.2,12.24-16.38,12.24-10.14,0-17.58-4.56-17.1-15Z" transform="translate(-1.69 -10.74)" fill="#000054"/><path d="M1230.26,40c.06,5.52,2.94,12.18,10.2,12.18,5.52,0,8.52-3.24,9.72-7.92H1254c-1.62,7-5.7,11.1-13.5,11.1-9.84,0-14-7.56-14-16.38,0-8.16,4.14-16.38,14-16.38s13.92,8.7,13.62,17.4Zm20-3.18c-.18-5.7-3.72-11-9.84-11s-9.6,5.4-10.2,11Z" transform="translate(-1.69 -10.74)" fill="#000054"/><path d="M1281.92,33.24c-1-4.62-3.84-7.44-8.76-7.44-7.26,0-10.86,6.6-10.86,13.2s3.6,13.2,10.86,13.2c4.68,0,8.52-3.66,9-8.82h3.78c-1,7.44-5.88,12-12.78,12-9.48,0-14.64-7.5-14.64-16.38s5.16-16.38,14.64-16.38c6.6,0,11.7,3.54,12.54,10.62Z" transform="translate(-1.69 -10.74)" fill="#000054"/><path d="M1292.12,23.52h3.48v7.26h.12a11.44,11.44,0,0,1,11.7-7.68v3.78c-6.84-.36-11.52,4.68-11.52,11.1v16.5h-3.78Z" transform="translate(-1.69 -10.74)" fill="#000054"/><path d="M1314.14,40c.06,5.52,2.94,12.18,10.2,12.18,5.52,0,8.52-3.24,9.72-7.92h3.78c-1.62,7-5.7,11.1-13.5,11.1-9.84,0-14-7.56-14-16.38,0-8.16,4.14-16.38,14-16.38s13.92,8.7,13.62,17.4Zm20-3.18c-.18-5.7-3.72-11-9.84-11s-9.6,5.4-10.2,11Z" transform="translate(-1.69 -10.74)" fill="#000054"/><path d="M1350,23.52h6.3V26.7H1350V47.58c0,2.46.36,3.9,3.06,4.08a29.32,29.32,0,0,0,3.24-.18v3.24c-1.14,0-2.22.12-3.36.12-5,0-6.78-1.68-6.72-7V26.7h-5.4V23.52h5.4v-9.3H1350Z" transform="translate(-1.69 -10.74)" fill="#000054"/><path d="M1380.2,11.64H1384V38.52l17.16-15h5L1393,35l14.1,19.5h-4.74L1390.1,37.62l-6.12,5.1V54.48h-3.78Z" transform="translate(-1.69 -10.74)" fill="#000054"/><path d="M1413.32,40c.06,5.52,2.94,12.18,10.2,12.18,5.52,0,8.52-3.24,9.72-7.92H1437c-1.62,7-5.7,11.1-13.5,11.1-9.84,0-14-7.56-14-16.38,0-8.16,4.14-16.38,14-16.38s13.92,8.7,13.62,17.4Zm20-3.18c-.18-5.7-3.72-11-9.84-11s-9.6,5.4-10.2,11Z" transform="translate(-1.69 -10.74)" fill="#000054"/><path d="M1439.66,23.52h4l10.2,26.4,9.54-26.4h3.78l-13.44,35.7c-2.16,5.21-3.42,6.71-8.16,6.71a9.79,9.79,0,0,1-2.88-.3V62.45a13.15,13.15,0,0,0,2.58.31c3.36,0,4.14-2,5.4-4.86l1.32-3.54Z" transform="translate(-1.69 -10.74)" fill="#000054"/><path d="M1117.43,104.58c-.18-4.68-3.78-6.78-8.1-6.78-3.36,0-7.32,1.32-7.32,5.34,0,3.36,3.84,4.56,6.42,5.22l5,1.14c4.32.66,8.82,3.18,8.82,8.58,0,6.72-6.66,9.3-12.42,9.3-7.2,0-12.12-3.36-12.72-10.92h3.78c.3,5.1,4.08,7.74,9.12,7.74,3.54,0,8.46-1.56,8.46-5.88,0-3.6-3.36-4.8-6.78-5.64l-4.86-1.08c-4.92-1.32-8.64-3-8.64-8.28,0-6.3,6.18-8.7,11.64-8.7,6.18,0,11.1,3.24,11.34,10Z" transform="translate(-1.69 -10.74)" fill="#000054"/><path d="M1128.59,83.64h3.78v17.22h.12c1.38-3.72,5.52-6.24,9.9-6.24,8.7,0,11.34,4.56,11.34,11.94v19.92H1150V107.16c0-5.34-1.74-9.36-7.86-9.36s-9.6,4.56-9.72,10.62v18.06h-3.78Z" transform="translate(-1.69 -10.74)" fill="#000054"/><path d="M1161.41,105c.36-7.26,5.46-10.38,12.54-10.38,5.46,0,11.4,1.68,11.4,10V121a2,2,0,0,0,2.22,2.28,3.55,3.55,0,0,0,1.2-.24v3.18a10.37,10.37,0,0,1-2.46.24c-3.84,0-4.44-2.16-4.44-5.4h-.12c-2.64,4-5.34,6.3-11.28,6.3-5.7,0-10.38-2.82-10.38-9.06,0-8.7,8.46-9,16.62-10,3.12-.36,4.86-.78,4.86-4.2,0-5.1-3.66-6.36-8.1-6.36-4.68,0-8.16,2.16-8.28,7.2Zm20.16,4.56h-.12c-.48.9-2.16,1.2-3.18,1.38-6.42,1.14-14.4,1.08-14.4,7.14,0,3.78,3.36,6.12,6.9,6.12,5.76,0,10.86-3.66,10.8-9.72Z" transform="translate(-1.69 -10.74)" fill="#000054"/><path d="M1193.81,95.52h3.48v7.26h.12a11.44,11.44,0,0,1,11.7-7.68v3.78c-6.84-.36-11.52,4.68-11.52,11.1v16.5h-3.78Z" transform="translate(-1.69 -10.74)" fill="#000054"/><path d="M1215.83,112c.06,5.52,2.94,12.18,10.2,12.18,5.52,0,8.52-3.24,9.72-7.92h3.78c-1.62,7-5.7,11.1-13.5,11.1-9.84,0-14-7.56-14-16.38,0-8.16,4.14-16.38,14-16.38s13.92,8.7,13.62,17.4Zm20-3.18c-.18-5.7-3.72-11-9.84-11s-9.6,5.4-10.2,11Z" transform="translate(-1.69 -10.74)" fill="#000054"/><path d="M1272.89,126.48h-3.48V120.6h-.12c-1.62,4-6.54,6.78-11,6.78-9.42,0-13.92-7.62-13.92-16.38s4.5-16.38,13.92-16.38c4.62,0,9.12,2.34,10.74,6.78h.12V83.64h3.78Zm-14.64-2.28c8,0,10.86-6.78,10.86-13.2s-2.82-13.2-10.86-13.2c-7.2,0-10.14,6.78-10.14,13.2S1251.05,124.2,1258.25,124.2Z" transform="translate(-1.69 -10.74)" fill="#000054"/><path d="M1298.57,83.64h3.78V101.4h.12c1.62-4.44,6.12-6.78,10.74-6.78,9.42,0,13.92,7.62,13.92,16.38s-4.5,16.38-13.92,16.38c-5,0-9.3-2.58-11-6.78h-.12v5.88h-3.48Zm14.64,14.16c-8,0-10.86,6.78-10.86,13.2s2.82,13.2,10.86,13.2c7.2,0,10.14-6.78,10.14-13.2S1320.41,97.8,1313.21,97.8Z" transform="translate(-1.69 -10.74)" fill="#000054"/><path d="M1330.43,95.52h4l10.2,26.4,9.54-26.4H1358l-13.44,35.7c-2.16,5.21-3.42,6.71-8.16,6.71a9.79,9.79,0,0,1-2.88-.3v-3.18a13.15,13.15,0,0,0,2.58.31c3.36,0,4.14-2,5.4-4.86l1.32-3.54Z" transform="translate(-1.69 -10.74)" fill="#000054"/><path d="M1398.71,104.58c-.18-4.68-3.78-6.78-8.1-6.78-3.36,0-7.32,1.32-7.32,5.34,0,3.36,3.84,4.56,6.42,5.22l5,1.14c4.32.66,8.82,3.18,8.82,8.58,0,6.72-6.66,9.3-12.42,9.3-7.2,0-12.12-3.36-12.72-10.92h3.78c.3,5.1,4.08,7.74,9.12,7.74,3.54,0,8.46-1.56,8.46-5.88,0-3.6-3.36-4.8-6.78-5.64l-4.86-1.08c-4.92-1.32-8.64-3-8.64-8.28,0-6.3,6.18-8.7,11.64-8.7,6.18,0,11.1,3.24,11.34,10Z" transform="translate(-1.69 -10.74)" fill="#000054"/><path d="M1412.15,112c.06,5.52,2.94,12.18,10.2,12.18,5.52,0,8.52-3.24,9.72-7.92h3.78c-1.62,7-5.7,11.1-13.5,11.1-9.84,0-14-7.56-14-16.38,0-8.16,4.14-16.38,14-16.38s13.92,8.7,13.62,17.4Zm20-3.18c-.18-5.7-3.72-11-9.84-11s-9.6,5.4-10.2,11Z" transform="translate(-1.69 -10.74)" fill="#000054"/><path d="M1441.91,95.52h3.78v5.34h.12c1.38-3.72,5.52-6.24,9.9-6.24,8.7,0,11.34,4.56,11.34,11.94v19.92h-3.78V107.16c0-5.34-1.74-9.36-7.86-9.36s-9.6,4.56-9.72,10.62v18.06h-3.78Z" transform="translate(-1.69 -10.74)" fill="#000054"/><path d="M1502.33,126.48h-3.48V120.6h-.12c-1.62,4-6.54,6.78-11,6.78-9.42,0-13.92-7.62-13.92-16.38s4.5-16.38,13.92-16.38c4.62,0,9.12,2.34,10.74,6.78h.12V83.64h3.78Zm-14.64-2.28c8,0,10.86-6.78,10.86-13.2s-2.82-13.2-10.86-13.2c-7.2,0-10.14,6.78-10.14,13.2S1480.49,124.2,1487.69,124.2Z" transform="translate(-1.69 -10.74)" fill="#000054"/><path d="M1512.65,112c.06,5.52,2.94,12.18,10.2,12.18,5.52,0,8.52-3.24,9.72-7.92h3.78c-1.62,7-5.7,11.1-13.5,11.1-9.84,0-14-7.56-14-16.38,0-8.16,4.14-16.38,14-16.38s13.92,8.7,13.62,17.4Zm20-3.18c-.18-5.7-3.72-11-9.84-11s-9.6,5.4-10.2,11Z" transform="translate(-1.69 -10.74)" fill="#000054"/><path d="M1542.47,95.52H1546v7.26h.12a11.44,11.44,0,0,1,11.7-7.68v3.78c-6.84-.36-11.52,4.68-11.52,11.1v16.5h-3.78Z" transform="translate(-1.69 -10.74)" fill="#000054"/><path d="M1166.45,177c.36-7.26,5.46-10.38,12.54-10.38,5.46,0,11.4,1.68,11.4,10V193a2,2,0,0,0,2.22,2.28,3.55,3.55,0,0,0,1.2-.24v3.18a10.37,10.37,0,0,1-2.46.24c-3.84,0-4.44-2.16-4.44-5.4h-.12c-2.64,4-5.34,6.3-11.28,6.3-5.7,0-10.38-2.82-10.38-9.06,0-8.7,8.46-9,16.62-10,3.12-.36,4.86-.78,4.86-4.2,0-5.1-3.66-6.36-8.1-6.36-4.68,0-8.16,2.16-8.28,7.2Zm20.16,4.56h-.12c-.48.9-2.16,1.2-3.18,1.38-6.42,1.14-14.4,1.08-14.4,7.14,0,3.78,3.36,6.12,6.9,6.12,5.76,0,10.86-3.66,10.8-9.72Z" transform="translate(-1.69 -10.74)" fill="#000054"/><path d="M1198.79,167.52h3.78v5.34h.12c1.38-3.72,5.52-6.24,9.9-6.24,8.7,0,11.34,4.56,11.34,11.94v19.92h-3.78V179.16c0-5.34-1.74-9.36-7.86-9.36s-9.6,4.56-9.72,10.62v18.06h-3.78Z" transform="translate(-1.69 -10.74)" fill="#000054"/><path d="M1259.21,198.48h-3.48V192.6h-.12c-1.62,4-6.54,6.78-11,6.78-9.42,0-13.92-7.62-13.92-16.38s4.5-16.38,13.92-16.38c4.62,0,9.12,2.34,10.74,6.78h.12V155.64h3.78Zm-14.64-2.28c8,0,10.86-6.78,10.86-13.2s-2.82-13.2-10.86-13.2c-7.2,0-10.14,6.78-10.14,13.2S1237.37,196.2,1244.57,196.2Z" transform="translate(-1.69 -10.74)" fill="#000054"/><path d="M1284.89,167.52h3.48v7.26h.12a11.44,11.44,0,0,1,11.7-7.68v3.78c-6.84-.36-11.52,4.68-11.52,11.1v16.5h-3.78Z" transform="translate(-1.69 -10.74)" fill="#000054"/><path d="M1306.91,184c.06,5.52,2.94,12.18,10.2,12.18,5.52,0,8.52-3.24,9.72-7.92h3.78c-1.62,7-5.7,11.1-13.5,11.1-9.84,0-14-7.56-14-16.38,0-8.16,4.14-16.38,14-16.38s13.92,8.7,13.62,17.4Zm20-3.18c-.18-5.7-3.72-11-9.84-11s-9.6,5.4-10.2,11Z" transform="translate(-1.69 -10.74)" fill="#000054"/><path d="M1358.57,177.24c-1-4.62-3.84-7.44-8.76-7.44-7.26,0-10.86,6.6-10.86,13.2s3.6,13.2,10.86,13.2c4.68,0,8.52-3.66,9-8.82h3.78c-1,7.44-5.88,12-12.78,12-9.48,0-14.64-7.5-14.64-16.38s5.16-16.38,14.64-16.38c6.6,0,11.7,3.54,12.54,10.62Z" transform="translate(-1.69 -10.74)" fill="#000054"/><path d="M1368.83,155.64h3.78v6.06h-3.78Zm0,11.88h3.78v31h-3.78Z" transform="translate(-1.69 -10.74)" fill="#000054"/><path d="M1380.77,167.52h3.48v5.88h.12c1.74-4.2,6.06-6.78,11-6.78,9.42,0,13.92,7.62,13.92,16.38s-4.5,16.38-13.92,16.38c-4.62,0-9.12-2.34-10.74-6.78h-.12v17.33h-3.78Zm14.64,2.28c-8.34,0-10.86,6.18-10.86,13.2,0,6.42,2.82,13.2,10.86,13.2,7.2,0,10.14-6.78,10.14-13.2S1402.61,169.8,1395.41,169.8Z" transform="translate(-1.69 -10.74)" fill="#000054"/><path d="M1416.17,155.64H1420v6.06h-3.78Zm0,11.88H1420v31h-3.78Z" transform="translate(-1.69 -10.74)" fill="#000054"/><path d="M1430.33,184c.06,5.52,2.94,12.18,10.2,12.18,5.52,0,8.52-3.24,9.72-7.92H1454c-1.62,7-5.7,11.1-13.5,11.1-9.84,0-14-7.56-14-16.38,0-8.16,4.14-16.38,14-16.38s13.92,8.7,13.62,17.4Zm20-3.18c-.18-5.7-3.72-11-9.84-11s-9.6,5.4-10.2,11Z" transform="translate(-1.69 -10.74)" fill="#000054"/><path d="M1460.09,167.52h3.78v5.34h.12c1.38-3.72,5.52-6.24,9.9-6.24,8.7,0,11.34,4.56,11.34,11.94v19.92h-3.78V179.16c0-5.34-1.74-9.36-7.86-9.36s-9.6,4.56-9.72,10.62v18.06h-3.78Z" transform="translate(-1.69 -10.74)" fill="#000054"/><path d="M1499.27,167.52h6.3v3.18h-6.3v20.88c0,2.46.36,3.9,3.06,4.08a29.32,29.32,0,0,0,3.24-.18v3.24c-1.14,0-2.22.12-3.36.12-5,0-6.78-1.68-6.72-7V170.7h-5.4v-3.18h5.4v-9.3h3.78Z" transform="translate(-1.69 -10.74)" fill="#000054"/><line x1="203.72" y1="560.1" x2="523.17" y2="560.1" fill="none" stroke="#000054" stroke-miterlimit="10" stroke-width="5"/><path d="M490.69,594.84a2.51,2.51,0,0,1,.77-3.46l32.26-20.54-32.26-20.55a2.5,2.5,0,1,1,2.68-4.22l35.58,22.66a2.51,2.51,0,0,1,0,4.22L494.14,595.6a2.43,2.43,0,0,1-1.34.39A2.52,2.52,0,0,1,490.69,594.84Z" transform="translate(-1.69 -10.74)" fill="#000054"/><line x1="1428.74" y1="560.1" x2="1779.93" y2="560.1" fill="none" stroke="#000054" stroke-miterlimit="10" stroke-width="5"/><path d="M1747.44,594.84a2.52,2.52,0,0,1,.77-3.46l32.26-20.54-32.26-20.55a2.5,2.5,0,1,1,2.69-4.22l35.57,22.66a2.5,2.5,0,0,1,0,4.22L1750.9,595.6a2.45,2.45,0,0,1-1.34.39A2.53,2.53,0,0,1,1747.44,594.84Z" transform="translate(-1.69 -10.74)" fill="#000054"/><line x1="798.31" y1="560.1" x2="1192.3" y2="560.1" fill="none" stroke="#000054" stroke-miterlimit="10" stroke-width="5"/><path d="M1159.82,594.84a2.51,2.51,0,0,1,.76-3.46l32.27-20.54-32.27-20.55a2.5,2.5,0,0,1,2.69-4.22l35.57,22.66a2.5,2.5,0,0,1,0,4.22l-35.57,22.65a2.45,2.45,0,0,1-1.34.39A2.51,2.51,0,0,1,1159.82,594.84Z" transform="translate(-1.69 -10.74)" fill="#000054"/><polygon points="154.03 702.54 212.03 644.54 154.03 644.54 154.03 702.54" fill="#fff" stroke="#000054" stroke-linecap="round" stroke-linejoin="round" stroke-width="6"/><polygon points="6.3 441.95 6.3 702.54 154.03 702.54 154.03 644.54 212.03 644.54 212.03 441.95 6.3 441.95" fill="#fff" stroke="#000054" stroke-linecap="round" stroke-linejoin="round" stroke-width="6"/><line x1="34.68" y1="474.67" x2="183.66" y2="474.67" fill="none" stroke="#000054" stroke-linecap="round" stroke-linejoin="round" stroke-width="6"/><line x1="34.68" y1="502.96" x2="183.66" y2="502.96" fill="none" stroke="#000054" stroke-linecap="round" stroke-linejoin="round" stroke-width="6"/><line x1="34.68" y1="531.25" x2="183.66" y2="531.25" fill="none" stroke="#000054" stroke-linecap="round" stroke-linejoin="round" stroke-width="6"/><line x1="34.68" y1="559.54" x2="183.66" y2="559.54" fill="none" stroke="#000054" stroke-linecap="round" stroke-linejoin="round" stroke-width="6"/><line x1="34.68" y1="587.83" x2="183.66" y2="587.83" fill="none" stroke="#000054" stroke-linecap="round" stroke-linejoin="round" stroke-width="6"/><line x1="34.68" y1="616.12" x2="183.66" y2="616.12" fill="none" stroke="#000054" stroke-linecap="round" stroke-linejoin="round" stroke-width="6"/><polygon points="1923.08 702.54 1981.08 644.54 1923.08 644.54 1923.08 702.54" fill="#fff" stroke="#000054" stroke-linecap="round" stroke-linejoin="round" stroke-width="6"/><polygon points="1775.35 441.95 1775.35 702.54 1923.08 702.54 1923.08 644.54 1981.08 644.54 1981.08 441.95 1775.35 441.95" fill="#fff" stroke="#000054" stroke-linecap="round" stroke-linejoin="round" stroke-width="6"/><line x1="1803.73" y1="474.67" x2="1952.71" y2="474.67" fill="none" stroke="#000054" stroke-linecap="round" stroke-linejoin="round" stroke-width="6"/><line x1="1803.73" y1="502.96" x2="1952.71" y2="502.96" fill="none" stroke="#000054" stroke-linecap="round" stroke-linejoin="round" stroke-width="6"/><line x1="1803.73" y1="531.25" x2="1952.71" y2="531.25" fill="none" stroke="#000054" stroke-linecap="round" stroke-linejoin="round" stroke-width="6"/><line x1="1803.73" y1="559.54" x2="1952.71" y2="559.54" fill="none" stroke="#000054" stroke-linecap="round" stroke-linejoin="round" stroke-width="6"/><line x1="1803.73" y1="587.83" x2="1952.71" y2="587.83" fill="none" stroke="#000054" stroke-linecap="round" stroke-linejoin="round" stroke-width="6"/><line x1="1803.73" y1="616.12" x2="1952.71" y2="616.12" fill="none" stroke="#000054" stroke-linecap="round" stroke-linejoin="round" stroke-width="6"/><rect x="534.98" y="441.95" width="260.59" height="260.59" stroke-width="6" stroke="#000054" stroke-linecap="round" stroke-linejoin="round" fill="#fff"/><path d="M695.29,559A28.33,28.33,0,1,0,655,584.71l-13,50.55h49.94l-13-50.55A28.33,28.33,0,0,0,695.29,559Z" transform="translate(-1.69 -10.74)" fill="#000054"/><rect x="1203.78" y="441.95" width="260.59" height="260.59" stroke-width="6" stroke="#000054" stroke-linecap="round" stroke-linejoin="round" fill="#fff"/><path d="M1364.1,559a28.33,28.33,0,1,0-40.3,25.67l-13,50.55h49.94l-13-50.55A28.33,28.33,0,0,0,1364.1,559Z" transform="translate(-1.69 -10.74)" fill="#000054"/><path d="M1063.82,772.29h14.82c12.9.3,19.68,7.38,19.68,21.42s-6.78,21.12-19.68,21.42h-14.82Zm4.08,39.36h8.7c12.3.06,17.64-5.16,17.64-17.94s-5.34-18-17.64-17.94h-8.7Z" transform="translate(-1.69 -10.74)" fill="#000054"/><path d="M1107.32,800.67c.06,5.52,2.94,12.18,10.2,12.18,5.52,0,8.52-3.24,9.72-7.92H1131c-1.62,7-5.7,11.1-13.5,11.1-9.84,0-14-7.56-14-16.38,0-8.16,4.14-16.38,14-16.38s13.92,8.7,13.62,17.4Zm20-3.18c-.18-5.7-3.72-11-9.84-11s-9.6,5.4-10.2,11Z" transform="translate(-1.69 -10.74)" fill="#000054"/><path d="M1159,793.89c-1-4.62-3.84-7.44-8.76-7.44-7.26,0-10.86,6.6-10.86,13.2s3.6,13.2,10.86,13.2c4.68,0,8.52-3.66,9-8.82H1163c-1,7.44-5.88,12-12.78,12-9.48,0-14.64-7.5-14.64-16.38s5.16-16.38,14.64-16.38c6.6,0,11.7,3.54,12.54,10.62Z" transform="translate(-1.69 -10.74)" fill="#000054"/><path d="M1169.18,784.17h3.48v7.26h.12a11.44,11.44,0,0,1,11.7-7.68v3.78c-6.84-.36-11.52,4.68-11.52,11.1v16.5h-3.78Z" transform="translate(-1.69 -10.74)" fill="#000054"/><path d="M1185.5,784.17h4l10.2,26.4,9.54-26.4H1213l-13.44,35.7c-2.16,5.22-3.42,6.72-8.16,6.72a9.79,9.79,0,0,1-2.88-.3v-3.18a13.11,13.11,0,0,0,2.58.3c3.36,0,4.14-2,5.4-4.86l1.32-3.54Z" transform="translate(-1.69 -10.74)" fill="#000054"/><path d="M1217.66,784.17h3.48v5.88h.12c1.74-4.2,6.06-6.78,11-6.78,9.42,0,13.92,7.62,13.92,16.38S1241.72,816,1232.3,816c-4.62,0-9.12-2.34-10.74-6.78h-.12v17.34h-3.78Zm14.64,2.28c-8.34,0-10.86,6.18-10.86,13.2,0,6.42,2.82,13.2,10.86,13.2,7.2,0,10.14-6.78,10.14-13.2S1239.5,786.45,1232.3,786.45Z" transform="translate(-1.69 -10.74)" fill="#000054"/><path d="M1259,784.17h6.3v3.18H1259v20.88c0,2.46.36,3.9,3.06,4.08a29.32,29.32,0,0,0,3.24-.18v3.24c-1.14,0-2.22.12-3.36.12-5,0-6.78-1.68-6.72-7V787.35h-5.4v-3.18h5.4v-9.3H1259Z" transform="translate(-1.69 -10.74)" fill="#000054"/><path d="M1271.72,772.29h3.78v6.06h-3.78Zm0,11.88h3.78v31h-3.78Z" transform="translate(-1.69 -10.74)" fill="#000054"/><path d="M1311.38,799.65c0,8.88-5.16,16.38-14.64,16.38s-14.64-7.5-14.64-16.38,5.16-16.38,14.64-16.38S1311.38,790.77,1311.38,799.65Zm-25.5,0c0,6.6,3.6,13.2,10.86,13.2s10.86-6.6,10.86-13.2-3.6-13.2-10.86-13.2S1285.88,793.05,1285.88,799.65Z" transform="translate(-1.69 -10.74)" fill="#000054"/><path d="M1317.86,784.17h3.78v5.34h.12c1.38-3.72,5.52-6.24,9.9-6.24,8.7,0,11.34,4.56,11.34,11.94v19.92h-3.78V795.81c0-5.34-1.74-9.36-7.86-9.36s-9.6,4.56-9.72,10.62v18.06h-3.78Z" transform="translate(-1.69 -10.74)" fill="#000054"/><path d="M1368.26,793.65c.36-7.26,5.46-10.38,12.54-10.38,5.46,0,11.4,1.68,11.4,10v16.44a2,2,0,0,0,2.22,2.28,3.55,3.55,0,0,0,1.2-.24v3.18a10.37,10.37,0,0,1-2.46.24c-3.84,0-4.44-2.16-4.44-5.4h-.12c-2.64,4-5.34,6.3-11.28,6.3-5.7,0-10.38-2.82-10.38-9.06,0-8.7,8.46-9,16.62-10,3.12-.36,4.86-.78,4.86-4.2,0-5.1-3.66-6.36-8.1-6.36-4.68,0-8.16,2.16-8.28,7.2Zm20.16,4.56h-.12c-.48.9-2.16,1.2-3.18,1.38-6.42,1.14-14.4,1.08-14.4,7.14,0,3.78,3.36,6.12,6.9,6.12,5.76,0,10.86-3.66,10.8-9.72Z" transform="translate(-1.69 -10.74)" fill="#000054"/><path d="M1400.72,772.29h3.78v42.84h-3.78Z" transform="translate(-1.69 -10.74)" fill="#000054"/><path d="M1438.82,812.61c-.06,9.24-3.6,14.88-13.74,14.88-6.18,0-12.3-2.76-12.84-9.36H1416c.84,4.56,4.86,6.18,9.06,6.18,7,0,10-4.14,10-11.7v-4.2h-.12a10.73,10.73,0,0,1-9.84,6.36c-9.9,0-14-7.08-14-15.9,0-8.52,5-15.6,14-15.6a10.89,10.89,0,0,1,9.84,6.24h.12v-5.34h3.78ZM1435,799.29c0-6.06-2.82-12.84-10-12.84s-10.2,6.42-10.2,12.84c0,6.24,3.24,12.3,10.2,12.3C1431.62,811.59,1435,805.59,1435,799.29Z" transform="translate(-1.69 -10.74)" fill="#000054"/><path d="M1474.64,799.65c0,8.88-5.16,16.38-14.64,16.38s-14.64-7.5-14.64-16.38,5.16-16.38,14.64-16.38S1474.64,790.77,1474.64,799.65Zm-25.5,0c0,6.6,3.6,13.2,10.86,13.2s10.86-6.6,10.86-13.2-3.6-13.2-10.86-13.2S1449.14,793.05,1449.14,799.65Z" transform="translate(-1.69 -10.74)" fill="#000054"/><path d="M1481.18,784.17h3.48v7.26h.12a11.44,11.44,0,0,1,11.7-7.68v3.78c-6.84-.36-11.52,4.68-11.52,11.1v16.5h-3.78Z" transform="translate(-1.69 -10.74)" fill="#000054"/><path d="M1501,772.29h3.78v6.06H1501Zm0,11.88h3.78v31H1501Z" transform="translate(-1.69 -10.74)" fill="#000054"/><path d="M1519,784.17h6.3v3.18H1519v20.88c0,2.46.36,3.9,3.06,4.08a29.32,29.32,0,0,0,3.24-.18v3.24c-1.14,0-2.22.12-3.36.12-5,0-6.78-1.68-6.72-7V787.35h-5.4v-3.18h5.4v-9.3H1519Z" transform="translate(-1.69 -10.74)" fill="#000054"/><path d="M1531.58,772.29h3.78v17.22h.12c1.38-3.72,5.52-6.24,9.9-6.24,8.7,0,11.34,4.56,11.34,11.94v19.92h-3.78V795.81c0-5.34-1.74-9.36-7.86-9.36s-9.6,4.56-9.72,10.62v18.06h-3.78Z" transform="translate(-1.69 -10.74)" fill="#000054"/><path d="M1564.76,784.17h3.48v5.22h.18a10.81,10.81,0,0,1,10.14-6.12c4.08,0,7.74,2,8.88,6.06a10.47,10.47,0,0,1,9.84-6.06c6.78,0,10.26,3.54,10.26,10.86v21h-3.79V794.31c0-5.1-1.92-7.86-7.31-7.86-6.54,0-8.4,5.4-8.4,11.16v17.52h-3.78v-21c.06-4.2-1.68-7.68-6.48-7.68-6.54,0-9.18,4.92-9.24,11.4v17.28h-3.78Z" transform="translate(-1.69 -10.74)" fill="#000054"/><path d="M1060.07,898.59c-5.34-8.82-8.46-17-8.46-27.42a51.19,51.19,0,0,1,8.46-27.78h3c-5.34,8.52-7.68,18.6-7.68,29.16,0,8.7,3.12,18.6,7.68,26Z" transform="translate(-1.69 -10.74)" fill="#000054"/><path d="M1067.51,856.17H1071v7.26h.12a11.44,11.44,0,0,1,11.7-7.68v3.78c-6.84-.36-11.52,4.68-11.52,11.1v16.5h-3.78Z" transform="translate(-1.69 -10.74)" fill="#000054"/><path d="M1089.53,872.67c.06,5.52,2.94,12.18,10.2,12.18,5.52,0,8.52-3.24,9.72-7.92h3.78c-1.62,7-5.7,11.1-13.5,11.1-9.84,0-14-7.56-14-16.38,0-8.16,4.14-16.38,14-16.38s13.92,8.7,13.62,17.4Zm20-3.18c-.18-5.7-3.72-11-9.84-11s-9.6,5.4-10.2,11Z" transform="translate(-1.69 -10.74)" fill="#000054"/><path d="M1115.87,856.17h4.2l9.72,27.18h.12l9.6-27.18h3.9l-11.58,31h-4Z" transform="translate(-1.69 -10.74)" fill="#000054"/><path d="M1150.25,872.67c.06,5.52,2.94,12.18,10.2,12.18,5.52,0,8.52-3.24,9.72-7.92H1174c-1.62,7-5.7,11.1-13.5,11.1-9.84,0-14-7.56-14-16.38,0-8.16,4.14-16.38,14-16.38s13.92,8.7,13.62,17.4Zm20-3.18c-.18-5.7-3.72-11-9.84-11s-9.6,5.4-10.2,11Z" transform="translate(-1.69 -10.74)" fill="#000054"/><path d="M1180.07,856.17h3.48v7.26h.12a11.44,11.44,0,0,1,11.7-7.68v3.78c-6.84-.36-11.52,4.68-11.52,11.1v16.5h-3.78Z" transform="translate(-1.69 -10.74)" fill="#000054"/><path d="M1218.41,865.23c-.18-4.68-3.78-6.78-8.1-6.78-3.36,0-7.32,1.32-7.32,5.34,0,3.36,3.84,4.56,6.42,5.22l5,1.14c4.32.66,8.82,3.18,8.82,8.58,0,6.72-6.66,9.3-12.42,9.3-7.2,0-12.12-3.36-12.72-10.92h3.78c.3,5.1,4.08,7.74,9.12,7.74,3.54,0,8.46-1.56,8.46-5.88,0-3.6-3.36-4.8-6.78-5.64l-4.86-1.08c-4.92-1.32-8.64-3-8.64-8.28,0-6.3,6.18-8.7,11.64-8.7,6.18,0,11.1,3.24,11.34,10Z" transform="translate(-1.69 -10.74)" fill="#000054"/><path d="M1231.85,872.67c.06,5.52,2.94,12.18,10.2,12.18,5.52,0,8.52-3.24,9.72-7.92h3.78c-1.62,7-5.7,11.1-13.5,11.1-9.84,0-14-7.56-14-16.38,0-8.16,4.14-16.38,14-16.38s13.92,8.7,13.62,17.4Zm20-3.18c-.18-5.7-3.72-11-9.84-11s-9.6,5.4-10.2,11Z" transform="translate(-1.69 -10.74)" fill="#000054"/><path d="M1307,871.65c0,8.88-5.16,16.38-14.64,16.38s-14.64-7.5-14.64-16.38,5.16-16.38,14.64-16.38S1307,862.77,1307,871.65Zm-25.5,0c0,6.6,3.6,13.2,10.86,13.2s10.86-6.6,10.86-13.2-3.6-13.2-10.86-13.2S1281.47,865.05,1281.47,871.65Z" transform="translate(-1.69 -10.74)" fill="#000054"/><path d="M1325.45,859.35h-6.12v27.78h-3.78V859.35h-5.28v-3.18h5.28v-2.82c-.06-5.34,1.44-9.06,7.5-9.06a19.9,19.9,0,0,1,3.18.24v3.24a15.49,15.49,0,0,0-2.76-.3c-4.2,0-4.08,2.64-4.14,6v2.7h6.12Z" transform="translate(-1.69 -10.74)" fill="#000054"/><path d="M1349.75,872.67c.06,5.52,2.94,12.18,10.2,12.18,5.52,0,8.52-3.24,9.72-7.92h3.78c-1.62,7-5.7,11.1-13.5,11.1-9.84,0-14-7.56-14-16.38,0-8.16,4.14-16.38,14-16.38s13.92,8.7,13.62,17.4Zm20-3.18c-.18-5.7-3.72-11-9.84-11s-9.6,5.4-10.2,11Z" transform="translate(-1.69 -10.74)" fill="#000054"/><path d="M1379.51,856.17h3.78v5.34h.12c1.38-3.72,5.52-6.24,9.9-6.24,8.7,0,11.34,4.56,11.34,11.94v19.92h-3.78V867.81c0-5.34-1.74-9.36-7.86-9.36s-9.6,4.56-9.72,10.62v18.06h-3.78Z" transform="translate(-1.69 -10.74)" fill="#000054"/><path d="M1434.53,865.89c-1-4.62-3.84-7.44-8.76-7.44-7.26,0-10.86,6.6-10.86,13.2s3.6,13.2,10.86,13.2c4.68,0,8.52-3.66,9-8.82h3.78c-1,7.44-5.88,12-12.78,12-9.48,0-14.64-7.5-14.64-16.38s5.16-16.38,14.64-16.38c6.6,0,11.7,3.54,12.54,10.62Z" transform="translate(-1.69 -10.74)" fill="#000054"/><path d="M1444.73,856.17h3.48v7.26h.12a11.44,11.44,0,0,1,11.7-7.68v3.78c-6.84-.36-11.52,4.68-11.52,11.1v16.5h-3.78Z" transform="translate(-1.69 -10.74)" fill="#000054"/><path d="M1461.05,856.17h4l10.2,26.4,9.54-26.4h3.78l-13.44,35.7c-2.16,5.22-3.42,6.72-8.16,6.72a9.79,9.79,0,0,1-2.88-.3v-3.18a13.11,13.11,0,0,0,2.58.3c3.36,0,4.14-2,5.4-4.86l1.32-3.54Z" transform="translate(-1.69 -10.74)" fill="#000054"/><path d="M1493.21,856.17h3.48v5.88h.12c1.74-4.2,6.06-6.78,11-6.78,9.42,0,13.92,7.62,13.92,16.38s-4.5,16.38-13.92,16.38c-4.62,0-9.12-2.34-10.74-6.78H1497v17.34h-3.78Zm14.64,2.28c-8.34,0-10.86,6.18-10.86,13.2,0,6.42,2.82,13.2,10.86,13.2,7.2,0,10.14-6.78,10.14-13.2S1515.05,858.45,1507.85,858.45Z" transform="translate(-1.69 -10.74)" fill="#000054"/><path d="M1534.55,856.17h6.3v3.18h-6.3v20.88c0,2.46.36,3.9,3.06,4.08a29.32,29.32,0,0,0,3.24-.18v3.24c-1.14,0-2.22.12-3.36.12-5,0-6.78-1.68-6.72-7V859.35h-5.4v-3.18h5.4v-9.3h3.78Z" transform="translate(-1.69 -10.74)" fill="#000054"/><path d="M1547.27,844.29h3.78v6.06h-3.78Zm0,11.88h3.78v31h-3.78Z" transform="translate(-1.69 -10.74)" fill="#000054"/><path d="M1586.93,871.65c0,8.88-5.16,16.38-14.64,16.38s-14.64-7.5-14.64-16.38,5.16-16.38,14.64-16.38S1586.93,862.77,1586.93,871.65Zm-25.5,0c0,6.6,3.6,13.2,10.86,13.2s10.86-6.6,10.86-13.2-3.6-13.2-10.86-13.2S1561.43,865.05,1561.43,871.65Z" transform="translate(-1.69 -10.74)" fill="#000054"/><path d="M1593.41,856.17h3.78v5.34h.12c1.38-3.72,5.52-6.24,9.9-6.24,8.7,0,11.34,4.56,11.34,11.94v19.92h-3.78V867.81c0-5.34-1.74-9.36-7.86-9.36s-9.6,4.56-9.72,10.62v18.06h-3.78Z" transform="translate(-1.69 -10.74)" fill="#000054"/><path d="M1207.82,937.65c.36-7.26,5.46-10.38,12.54-10.38,5.46,0,11.4,1.68,11.4,10v16.44A2,2,0,0,0,1234,956a3.55,3.55,0,0,0,1.2-.24v3.18a10.37,10.37,0,0,1-2.46.24c-3.84,0-4.44-2.16-4.44-5.4h-.12c-2.64,4-5.34,6.3-11.28,6.3-5.7,0-10.38-2.82-10.38-9.06,0-8.7,8.46-9,16.62-10,3.12-.36,4.86-.78,4.86-4.2,0-5.1-3.66-6.36-8.1-6.36-4.68,0-8.16,2.16-8.28,7.2Zm20.16,4.56h-.12c-.48.9-2.16,1.2-3.18,1.38-6.42,1.14-14.4,1.08-14.4,7.14,0,3.78,3.36,6.12,6.9,6.12,5.76,0,10.86-3.66,10.8-9.72Z" transform="translate(-1.69 -10.74)" fill="#000054"/><path d="M1240.28,916.29h3.78v42.84h-3.78Z" transform="translate(-1.69 -10.74)" fill="#000054"/><path d="M1278.38,956.61c-.06,9.24-3.6,14.88-13.74,14.88-6.18,0-12.3-2.76-12.84-9.36h3.78c.84,4.56,4.86,6.18,9.06,6.18,7,0,10-4.14,10-11.7v-4.2h-.12a10.73,10.73,0,0,1-9.84,6.36c-9.9,0-14-7.08-14-15.9,0-8.52,5-15.6,14-15.6a10.89,10.89,0,0,1,9.84,6.24h.12v-5.34h3.78Zm-3.78-13.32c0-6.06-2.82-12.84-10-12.84s-10.2,6.42-10.2,12.84c0,6.24,3.24,12.3,10.2,12.3C1271.18,955.59,1274.6,949.59,1274.6,943.29Z" transform="translate(-1.69 -10.74)" fill="#000054"/><path d="M1314.2,943.65c0,8.88-5.16,16.38-14.64,16.38s-14.64-7.5-14.64-16.38,5.16-16.38,14.64-16.38S1314.2,934.77,1314.2,943.65Zm-25.5,0c0,6.6,3.6,13.2,10.86,13.2s10.86-6.6,10.86-13.2-3.6-13.2-10.86-13.2S1288.7,937.05,1288.7,943.65Z" transform="translate(-1.69 -10.74)" fill="#000054"/><path d="M1320.74,928.17h3.48v7.26h.12a11.44,11.44,0,0,1,11.7-7.68v3.78c-6.84-.36-11.52,4.68-11.52,11.1v16.5h-3.78Z" transform="translate(-1.69 -10.74)" fill="#000054"/><path d="M1340.6,916.29h3.78v6.06h-3.78Zm0,11.88h3.78v31h-3.78Z" transform="translate(-1.69 -10.74)" fill="#000054"/><path d="M1358.54,928.17h6.3v3.18h-6.3v20.88c0,2.46.36,3.9,3.06,4.08a29.32,29.32,0,0,0,3.24-.18v3.24c-1.14,0-2.22.12-3.36.12-5,0-6.78-1.68-6.72-7V931.35h-5.4v-3.18h5.4v-9.3h3.78Z" transform="translate(-1.69 -10.74)" fill="#000054"/><path d="M1371.14,916.29h3.78v17.22h.12c1.38-3.72,5.52-6.24,9.9-6.24,8.7,0,11.34,4.56,11.34,11.94v19.92h-3.78V939.81c0-5.34-1.74-9.36-7.86-9.36s-9.6,4.56-9.72,10.62v18.06h-3.78Z" transform="translate(-1.69 -10.74)" fill="#000054"/><path d="M1404.32,928.17h3.48v5.22h.18a10.81,10.81,0,0,1,10.14-6.12c4.08,0,7.74,2,8.88,6.06a10.47,10.47,0,0,1,9.84-6.06c6.78,0,10.26,3.54,10.26,10.86v21h-3.78V938.31c0-5.1-1.92-7.86-7.32-7.86-6.54,0-8.4,5.4-8.4,11.16v17.52h-3.78v-21c.06-4.2-1.68-7.68-6.48-7.68-6.54,0-9.18,4.92-9.24,11.4v17.28h-3.78Z" transform="translate(-1.69 -10.74)" fill="#000054"/><path d="M1454.54,915.39c5.34,8.82,8.46,17,8.46,27.42a51.19,51.19,0,0,1-8.46,27.78h-3c5.34-8.52,7.68-18.6,7.68-29.16,0-8.7-3.12-18.6-7.68-26Z" transform="translate(-1.69 -10.74)" fill="#000054"/></svg>